<?xml version="1.0" encoding="UTF-8" standalone="no"?>
<!-- Created with Inkscape (http://www.inkscape.org/) -->
<svg
   xmlns:dc="http://purl.org/dc/elements/1.1/"
   xmlns:cc="http://web.resource.org/cc/"
   xmlns:rdf="http://www.w3.org/1999/02/22-rdf-syntax-ns#"
   xmlns:svg="http://www.w3.org/2000/svg"
   xmlns="http://www.w3.org/2000/svg"
   xmlns:sodipodi="http://sodipodi.sourceforge.net/DTD/sodipodi-0.dtd"
   xmlns:inkscape="http://www.inkscape.org/namespaces/inkscape"
   width="4096"
   height="4096"
   id="svg2"
   sodipodi:version="0.32"
   inkscape:version="0.45.1"
   sodipodi:docbase="E:\laser graphics\company logos"
   sodipodi:docname="bmw_logo.svg"
   inkscape:output_extension="org.inkscape.output.svg.inkscape"
   version="1.0">
  <defs
     id="defs4" />
  <sodipodi:namedview
     id="base"
     pagecolor="#000000"
     bordercolor="#666666"
     borderopacity="1.0"
     gridtolerance="50"
     guidetolerance="10"
     objecttolerance="10"
     inkscape:pageopacity="1"
     inkscape:pageshadow="2"
     inkscape:zoom="0.86389426"
     inkscape:cx="3004.2529"
     inkscape:cy="2065.3208"
     inkscape:document-units="px"
     inkscape:current-layer="layer1"
     showguides="true"
     inkscape:guide-bbox="false"
     inkscape:window-width="1032"
     inkscape:window-height="929"
     inkscape:window-x="22"
     inkscape:window-y="22"
     width="4096px"
     height="4096px"
     showgrid="true"
     inkscape:object-paths="true"
     inkscape:grid-bbox="false"
     gridempspacing="20"
     gridcolor="#ffffff"
     gridopacity="0.12941176"
     gridempcolor="#ffffff"
     gridempopacity="0.40784314"
     guidecolor="#ffffff"
     guideopacity="0.28627451"
     guidehicolor="#ff0000"
     guidehiopacity="0.64313725"
     borderlayer="false"
     showborder="true"
     inkscape:showpageshadow="true">
    <sodipodi:guide
       orientation="horizontal"
       position="410"
       id="guide2164" />
    <sodipodi:guide
       orientation="vertical"
       position="411.12022"
       id="guide2166" />
  </sodipodi:namedview>
  <metadata
     id="metadata7">
    <rdf:RDF>
      <cc:Work
         rdf:about="">
        <dc:format>image/svg+xml</dc:format>
        <dc:type
           rdf:resource="http://purl.org/dc/dcmitype/StillImage" />
      </cc:Work>
    </rdf:RDF>
  </metadata>
  <g
     inkscape:label="Layer 1"
     inkscape:groupmode="layer"
     id="layer1">
    <path
       style="fill:none;stroke:#005eff;stroke-opacity:1;stroke-width:4;stroke-miterlimit:4;stroke-dasharray:none"
       d="M 1974.9486,1081.0202 C 1336.4895,1159.4458 938.35199,1823.0463 1172.27,2418.8943 C 1296.9644,2736.5225 1560.2818,2959.0467 1901.6091,3035.2442 C 1989.9206,3054.9588 2251.5577,3047.6817 2338.4949,3023.0927 C 2434.7616,2995.8652 2475.3864,2979.592 2564.8565,2932.4183 C 2970.1661,2718.7161 3174.2433,2234.4395 3045.7875,1791.1655 C 2937.2733,1416.7059 2625.5528,1142.5574 2242.6574,1084.8379 C 2137.7306,1069.0207 2079.4073,1068.189 1974.9486,1081.0202"
       id="path3257"
       sodipodi:nodetypes="ccccsccc" />
    <path
       style="fill:none;stroke:#ffffff;stroke-opacity:1;stroke-width:4;stroke-miterlimit:4;stroke-dasharray:none"
       d="M 2094.7586,1133.453 L 2094.7586,1599.1199 L 2092.285,1937.941 L 2094.7586,2524.7518 L 2094.7586,2984.5465 L 2149.1351,2984.5465 C 2226.1166,2984.5465 2326.6626,2963.4865 2423.7036,2927.0365 C 2692.8134,2825.9548 2909.1585,2589.6212 2985.695,2313.122 C 3000.6525,2259.0856 3026.7823,2165.9919 3023.6403,2071.6851 L 2559.2372,2064.7869 L 1629.3377,2063.6798 L 1170.4003,2060.1881 L 1173.7112,1991.2062 C 1178.19,1897.8929 1213.3296,1763.4872 1257.1668,1671.9969 C 1405.0905,1363.2732 1679.5727,1173.8338 2028.076,1139.9385 L 2094.7586,1133.453"
       id="path3255"
       sodipodi:nodetypes="cccccccccccccscc" />
    <path
       style="fill:none;stroke:#ffffff;stroke-opacity:1;stroke-width:4;stroke-miterlimit:4;stroke-dasharray:none"
       d="M 2775.957,1241.6022 L 2847.5011,1332.0409 L 3077.131,1241.6131 L 2940.1066,1447.8464 L 3014.5181,1540.119 L 3391.2466,1356.5721 L 3328.7991,1279.3723 L 3101.8639,1381.652 L 3242.3661,1176.0871 L 3178.641,1091.16 L 2949.644,1189.1998 L 3088.0989,987.58271 L 3027.6385,907.33354 L 2775.957,1241.6022"
       id="path3253"
       sodipodi:nodetypes="cccccccccccccc" />
    <path
       style="fill:none;stroke:#ffffff;stroke-opacity:1;stroke-width:4;stroke-miterlimit:4;stroke-dasharray:none"
       d="M 1152.8386,1531.3264 L 1250.6265,1418.6559 C 1322.4559,1333.8622 1359.2668,1289.3343 1378.8379,1260.136 C 1394.5426,1236.706 1399.6791,1223.2247 1401.8358,1206.5744 C 1410.3887,1140.5428 1353.3295,1087.1521 1282.1118,1096.809 C 1260.8259,1099.6953 1264.787,1098.9758 1243.8026,1101.9227 C 1245.3371,1088.074 1245.17,1079.2156 1245.17,1067.9327 C 1245.17,1033.7679 1222.3237,998.4777 1189.0753,981.28428 C 1145.9023,964.09185 1093.7119,968.1164 1059.791,1009.5206 L 843.24146,1267.5081 L 1152.8386,1531.3264"
       id="path3251"
       sodipodi:nodetypes="ccssscscccc" />
    <path
       style="fill:none;stroke:#ffffff;stroke-opacity:1;stroke-width:4;stroke-miterlimit:4;stroke-dasharray:none"
       d="M 962.73038,1232.4046 L 1072.9615,1107.1195 C 1092.0105,1088.571 1104.6768,1080.6442 1114.0259,1080.6442 C 1137.9894,1080.6442 1165.8015,1106.6507 1165.8015,1129.0584 C 1165.8015,1133.535 1156.2998,1151.953 1138.9706,1172.2926 L 1036.8195,1292.1889 L 962.73038,1232.4046 z "
       id="path3247"
       sodipodi:nodetypes="ccssscc" />
    <path
       style="fill:none;stroke:#ffffff;stroke-opacity:1;stroke-width:4;stroke-miterlimit:4;stroke-dasharray:none"
       d="M 1947.5971,1007.0635 L 1944.7613,739.0617 L 2058.6832,1007.0949 L 2147.598,1007.9434 L 2246.5189,745.95752 L 2251.6228,1007.0635 L 2333.8961,1007.0635 L 2333.8961,600.05419 L 2217.7433,600.06989 L 2103.5587,872.59333 L 1993.8594,602.33788 L 1864.8187,601.5634 L 1864.8187,1007.0635 L 1947.5971,1007.0635"
       id="path2271"
       sodipodi:nodetypes="cccccccccccccc" />
    <path
       style="fill:none;fill-opacity:1;fill-rule:evenodd;stroke:#00ffff;stroke-width:4;stroke-linejoin:miter;stroke-miterlimit:4;stroke-dashoffset:0;stroke-opacity:1"
       d="M 2098.6375,517.62634 C 2510.46,517.62634 2884.8703,678.78691 3162.1992,941.43903 C 3460.026,1223.5042 3645.8903,1622.6182 3645.8903,2064.8792 C 3645.8903,2491.7822 3472.7106,2878.4828 3192.8182,3158.5139 C 2912.7438,3438.727 2525.818,3612.132 2098.6375,3612.132 C 1689.3015,3612.132 1316.9274,3452.9117 1040.1099,3193.0659 C 739.34482,2910.7408 551.38464,2509.6268 551.38464,2064.8792 C 551.38464,1626.0244 734.39695,1229.6545 1028.2143,947.97705 C 1306.2137,681.46387 1683.4087,517.62634 2098.6375,517.62634"
       id="path4252"
       sodipodi:nodetypes="cscssssss" />
    <path
       style="fill:none;stroke:#ffffff;stroke-width:4;stroke-miterlimit:4;stroke-dasharray:none;stroke-opacity:1"
       d="M 1095.3702,1346.507 L 1205.6013,1221.2219 C 1224.6503,1202.6734 1237.3166,1194.7466 1246.6657,1194.7466 C 1270.6292,1194.7466 1298.4413,1220.7531 1298.4413,1243.1608 C 1298.4413,1247.6374 1288.9396,1266.0554 1271.6104,1286.395 L 1169.4593,1406.2913 L 1095.3702,1346.507 z "
       id="path2167"
       sodipodi:nodetypes="ccssscc" />
  </g>
</svg>
