<?xml version="1.0" encoding="UTF-8" standalone="no"?>
<!-- Created with Inkscape (http://www.inkscape.org/) -->
<svg
   xmlns:dc="http://purl.org/dc/elements/1.1/"
   xmlns:cc="http://web.resource.org/cc/"
   xmlns:rdf="http://www.w3.org/1999/02/22-rdf-syntax-ns#"
   xmlns:svg="http://www.w3.org/2000/svg"
   xmlns="http://www.w3.org/2000/svg"
   xmlns:xlink="http://www.w3.org/1999/xlink"
   xmlns:sodipodi="http://sodipodi.sourceforge.net/DTD/sodipodi-0.dtd"
   xmlns:inkscape="http://www.inkscape.org/namespaces/inkscape"
   width="4096"
   height="4096"
   id="svg2"
   sodipodi:version="0.32"
   inkscape:version="0.44+devel"
   version="1.0"
   sodipodi:docbase="H:\laser graphics"
   sodipodi:docname="chinese thank you.svg"
   inkscape:output_extension="org.inkscape.output.svg.inkscape"
   sodipodi:modified="true">
  <defs
     id="defs4">
    <marker
       inkscape:stockid="Arrow1Lend"
       orient="auto"
       refY="0.0"
       refX="0.0"
       id="Arrow1Lend"
       style="overflow:visible;">
      <path
         id="path3283"
         d="M 0.0,0.0 L 5.0,-5.0 L -12.5,0.0 L 5.0,5.0 L 0.0,0.0 z "
         style="fill-rule:evenodd;stroke:#000000;stroke-width:1.0pt;marker-start:none;"
         transform="scale(0.8) rotate(180) translate(12.5,0)" />
    </marker>
    <linearGradient
       id="linearGradient3066">
      <stop
         style="stop-color:white;stop-opacity:1;"
         offset="0"
         id="stop3068" />
      <stop
         style="stop-color:yellow;stop-opacity:1;"
         offset="1"
         id="stop3070" />
    </linearGradient>
    <linearGradient
       inkscape:collect="always"
       xlink:href="#linearGradient3066"
       id="linearGradient3072"
       x1="2564.9783"
       y1="2047.0721"
       x2="2821.2603"
       y2="2145.7495"
       gradientUnits="userSpaceOnUse" />
    <linearGradient
       inkscape:collect="always"
       xlink:href="#linearGradient3066"
       id="linearGradient3074"
       x1="2551.7644"
       y1="2156.5044"
       x2="2674.5288"
       y2="2156.5044"
       gradientUnits="userSpaceOnUse" />
    <linearGradient
       inkscape:collect="always"
       xlink:href="#linearGradient3066"
       id="linearGradient3076"
       x1="2400.9109"
       y1="2049.6189"
       x2="2478.0735"
       y2="2049.6189"
       gradientUnits="userSpaceOnUse" />
    <linearGradient
       inkscape:collect="always"
       xlink:href="#linearGradient3066"
       id="linearGradient3078"
       x1="2393.0132"
       y1="1986.257"
       x2="2478.6355"
       y2="1986.257"
       gradientUnits="userSpaceOnUse" />
    <linearGradient
       inkscape:collect="always"
       xlink:href="#linearGradient3066"
       id="linearGradient3080"
       x1="2397.5776"
       y1="1911.9222"
       x2="2478.6355"
       y2="1911.9222"
       gradientUnits="userSpaceOnUse" />
    <linearGradient
       inkscape:collect="always"
       xlink:href="#linearGradient3066"
       id="linearGradient3082"
       x1="2202.0454"
       y1="2061.4451"
       x2="2567.4277"
       y2="2061.4451"
       gradientUnits="userSpaceOnUse" />
    <linearGradient
       inkscape:collect="always"
       xlink:href="#linearGradient3066"
       id="linearGradient3084"
       x1="2140.4966"
       y1="1860.7114"
       x2="2356.2021"
       y2="1860.7114"
       gradientUnits="userSpaceOnUse" />
    <linearGradient
       inkscape:collect="always"
       xlink:href="#linearGradient3066"
       id="linearGradient3086"
       x1="2213.4443"
       y1="1717.9095"
       x2="2326.4678"
       y2="1717.9095"
       gradientUnits="userSpaceOnUse" />
    <linearGradient
       inkscape:collect="always"
       xlink:href="#linearGradient3066"
       id="linearGradient3088"
       x1="2201.2012"
       y1="2235.3296"
       x2="2242.374"
       y2="2235.3296"
       gradientUnits="userSpaceOnUse" />
    <linearGradient
       inkscape:collect="always"
       xlink:href="#linearGradient3066"
       id="linearGradient3090"
       x1="2156.5095"
       y1="2232.3962"
       x2="2318.4258"
       y2="2232.3962"
       gradientUnits="userSpaceOnUse" />
    <linearGradient
       inkscape:collect="always"
       xlink:href="#linearGradient3066"
       id="linearGradient3092"
       x1="2188.8811"
       y1="2067.2271"
       x2="2314.0012"
       y2="2067.2271"
       gradientUnits="userSpaceOnUse" />
    <linearGradient
       inkscape:collect="always"
       xlink:href="#linearGradient3066"
       id="linearGradient3094"
       x1="1783.1306"
       y1="2019.9795"
       x2="2057.1123"
       y2="2019.9795"
       gradientUnits="userSpaceOnUse" />
    <linearGradient
       inkscape:collect="always"
       xlink:href="#linearGradient3066"
       id="linearGradient3096"
       x1="1662.348"
       y1="1993.5139"
       x2="1706.769"
       y2="1993.5139"
       gradientUnits="userSpaceOnUse" />
    <linearGradient
       inkscape:collect="always"
       xlink:href="#linearGradient3066"
       id="linearGradient3098"
       x1="1670.6569"
       y1="1906.2642"
       x2="1719.118"
       y2="1906.2642"
       gradientUnits="userSpaceOnUse" />
    <linearGradient
       inkscape:collect="always"
       xlink:href="#linearGradient3066"
       id="linearGradient3100"
       x1="1561.5237"
       y1="2093.6389"
       x2="1787.4749"
       y2="2093.6389"
       gradientUnits="userSpaceOnUse" />
    <linearGradient
       inkscape:collect="always"
       xlink:href="#linearGradient3066"
       id="linearGradient3102"
       x1="1442.1147"
       y1="2259.2185"
       x2="1480.3975"
       y2="2259.2185"
       gradientUnits="userSpaceOnUse" />
    <linearGradient
       inkscape:collect="always"
       xlink:href="#linearGradient3066"
       id="linearGradient3104"
       x1="1395.182"
       y1="2261.1763"
       x2="1551.5739"
       y2="2261.1763"
       gradientUnits="userSpaceOnUse" />
    <linearGradient
       inkscape:collect="always"
       xlink:href="#linearGradient3066"
       id="linearGradient3106"
       x1="1405.8098"
       y1="2101.5681"
       x2="1535.293"
       y2="2101.5681"
       gradientUnits="userSpaceOnUse" />
    <linearGradient
       inkscape:collect="always"
       xlink:href="#linearGradient3066"
       id="linearGradient3108"
       x1="1421.7661"
       y1="1992.0485"
       x2="1539.9181"
       y2="1992.0485"
       gradientUnits="userSpaceOnUse" />
    <linearGradient
       inkscape:collect="always"
       xlink:href="#linearGradient3066"
       id="linearGradient3110"
       x1="1385.5754"
       y1="1879.9355"
       x2="1589.0217"
       y2="1879.9355"
       gradientUnits="userSpaceOnUse" />
    <linearGradient
       inkscape:collect="always"
       xlink:href="#linearGradient3066"
       id="linearGradient3112"
       x1="1597.1969"
       y1="1760.8541"
       x2="1787.3861"
       y2="1760.8541"
       gradientUnits="userSpaceOnUse" />
    <linearGradient
       inkscape:collect="always"
       xlink:href="#linearGradient3066"
       id="linearGradient3114"
       x1="1435.4784"
       y1="1713.6746"
       x2="1580.5071"
       y2="1713.6746"
       gradientUnits="userSpaceOnUse" />
    <linearGradient
       inkscape:collect="always"
       xlink:href="#linearGradient3066"
       id="linearGradient3139"
       gradientUnits="userSpaceOnUse"
       x1="2114.5383"
       y1="1603.9127"
       x2="2120.5354"
       y2="2423.3098"
       gradientTransform="matrix(2.738061,0,0,2.741856,-3690.817,-3546.473)" />
    <linearGradient
       inkscape:collect="always"
       xlink:href="#linearGradient3066"
       id="linearGradient2205"
       gradientUnits="userSpaceOnUse"
       gradientTransform="matrix(2.738061,0,0,2.741856,-3690.817,-3546.473)"
       x1="2114.5383"
       y1="1603.9127"
       x2="2120.5354"
       y2="2423.3098" />
    <linearGradient
       inkscape:collect="always"
       xlink:href="#linearGradient3066"
       id="linearGradient2207"
       gradientUnits="userSpaceOnUse"
       gradientTransform="matrix(2.738061,0,0,2.741856,-3690.817,-3546.473)"
       x1="2114.5383"
       y1="1603.9127"
       x2="2120.5354"
       y2="2423.3098" />
    <linearGradient
       inkscape:collect="always"
       xlink:href="#linearGradient3066"
       id="linearGradient2209"
       gradientUnits="userSpaceOnUse"
       gradientTransform="matrix(2.738061,0,0,2.741856,-3690.817,-3546.473)"
       x1="2114.5383"
       y1="1603.9127"
       x2="2120.5354"
       y2="2423.3098" />
    <linearGradient
       inkscape:collect="always"
       xlink:href="#linearGradient3066"
       id="linearGradient2211"
       gradientUnits="userSpaceOnUse"
       gradientTransform="matrix(2.738061,0,0,2.741856,-3690.817,-3546.473)"
       x1="2114.5383"
       y1="1603.9127"
       x2="2120.5354"
       y2="2423.3098" />
    <linearGradient
       inkscape:collect="always"
       xlink:href="#linearGradient3066"
       id="linearGradient2213"
       gradientUnits="userSpaceOnUse"
       gradientTransform="matrix(2.738061,0,0,2.741856,-3690.817,-3546.473)"
       x1="2114.5383"
       y1="1603.9127"
       x2="2120.5354"
       y2="2423.3098" />
    <linearGradient
       inkscape:collect="always"
       xlink:href="#linearGradient3066"
       id="linearGradient2215"
       gradientUnits="userSpaceOnUse"
       gradientTransform="matrix(2.738061,0,0,2.741856,-3690.817,-3546.473)"
       x1="2114.5383"
       y1="1603.9127"
       x2="2120.5354"
       y2="2423.3098" />
    <linearGradient
       inkscape:collect="always"
       xlink:href="#linearGradient3066"
       id="linearGradient2217"
       gradientUnits="userSpaceOnUse"
       gradientTransform="matrix(2.738061,0,0,2.741856,-3690.817,-3546.473)"
       x1="2114.5383"
       y1="1603.9127"
       x2="2120.5354"
       y2="2423.3098" />
    <linearGradient
       inkscape:collect="always"
       xlink:href="#linearGradient3066"
       id="linearGradient2219"
       gradientUnits="userSpaceOnUse"
       gradientTransform="matrix(2.738061,0,0,2.741856,-3690.817,-3546.473)"
       x1="2114.5383"
       y1="1603.9127"
       x2="2120.5354"
       y2="2423.3098" />
    <linearGradient
       inkscape:collect="always"
       xlink:href="#linearGradient3066"
       id="linearGradient2221"
       gradientUnits="userSpaceOnUse"
       gradientTransform="matrix(2.738061,0,0,2.741856,-3690.817,-3546.473)"
       x1="2114.5383"
       y1="1603.9127"
       x2="2120.5354"
       y2="2423.3098" />
    <linearGradient
       inkscape:collect="always"
       xlink:href="#linearGradient3066"
       id="linearGradient2223"
       gradientUnits="userSpaceOnUse"
       gradientTransform="matrix(2.738061,0,0,2.741856,-3690.817,-3546.473)"
       x1="2114.5383"
       y1="1603.9127"
       x2="2120.5354"
       y2="2423.3098" />
    <linearGradient
       inkscape:collect="always"
       xlink:href="#linearGradient3066"
       id="linearGradient2225"
       gradientUnits="userSpaceOnUse"
       gradientTransform="matrix(2.738061,0,0,2.741856,-3690.817,-3546.473)"
       x1="2114.5383"
       y1="1603.9127"
       x2="2120.5354"
       y2="2423.3098" />
    <linearGradient
       inkscape:collect="always"
       xlink:href="#linearGradient3066"
       id="linearGradient2227"
       gradientUnits="userSpaceOnUse"
       gradientTransform="matrix(2.738061,0,0,2.741856,-3690.817,-3546.473)"
       x1="2114.5383"
       y1="1603.9127"
       x2="2120.5354"
       y2="2423.3098" />
    <linearGradient
       inkscape:collect="always"
       xlink:href="#linearGradient3066"
       id="linearGradient2229"
       gradientUnits="userSpaceOnUse"
       gradientTransform="matrix(2.738061,0,0,2.741856,-3690.817,-3546.473)"
       x1="2114.5383"
       y1="1603.9127"
       x2="2120.5354"
       y2="2423.3098" />
    <linearGradient
       inkscape:collect="always"
       xlink:href="#linearGradient3066"
       id="linearGradient2231"
       gradientUnits="userSpaceOnUse"
       gradientTransform="matrix(2.738061,0,0,2.741856,-3690.817,-3546.473)"
       x1="2114.5383"
       y1="1603.9127"
       x2="2120.5354"
       y2="2423.3098" />
    <linearGradient
       inkscape:collect="always"
       xlink:href="#linearGradient3066"
       id="linearGradient2233"
       gradientUnits="userSpaceOnUse"
       gradientTransform="matrix(2.738061,0,0,2.741856,-3690.817,-3546.473)"
       x1="2114.5383"
       y1="1603.9127"
       x2="2120.5354"
       y2="2423.3098" />
    <linearGradient
       inkscape:collect="always"
       xlink:href="#linearGradient3066"
       id="linearGradient2235"
       gradientUnits="userSpaceOnUse"
       gradientTransform="matrix(2.738061,0,0,2.741856,-3690.817,-3546.473)"
       x1="2114.5383"
       y1="1603.9127"
       x2="2120.5354"
       y2="2423.3098" />
    <linearGradient
       inkscape:collect="always"
       xlink:href="#linearGradient3066"
       id="linearGradient2237"
       gradientUnits="userSpaceOnUse"
       gradientTransform="matrix(2.738061,0,0,2.741856,-3690.817,-3546.473)"
       x1="2114.5383"
       y1="1603.9127"
       x2="2120.5354"
       y2="2423.3098" />
    <linearGradient
       inkscape:collect="always"
       xlink:href="#linearGradient3066"
       id="linearGradient2239"
       gradientUnits="userSpaceOnUse"
       gradientTransform="matrix(2.738061,0,0,2.741856,-3690.817,-3546.473)"
       x1="2114.5383"
       y1="1603.9127"
       x2="2120.5354"
       y2="2423.3098" />
    <linearGradient
       inkscape:collect="always"
       xlink:href="#linearGradient3066"
       id="linearGradient2241"
       gradientUnits="userSpaceOnUse"
       gradientTransform="matrix(2.738061,0,0,2.741856,-3690.817,-3546.473)"
       x1="2114.5383"
       y1="1603.9127"
       x2="2120.5354"
       y2="2423.3098" />
    <linearGradient
       inkscape:collect="always"
       xlink:href="#linearGradient3066"
       id="linearGradient2243"
       gradientUnits="userSpaceOnUse"
       gradientTransform="matrix(2.738061,0,0,2.741856,-3690.817,-3546.473)"
       x1="2114.5383"
       y1="1603.9127"
       x2="2120.5354"
       y2="2423.3098" />
    <linearGradient
       inkscape:collect="always"
       xlink:href="#linearGradient3066"
       id="linearGradient2245"
       gradientUnits="userSpaceOnUse"
       gradientTransform="matrix(2.738061,0,0,2.741856,-3690.817,-3546.473)"
       x1="2114.5383"
       y1="1603.9127"
       x2="2120.5354"
       y2="2423.3098" />
  </defs>
  <sodipodi:namedview
     id="base"
     pagecolor="black"
     bordercolor="#666666"
     borderopacity="1.0"
     gridtolerance="10000"
     guidetolerance="10"
     objecttolerance="10"
     inkscape:pageopacity="0.77254902"
     inkscape:pageshadow="2"
     inkscape:zoom="0.25407487"
     inkscape:cx="2068.4691"
     inkscape:cy="1946.5456"
     inkscape:document-units="px"
     inkscape:current-layer="layer1"
     width="4096px"
     height="4096px"
     showborder="true"
     inkscape:window-width="1081"
     inkscape:window-height="856"
     inkscape:window-x="127"
     inkscape:window-y="18" />
  <metadata
     id="metadata7">
    <rdf:RDF>
      <cc:Work
         rdf:about="">
        <dc:format>image/svg+xml</dc:format>
        <dc:type
           rdf:resource="http://purl.org/dc/dcmitype/StillImage" />
      </cc:Work>
    </rdf:RDF>
  </metadata>
  <g
     inkscape:label="Layer 1"
     inkscape:groupmode="layer"
     id="layer1">
    <path
       style="fill:none;stroke:url(#linearGradient3139);stroke-width:4.00000048;stroke-miterlimit:4;stroke-opacity:1"
       d="M 546.84456,1340.3785 C 533.80592,1338.1817 496.69205,1313.7792 464.36896,1286.1506 C 355.03819,1192.6983 313.76219,1169.1134 273.61318,1177.1544 C 231.5541,1185.578 235.74306,1170.8506 287.90887,1126.8951 C 327.87005,1093.2232 327.31587,1069.8604 285.60589,1029.8444 C 246.15399,991.99472 244.70117,984.23362 274.11699,968.46904 C 290.81368,959.521 312.94734,962.32646 365.49101,980.05174 C 403.62809,992.91708 443.44059,1001.1887 453.96324,998.43314 C 481.13904,991.31665 486.69511,996.73264 559.50207,1101.3109 C 614.03412,1179.6394 625.60407,1204.618 629.47213,1252.3734 C 633.801,1305.813 632.00921,1310.7377 602.3289,1326.981 C 584.85131,1336.5462 559.88321,1342.575 546.84456,1340.3785 z "
       id="path2226" />
    <path
       style="fill:none;stroke:url(#linearGradient2245);stroke-width:4.00000048;stroke-miterlimit:4;stroke-opacity:1"
       d="M 687.88154,1466.3945 C 687.88154,1455.3393 822.70832,1294.975 866.75496,1253.6407 C 886.42957,1235.1776 924.92396,1191.1176 952.298,1155.7299 C 1013.4696,1076.6503 1037.7173,1074.6545 1164.9914,1138.2226 C 1218.0786,1164.7371 1203.9228,1229.0657 1141.1834,1246.4129 C 1119.4952,1252.4093 1071.6991,1280.2016 1034.9699,1308.1735 C 951.04726,1372.0853 839.36531,1433.9265 782.11273,1448.1864 C 757.94222,1454.2067 726.85209,1462.5792 713.02378,1466.7923 C 699.19575,1471.0052 687.88154,1470.8264 687.88154,1466.3945 z "
       id="path2224" />
    <path
       style="fill:none;stroke:url(#linearGradient2243);stroke-width:4.00000048;stroke-miterlimit:4;stroke-opacity:1"
       d="M 134.67767,1780.5043 C 101.86475,1747.6461 100.14032,1716.9664 127.81445,1658.4026 C 145.41224,1621.1624 162.5013,1608.5696 258.73374,1561.9284 C 319.6074,1532.4247 409.27096,1485.2777 457.98572,1457.1569 C 554.95278,1401.1827 562.30612,1401.2433 623.62938,1458.5182 C 673.64253,1505.2299 660.61374,1572.5504 601.56033,1572.5504 C 568.27071,1572.5504 441.93274,1636.281 313.54178,1717.84 C 159.70437,1815.5633 167.10042,1812.9722 134.67767,1780.5043 z "
       id="path2222" />
    <path
       style="fill:none;stroke:url(#linearGradient2241);stroke-width:4.00000048;stroke-miterlimit:4;stroke-opacity:1"
       d="M 218.953,2020.8788 C 212.59111,2008.9745 207.45615,1972.4678 207.5424,1939.7525 L 207.69929,1880.2703 L 297.96166,1831.6607 C 371.3918,1792.116 395.11464,1784.3456 425.17581,1789.993 C 485.21711,1801.2725 520.29495,1835.9684 520.09562,1883.8799 C 520.00143,1906.5123 516.2303,1930.2897 511.71497,1936.7192 C 488.10795,1970.3327 316.43892,2042.5227 260.1129,2042.5227 C 242.29223,2042.5227 225.91917,2033.9128 218.953,2020.8788 z "
       id="path2220" />
    <path
       style="fill:none;stroke:url(#linearGradient2239);stroke-width:4.00000048;stroke-miterlimit:4;stroke-opacity:1"
       d="M 185.61026,2298.2364 C 157.61386,2252.252 156.78888,2234.2476 182.24327,2224.7536 C 192.99864,2220.742 243.53531,2190.0584 294.5473,2156.5678 C 377.54943,2102.0747 391.98038,2096.3048 431.87092,2101.6626 C 495.12807,2110.1591 510.84454,2126.8784 506.85217,2181.4279 C 503.76994,2223.5395 499.08785,2229.5831 447.63366,2257.8684 C 391.02808,2288.9857 314.80731,2315.7681 246.14988,2328.6664 C 212.10757,2335.0615 206.23169,2332.108 185.61026,2298.2364 z "
       id="path2218" />
    <path
       style="fill:none;stroke:url(#linearGradient2237);stroke-width:4.00000048;stroke-miterlimit:4;stroke-opacity:1"
       d="M 199.37531,2880.5258 C 149.3482,2866.0458 134.75242,2811.4422 134.75242,2638.7684 C 134.75242,2529.4495 138.26672,2498.5644 152.30394,2484.517 C 168.25177,2468.5578 172.63185,2469.1402 200.24821,2490.8935 C 226.43776,2511.5227 234.99557,2513.0277 262.12264,2501.7757 C 279.43731,2494.5939 312.27104,2471.0858 335.08676,2449.5356 C 370.7741,2415.8275 381.53358,2411.426 412.10157,2418.0306 C 503.11198,2437.6941 574.51103,2501.5873 545.42816,2537.3408 C 539.0222,2545.216 525.19417,2594.1178 514.69891,2646.0118 C 485.61495,2789.8197 449.05964,2859.3792 402.56901,2859.3792 C 388.90745,2859.3792 359.67756,2866.9322 337.61399,2876.164 C 292.99728,2894.8317 253.14535,2896.0894 199.37531,2880.5258 z "
       id="path2216" />
    <path
       style="fill:none;stroke:url(#linearGradient2235);stroke-width:4.00000048;stroke-miterlimit:4;stroke-opacity:1"
       d="M 353.40001,2701.5097 C 362.70859,2686.427 353.07308,2588.6599 340.97688,2575.4606 C 336.02318,2570.0553 316.66782,2576.6429 297.64104,2590.2098 C 270.96,2609.2348 263.25729,2623.1253 263.25729,2652.2144 C 263.25729,2714.4946 273.00205,2728.1852 311.80065,2720.4148 C 330.58484,2716.6527 349.30441,2708.1456 353.40001,2701.5097 z "
       id="path2214" />
    <path
       style="fill:none;stroke:url(#linearGradient2233);stroke-width:4.00000048;stroke-miterlimit:4;stroke-opacity:1;marker-end:url(#Arrow1Lend)"
       d="M 957.53865,2864.9742 C 912.48359,2818.8162 869.72589,2785.7237 863.81975,2781.0504 C 847.57888,2768.1996 777.27622,2724.6123 777.27622,2706.858 C 777.27622,2693.1523 784.49183,2691.5636 813.59276,2698.8633 C 833.56692,2703.8735 877.56592,2708.0501 911.3681,2708.1447 L 972.82689,2708.3167 L 975.81192,2618.7981 C 977.45394,2569.5631 974.93958,2491.514 970.22491,2445.3559 C 962.07836,2365.5997 960.26631,2361.4324 933.73176,2361.4324 C 909.63573,2361.4324 902.6304,2370.6297 882.59217,2428.5714 C 836.94158,2560.5728 800.00459,2613.7561 700.84598,2690.2569 C 628.96942,2745.7098 610.26764,2748.8311 642.92422,2699.9244 C 684.44993,2637.7355 776.94683,2441.0529 777.11549,2414.5841 C 777.3151,2383.3352 777.3255,2383.3346 710.23041,2417.3816 C 647.50007,2449.2135 628.79007,2451.6521 611.0959,2430.3023 C 589.89126,2404.717 582.50315,2345.5617 599.91832,2340.8054 C 662.24945,2323.7812 715.81743,2303.4292 786.44242,2269.9399 C 847.68765,2240.8985 879.97787,2232.0088 914.94729,2234.5623 L 961.65259,2237.9726 L 964.9358,2157.0325 C 966.74155,2112.5152 964.22719,2076.2706 959.34851,2076.4888 C 934.84615,2077.5839 897.48613,2109.3464 880.32342,2143.6739 C 853.60898,2197.1061 808.8028,2211.7155 773.50071,2178.5048 C 736.43804,2143.6377 721.48357,2083.9149 720.91405,1968.4907 C 720.63231,1911.3615 713.57495,1850.0435 704.32086,1824.3213 C 682.19075,1762.8083 683.37688,1754.0848 719.46671,1712.9238 C 743.27306,1685.772 754.36193,1656.829 764.49248,1595.4005 C 786.62478,1461.1998 814.82982,1436.7775 855.4966,1516.6014 C 868.03801,1541.2189 883.24219,1561.3606 889.28372,1561.3606 C 895.32498,1561.3606 926.65059,1535.5858 958.89618,1504.0832 C 1028.6902,1435.8974 1083.5042,1422.3044 1141.4802,1458.8056 C 1173.7151,1479.1005 1176.9622,1487.3118 1189.7197,1580.796 C 1201.7898,1669.243 1201.1031,1689.4502 1183.8802,1752.6742 C 1170.1316,1803.1424 1163.1709,1878.8982 1160.3323,2008.9534 C 1158.1156,2110.5007 1153.238,2254.0103 1149.4932,2327.863 C 1140.0394,2514.287 1140.7527,2552.4114 1155.2502,2635.5829 C 1169.9251,2719.7721 1172.1673,2869.6455 1159.061,2890.3216 C 1149.19,2905.894 1070.0552,2948.8978 1051.2701,2948.8978 C 1044.7727,2948.8978 1002.5935,2911.132 957.53865,2864.9742 z "
       id="path2212"
       sodipodi:nodetypes="cssscccssscsccscccccssscccccsssscccsssc" />
    <path
       style="fill:none;stroke:url(#linearGradient2231);stroke-width:4.00000048;stroke-miterlimit:4;stroke-opacity:1"
       d="M 953.51452,1763.3413 C 994.35216,1733.7178 999.78885,1724.124 1006.5787,1669.7045 C 1020.5557,1557.6832 1000.4846,1537.9953 930.92333,1595.4926 C 889.36696,1629.8415 889.0195,1630.8181 889.0195,1713.2378 C 889.0195,1758.9478 893.29361,1796.3467 898.51728,1796.3467 C 903.74096,1796.3467 928.48974,1781.4943 953.51452,1763.3413 z "
       id="path2210" />
    <path
       style="fill:none;stroke:url(#linearGradient2229);stroke-width:4.00000048;stroke-miterlimit:4;stroke-opacity:1"
       d="M 934.85792,1961.0367 C 964.87501,1940.8478 973.5533,1926.7867 976.29519,1893.8976 C 980.72866,1840.7157 962.94085,1839.7459 907.96469,1890.1719 C 869.76983,1925.2054 856.11677,1961.0852 874.12034,1979.1137 C 885.82993,1990.8396 894.28944,1988.322 934.85792,1961.0367 z "
       id="path2208" />
    <path
       style="fill:none;stroke:url(#linearGradient2227);stroke-width:4.00000048;stroke-miterlimit:4;stroke-opacity:1;marker-end:url(#Arrow1Lend)"
       d="M 1521.7068,3004.7982 C 1456.3602,2938.2926 1419.6834,2910.2458 1379.2595,2895.8687 C 1349.3168,2885.219 1324.8183,2872.7825 1324.8183,2868.2313 C 1324.8183,2863.6804 1365.3964,2860.4828 1414.992,2861.1255 C 1464.5876,2861.7685 1509.975,2857.4786 1515.8531,2851.5923 C 1522.437,2844.9993 1523.6114,2762.7614 1518.9112,2637.3964 L 1511.2825,2433.9018 L 1448.8624,2439.135 L 1375.1028,2446.6358 L 1304.6457,2366.4511 C 1245.529,2299.1725 1234.7378,2280.6088 1237.5998,2251.1157 C 1240.9302,2216.7948 1242.1902,2216.0553 1290.9655,2219.7936 C 1346.0848,2224.0182 1404.4918,2250.1572 1456.2376,2293.7587 C 1516.6808,2344.6887 1518.929,2339.4216 1515.7178,2154.4209 C 1513.5427,2029.1109 1502.668,1933.5843 1488.3824,1914.3024 C 1477.4983,1899.6116 1471.5685,1899.2938 1447.1196,1912.0903 C 1397.3433,1938.1441 1310.9265,1964.1939 1274.2751,1964.1939 C 1214.8928,1964.1939 1181.4956,1907.4212 1204.0824,1844.8718 C 1213.5728,1818.5906 1226.6397,1804.9131 1246.1886,1800.7992 C 1297.9842,1789.8984 1430.5948,1740.4304 1466.2849,1718.696 C 1500.121,1698.0907 1501.7745,1693.5548 1509.5564,1600.004 C 1514.0066,1546.5069 1514.2185,1455.9576 1510.0276,1398.7836 C 1505.7825,1340.8742 1508.0589,1232.2252 1515.1669,1153.4865 C 1526.5614,1027.264 1525.9549,1009.1297 1509.4997,983.98109 C 1483.61,944.41364 1490.951,896.57072 1523.6235,891.93041 C 1560.0325,886.75954 1688.1828,949.6632 1710.3937,983.60847 C 1733.2907,1018.602 1724.2447,1073.0903 1691.7549,1095.8784 C 1679.438,1104.5177 1664.8707,1130.9599 1659.3834,1154.6389 C 1644.971,1216.8338 1646.6456,1384.8506 1662.2608,1443.3149 C 1672.8935,1483.1245 1672.6306,1505.2269 1660.9829,1550.737 C 1643.3068,1619.8013 1656.6866,1645.141 1693.3068,1611.9541 C 1705.7439,1600.6832 1715.9197,1584.8909 1715.9197,1576.8603 C 1715.9197,1568.8294 1735.7446,1556.3109 1759.9753,1549.0412 C 1801.5136,1536.5789 1807.4202,1537.9709 1863.338,1573.402 C 1937.9447,1620.6749 1941.3645,1625.5732 1933.056,1673.2588 C 1923.5658,1727.7255 1913.0555,1736.8254 1852.6004,1742.9194 C 1823.52,1745.8508 1765.7795,1763.7932 1724.288,1782.7915 C 1621.8678,1829.6882 1619.8762,1836.2698 1643.4221,2050.0206 C 1653.7065,2143.3833 1658.617,2230.8263 1654.3344,2244.3384 C 1633.9038,2308.7983 1656.6168,2637.0229 1695.5685,2840.215 C 1721.3512,2974.7096 1717.8807,3028.5674 1680.8914,3067.9955 C 1640.5652,3110.9799 1616.7468,3101.5238 1521.7068,3004.7982 z "
       id="path2206"
       sodipodi:nodetypes="ccscscccccssssscsccsccssssccssssssssscsccs" />
    <path
       style="fill:none;stroke:url(#linearGradient2225);stroke-width:4.00000048;stroke-miterlimit:4;stroke-opacity:1"
       d="M 2326.6525,2212.2864 C 2301.1893,2184.1111 2301.9015,2110.8457 2327.714,2103.0637 C 2338.4694,2099.8212 2388.8275,2077.3199 2439.6216,2053.0608 C 2538.459,2005.8562 2559.6034,2001.7955 2603.138,2021.6588 C 2659.8712,2047.5439 2649.184,2087.4352 2579.3311,2110.5205 C 2557.3746,2117.7768 2498.6925,2148.2372 2448.9269,2178.2103 C 2399.161,2208.1835 2355.4514,2232.7165 2351.7947,2232.7283 C 2348.1377,2232.7401 2336.8238,2223.5412 2326.6525,2212.2864 z "
       id="path2204" />
    <path
       style="fill:none;stroke:url(#linearGradient2223);stroke-width:4.00000048;stroke-miterlimit:4;stroke-opacity:1"
       d="M 2253.1407,2768.5758 C 2225.9972,2723.8802 2214.1275,2636.0712 2221.4244,2533.9478 C 2228.6499,2432.8199 2240.3096,2418.3585 2296.4752,2440.8626 C 2337.7235,2457.3899 2339.9156,2456.9825 2389.2826,2423.6188 C 2417.0914,2404.825 2442.6069,2382.2381 2445.9837,2373.4261 C 2449.3606,2364.614 2474.1458,2354.0971 2501.0623,2350.0553 C 2544.1402,2343.5865 2556.3859,2347.0212 2603.3138,2378.7365 C 2663.7075,2419.5521 2662.394,2408.1361 2627.7121,2590.8237 C 2605.0538,2710.1767 2584.5953,2739.8565 2519.323,2748.0667 C 2492.298,2751.4661 2454.3296,2762.6737 2434.9488,2772.9724 C 2415.5682,2783.2713 2371.7072,2794.6862 2337.4798,2798.3386 C 2276.4556,2804.8508 2274.8196,2804.2734 2253.1407,2768.5758 z "
       id="path2202" />
    <path
       style="fill:none;stroke:url(#linearGradient2221);stroke-width:4.00000048;stroke-miterlimit:4;stroke-opacity:1"
       d="M 2422.6957,2637.8655 C 2448.1646,2615.8015 2451.1888,2501.3052 2426.3028,2501.3052 C 2398.9772,2501.3052 2341.6819,2581.321 2341.6819,2619.4827 C 2341.6819,2638.5951 2344.4874,2657.0418 2347.916,2660.4754 C 2357.4143,2669.9869 2400.7384,2656.8877 2422.6957,2637.8655 z "
       id="path2200" />
    <path
       style="fill:none;stroke:url(#linearGradient2219);stroke-width:4.00000048;stroke-miterlimit:4;stroke-opacity:1"
       d="M 2528.7307,1254.3328 C 2485.1024,1205.7131 2483.0237,1204.8063 2429.686,1211.1321 C 2373.1623,1217.8359 2360.324,1207.2041 2392.5765,1180.4 C 2431.7121,1147.875 2434.2736,1125.3016 2404.0221,1079.5252 C 2388.1726,1055.5419 2375.2048,1032.592 2375.2048,1028.5256 C 2375.2048,1013.7768 2486.61,1034.8014 2533.6748,1058.4321 C 2624.4369,1104.0031 2685.0559,1180.4595 2671.934,1232.8133 C 2665.7881,1257.334 2607.7684,1303.8493 2583.1992,1303.9529 C 2577.7515,1303.976 2553.2407,1281.6468 2528.7307,1254.3328 z "
       id="path2198" />
    <path
       style="fill:none;stroke:url(#linearGradient2217);stroke-width:4.00000048;stroke-miterlimit:4;stroke-opacity:1"
       d="M 2189.6273,1677.7006 C 2165.528,1619.9431 2172.6332,1579.0851 2207.5901,1574.4061 C 2222.9547,1572.3494 2319.7701,1530.8073 2422.7351,1482.0903 C 2532.2532,1430.2725 2624.4519,1393.5135 2644.9028,1393.5135 C 2689.4609,1393.5135 2755.1319,1433.6784 2755.1319,1460.9305 C 2755.1319,1490.4886 2712.5381,1516.6014 2664.3238,1516.6014 C 2621.839,1516.6014 2505.1395,1572.484 2345.2573,1669.3892 C 2244.0528,1730.7294 2212.4575,1732.417 2189.6273,1677.7006 z "
       id="path2196" />
    <path
       style="fill:none;stroke:url(#linearGradient2215);stroke-width:4.00000048;stroke-miterlimit:4;stroke-opacity:1"
       d="M 3137.6861,3038.8863 C 3102.6036,3030.3816 3028.0016,2970.6385 2911.1671,2857.4846 C 2818.7967,2768.0244 2795.1971,2736.2913 2821.0359,2736.2913 C 2826.5537,2736.2913 2864.1971,2756.4455 2904.6881,2781.0789 C 2992.7348,2834.6433 3062.4127,2863.9258 3082.9994,2856.015 C 3106.5746,2846.9556 3113.2875,2664.0837 3096.9501,2475.9729 C 3089.059,2385.1102 3080.4311,2308.5938 3077.7776,2305.9367 C 3066.6564,2294.7998 3046.5738,2321.7701 3002.5351,2406.9842 C 2976.8656,2456.6551 2930.2164,2526.1096 2898.8708,2561.3274 C 2844.437,2622.4856 2754.8871,2680.342 2714.6614,2680.342 C 2697.835,2680.342 2697.5863,2678.2262 2712.359,2660.76 C 2721.4683,2649.9897 2742.6554,2608.4476 2759.4413,2568.4442 C 2776.2273,2528.4405 2801.3827,2478.0863 2815.3421,2456.546 C 2846.3627,2408.679 2868.8961,2345.7849 2860.1196,2331.5645 C 2856.3312,2325.4263 2843.6,2327.4868 2829.5239,2336.5158 C 2791.7047,2360.7752 2691.5632,2390.0406 2672.0408,2382.5389 C 2620.3927,2362.6923 2647.4965,2273.4704 2716.1605,2237.3034 C 2746.8591,2221.1338 2759.975,2207.2038 2758.3264,2192.5195 C 2736.0471,1994.0744 2733.0434,1928.259 2743.0592,1857.9886 C 2749.1922,1814.9617 2750.3885,1775.9308 2745.7173,1771.2532 C 2741.0465,1766.5759 2717.3688,1777.3459 2693.1003,1795.1869 C 2668.8318,1813.0282 2626.348,1833.6011 2598.6914,1840.9052 C 2571.0351,1848.2089 2524.2337,1869.5762 2494.6886,1888.3878 C 2462.3305,1908.9904 2424.8191,1923.0756 2400.352,1923.8101 C 2363.9333,1924.9036 2358.6571,1921.3512 2349.317,1889.4497 C 2343.5876,1869.8808 2342.2747,1835.8549 2346.3996,1813.8365 C 2353.0734,1778.2143 2356.9009,1774.5572 2381.1352,1780.6479 C 2399.6771,1785.3083 2424.2216,1778.191 2458.0298,1758.3506 C 2485.3425,1742.322 2522.345,1729.2077 2540.2571,1729.2077 C 2567.089,1729.2077 2589.4307,1710.9779 2667.1082,1625.7021 C 2813.526,1464.9624 2869.2466,1396.6732 2950.1495,1278.8178 C 3035.2648,1154.8253 3042.0287,1151.9225 3150.8362,1192.689 C 3239.0699,1225.7473 3248.9842,1280.0722 3175.1253,1325.7828 C 3154.7752,1338.3772 3106.1042,1387.7227 3066.9675,1435.4389 C 3027.8307,1483.1555 2971.0458,1548.688 2940.7785,1581.0671 C 2910.5114,1613.446 2888.4415,1642.6358 2891.7346,1645.9334 C 2901.3786,1655.5908 3047.6932,1572.3903 3090.3617,1532.986 C 3155.5325,1472.8008 3172.7163,1467.7572 3239.0037,1489.3589 C 3270.9495,1499.7692 3306.1081,1516.174 3317.1337,1525.8141 C 3342.7321,1548.1948 3337.5364,1585.3313 3306.6592,1600.6818 C 3247.1576,1630.2626 3243.456,1638.9847 3249.825,1734.6026 C 3253.1118,1783.9478 3251.1757,1884.7463 3245.5225,1958.5992 C 3226.4185,2208.1689 3225.6512,2358.9099 3242.6762,2517.8904 C 3251.8912,2603.9421 3261.0404,2748.453 3263.0077,2839.0261 C 3266.0787,2980.4226 3264.0014,3005.9651 3248.3125,3019.6972 C 3227.0474,3038.3105 3173.5728,3047.5862 3137.6861,3038.8863 z "
       id="path2194" />
    <path
       style="fill:none;stroke:url(#linearGradient2213);stroke-width:4.00000048;stroke-miterlimit:4;stroke-opacity:1"
       d="M 2991.6388,1732.1845 C 3087.1516,1691.7608 3090.3617,1689.2139 3090.3617,1653.856 C 3090.3617,1631.9672 3084.7597,1617.3937 3076.3938,1617.519 C 3068.7116,1617.6342 3022.1983,1639.2724 2973.0314,1665.6038 C 2898.8188,1705.3483 2883.0363,1718.6154 2880.1011,1743.7231 C 2878.1563,1760.3574 2880.244,1773.9671 2884.7405,1773.9671 C 2889.2369,1773.9671 2937.3414,1755.1649 2991.6388,1732.1845 z "
       id="path2192" />
    <path
       style="fill:none;stroke:url(#linearGradient2211);stroke-width:4.00000048;stroke-miterlimit:4;stroke-opacity:1"
       d="M 2993.9768,1937.4405 C 3030.0803,1921.3827 3066.5368,1908.2449 3074.9908,1908.2449 C 3085.474,1908.2449 3090.3617,1894.0122 3090.3617,1863.4857 C 3090.3617,1828.1226 3086.2092,1818.7263 3070.5803,1818.7263 C 3038.5771,1818.7263 2866.8752,1931.8196 2866.8752,1952.8988 C 2866.8752,1992.1258 2872.584,1991.4315 2993.9768,1937.4405 z "
       id="path2190" />
    <path
       style="fill:none;stroke:url(#linearGradient2209);stroke-width:4.00000048;stroke-miterlimit:4;stroke-opacity:1"
       d="M 3013.704,2122.8531 C 3074.1502,2096.5875 3076.0231,2094.2547 3085.7944,2033.063 C 3094.9288,1975.8611 3087.1423,1974.8759 3009.5648,2023.4172 C 2977.1796,2043.6812 2936.8545,2066.2327 2919.9533,2073.5315 C 2867.6172,2096.1331 2885.3669,2175.3582 2938.1335,2154.6792 C 2951.1814,2149.5659 2985.1882,2135.2441 3013.704,2122.8531 z "
       id="path2188" />
    <path
       style="fill:none;stroke:url(#linearGradient2205);stroke-width:4.00000048;stroke-miterlimit:4;stroke-opacity:1"
       d="M 3675.3208,2919.6235 C 3657.8145,2897.3684 3622.12,2857.1698 3596,2830.2933 C 3569.88,2803.4168 3548.5092,2770.6421 3548.5092,2757.4603 C 3548.5092,2736.1884 3552.5922,2734.4216 3584.8257,2741.7454 C 3674.3975,2762.0976 3666.3465,2803.6611 3661.7474,2344.6478 C 3659.4967,2120.0122 3653.2104,1931.4349 3647.7778,1925.5874 C 3641.6191,1918.9584 3593.9133,1928.4375 3521.0686,1950.7646 C 3456.8115,1970.4596 3394.1335,1986.5738 3381.7845,1986.5738 C 3352.0437,1986.5738 3334.1006,1950.5581 3338.3441,1899.3788 C 3341.7812,1857.9255 3341.8359,1857.8849 3403.243,1851.0434 C 3467.157,1843.9228 3628.6158,1781.8719 3649.8281,1756.2775 C 3663.7013,1739.5379 3685.1151,1288.3715 3675.1193,1223.4189 C 3669.2828,1185.4938 3671.2929,1181.367 3698.9935,1174.4049 C 3719.7782,1169.1811 3746.1569,1174.7367 3783.3119,1192.1634 C 3847.2051,1222.1308 3859.7624,1252.4927 3832.2637,1310.5225 C 3817.7786,1341.0898 3815.5509,1363.8658 3822.1822,1413.5984 C 3826.8637,1448.7095 3833.8296,1515.2026 3837.6615,1561.3606 L 3844.6288,1645.2842 L 3878.1517,1642.4803 C 3921.1116,1638.8874 3995.2988,1681.0437 4017.4968,1721.6624 C 4033.6602,1751.2388 4033.1539,1754.1276 4008.2121,1774.6455 C 3993.7031,1786.5813 3965.5331,1796.3467 3945.6123,1796.3467 C 3894.8777,1796.3467 3835.9787,1838.8271 3827.2142,1881.7402 C 3817.1888,1930.8271 3836.2054,2289.318 3871.9519,2725.1015 C 3889.6751,2941.1652 3880.7564,2960.0876 3761.1944,2960.0876 C 3712.4174,2960.0876 3704.0491,2956.1442 3675.3208,2919.6235 z "
       id="path3136" />
    <path
       style="fill:none;stroke:url(#linearGradient2207);stroke-width:4.00000048;stroke-miterlimit:4;stroke-opacity:1"
       d="M 3395.3675,2408.841 C 3322.4297,2333.5156 3286.6109,2267.4846 3307.3969,2246.6698 C 3317.8749,2236.1773 3424.4348,2266.0081 3487.0504,2296.9629 C 3545.9674,2326.089 3626.7295,2396.1552 3626.7295,2418.1436 C 3626.7295,2425.296 3617.1852,2443.2984 3605.5202,2458.1486 C 3588.8679,2479.3478 3572.4513,2485.6659 3529.1127,2487.5542 C 3474.253,2489.9445 3473.4332,2489.462 3395.3675,2408.841 z "
       id="path2186" />
  </g>
</svg>
