<?xml version="1.0" encoding="UTF-8" standalone="no"?>
<!-- Created with Inkscape (http://www.inkscape.org/) -->
<svg
   xmlns:dc="http://purl.org/dc/elements/1.1/"
   xmlns:cc="http://creativecommons.org/ns#"
   xmlns:rdf="http://www.w3.org/1999/02/22-rdf-syntax-ns#"
   xmlns:svg="http://www.w3.org/2000/svg"
   xmlns="http://www.w3.org/2000/svg"
   xmlns:sodipodi="http://sodipodi.sourceforge.net/DTD/sodipodi-0.dtd"
   xmlns:inkscape="http://www.inkscape.org/namespaces/inkscape"
   width="4096"
   height="4096"
   id="svg2"
   sodipodi:version="0.32"
   inkscape:version="0.46"
   sodipodi:docbase="E:\laser graphics"
   sodipodi:docname="cocacola_logo.svg"
   inkscape:output_extension="org.inkscape.output.svg.inkscape"
   version="1.0">
  <defs
     id="defs4">
    <inkscape:perspective
       sodipodi:type="inkscape:persp3d"
       inkscape:vp_x="0 : 2048 : 1"
       inkscape:vp_y="0 : 1000 : 0"
       inkscape:vp_z="4096 : 2048 : 1"
       inkscape:persp3d-origin="2048 : 1365.3333 : 1"
       id="perspective22" />
  </defs>
  <sodipodi:namedview
     id="base"
     pagecolor="#000000"
     bordercolor="#666666"
     borderopacity="1.0"
     gridtolerance="50"
     guidetolerance="10"
     objecttolerance="10"
     inkscape:pageopacity="1"
     inkscape:pageshadow="2"
     inkscape:zoom="0.17773438"
     inkscape:cx="2120.4677"
     inkscape:cy="2020.4308"
     inkscape:document-units="px"
     inkscape:current-layer="layer1"
     showguides="true"
     inkscape:guide-bbox="false"
     inkscape:window-width="1032"
     inkscape:window-height="929"
     inkscape:window-x="22"
     inkscape:window-y="22"
     width="4096px"
     height="4096px"
     showgrid="true"
     inkscape:object-paths="true"
     inkscape:grid-bbox="false"
     guidecolor="#ffffff"
     guideopacity="0.28627451"
     guidehicolor="#ff0000"
     guidehiopacity="0.64313725"
     borderlayer="false"
     showborder="true"
     inkscape:showpageshadow="true">
    <sodipodi:guide
       orientation="horizontal"
       position="410"
       id="guide2164" />
    <sodipodi:guide
       orientation="vertical"
       position="411.12022"
       id="guide2166" />
    <inkscape:grid
       id="GridFromPre046Settings"
       type="xygrid"
       originx="0px"
       originy="0px"
       spacingx="1px"
       spacingy="1px"
       color="#ffffff"
       empcolor="#ffffff"
       opacity="0.12941176"
       empopacity="0.40784314"
       empspacing="20" />
  </sodipodi:namedview>
  <metadata
     id="metadata7">
    <rdf:RDF>
      <cc:Work
         rdf:about="">
        <dc:format>image/svg+xml</dc:format>
        <dc:type
           rdf:resource="http://purl.org/dc/dcmitype/StillImage" />
      </cc:Work>
    </rdf:RDF>
  </metadata>
  <g
     inkscape:label="Layer 1"
     inkscape:groupmode="layer"
     id="layer1">
    <path
       style="fill:none;fill-opacity:1;stroke:#ff0000;stroke-width:6;stroke-miterlimit:4;stroke-dasharray:none;stroke-opacity:1"
       d="M 1808.1067,2557.966 C 1727.7218,2529.7721 1615.808,2514.5867 1538.3937,2521.3691 C 1492.1103,2525.4242 1450.2306,2534.6309 1418.6224,2547.6996 C 1405.4657,2553.1394 1392.8531,2558.1684 1390.5944,2558.8751 C 1387.9397,2559.7056 1384.2624,2556.2246 1380.1939,2549.0296 C 1371.6743,2533.9633 1341.0499,2501.8569 1319.9029,2485.8211 C 1297.1222,2468.5463 1257.6882,2449.2313 1230.434,2441.9989 C 1199.5444,2433.8018 1145.7676,2432.1497 1096.2825,2437.8776 C 1029.4652,2445.6118 910.52958,2471.7871 796.49508,2503.8548 C 637.25201,2548.6355 555.25202,2561.09 462.86246,2554.5283 C 400.81103,2550.1214 373.27508,2540.8516 328.33385,2509.2404 C 261.83845,2462.4682 215.24826,2385.2308 200.66019,2297.5823 C 194.88167,2262.8637 194.97928,2197.7047 200.86367,2161.7526 C 226.75453,2003.5663 337.5416,1790.4053 477.68287,1629.1358 C 504.25256,1598.5604 565.26305,1537.9515 592.53011,1515.0447 C 681.86843,1439.9923 772.44291,1394.0114 856.20021,1381.1903 C 882.17601,1377.2141 890.72625,1376.9559 909.32545,1379.5862 C 966.50697,1387.6726 996.3534,1421.9807 996.3534,1479.6234 C 996.3534,1499.4946 987.34953,1532.9981 976.57169,1553.2313 C 965.55238,1573.918 942.24573,1599.5429 925.55181,1609.3262 C 907.84508,1619.703 886.70182,1619.6898 870.97612,1609.292 C 856.83423,1599.9414 851.93463,1592.6148 848.87639,1576.2447 C 844.12731,1550.8242 854.12206,1522.6968 875.59254,1501.0595 C 889.71229,1486.83 914.91874,1473.2017 931.14196,1471.0257 C 943.81842,1469.3254 944.84238,1463.6693 934.66362,1451.5726 C 918.78688,1432.7041 895.15881,1434.4392 856.72636,1457.296 C 777.38609,1504.4815 703.74958,1575.3338 626.9175,1678.4159 C 526.85409,1812.6665 445.4808,1976.2534 411.80251,2110.8674 C 397.94429,2166.2594 395.60933,2185.8833 395.66335,2246.5063 C 395.71074,2299.6863 396.24489,2305.9512 402.78272,2330.0088 C 409.90738,2356.2257 421.91495,2384.7985 432.05447,2399.6629 C 448.91517,2424.3802 483.23304,2451.0975 509.09356,2459.6396 C 553.18953,2474.2052 628.19742,2479.213 680.17755,2471.0621 C 713.71843,2465.8025 781.00467,2449.6959 828.91824,2435.4573 C 846.47138,2430.241 892.16395,2416.6576 930.45726,2405.2718 C 1033.2808,2374.6994 1084.9217,2361.3695 1141.456,2350.8074 C 1230.635,2334.1464 1259.6356,2331.4676 1350.8965,2331.4616 C 1436.7426,2331.456 1453.2633,2332.9876 1514.7062,2346.6485 C 1580.212,2361.2126 1653.0547,2392.7016 1702.702,2427.9165 C 1745.7362,2458.4408 1799.62,2514.7103 1827.2026,2557.9294 C 1832.8048,2566.7075 1833.0284,2566.707 1808.1067,2557.966 z"
       id="path6744" />
    <path
       style="fill:none;fill-opacity:1;stroke:#ff0000;stroke-width:6;stroke-miterlimit:4;stroke-dasharray:none;stroke-opacity:1"
       d="M 2087.3607,2547.2252 C 2001.5038,2528.8667 1948.1978,2465.7221 1935.1905,2366.9689 C 1930.8355,2333.9055 1933.4992,2263.5166 1940.6562,2222.5359 C 1962.0284,2100.1591 2016.8664,1967.9268 2103.2941,1830.363 C 2237.2669,1617.1233 2425.7631,1449.7487 2596.4788,1392.4414 C 2629.9927,1381.1911 2648.9135,1377.375 2680.0911,1375.5775 C 2723.1381,1373.0957 2747.7225,1379.7523 2777.4959,1401.9513 L 2791.3982,1412.3169 L 2818.316,1402.9383 C 2939.0317,1360.8795 3047.3593,1361.5873 3144.0294,1405.0668 C 3178.8151,1420.7124 3204.5016,1435.8958 3270.4047,1479.768 C 3302.2027,1500.9362 3330.5387,1519.7317 3333.3738,1521.536 C 3336.6594,1523.627 3337.5111,1525.6125 3335.7225,1527.0116 C 3324.8951,1535.4812 3251.6016,1626.1716 3235.6513,1650.8356 L 3231.356,1657.4776 L 3208.1513,1645.1334 C 3171.7042,1625.7447 3140.7832,1604.2838 3082.5795,1557.9805 C 2999.1842,1491.6359 2962.2834,1472.2277 2904.9787,1464.5701 C 2882.6803,1461.5904 2831.2658,1462.7104 2821.6913,1466.3846 C 2818.2414,1467.7085 2817.4527,1474.2227 2817.26,1502.9881 C 2816.4746,1620.1911 2762.7844,1744.3835 2679.1591,1822.4337 C 2626.0399,1872.0115 2574.9225,1888.7052 2537.8237,1868.5903 C 2509.2039,1853.0725 2496.6498,1827.2803 2496.412,1783.5104 C 2496.0321,1713.5574 2540.4634,1620.057 2609.8444,1544.8058 C 2642.0746,1509.8486 2701.3347,1456.7212 2708.1535,1456.6706 C 2709.2828,1456.6622 2710.2068,1455.2522 2710.2068,1453.5373 C 2710.2068,1451.3735 2704.9909,1450.8922 2693.1641,1451.9646 C 2659.3836,1455.0278 2597.7392,1494.4186 2529.2646,1556.6967 C 2461.3397,1618.475 2383.0293,1712.1286 2322.5507,1803.912 C 2309.9543,1823.0285 2283.8426,1864.8318 2276.4674,1877.6884 C 2271.5318,1886.2924 2259.7322,1906.8841 2250.246,1923.4477 C 2199.1061,2012.7424 2151.0816,2123.0581 2128.6764,2202.7018 C 2112.3697,2260.6673 2105.7594,2330.2679 2113.0511,2367.2223 C 2129.1306,2448.7123 2193.8117,2477.6074 2272.0026,2438.2312 C 2316.0729,2416.0377 2372.2071,2360.1783 2412.8384,2298.0849 C 2456.7461,2230.9842 2491.3583,2134.4863 2491.1238,2079.8273 C 2491.0549,2063.7463 2483.2881,2044.3691 2475.17,2040.0245 C 2459.3356,2031.5501 2433.9487,2042.1817 2407.9591,2068.1713 C 2394.4912,2081.6394 2388.8978,2089.9403 2381.7694,2107.0392 C 2369.6888,2136.0167 2363.378,2158.3537 2357.1984,2194.0077 C 2354.3735,2210.3069 2351.6405,2224.0015 2351.1251,2224.4402 C 2350.6097,2224.8789 2341.0463,2229.7865 2329.8731,2235.3459 C 2286.5022,2256.926 2232.1718,2302.2797 2204.4288,2340.0636 C 2192.378,2356.476 2191.4325,2357.1733 2189.1747,2351.3136 C 2185.0545,2340.6203 2189.0949,2265.4184 2195.212,2238.944 C 2222.2473,2121.9379 2295.5468,2014.8088 2376.5454,1973.9209 C 2426.6226,1948.6419 2477.3376,1953.243 2512.6442,1986.2683 C 2538.4881,2010.4421 2547.2969,2044.8451 2540.728,2095.9509 C 2526.2305,2208.7436 2487.3734,2301.4888 2419.1089,2386.2348 C 2381.0302,2433.5072 2302.0601,2502.4147 2263.8697,2521.6932 C 2242.8777,2532.29 2210.6866,2543.0101 2185.2355,2547.8797 C 2159.3514,2552.8321 2112.1054,2552.5162 2087.3607,2547.2252 z"
       id="path6742" />
    <path
       style="fill:none;fill-opacity:1;stroke:#ff0000;stroke-width:6;stroke-miterlimit:4;stroke-dasharray:none;stroke-opacity:1"
       d="M 2608.573,1815.1124 C 2637.2118,1795.1226 2676.1673,1751.5145 2701.5868,1710.9891 C 2724.039,1675.1944 2745.6763,1620.0994 2755.6775,1573.2579 C 2760.7137,1549.6709 2764.0936,1494.9844 2760.5153,1494.9844 C 2759.1238,1494.9844 2748.4603,1500.4125 2736.8184,1507.0469 C 2694.4717,1531.1792 2657.8446,1569.7491 2612.6057,1637.8481 C 2569.9799,1702.0137 2556.4276,1735.3906 2556.1146,1776.9762 C 2555.9585,1797.7119 2559.7867,1809.8681 2570.2104,1821.7359 C 2576.5455,1828.9488 2592.7608,1826.1491 2608.573,1815.1124 z"
       id="path6740" />
    <path
       style="fill:none;fill-opacity:1;stroke:#ff0000;stroke-width:6;stroke-miterlimit:4;stroke-dasharray:none;stroke-opacity:1"
       d="M 2600.6954,2541.8991 C 2561.9913,2535.3773 2543.1834,2523.7874 2531.0733,2498.9965 C 2504.9903,2445.6012 2524.3572,2337.3416 2579.8222,2226.4936 C 2615.4279,2155.3351 2648.8825,2109.1103 2706.0202,2052.1236 C 2780.7949,1977.5466 2846.7716,1947.5948 2897.9418,1964.9961 C 2916.2706,1971.2291 2940.2434,1995.2038 2946.7364,2013.7946 C 2957.4334,2044.4228 2955.3131,2087.6012 2940.1679,2147.5537 C 2935.6576,2165.4073 2931.9674,2181.7459 2931.9674,2183.8617 C 2931.9674,2192.4131 2980.128,2179.8157 2984.0037,2170.2506 C 2985.3134,2167.0178 2993.4326,2144.6607 3002.0465,2120.5682 C 3077.7909,1908.713 3200.8039,1710.0943 3374.2369,1519.6244 C 3427.1946,1461.4644 3458.2326,1432.559 3486.4017,1415.1661 C 3540.8305,1381.559 3579.4522,1370.8874 3611.6926,1380.5469 C 3634.5391,1387.3918 3649.1594,1411.0826 3645.1571,1434.7724 C 3640.5133,1462.2585 3614.2905,1497.7222 3598.6101,1497.7222 C 3594.85,1497.7222 3591.7766,1496.7981 3591.7801,1495.6688 C 3591.7837,1494.5394 3596.7117,1486.3652 3602.7313,1477.5036 C 3610.8321,1465.5784 3613.6759,1458.6424 3613.6759,1450.8103 C 3613.6759,1441.3777 3612.9402,1440.2286 3606.9017,1440.2286 C 3588.8204,1440.2286 3501.8508,1531.973 3434.689,1621.8963 C 3272.1993,1839.4545 3134.2259,2123.4442 3094.8227,2321.4412 C 3084.5515,2373.0513 3086.4036,2398.6299 3100.8079,2404.1065 C 3117.0091,2410.2661 3138.9735,2390.9818 3184.3788,2330.7328 C 3211.9355,2294.1679 3226.1273,2273.3093 3291.9795,2172.5861 C 3350.1679,2083.5853 3388.7789,2038.0266 3435.8573,2002.8183 C 3497.6102,1956.6354 3546.1744,1948.5169 3592.0027,1976.7153 L 3606.1313,1985.4088 L 3613.899,1976.3305 C 3618.1713,1971.3374 3621.7167,1966.3282 3621.7781,1965.199 C 3621.913,1962.708 3758.7785,1962.4111 3758.7785,1964.9017 C 3758.7785,1966.6454 3710.9261,2060.4059 3613.6586,2249.2441 C 3559.5309,2354.3297 3547.6235,2379.4863 3548.4832,2386.9385 C 3549.1975,2393.1282 3550.5685,2394.263 3556.8194,2393.8378 C 3567.9351,2393.0816 3581.7245,2381.2489 3609.3827,2348.733 C 3636.4821,2316.874 3665.4838,2272.4922 3674.3599,2249.2971 L 3680,2234.5591 L 3704.3376,2233.6883 C 3723.1462,2233.0153 3728.6741,2233.6408 3728.6691,2236.4413 C 3728.6552,2244.5557 3713.8235,2283.4552 3702.0587,2306.2338 C 3674.2174,2360.14 3631.1862,2416.5919 3581.598,2464.2646 C 3485.679,2556.4786 3413.3587,2564.4137 3390.5428,2485.2276 L 3385.9636,2469.3348 L 3371.8284,2481.7248 C 3314.3722,2532.0869 3263.6456,2549.6495 3228.2417,2531.4379 C 3205.2835,2519.6283 3192.2848,2496.6428 3184.8925,2454.7837 C 3182.7851,2442.8506 3180.6278,2432.6539 3180.0984,2432.1244 C 3179.5689,2431.5949 3173.9879,2437.9795 3167.6964,2446.3125 C 3143.4095,2478.4805 3099.3205,2517.8137 3074.3322,2529.6057 C 3061.4131,2535.7022 3055.58,2536.7105 3033.2655,2536.704 C 3011.4135,2536.6976 3005.377,2535.6941 2995.4974,2530.4254 C 2967.4066,2515.4446 2948.9411,2489.2112 2941.381,2453.5431 C 2936.3884,2429.9902 2936.4154,2373.9298 2941.4349,2340.9599 C 2943.6128,2326.655 2949.7657,2298.1168 2955.1077,2277.5418 C 2960.4499,2256.9668 2964.8208,2239.0263 2964.8208,2237.6742 C 2964.8208,2236.322 2955.8888,2236.8206 2944.9719,2238.7821 C 2934.055,2240.7437 2919.6661,2242.0986 2912.9966,2241.7932 C 2904.3978,2241.3992 2900.5007,2242.4022 2899.6001,2245.2408 C 2896.9202,2253.6874 2843.245,2351.0974 2827.4378,2376.2013 C 2774.8048,2459.7895 2713.2102,2518.8912 2662.2541,2534.6997 C 2643.1546,2540.625 2613.6277,2544.0782 2600.6954,2541.8991 z"
       id="path6738" />
    <path
       style="fill:none;fill-opacity:1;stroke:#ff0000;stroke-width:6;stroke-miterlimit:4;stroke-dasharray:none;stroke-opacity:1"
       d="M 2723.0887,2405.9207 C 2753.6403,2391.1196 2800.4801,2329.8271 2837.3667,2256.3814 L 2849.3432,2232.5349 L 2830.9101,2227.7864 C 2795.8456,2218.7536 2757.8627,2196.3543 2750.6072,2180.4303 C 2748.9845,2176.8689 2746.7283,2173.955 2745.5934,2173.955 C 2739.8233,2173.955 2705.2497,2243.9069 2688.7612,2288.9421 C 2662.9822,2359.3527 2663.1824,2404.4662 2689.3065,2411.8317 C 2699.6493,2414.7478 2707.8189,2413.3183 2723.0887,2405.9207 z"
       id="path6736" />
    <path
       style="fill:none;fill-opacity:1;stroke:#ff0000;stroke-width:6;stroke-miterlimit:4;stroke-dasharray:none;stroke-opacity:1"
       d="M 3370.7853,2400.2463 C 3387.675,2393.1861 3415.7737,2357.2541 3467.4502,2276.6342 C 3480.2679,2256.6373 3531.5563,2156.5329 3550.3211,2114.8865 C 3578.5041,2052.3381 3575.4151,2021.3629 3543.0727,2042.2046 C 3496.2129,2072.4015 3409.1608,2191.4483 3372.6579,2275.2531 C 3348.1287,2331.5687 3337.8605,2369.7704 3342.5607,2387.2259 C 3346.8995,2403.339 3354.7375,2406.9547 3370.7853,2400.2463 z"
       id="path6734" />
    <path
       style="fill:none;fill-opacity:1;stroke:#ff0000;stroke-width:6;stroke-miterlimit:4;stroke-dasharray:none;stroke-opacity:1"
       d="M 2883.5241,2161.635 C 2912.8933,2082.5161 2905.6152,2028.8524 2865.5156,2028.8524 C 2847.0432,2028.8524 2817.9808,2060.1149 2811.2923,2087.1804 C 2806.8429,2105.1852 2809.4126,2132.5269 2816.7877,2145.649 C 2826.3062,2162.585 2852.3553,2177.3367 2870.2983,2175.9523 C 2877.3769,2175.4062 2879.1078,2173.5325 2883.5241,2161.635 z"
       id="path6732" />
    <path
       style="fill:none;fill-opacity:1;stroke:#ff0000;stroke-width:6;stroke-miterlimit:4;stroke-dasharray:none;stroke-opacity:1"
       d="M 618.5567,2255.5059 C 574.66044,2238.6568 553.05864,2186.7437 560.68491,2116.4294 C 568.13874,2047.7046 594.38066,1977.3224 643.53176,1894.2297 C 712.49406,1777.6449 798.65747,1693.1348 870.23229,1671.8794 C 889.20727,1666.2445 920.53698,1666.2182 936.98742,1671.8234 C 963.66377,1680.913 987.62194,1711.0397 996.66057,1746.8606 C 1003.1052,1772.4013 1001.0762,1822.5446 992.28469,1855.0031 C 980.29026,1899.2868 979.72718,1894.701 997.15921,1894.701 C 1016.4937,1894.701 1041.3455,1886.9631 1057.3282,1875.9667 C 1064.2144,1871.2289 1084.3849,1851.6378 1102.1515,1832.4311 C 1221.7076,1703.1839 1274.2239,1667.4648 1344.6945,1667.4648 C 1365.0066,1667.4648 1369.8543,1668.4826 1384.5719,1675.837 C 1410.7718,1688.9293 1423.7155,1707.7143 1429.4073,1740.9061 C 1432.1428,1756.8587 1431.9434,1763.5083 1428.1511,1782.7959 C 1419.9302,1824.6067 1391.41,1870.7634 1365.6872,1883.8862 C 1344.62,1894.6339 1320.2908,1888.4964 1308.2686,1869.4015 C 1300.6785,1857.3459 1301.9215,1822.2066 1310.5277,1805.5362 C 1322.0693,1783.1799 1349.9161,1766.0251 1374.6646,1766.0251 C 1383.6492,1766.0251 1383.7558,1765.6737 1378.0925,1754.7222 C 1372.4486,1743.8081 1358.673,1737.977 1346.6671,1741.4202 C 1310.4134,1751.8177 1243.4249,1837.0484 1186.3659,1945.3742 C 1149.5317,2015.3039 1133.2315,2063.7532 1133.258,2103.2288 C 1133.2779,2133.0801 1136.614,2144.1624 1148.8012,2154.863 C 1157.9493,2162.895 1159.989,2163.5096 1174.1074,2162.4884 C 1203.7216,2160.3463 1245.0726,2134.4707 1295.5609,2086.4882 C 1328.9769,2054.7305 1357.0506,2018.985 1400.7545,1952.5475 C 1455.8539,1868.7869 1536.5616,1763.2835 1569.3789,1732.1171 C 1613.7014,1690.024 1657.6811,1669.4999 1704.0708,1669.2599 C 1731.8038,1669.1164 1746.2986,1673.927 1763.4149,1688.9553 L 1773.2006,1697.5473 L 1778.6046,1685.0633 L 1784.0086,1672.5792 L 1853.4105,1672.8473 C 1891.5816,1672.9948 1923.2532,1673.5562 1923.7918,1674.0949 C 1924.3305,1674.6335 1876.0377,1772.5354 1816.4744,1891.6544 C 1756.9111,2010.7735 1708.1775,2111.3563 1708.1775,2115.1717 C 1708.1775,2118.9872 1710.0476,2122.8266 1712.3333,2123.7037 C 1720.4867,2126.8324 1733.1461,2118.1785 1757.1591,2093.0604 C 1784.8211,2064.1255 1813.35,2022.783 1831.2566,1985.6824 L 1843.4553,1960.4078 L 1873.3046,1960.4078 L 1903.1539,1960.4078 L 1901.2822,1967.9368 C 1897.9632,1981.2881 1868.499,2037.6456 1850.1116,2065.8125 C 1801.2404,2140.6769 1727.6659,2214.9088 1675.324,2242.162 C 1646.4131,2257.2152 1626.8439,2262.3413 1602.9026,2261.1323 C 1587.0938,2260.334 1580.8908,2258.6616 1572.0574,2252.8159 C 1558.7712,2244.0235 1549.5283,2226.4881 1548.7496,2208.5972 C 1548.4447,2201.5903 1548.0051,2195.8573 1547.7727,2195.8573 C 1547.5405,2195.8573 1539.0503,2203.7978 1528.9058,2213.5028 C 1509.0755,2232.474 1476.3732,2251.4156 1452.4532,2257.7851 C 1435.0629,2262.4159 1401.0041,2262.5786 1386.4579,2258.1003 C 1360.6799,2250.1642 1343.5033,2232.4822 1334.3312,2204.4401 C 1330.5475,2192.8721 1329.8919,2183.4241 1330.9562,2155.7962 L 1332.2771,2121.5087 L 1310.1023,2143.1727 C 1253.4223,2198.5471 1186.6348,2241.4244 1135.9805,2254.9583 C 1096.4107,2265.5306 1048.2188,2259.0501 1021.7714,2239.6005 C 1006.7782,2228.5744 990.17596,2206.1138 982.35477,2186.275 C 976.53155,2171.5042 975.90854,2165.8467 976.17433,2130.1505 C 976.53432,2081.8058 982.30552,2056.9537 1006.8234,1998.168 C 1015.7992,1976.647 1022.9674,1958.8996 1022.7527,1958.7293 C 1022.538,1958.5591 1006.892,1957.7219 987.9838,1956.869 L 953.60526,1955.3181 L 939.10535,1984.5563 C 912.49898,2038.2067 872.1049,2101.9794 838.91654,2142.7311 C 819.28441,2166.8372 774.51174,2212.6598 756.95925,2226.6102 C 717.18783,2258.2201 657.88468,2270.6014 618.5567,2255.5059 z"
       id="path6730" />
    <path
       style="fill:none;fill-opacity:1;stroke:#ff0000;stroke-width:6;stroke-miterlimit:4;stroke-dasharray:none;stroke-opacity:1"
       d="M 762.99793,2128.5897 C 795.4368,2112.4247 844.54453,2050.0807 879.70607,1980.4247 C 898.19778,1943.7921 898.22636,1943.1241 881.65991,1934.8033 C 860.58025,1924.2156 836.52852,1907.0958 821.20423,1891.7715 C 813.61612,1884.1834 806.20081,1878.7208 804.7258,1879.6324 C 803.25076,1880.544 793.90583,1893.6321 783.95926,1908.7172 C 744.72028,1968.2271 711.62375,2054.4978 711.62375,2097.2695 C 711.62375,2110.1287 717.95367,2127.2277 724.55628,2132.2039 C 731.82382,2137.6812 747.76027,2136.1829 762.99793,2128.5897 z"
       id="path6728" />
    <path
       style="fill:none;fill-opacity:1;stroke:#ff0000;stroke-width:6;stroke-miterlimit:4;stroke-dasharray:none;stroke-opacity:1"
       d="M 1530.2968,2125.6301 C 1564.6037,2102.72 1596.2268,2052.8574 1683.3314,1884.3281 C 1735.0763,1784.2126 1741.8479,1765.2763 1731.2934,1750.2076 C 1719.051,1732.729 1684.2789,1755.1925 1641.1212,1808.4608 C 1577.511,1886.9726 1519.6033,1994.6558 1502.6464,2065.9638 C 1496.3712,2092.3525 1496.3738,2118.2481 1502.6525,2125.8135 C 1507.3372,2131.4582 1521.712,2131.3629 1530.2968,2125.6301 z"
       id="path6726" />
    <path
       style="fill:none;fill-opacity:1;stroke:#ff0000;stroke-width:6;stroke-miterlimit:4;stroke-dasharray:none;stroke-opacity:1"
       d="M 929.50109,1872.3578 C 939.29812,1853.0242 949.97115,1809.6192 950.42565,1787.2618 C 950.74926,1771.3432 949.91235,1767.8547 944.34927,1761.933 C 927.69995,1744.2107 901.78159,1748.7527 878.17706,1773.5293 C 852.72973,1800.2402 847.50243,1827.1065 863.15169,1850.7541 C 872.96555,1865.5839 904.58142,1885.7455 918.96483,1886.3465 C 920.82171,1886.4242 925.563,1880.1291 929.50109,1872.3578 z"
       id="path6724" />
    <path
       style="fill:none;fill-opacity:1;stroke:#ff0000;stroke-width:6;stroke-miterlimit:4;stroke-dasharray:none;stroke-opacity:1"
       d="M 1945.7179,1810.6502 L 1919.0619,1809.6323 L 1949.0466,1749.7103 C 1973.3185,1701.2049 1980.9631,1688.3138 1989.1712,1682.0488 L 1999.3113,1674.3093 L 2064.5539,1673.4865 C 2100.4372,1673.034 2129.7964,1673.4 2129.7964,1674.2999 C 2129.7964,1675.1997 2116.1724,1703.0122 2099.5207,1736.1053 C 2060.8433,1812.9724 2063.0858,1811.0951 2009.5405,1811.4333 C 1989.0988,1811.5625 1960.3786,1811.2101 1945.7179,1810.6502 z"
       id="path6722" />
    <path
       style="fill:none;fill-opacity:1;stroke:#ff0000;stroke-width:6;stroke-miterlimit:4;stroke-dasharray:none;stroke-opacity:1"
       d="M 3397.3908,1725.472 C 3397.3908,1721.4938 3462.722,1626.2608 3482.251,1601.7719 L 3501.2561,1577.94 L 3532.1414,1576.3442 C 3615.045,1572.0607 3692.6158,1539.8315 3778.4787,1473.9961 C 3795.514,1460.9342 3846.1809,1413.3137 3871.9889,1386.1079 C 3880.9426,1376.6696 3888.7948,1369.4741 3889.4387,1370.1179 C 3891.8326,1372.5118 3872.6827,1423.5203 3857.4641,1455.2864 C 3840.0151,1491.7082 3811.9906,1535.5487 3787.4606,1564.7979 C 3712.2534,1654.4728 3620.9606,1706.6856 3509.6401,1723.6907 C 3482.0858,1727.8998 3397.3908,1729.2438 3397.3908,1725.472 z"
       id="path5749" />
  </g>
</svg>
