<?xml version="1.0" encoding="UTF-8" standalone="no"?>
<!-- Created with Inkscape (http://www.inkscape.org/) -->
<svg
   xmlns:dc="http://purl.org/dc/elements/1.1/"
   xmlns:cc="http://web.resource.org/cc/"
   xmlns:rdf="http://www.w3.org/1999/02/22-rdf-syntax-ns#"
   xmlns:svg="http://www.w3.org/2000/svg"
   xmlns="http://www.w3.org/2000/svg"
   xmlns:xlink="http://www.w3.org/1999/xlink"
   xmlns:sodipodi="http://sodipodi.sourceforge.net/DTD/sodipodi-0.dtd"
   xmlns:inkscape="http://www.inkscape.org/namespaces/inkscape"
   width="4096"
   height="4096"
   id="svg2"
   sodipodi:version="0.32"
   inkscape:version="0.45.1"
   sodipodi:docbase="E:\laser graphics"
   sodipodi:docname="dragon2.svg"
   inkscape:output_extension="org.inkscape.output.svg.inkscape"
   version="1.0">
  <defs
     id="defs4">
    <linearGradient
       id="linearGradient4278">
      <stop
         style="stop-color:#00e8ff;stop-opacity:1;"
         offset="0"
         id="stop4280" />
      <stop
         style="stop-color:#00f000;stop-opacity:1;"
         offset="1"
         id="stop4282" />
    </linearGradient>
    <linearGradient
       id="linearGradient4183">
      <stop
         style="stop-color:lime;stop-opacity:1;"
         offset="0"
         id="stop4185" />
      <stop
         style="stop-color:white;stop-opacity:1;"
         offset="1"
         id="stop4187" />
    </linearGradient>
    <linearGradient
       id="linearGradient4146">
      <stop
         style="stop-color:lime;stop-opacity:1;"
         offset="0"
         id="stop4148" />
      <stop
         style="stop-color:#fbf;stop-opacity:1;"
         offset="1"
         id="stop4150" />
    </linearGradient>
    <linearGradient
       id="linearGradient4132">
      <stop
         style="stop-color:#ff0000;stop-opacity:1;"
         offset="0"
         id="stop4134" />
      <stop
         style="stop-color:#ffff00;stop-opacity:1;"
         offset="1"
         id="stop4136" />
    </linearGradient>
    <linearGradient
       inkscape:collect="always"
       xlink:href="#linearGradient4132"
       id="linearGradient4165"
       gradientUnits="userSpaceOnUse"
       x1="373.90512"
       y1="422.04355"
       x2="152.73645"
       y2="435.94421"
       gradientTransform="matrix(6.906789,0,0,6.904121,-543.0581,-1338.024)" />
    <linearGradient
       inkscape:collect="always"
       xlink:href="#linearGradient4132"
       id="linearGradient4173"
       x1="399.72711"
       y1="524.58789"
       x2="616.78876"
       y2="474.18713"
       gradientUnits="userSpaceOnUse"
       gradientTransform="matrix(6.906789,0,0,6.904121,-543.0581,-1338.024)" />
    <linearGradient
       inkscape:collect="always"
       xlink:href="#linearGradient4132"
       id="linearGradient4181"
       x1="331.25159"
       y1="700.20984"
       x2="417.67416"
       y2="700.20984"
       gradientUnits="userSpaceOnUse"
       gradientTransform="matrix(6.906789,0,0,6.904121,-543.0581,-1338.024)" />
    <linearGradient
       inkscape:collect="always"
       xlink:href="#linearGradient4183"
       id="linearGradient4189"
       x1="565.35718"
       y1="583.09918"
       x2="574.35718"
       y2="583.09918"
       gradientUnits="userSpaceOnUse"
       gradientTransform="matrix(6.906789,0,0,6.904121,-543.0581,-1338.024)" />
    <linearGradient
       inkscape:collect="always"
       xlink:href="#linearGradient4183"
       id="linearGradient4191"
       x1="492.53067"
       y1="583.98737"
       x2="526.35718"
       y2="583.98737"
       gradientUnits="userSpaceOnUse"
       gradientTransform="matrix(6.906789,0,0,6.904121,-543.0581,-1338.024)" />
    <linearGradient
       inkscape:collect="always"
       xlink:href="#linearGradient4183"
       id="linearGradient4193"
       x1="438.35715"
       y1="584.80212"
       x2="451.35715"
       y2="584.80212"
       gradientUnits="userSpaceOnUse"
       gradientTransform="matrix(6.906789,0,0,6.904121,-543.0581,-1338.024)" />
    <linearGradient
       inkscape:collect="always"
       xlink:href="#linearGradient4183"
       id="linearGradient4195"
       x1="489.45691"
       y1="596.80548"
       x2="494.3717"
       y2="596.80548"
       gradientUnits="userSpaceOnUse"
       gradientTransform="matrix(6.906789,0,0,6.904121,-543.0581,-1338.024)" />
    <linearGradient
       inkscape:collect="always"
       xlink:href="#linearGradient4183"
       id="linearGradient4197"
       x1="477.35715"
       y1="598.67352"
       x2="482.3208"
       y2="598.67352"
       gradientUnits="userSpaceOnUse"
       gradientTransform="matrix(6.906789,0,0,6.904121,-543.0581,-1338.024)" />
    <linearGradient
       inkscape:collect="always"
       xlink:href="#linearGradient4183"
       id="linearGradient4199"
       x1="499.35715"
       y1="598.11292"
       x2="521.48389"
       y2="598.11292"
       gradientUnits="userSpaceOnUse"
       gradientTransform="matrix(6.906789,0,0,6.904121,-543.0581,-1338.024)" />
    <linearGradient
       inkscape:collect="always"
       xlink:href="#linearGradient4183"
       id="linearGradient4201"
       x1="499.23996"
       y1="608.06555"
       x2="521.47565"
       y2="608.06555"
       gradientUnits="userSpaceOnUse"
       gradientTransform="matrix(6.906789,0,0,6.904121,-543.0581,-1338.024)" />
    <linearGradient
       inkscape:collect="always"
       xlink:href="#linearGradient4183"
       id="linearGradient4203"
       x1="496.94867"
       y1="604.17828"
       x2="524.03064"
       y2="604.17828"
       gradientUnits="userSpaceOnUse"
       gradientTransform="matrix(6.906789,0,0,6.904121,-543.0581,-1338.024)" />
    <linearGradient
       inkscape:collect="always"
       xlink:href="#linearGradient4183"
       id="linearGradient4205"
       x1="421.75391"
       y1="612.00751"
       x2="441.60599"
       y2="612.00751"
       gradientUnits="userSpaceOnUse"
       gradientTransform="matrix(6.906789,0,0,6.904121,-543.0581,-1338.024)" />
    <linearGradient
       inkscape:collect="always"
       xlink:href="#linearGradient4183"
       id="linearGradient4207"
       x1="489.35715"
       y1="620.93817"
       x2="529.35559"
       y2="620.93817"
       gradientUnits="userSpaceOnUse"
       gradientTransform="matrix(6.906789,0,0,6.904121,-543.0581,-1338.024)" />
    <linearGradient
       inkscape:collect="always"
       xlink:href="#linearGradient4183"
       id="linearGradient4209"
       x1="536.46783"
       y1="601.71991"
       x2="583.94336"
       y2="601.71991"
       gradientUnits="userSpaceOnUse"
       gradientTransform="matrix(6.906789,0,0,6.904121,-543.0581,-1338.024)" />
    <linearGradient
       inkscape:collect="always"
       xlink:href="#linearGradient4183"
       id="linearGradient4211"
       x1="484.05139"
       y1="603.13702"
       x2="490.19113"
       y2="603.13702"
       gradientUnits="userSpaceOnUse"
       gradientTransform="matrix(6.906789,0,0,6.904121,-543.0581,-1338.024)" />
    <linearGradient
       inkscape:collect="always"
       xlink:href="#linearGradient4183"
       id="linearGradient4213"
       x1="432.35715"
       y1="609.30518"
       x2="471.6738"
       y2="609.30518"
       gradientUnits="userSpaceOnUse"
       gradientTransform="matrix(6.906789,0,0,6.904121,-543.0581,-1338.024)" />
    <linearGradient
       inkscape:collect="always"
       xlink:href="#linearGradient4132"
       id="linearGradient4247"
       gradientUnits="userSpaceOnUse"
       x1="373.90512"
       y1="422.04355"
       x2="152.73645"
       y2="435.94421"
       gradientTransform="matrix(6.906789,0,0,6.904121,-543.0581,-1338.024)" />
    <linearGradient
       inkscape:collect="always"
       xlink:href="#linearGradient4132"
       id="linearGradient4249"
       gradientUnits="userSpaceOnUse"
       x1="373.90512"
       y1="422.04355"
       x2="152.73645"
       y2="435.94421"
       gradientTransform="matrix(6.906789,0,0,6.904121,-543.0581,-1338.024)" />
    <linearGradient
       inkscape:collect="always"
       xlink:href="#linearGradient4132"
       id="linearGradient4251"
       gradientUnits="userSpaceOnUse"
       x1="373.90512"
       y1="422.04355"
       x2="152.73645"
       y2="435.94421"
       gradientTransform="matrix(6.906789,0,0,6.904121,-543.0581,-1338.024)" />
    <linearGradient
       inkscape:collect="always"
       xlink:href="#linearGradient4183"
       id="linearGradient4267"
       gradientUnits="userSpaceOnUse"
       gradientTransform="matrix(6.906789,0,0,6.904121,-543.0581,-1338.024)"
       x1="510.99225"
       y1="628.88837"
       x2="509.35312"
       y2="577.64807" />
    <linearGradient
       inkscape:collect="always"
       xlink:href="#linearGradient4278"
       id="linearGradient4284"
       x1="2113.7568"
       y1="474.01801"
       x2="2113.7568"
       y2="2241.9543"
       gradientUnits="userSpaceOnUse" />
  </defs>
  <sodipodi:namedview
     id="base"
     pagecolor="black"
     bordercolor="#666666"
     borderopacity="1.0"
     gridtolerance="10000"
     guidetolerance="10"
     objecttolerance="10"
     inkscape:pageopacity="1"
     inkscape:pageshadow="2"
     inkscape:zoom="0.17675781"
     inkscape:cx="2048"
     inkscape:cy="2048"
     inkscape:document-units="px"
     inkscape:current-layer="layer1"
     inkscape:window-width="808"
     inkscape:window-height="936"
     inkscape:window-x="36"
     inkscape:window-y="3"
     width="4096px"
     height="4096px" />
  <metadata
     id="metadata7">
    <rdf:RDF>
      <cc:Work
         rdf:about="">
        <dc:format>image/svg+xml</dc:format>
        <dc:type
           rdf:resource="http://purl.org/dc/dcmitype/StillImage" />
      </cc:Work>
    </rdf:RDF>
  </metadata>
  <g
     inkscape:label="Layer 1"
     inkscape:groupmode="layer"
     id="layer1">
    <path
       style="fill:none;stroke:url(#linearGradient4181);stroke-width:5;stroke-miterlimit:4;stroke-dasharray:none;stroke-opacity:1"
       d="M 2004.5604,3676.45 C 2004.5604,3653.603 1978.4482,3619.3611 1931.9075,3581.1778 C 1904.2048,3558.4496 1877.583,3530.3068 1872.7478,3518.6381 L 1863.9566,3497.4223 L 1851.377,3512.9513 C 1844.4583,3521.4923 1838.7975,3537.4568 1838.7975,3548.4279 C 1838.7975,3559.399 1835.6894,3568.3754 1831.8907,3568.3754 C 1828.0919,3568.3754 1824.9839,3560.5085 1824.9839,3550.8933 C 1824.9839,3524.341 1807.824,3488.8001 1777.5228,3452.5934 C 1746.0831,3415.0264 1740.8246,3392.0268 1757.7662,3366.1808 L 1769.7353,3347.9206 L 1836.9489,3396.5842 C 1924.6415,3460.0747 1993.9205,3494.1007 2029.5336,3491.171 L 2056.1911,3488.978 L 1976.628,3423.3888 C 1932.8684,3387.3148 1885.53,3350.0326 1871.4318,3340.5394 C 1857.3336,3331.0462 1845.7774,3319.3955 1845.7514,3314.6489 C 1845.6712,3299.9662 1920.1916,3304.573 1994.327,3323.8339 C 2032.646,3333.7895 2071.3589,3339.9575 2082.0765,3337.8148 C 2106.76,3332.88 2108.0323,3348.3888 2083.9989,3361.2462 C 2062.8468,3372.5621 2065.5302,3375.6006 2106.7702,3387.0301 C 2153.4847,3399.9769 2196.3298,3403.9792 2201.3467,3395.8648 C 2203.7259,3392.0167 2210.6329,3388.8682 2216.6955,3388.8682 C 2234.4029,3388.8682 2208.7417,3413.3732 2172.8434,3430.7446 C 2156.2397,3438.7792 2144.2548,3447.9407 2146.2102,3451.1033 C 2148.1656,3454.266 2165.9271,3462.2196 2185.6802,3468.7781 C 2210.1973,3476.9182 2231.7295,3491.103 2253.5289,3513.4751 C 2292.7194,3553.695 2348.0691,3655.8166 2336.789,3667.0923 C 2331.2475,3672.6316 2329.1795,3672.4059 2329.1795,3666.2619 C 2329.1795,3661.6215 2314.8746,3648.7565 2297.3909,3637.6729 C 2266.0713,3617.8182 2253.1623,3615.0786 2153.0564,3607.0414 L 2111.6156,3603.7141 L 2134.9998,3624.7571 C 2160,3647.2543 2156.3303,3657.8033 2123.4273,3658.0233 C 2106.2679,3658.1379 2056.524,3635.0425 2049.5155,3623.707 C 2040.6726,3609.4042 2033.226,3617.633 2024.6133,3651.2248 C 2016.4271,3683.1534 2004.5604,3698.0808 2004.5604,3676.45 z "
       id="path3245" />
    <path
       style="fill:none;stroke:#ffff00;stroke-width:5;stroke-miterlimit:4;stroke-dasharray:none;stroke-opacity:1"
       d="M 1917.8751,3424.7436 C 1772.8832,3340.1983 1657.4953,3258.8359 1455.5073,3098.7182 C 1422.2856,3072.383 1326.546,2968.7914 1290.9876,2920.7055 C 1278.8875,2904.3423 1257.3467,2875.7137 1243.1193,2857.0863 C 1210.4022,2814.2512 1170.5424,2734.8339 1138.4419,2648.5253 C 1094.0682,2529.2176 1096.8533,2409.0953 1145.8876,2327.3911 C 1178.133,2273.6619 1206.5098,2245.6435 1250.441,2224.1582 C 1317.1753,2191.5208 1383.1697,2195.5466 1673.0345,2249.9372 C 1754.9201,2265.3024 1902.8375,2251.2945 1964.4618,2222.3388 C 2039.1983,2187.2221 2075.4883,2112.2925 2069.6986,2005.0517 C 2064.9717,1917.4969 2043.2735,1835.4486 1985.5886,1687.0024 C 1958.8396,1618.1667 1900.4188,1501.4284 1881.8405,1479.6895 C 1860.5606,1454.7895 1821.4533,1435.5191 1783.0625,1431.016 C 1750.3607,1427.1803 1737.3904,1429.8072 1681.8167,1451.5217 C 1646.7602,1465.2195 1615.2313,1476.4267 1611.7526,1476.4267 C 1598.0278,1476.4267 1562.5211,1516.7096 1566.6851,1527.5566 C 1574.1495,1547.001 1557.5856,1539.2782 1549.5716,1519.5775 C 1541.2166,1499.0386 1527.802,1433.1435 1528.2972,1415.0733 C 1528.4651,1408.9464 1534.7723,1415.6169 1542.3131,1429.8966 L 1556.0238,1455.8598 L 1577.1651,1444.9314 C 1594.5049,1435.9682 1597.5498,1430.989 1594.0982,1417.2422 C 1588.3535,1394.3622 1594.4796,1396.1794 1607.42,1421.1938 C 1621.5054,1448.4213 1643.6151,1448.3278 1705.0352,1420.7811 C 1730.9413,1409.1623 1753.3419,1398.4517 1754.8144,1396.9798 C 1759.7703,1392.0258 1729.3759,1348.9105 1702.8233,1323.229 C 1638.9269,1261.4285 1533.9341,1234.9338 1526.1147,1278.6371 C 1523.8546,1291.2694 1521.7497,1289.663 1511.913,1267.7988 C 1499.31,1239.7856 1496.9686,1202.5087 1506.8333,1186.9261 C 1512.2154,1178.4244 1520.8403,1178.8117 1568.5162,1189.6964 C 1612.1084,1199.6488 1640.6112,1201.5404 1702.0159,1198.5559 C 1866.2501,1190.5737 2009.542,1212.5479 2056.3613,1252.8957 C 2076.5327,1270.2789 2076.6243,1270.6328 2059.8147,1266.2528 C 2025.9809,1257.4368 1964.9804,1253.8038 1960.925,1260.3632 C 1958.6757,1264.0011 1974.5667,1272.4983 1996.2382,1279.2459 C 2083.3189,1306.3591 2169.3146,1355.5881 2200.1192,1395.9593 C 2222.7221,1425.5818 2224.199,1435.5576 2203.1306,1416.3007 C 2175.3416,1390.901 2140.2944,1377.7536 2090.9715,1374.2259 L 2042.59,1370.7656 L 2083.4888,1408.0618 C 2126.9589,1447.703 2163.925,1514.2402 2173.2526,1569.6324 L 2177.903,1597.2488 L 2164.8722,1576.4832 C 2152.1359,1556.187 2102.8539,1513.9522 2097.801,1519.0031 C 2096.4001,1520.4036 2104.6419,1541.1018 2116.116,1564.9993 C 2143.9436,1622.9566 2194.8301,1762.1208 2211.6061,1826.1452 C 2248.3656,1966.4346 2241.9971,2140.6578 2196.0983,2250.3915 C 2190.3775,2264.0687 2183.4855,2288.9235 2180.7828,2305.6244 C 2171.5812,2362.4833 2137.6089,2419.9204 2093.2219,2453.664 C 2048.4198,2487.723 2042.7692,2487.438 2073.3167,2452.6598 C 2094.4916,2428.5522 2114.0589,2377.5555 2105.4399,2368.9398 C 2102.7254,2366.2263 2098.3423,2367.187 2095.6998,2371.0748 C 2093.0573,2374.9625 2078.463,2385.6854 2063.2681,2394.9036 C 2048.0732,2404.1216 2013.7169,2431.9193 1986.9207,2456.6762 C 1938.3924,2501.5114 1887.0038,2533.8814 1850.8844,2542.3666 C 1821.6295,2549.2391 1826.644,2528.8094 1858.1566,2512.7391 C 1883.6529,2499.7368 1928.5857,2459.2343 1928.5857,2449.2541 C 1928.5857,2446.5391 1915.3765,2446.0274 1899.2319,2448.1171 C 1873.0384,2451.5076 1838.0743,2472.1319 1805.2696,2503.5426 C 1800.1249,2508.4687 1784.5846,2518.2653 1770.7357,2525.3127 C 1741.3015,2540.2913 1630.3495,2575.2395 1626.0081,2570.8997 C 1624.3754,2569.2678 1638.0797,2559.2414 1656.4618,2548.6188 C 1690.8565,2528.7433 1769.7296,2459.2747 1769.7296,2448.8568 C 1769.7296,2440.9228 1709.3944,2441.369 1704.4664,2449.3395 C 1695.577,2463.7174 1597.7025,2524.2013 1561.0113,2537.991 C 1520.4978,2553.2173 1497.4359,2548.2689 1535.4861,2532.514 C 1560.7167,2522.0672 1615.0567,2469.3618 1621.4914,2449.0959 C 1624.0037,2441.1834 1622.9489,2431.6005 1619.1474,2427.8004 C 1615.3459,2424.0004 1573.8554,2419.3111 1526.9463,2417.3798 L 1441.6571,2413.8683 L 1412.7916,2435.0298 C 1373.8678,2463.565 1328.212,2554.044 1322.8369,2613.2986 C 1318.1921,2664.5024 1335.1769,2753.3918 1361.6925,2816.6481 C 1404.1319,2917.8929 1565.1903,3126.9644 1670.2896,3217.2413 C 1736.3958,3274.0244 1919.1701,3412.9292 1957.9396,3435.8494 C 1968.3861,3442.0253 1976.9333,3449.5154 1976.9333,3452.4939 C 1976.9333,3459.644 1981.0255,3461.5668 1917.8751,3424.7436 z "
       id="path3243" />
    <path
       style="fill:none;stroke:#ff7900;stroke-width:5;stroke-miterlimit:4;stroke-dasharray:none;stroke-opacity:1"
       d="M 1465.9796,3036.9669 C 1457.9466,3025.6899 1448.3609,3014.6017 1444.6781,3012.3265 C 1440.9954,3010.0513 1421.7147,2984.7967 1401.8323,2956.2051 C 1269.8008,2766.3391 1233.7587,2667.2412 1249.9885,2538.7101 C 1266.305,2409.4937 1328.3866,2333.1762 1434.7503,2311.5809 C 1484.3756,2301.5054 1575.3171,2306.2167 1708.0803,2325.7412 C 1868.24,2349.2947 1925.2964,2342.8216 2005.8652,2291.9574 C 2104.3456,2229.7854 2138.4931,2167.6467 2137.5278,2052.3693 C 2136.2256,1896.8749 2052.0247,1650.2542 1932.9506,1453.1721 C 1919.4874,1430.8888 1907.4493,1409.5899 1906.1992,1405.8412 C 1903.7112,1398.38 1797.3567,1405.7853 1797.3567,1413.4198 C 1797.3567,1415.8464 1810.566,1421.9388 1826.7106,1426.9586 C 1866.0104,1439.1778 1897.0585,1463.8213 1917.5994,1499.0991 C 1954.4665,1562.4159 2030.2816,1763.949 2064.409,1889.3514 C 2078.7946,1942.2116 2082.7625,1972.9367 2083.3036,2035.6605 C 2084.115,2129.7281 2077.2519,2153.3531 2037.239,2194.2295 C 1953.878,2279.3895 1787.8426,2298.314 1549.3091,2249.8433 C 1453.7418,2230.4238 1351.883,2222.1148 1306.7355,2230.0559 C 1226.508,2244.1671 1167.7048,2308.3885 1141.6039,2410.403 C 1125.6139,2472.8986 1130.8338,2552.5755 1156.4043,2636.3191 C 1181.3815,2718.1198 1257.462,2841.922 1330.3592,2919.388 C 1373.8077,2965.5597 1471.6648,3057.4704 1477.3751,3057.4704 C 1479.1406,3057.4704 1474.0126,3048.2438 1465.9796,3036.9669 z "
       id="path3241" />
    <path
       style="fill:none;stroke:white;stroke-width:5;stroke-miterlimit:4;stroke-dasharray:none;stroke-opacity:1"
       d="M 1793.3702,1249.4531 C 1797.5577,1242.6802 1742.5557,1232.028 1736.2003,1238.381 C 1729.6609,1244.9177 1750.8809,1255.2744 1771.0486,1255.3892 C 1781.271,1255.4473 1791.3156,1252.7761 1793.3702,1249.4531 z "
       id="path3239" />
    <path
       style="fill:none;stroke:url(#linearGradient4173);stroke-width:5;stroke-miterlimit:4;stroke-dasharray:none;stroke-opacity:1"
       d="M 2341.422,2276.863 C 2334.8598,2273.0271 2319.9472,2256.0229 2308.2829,2239.0761 C 2285.8544,2206.4899 2274.2343,2201.6096 2259.973,2218.7866 C 2245.4918,2236.2287 2245.3379,2225.9967 2259.5968,2193.7745 C 2282.125,2142.8656 2289.4815,2035.864 2277.0026,1940.606 C 2271.1665,1896.0557 2264.7266,1852.9539 2262.6919,1844.8243 C 2257.589,1824.4367 2270.2365,1818.806 2292.9047,1831.3735 C 2322.1866,1847.6077 2363.9678,1863.0575 2378.5884,1863.0575 C 2402.7083,1863.0575 2473.6549,1835.6321 2510.5252,1812.0556 C 2571.8684,1772.83 2599.3961,1689.503 2577.5597,1609.1396 C 2565.0452,1563.0826 2523.0577,1481.6437 2481.4541,1422.733 C 2441.9204,1366.7533 2351.5781,1274.3425 2296.7967,1233.8477 C 2246.0504,1196.3357 2224.06,1165.0609 2220.7906,1125.7515 C 2219.0369,1104.6665 2221.7643,1087.1844 2228.5544,1075.9877 C 2234.3114,1066.4945 2243.8086,1048.6301 2249.6593,1036.289 C 2255.51,1023.9479 2263.4726,1013.8506 2267.3541,1013.8506 C 2272.1271,1013.8506 2272.0971,1018.1728 2267.2614,1027.2049 C 2259.315,1042.0471 2257.6419,1078.1216 2264.5783,1085.0553 C 2267.035,1087.5111 2276.2291,1074.0199 2285.0099,1055.0749 C 2318.5263,982.76124 2328.6399,971.51443 2604.5698,699.71306 C 2759.1925,547.40381 2793.3804,505.21127 2842.3276,406.28792 C 2873.3061,343.6797 2878.5143,336.53055 2880.5227,353.85872 C 2884.5353,388.47798 2843.0495,475.651 2791.3418,541.2523 C 2773.2388,564.21969 2713.9064,626.50632 2659.492,679.66716 C 2416.1661,917.38785 2341.9548,1007.7835 2322.058,1090.6904 C 2314.2406,1123.2645 2317.4033,1143.0429 2327.8283,1126.7759 C 2336.4292,1113.3553 2407.6764,1077.2887 2446.5949,1066.6543 C 2501.4806,1051.6568 2586.7269,1042.5123 2710.1703,1038.3803 C 2852.0966,1033.6296 2936.8829,1023.7652 3007.2679,1003.8147 C 3073.1503,985.14047 3192.2583,936.95447 3219.1876,918.08109 C 3229.2166,911.05221 3249.8545,901.34771 3265.0494,896.51552 C 3295.12,886.95269 3381.0171,839.6908 3403.1852,820.51109 C 3433.1524,794.58356 3525.6693,729.33699 3523.2114,735.86387 C 3518.8088,747.55476 3406.213,836.80253 3351.4982,871.97026 C 3289.3233,911.93297 3220.8188,946.78836 3123.4602,987.99719 C 2967.0414,1054.2043 2891.7055,1073.5209 2671.0655,1103.9941 C 2614.0845,1111.8639 2548.5925,1122.9578 2525.5276,1128.6473 C 2477.0288,1140.6106 2412.061,1175.4129 2412.061,1189.4295 C 2412.061,1201.0621 2461.0611,1225.6257 2510.5237,1238.7883 C 2557.777,1251.363 2712.9089,1251.1194 2888.6294,1238.1946 C 3375.1916,1202.4064 3536.2364,1199.5581 3632.811,1225.0326 C 3660.3381,1232.2936 3682.8715,1240.927 3682.8852,1244.2179 C 3682.8989,1247.5087 3675.917,1248.1887 3667.3699,1245.7289 C 3554.5777,1213.269 3217.5191,1226.0684 2884.7776,1275.447 C 2664.9729,1308.0659 2592.7004,1314.4121 2534.9387,1306.1664 C 2507.2427,1302.2127 2483.1916,1300.1638 2481.4919,1301.6132 C 2476.9975,1305.4459 2500.5947,1344.1802 2528.0322,1378.0079 C 2558.3937,1415.4408 2622.0711,1457.9912 2669.0069,1472.21 C 2689.1328,1478.3069 2739.7881,1491.1159 2781.5742,1500.6743 C 2852.0504,1516.7955 2873.4975,1522.8607 2957.6973,1550.4817 C 3002.956,1565.3285 3066.7584,1610.5967 3105.1389,1655.0925 C 3149.736,1706.7954 3199.7103,1812.1686 3244.4936,1948.9285 C 3281.0729,2060.6347 3313.691,2193.5734 3308.4077,2209.4173 C 3306.8767,2214.0083 3295.6776,2176.9877 3283.5206,2127.1494 C 3249.244,1986.6295 3184.7741,1841.6798 3128.6691,1778.9922 C 3011.4767,1648.0499 2962.4607,1618.002 2810.1737,1583.7475 C 2705.7493,1560.2588 2655.334,1546.7752 2638.7376,1537.8965 C 2625.9795,1531.0712 2625.1487,1532.0933 2628.8699,1550.0381 C 2631.1047,1560.8149 2640.7941,1628.6626 2650.4019,1700.8107 C 2668.3805,1835.8179 2675.5538,1867.8132 2694.5164,1897.5781 C 2702.1461,1909.554 2694.9531,1905.5763 2671.0222,1884.5856 C 2603.3379,1825.2175 2577.3097,1824.846 2469.7172,1881.7117 C 2414.9036,1910.6822 2391.9128,1919.096 2364.3912,1920.2572 C 2329.6914,1921.7211 2329.1845,1922.0609 2329.182,1943.8561 C 2329.1783,1975.9504 2340.101,1994.4052 2376.3664,2023.5783 C 2416.0737,2055.5202 2458.8775,2059.5321 2486.8598,2033.9345 L 2503.8413,2018.4002 L 2491.6376,2037.4677 C 2476.8006,2060.6494 2456.7395,2066.37 2409.6734,2060.8404 C 2381.0931,2057.4827 2369.3329,2059.3771 2351.5144,2070.209 C 2322.7585,2087.6897 2323.1224,2097.7976 2352.5076,2097.7976 C 2381.6944,2097.7976 2388.9398,2106.5016 2398.8764,2153.5014 C 2411.8151,2214.7015 2429.5591,2239.5991 2455.2072,2232.5424 C 2470.3282,2228.3821 2470.3892,2228.5642 2457.3617,2238.9746 C 2449.9879,2244.8671 2441.7627,2249.6883 2439.0835,2249.6883 C 2433.7455,2249.6883 2400.8548,2212.5958 2384.4338,2188.0572 C 2373.0987,2171.1187 2342.9586,2153.0306 2326.0691,2153.0306 C 2309.6893,2153.0306 2311.8382,2212.7513 2329.2448,2241.29 C 2346.8944,2270.2269 2359.4371,2274.7896 2381.5392,2260.3134 C 2398.8401,2248.9818 2399.0776,2249.0454 2391.603,2263.0063 C 2387.3927,2270.8705 2381.2033,2277.3048 2377.8489,2277.3048 C 2374.4945,2277.3048 2367.6107,2278.7747 2362.5516,2280.5711 C 2357.4925,2282.3676 2347.9842,2280.699 2341.422,2276.863 z "
       id="path3209" />
    <path
       style="fill:none;stroke:white;stroke-width:5;stroke-miterlimit:4;stroke-dasharray:none;stroke-opacity:1"
       d="M 1574.6699,1289.3356 L 1563.1684,1269.3031 L 1583.5675,1269.3031 C 1605.3963,1269.3031 1609.2371,1279.061 1594.8494,1297.9658 C 1587.0523,1308.2108 1585.004,1307.3348 1574.6699,1289.3356 z "
       id="path3195" />
    <path
       style="fill:none;stroke:url(#linearGradient4165);stroke-width:5;stroke-miterlimit:4;stroke-dasharray:none;stroke-opacity:1"
       d="M 796.46574,2331.7161 C 795.47717,2301.5895 814.91709,2202.3765 837.56528,2121.962 C 904.87995,1882.955 1081.2507,1731.2886 1399.3596,1638.8589 C 1459.6681,1621.3357 1520.2751,1601.1776 1534.042,1594.0632 C 1561.6505,1579.7958 1614.7776,1528.1649 1627.144,1503.5833 C 1642.2195,1473.6163 1649.9477,1482.2584 1665.9567,1546.9859 C 1687.5117,1634.1371 1703.7647,1676.8017 1741.291,1744.7412 C 1782.1194,1818.6589 1813.4304,1845.0006 1860.464,1845.0006 C 1887.1196,1845.0006 1900.5319,1840.4374 1925.4208,1822.9009 C 1969.9629,1791.5168 1983.9976,1796.8707 2010.0884,1855.199 C 2047.9863,1939.9234 2044.1415,2038.9059 1999.3865,2130.7118 C 1980.8795,2168.6753 1941.7773,2215.1677 1928.3555,2215.1677 C 1919.5941,2215.1677 1919.7642,2203.3573 1928.6044,2197.8958 C 1936.9808,2192.7209 1924.8668,2166.8388 1914.0683,2166.8388 C 1910.1498,2166.8388 1896.7565,2174.606 1884.3055,2184.0991 C 1871.8545,2193.5923 1854.1906,2201.0497 1845.0523,2200.6712 L 1828.4373,2199.983 L 1844.6967,2195.4196 C 1861.6665,2190.6568 1934.361,2132.8262 1935.0796,2123.5172 C 1935.8446,2113.6081 1898.7356,2104.0934 1877.3117,2108.7055 C 1865.6256,2111.2212 1843.3591,2120.6701 1827.8305,2129.703 C 1797.0213,2147.6244 1780.0496,2150.3285 1772.7257,2138.4827 C 1769.5231,2133.3027 1772.8863,2132.3892 1783.1596,2135.6486 C 1795.2624,2139.4884 1804.0226,2134.4167 1826.602,2110.4978 C 1865.0813,2069.7357 1886.4236,2056.4721 1913.621,2056.4184 C 1929.0073,2056.388 1935.6569,2053.5104 1933.6688,2047.7427 C 1931.5617,2041.6301 1916.5661,2039.794 1882.2636,2041.4482 C 1844.0256,2043.2923 1826.4069,2040.5903 1798.5455,2028.6093 C 1779.1372,2020.2633 1759.6712,2009.115 1755.2878,2003.8353 C 1745.5883,1992.1526 1751.7789,1991.5367 1771.7132,2002.2011 C 1791.8648,2012.9818 1827.1395,2010.8546 1853.4106,1997.2745 C 1874.9423,1986.1444 1918.9637,1986.0547 1943.7048,1997.0906 C 1953.0444,2001.2565 1956.2489,1997.6126 1959.7768,1978.8148 C 1966.7647,1941.5806 1961.5036,1907.4209 1949.3061,1910.8293 C 1897.3374,1925.3515 1852.62,1918.5638 1807.2097,1889.2606 C 1788.495,1877.184 1766.9669,1868.1891 1759.3694,1869.2719 C 1736.2158,1872.5717 1695.661,1898.3777 1686.3767,1915.7189 C 1681.5534,1924.7278 1675.0242,1932.0987 1671.8674,1932.0987 C 1663.9806,1932.0987 1664.6607,1922.5186 1673.15,1914.0326 C 1682.778,1904.4083 1682.8176,1796.1129 1673.2067,1758.8159 C 1664.2881,1724.205 1630.8488,1619.2815 1627.4922,1615.3761 C 1626.2703,1613.9543 1615.4424,1621.0575 1603.4304,1631.1611 C 1568.042,1660.9269 1548.0025,1668.5541 1419.1488,1701.3 C 1217.947,1752.4319 1160.0391,1775.1335 1067.4399,1839.1805 C 1002.2257,1884.2864 999.21343,1887.1804 952.99133,1949.1317 C 883.42574,2042.3702 843.64222,2135.0016 813.52938,2273.8527 C 804.47071,2315.6226 796.79202,2341.6612 796.46574,2331.7161 z "
       id="path4239" />
    <path
       style="fill:none;stroke:url(#linearGradient4251);stroke-width:5;stroke-miterlimit:4;stroke-dasharray:none;stroke-opacity:1"
       d="M 1196.4661,1386.3805 C 858.05641,1379.5004 781.20644,1363.0836 630.15047,1265.4038 C 603.40165,1248.1068 563.70019,1216.6693 541.92501,1195.5429 C 499.93609,1154.8047 507.76673,1157.7631 564.49495,1204.0697 C 603.02426,1235.5208 696.61063,1295.401 733.71128,1312.3409 C 826.0708,1354.5117 931.37826,1370.0003 1082.1447,1363.5886 C 1139.3234,1361.157 1204.7543,1355.9501 1227.5467,1352.0178 C 1327.8832,1334.707 1483.4361,1346.2629 1491.904,1371.6566 C 1495.2653,1381.7366 1464.0504,1394.0051 1439.4808,1392.2607 C 1429.2816,1391.5366 1319.925,1388.8905 1196.4661,1386.3805 z "
       id="path4237" />
    <path
       style="fill:none;stroke:url(#linearGradient4249);stroke-width:5;stroke-miterlimit:4;stroke-dasharray:none;stroke-opacity:1"
       d="M 1403.6698,1253.3205 C 1317.2693,1195.7149 1280.9283,1173.6147 1232.5927,1149.2827 C 1056.7206,1060.7491 893.55192,940.95037 816.04276,843.45093 C 793.55287,815.16067 775.15201,790.66423 775.15201,789.01435 C 775.15201,780.47008 786.23099,791.4571 836.52477,849.8777 C 891.07066,913.23751 909.64805,929.71046 996.16926,991.43751 C 1054.4891,1033.0448 1187.6388,1098.631 1275.5009,1129.0292 C 1384.2437,1166.6515 1430.6044,1192.7724 1457.2599,1231.437 C 1496.7129,1288.6652 1471.887,1298.8029 1403.6698,1253.3205 z "
       id="path4235" />
    <path
       style="fill:none;stroke:url(#linearGradient4247);stroke-width:5;stroke-miterlimit:4;stroke-dasharray:none;stroke-opacity:1"
       d="M 1504.1785,1063.9055 C 1439.9853,932.58306 1384.1969,847.78402 1280.5897,724.04788 C 1237.5874,672.69109 1183.7007,602.87573 1160.8415,568.90269 C 1117.3173,504.21742 1061.9169,400.4014 1067.7898,394.53083 C 1069.6737,392.64752 1078.8692,406.17318 1088.2242,424.58778 C 1158.9439,563.79522 1208.8317,630.52694 1359.4383,787.37365 C 1452.1967,883.97535 1490.9093,936.59698 1523.3856,1010.2251 C 1550.7768,1072.325 1566.859,1086.8966 1560.7859,1044.1126 C 1558.6928,1029.3671 1554.7874,1011.8656 1552.1073,1005.2204 C 1549.4273,998.5752 1550.0801,993.13821 1553.5581,993.13821 C 1563.1452,993.13821 1597.0599,1099.5689 1597.0599,1129.6554 C 1597.0599,1144.1864 1593.3302,1159.8037 1588.7717,1164.3605 C 1567.8814,1185.2427 1557.4152,1172.814 1504.1785,1063.9055 z "
       id="path3211" />
    <path
       style="fill:none;stroke:url(#linearGradient4284);stroke-width:5;stroke-miterlimit:4;stroke-opacity:1"
       d="M 937.82665,2227.1474 C 949.5369,2173.4502 976.13294,2102.119 1005.9891,2044.3345 C 1053.2555,1952.8535 1160.2459,1846.1184 1248.2671,1802.6349 C 1280.6794,1786.6229 1344.1867,1770.6142 1356.8513,1775.2635 C 1361.7084,1777.0467 1356.3583,1780.8407 1344.9621,1783.6946 C 1296.4772,1795.8368 1229.6352,1838.5292 1173.4712,1893.2268 C 1125.0099,1940.4228 1110.5194,1960.0712 1082.4507,2016.6472 C 1049.1249,2083.8191 1045.6904,2101.3104 1069.7607,2081.275 C 1142.3974,2020.8145 1208.8765,1979.8557 1279.9846,1951.7527 C 1355.8233,1921.7801 1464.0175,1901.566 1521.8748,1906.56 C 1543.2021,1908.4009 1564.0085,1907.8334 1568.111,1905.2988 C 1579.1086,1898.5044 1589.7915,1844.9972 1589.9842,1795.7423 C 1590.1547,1752.1802 1595.2419,1744.1201 1610.7651,1762.8173 C 1621.5879,1775.8529 1627.9739,1905.4563 1619.6164,1942.4549 C 1614.6759,1964.3268 1610.6035,1969.6062 1600.039,1967.8353 C 1572.5162,1963.2217 1463.4593,1966.7258 1418.8668,1973.6568 C 1360.1214,1982.7874 1245.0959,2018.0162 1200.0273,2040.6807 C 1133.6924,2074.0398 1048.1551,2136.1426 990.7446,2192.6268 C 936.63675,2245.8615 933.26596,2248.0604 937.82665,2227.1474 z "
       id="path4300" />
    <path
       style="fill:none;stroke:url(#linearGradient4284);stroke-width:5;stroke-miterlimit:4;stroke-opacity:1"
       d="M 3152.4639,2175.469 C 3134.2169,2135.3027 3090.4344,2072.9353 3064.514,2050.1856 C 2997.6377,1991.49 2884.8526,1930.548 2820.754,1918.4728 C 2774.4555,1909.7509 2774.5595,1909.8249 2772.605,1884.185 C 2769.2201,1839.7792 2749.6961,1763.5249 2728.9676,1713.7522 C 2717.1418,1685.3561 2708.8344,1660.755 2710.5068,1659.0833 C 2714.7192,1654.8725 2788.4288,1811.5212 2799.1756,1847.5232 C 2803.993,1863.6616 2811.3489,1876.8657 2815.5221,1876.8657 C 2825.8922,1876.8657 2933.7762,1919.6158 2969.2177,1937.769 C 2985.0508,1945.8787 3011.92,1961.9014 3028.9271,1973.3749 C 3045.9341,1984.8484 3061.448,1994.2358 3063.4023,1994.2358 C 3068.5337,1994.2358 3051.9655,1935.9547 3031.9295,1883.5253 C 3010.2577,1826.8153 2984.6766,1776.7507 2961.6963,1746.0721 C 2940.4938,1717.7669 2938.2671,1703.9458 2957.7488,1721.5696 C 2980.2896,1741.9609 3037.1073,1834.9202 3061.1071,1890.674 C 3073.3665,1919.1535 3101.8157,1996.8248 3124.3276,2063.277 C 3146.8395,2129.7292 3166.6344,2187.9827 3168.3163,2192.7293 C 3175.2942,2212.4226 3163.337,2199.4034 3152.4639,2175.469 z "
       id="path4298" />
    <path
       style="fill:none;stroke:url(#linearGradient4284);stroke-width:5;stroke-miterlimit:4;stroke-opacity:1"
       d="M 3352.9111,2070.1811 C 3348.2393,2053.0934 3339.7497,2011.4135 3334.0455,1977.5591 C 3320.3046,1896.0081 3313.3987,1870.0379 3287.9923,1804.3725 C 3247.0871,1698.6486 3205.4779,1646.7906 3017.3595,1467.0805 C 2980.0441,1431.4331 2980.3861,1428.6807 3019.6428,1448.7003 C 3081.8161,1480.4065 3229.7387,1619.4103 3298.1353,1710.4015 L 3347.9309,1776.6468 L 3356.7742,1700.8546 C 3361.638,1659.1688 3369.844,1609.4837 3375.0098,1590.4432 C 3400.9486,1494.8354 3436.7347,1385.9764 3453.6732,1351.1541 L 3472.6297,1312.1831 L 3441.3608,1307.8117 C 3375.8105,1298.6475 3213.5397,1295.7923 3138.882,1302.4895 C 3096.0812,1306.3289 3053.0139,1307.3187 3043.177,1304.6889 C 3027.0318,1300.3727 3028.5552,1299.1215 3058.8357,1291.8285 C 3129.0288,1274.9226 3227.4777,1267.9661 3411.2505,1266.9265 C 3515.8053,1266.335 3602.6368,1267.9329 3604.2093,1270.4773 C 3605.7818,1273.0218 3588.9623,1302.5369 3566.8326,1336.0665 C 3511.9692,1419.1923 3483.2281,1477.1867 3442.5271,1586.8927 C 3396.0811,1712.0837 3385.8979,1768.4305 3369.5347,1990.7837 C 3361.7135,2097.0628 3361.0835,2100.0721 3352.9111,2070.1811 z "
       id="path4296" />
    <path
       style="fill:none;stroke:url(#linearGradient4284);stroke-width:5;stroke-miterlimit:4;stroke-opacity:1"
       d="M 803.3744,1911.3863 C 803.22093,1738.9457 784.03276,1659.5382 705.72663,1507.2844 C 663.05704,1424.32 623.20266,1326.3059 623.20266,1304.3324 C 623.20266,1290.8079 644.53151,1296.619 694.57838,1323.7791 C 792.70728,1377.033 853.20184,1397.899 1030.7032,1439.7168 C 1084.7537,1452.4506 1181.7361,1455.913 1241.3603,1447.2376 C 1298.2845,1438.9549 1260.6654,1453.9881 1192.2687,1466.8552 C 1122.5839,1479.9647 873.412,1481.4775 818.27531,1469.1259 C 801.14682,1465.2888 785.83184,1463.4496 784.24204,1465.0388 C 782.6523,1466.628 790.54925,1482.4259 801.79088,1500.1453 C 843.48965,1565.8721 878.75385,1681.0103 878.75385,1751.4311 C 878.75385,1777.6075 881.48072,1778.1126 909.18247,1757.0669 C 939.34393,1734.1526 964.58403,1721.9723 1038.5183,1694.6527 C 1136.5244,1658.4383 1200.559,1641.292 1247.3699,1638.729 L 1289.7078,1636.411 L 1255.1738,1646.3633 C 1081.5056,1696.4127 996.68492,1737.0012 933.47378,1800.3033 C 883.70035,1850.1485 834.7431,1927.843 815.6948,1987.2173 L 803.47579,2025.3043 L 803.3744,1911.3863 z "
       id="path4294" />
    <path
       style="fill:none;stroke:url(#linearGradient4284);stroke-width:5;stroke-miterlimit:4;stroke-opacity:1"
       d="M 997.05851,1316.8396 C 906.48999,1306.3347 749.77765,1257.2408 657.32627,1210.4102 C 638.55831,1200.9034 623.20266,1190.4927 623.20266,1187.2753 C 623.20266,1184.0579 637.96592,1175.9707 656.0099,1169.3037 C 696.66844,1154.2811 745.74774,1127.1552 767.20223,1107.8481 C 796.82628,1081.1891 818.47443,1028.4034 822.03295,974.15187 C 823.83866,946.62169 826.32635,924.097 827.56107,924.097 C 828.7958,924.097 843.15032,936.69377 859.46008,952.08976 C 902.24315,992.4761 966.60095,1037.7819 1015.9672,1062.2656 C 1060.0595,1084.1336 1175.7458,1156.4232 1175.7458,1162.1074 C 1175.7458,1165.8803 1171.2912,1163.9635 1085.9575,1123.4711 C 1022.2376,1093.2346 973.25495,1073.4612 917.05994,1055.29 C 894.78029,1048.0856 889.20278,1048.105 886.77173,1055.3954 C 882.7314,1067.5117 814.7744,1142.6121 779.80823,1173.6027 C 744.58975,1204.8167 747.27939,1209.0637 826.73005,1247.693 C 903.76989,1285.1501 971.75459,1303.638 1051.2112,1308.7387 C 1092.8,1311.4085 1111.6611,1314.8722 1103.0121,1318.2514 C 1086.2935,1324.7836 1062.8566,1324.4713 997.05851,1316.8396 z "
       id="path4292" />
    <path
       style="fill:none;stroke:url(#linearGradient4284);stroke-width:5;stroke-miterlimit:4;stroke-opacity:1"
       d="M 3503.087,1176.7378 C 3480.7978,1155.3248 3428.416,1145.0264 3342.5094,1145.1678 C 3266.9701,1145.292 3233.9043,1148.1811 3151.0874,1161.8928 C 3137.7918,1164.0941 3147.116,1159.5797 3171.8077,1151.8608 C 3214.3402,1138.5648 3290.2356,1127.5315 3394.7416,1119.4518 C 3428.575,1116.8361 3439.7561,1113.6592 3435.0731,1107.9925 C 3424.9173,1095.7031 3406.7905,1018.8485 3404.8992,980.0598 C 3403.9565,960.72653 3401.0318,944.88613 3398.3999,944.85886 C 3395.768,944.83166 3383.3358,950.77314 3370.7727,958.06223 C 3331.422,980.89354 3093.899,1056.394 3066.6062,1054.7464 C 3061.7879,1054.4556 3097.7328,1040.6173 3146.4837,1023.9948 C 3245.9401,990.0832 3303.3939,960.8031 3366.8646,911.68228 C 3444.3597,851.7077 3455.7079,845.05206 3462.2978,855.71071 C 3465.5337,860.94445 3468.211,897.94419 3468.2474,937.9323 C 3468.3217,1019.4728 3481.8301,1095.1477 3504.9639,1143.6194 C 3513.4892,1161.4823 3521.5311,1178.4276 3522.8348,1181.2756 C 3526.836,1190.0164 3513.7881,1187.0182 3503.087,1176.7378 z "
       id="path4290" />
    <path
       style="fill:none;stroke:url(#linearGradient4284);stroke-width:5;stroke-miterlimit:4;stroke-opacity:1"
       d="M 1210.2797,1042.5313 C 1150.9697,1005.3474 1068.4456,961.24918 1021.9712,941.90535 C 996.27549,931.21017 973.30496,919.31085 970.92557,915.46243 C 968.54625,911.614 977.57584,898.77827 990.99145,886.9386 C 1020.4921,860.9033 1055.6065,809.37888 1067.9545,774.00817 C 1077.948,745.38196 1089.9912,679.8798 1096.5299,618.58964 C 1098.8593,596.75536 1103.3476,578.89095 1106.5042,578.89095 C 1109.6606,578.89095 1133.1651,613.71934 1158.7364,656.28732 C 1219.4487,757.35426 1321.4292,897.40228 1375.0015,953.28044 C 1392.2104,971.22991 1404.8089,987.39674 1402.9982,989.20672 C 1401.1875,991.01671 1340.984,933.6115 1269.2124,861.63963 C 1197.4408,789.66769 1136.1716,730.78161 1133.0584,730.78161 C 1129.9453,730.78161 1127.3982,734.18672 1127.3982,738.34853 C 1127.3982,750.83815 1081.3965,842.98352 1062.6814,867.98189 L 1045.251,891.26424 L 1081.1445,923.72611 C 1145.0904,981.55848 1171.6267,1003.7654 1208.553,1030.348 C 1239.7232,1052.7868 1250.2157,1062.4335 1243.087,1062.0982 C 1242.1373,1062.0536 1227.374,1053.2485 1210.2797,1042.5313 z "
       id="path4288" />
    <path
       style="fill:none;stroke:url(#linearGradient4284);stroke-width:5;stroke-miterlimit:4;stroke-opacity:1"
       d="M 2715.9597,969.68691 C 2715.9597,968.1805 2743.1552,963.13304 2776.3941,958.47041 C 2852.5252,947.79104 3010.4908,909.40344 3068.7457,887.42541 C 3142.9844,859.41712 3282.3164,779.77622 3282.3164,765.3504 C 3282.3164,762.84193 3272.8191,762.18293 3261.2114,763.88597 C 3235.9021,767.59915 3158.1572,750.12205 3094.5963,726.43084 C 3041.157,706.51224 2963.2255,654.58807 2910.6877,603.89636 C 2881.2014,575.446 2872.8858,570.55885 2868.1409,578.89095 C 2864.8973,584.58685 2852.64,601.32506 2840.9025,616.0869 C 2829.1649,630.84881 2819.5615,645.40808 2819.5615,648.44085 C 2819.5615,658.65888 2706.0139,767.05959 2657.252,803.39322 C 2612.5728,836.68461 2530.9395,886.80245 2546.7433,871.2387 C 2550.5421,867.4977 2573.9759,848.59767 2598.8185,829.23859 C 2623.6611,809.8795 2667.6639,769.26753 2696.6024,738.98964 C 2737.7243,695.9644 2751.1703,685.66187 2758.1561,691.82607 C 2765.3345,698.16019 2765.514,697.59971 2759.068,688.9795 C 2752.5104,680.2101 2759.7367,665.46213 2798.5565,608.38811 C 2824.6897,569.96627 2852.3641,524.31 2860.0553,506.92971 C 2876.0845,470.70689 2888.6761,467.2781 2906.3789,494.31546 C 2926.477,525.01126 3041.1124,635.64855 3078.1574,660.10302 C 3118.7106,686.87333 3139.4214,692.95207 3238.3929,707.13313 C 3288.2675,714.27938 3332.4879,716.36394 3370.3779,713.35485 C 3403.4102,710.73156 3427.3589,711.47651 3427.3589,715.12721 C 3427.3589,718.5908 3415.7037,729.18738 3401.4585,738.67509 C 3387.2132,748.1628 3360.8569,765.98054 3342.8888,778.27016 C 3287.2797,816.30496 3150.3407,889.20302 3101.249,906.90456 C 3015.2411,937.91732 2920.4252,958.94983 2836.8285,965.55942 C 2745.257,972.79963 2715.9597,973.80004 2715.9597,969.68691 z "
       id="path3207" />
  </g>
</svg>
