<?xml version="1.0" encoding="UTF-8" standalone="no"?>
<!-- Created with Inkscape (http://www.inkscape.org/) -->
<svg
   xmlns:dc="http://purl.org/dc/elements/1.1/"
   xmlns:cc="http://creativecommons.org/ns#"
   xmlns:rdf="http://www.w3.org/1999/02/22-rdf-syntax-ns#"
   xmlns:svg="http://www.w3.org/2000/svg"
   xmlns="http://www.w3.org/2000/svg"
   xmlns:sodipodi="http://sodipodi.sourceforge.net/DTD/sodipodi-0.dtd"
   xmlns:inkscape="http://www.inkscape.org/namespaces/inkscape"
   width="4096"
   height="4096"
   id="svg2"
   sodipodi:version="0.32"
   inkscape:version="0.46"
   sodipodi:docbase="E:\laser graphics\company logos"
   sodipodi:docname="fokker_logo.svg"
   inkscape:output_extension="org.inkscape.output.svg.inkscape"
   version="1.0">
  <defs
     id="defs4">
    <inkscape:perspective
       sodipodi:type="inkscape:persp3d"
       inkscape:vp_x="0 : 2048 : 1"
       inkscape:vp_y="0 : 1000 : 0"
       inkscape:vp_z="4096 : 2048 : 1"
       inkscape:persp3d-origin="2048 : 1365.3333 : 1"
       id="perspective45" />
  </defs>
  <sodipodi:namedview
     id="base"
     pagecolor="#000000"
     bordercolor="#666666"
     borderopacity="1.0"
     gridtolerance="50"
     guidetolerance="10"
     objecttolerance="10"
     inkscape:pageopacity="1"
     inkscape:pageshadow="2"
     inkscape:zoom="0.91076858"
     inkscape:cx="2084.5714"
     inkscape:cy="3176.0879"
     inkscape:document-units="px"
     inkscape:current-layer="layer1"
     showguides="true"
     inkscape:guide-bbox="false"
     inkscape:window-width="1032"
     inkscape:window-height="929"
     inkscape:window-x="22"
     inkscape:window-y="22"
     width="4096px"
     height="4096px"
     showgrid="true"
     inkscape:object-paths="true"
     inkscape:grid-bbox="false"
     guidecolor="#ffffff"
     guideopacity="0.28627451"
     guidehicolor="#ff0000"
     guidehiopacity="0.64313725"
     borderlayer="false"
     showborder="true"
     inkscape:showpageshadow="true">
    <sodipodi:guide
       orientation="horizontal"
       position="410"
       id="guide2164" />
    <sodipodi:guide
       orientation="vertical"
       position="411.12022"
       id="guide2166" />
    <inkscape:grid
       id="GridFromPre046Settings"
       type="xygrid"
       originx="0px"
       originy="0px"
       spacingx="1px"
       spacingy="1px"
       color="#ffffff"
       empcolor="#ffffff"
       opacity="0.12941176"
       empopacity="0.40784314"
       empspacing="20" />
  </sodipodi:namedview>
  <metadata
     id="metadata7">
    <rdf:RDF>
      <cc:Work
         rdf:about="">
        <dc:format>image/svg+xml</dc:format>
        <dc:type
           rdf:resource="http://purl.org/dc/dcmitype/StillImage" />
      </cc:Work>
    </rdf:RDF>
  </metadata>
  <g
     inkscape:label="Layer 1"
     inkscape:groupmode="layer"
     id="layer1">
    <path
       style="fill:none;stroke:#0028ff;stroke-width:6;stroke-miterlimit:4;stroke-dasharray:none;stroke-opacity:1"
       d="M 2115.0183,3976.8194 C 1987.3324,3979.5049 1873.861,3975.0706 1804.2141,3964.6737 C 1743.8815,3955.6673 1669.187,3942.3702 1638.2264,3935.1247 C 1607.2658,3927.8793 1535.9637,3907.5317 1479.7772,3889.9079 C 1423.5907,3872.2843 1317.2873,3829.1903 1243.5475,3794.1437 C 1169.8075,3759.0973 1062.8544,3698.6759 1005.8736,3659.8742 C 948.89277,3621.0726 872.34827,3563.9327 835.77457,3532.8965 C 799.20097,3501.8606 749.19441,3456.2005 724.64882,3431.4296 C 700.10341,3406.6589 649.83437,3351.812 612.94007,3309.5479 C 576.04577,3267.2837 518.50431,3191.5688 485.07022,3141.2926 C 451.6363,3091.0163 399.10484,3000.5192 368.33364,2940.1878 C 337.56262,2879.8563 298.46131,2795.4383 281.44196,2752.5922 C 264.42261,2709.7462 239.61593,2635.7031 226.31598,2588.0519 C 213.01621,2540.4008 193.714,2461.1161 183.42237,2411.864 C 173.13073,2362.6119 159.33578,2247.4336 152.76683,2155.9123 C 144.6933,2043.4253 144.96288,1944.0963 153.59895,1849.3461 C 160.62533,1772.2558 179.28726,1651.5929 195.07004,1581.2061 C 210.85282,1510.8195 242.21182,1403.8682 264.75677,1343.5367 L 305.74757,1233.8431 L 2057.2963,1230.7549 L 3808.845,1227.6664 L 3828.0793,1273.4134 C 3838.658,1298.5744 3866.2524,1381.4752 3889.3999,1457.638 C 3912.5476,1533.8005 3940.5946,1648.9787 3951.727,1713.5897 C 3964.8508,1789.7594 3972.1061,1901.7731 3972.3617,2032.1687 C 3972.5784,2142.7764 3965.8102,2274.4087 3957.321,2324.685 C 3948.8319,2374.961 3933.6009,2451.7466 3923.4745,2495.3194 C 3913.348,2538.8921 3893.7296,2607.4505 3879.8784,2647.6715 C 3866.0272,2687.8925 3844.8809,2742.7393 3832.8867,2769.5533 C 3820.8923,2796.3673 3791.8452,2860.7529 3768.3374,2912.6322 C 3744.8296,2964.5115 3694.3653,3055.0089 3656.1943,3113.7371 C 3618.0232,3172.4654 3547.708,3266.7276 3499.9379,3323.2088 C 3452.1681,3379.6899 3367.4518,3465.8297 3311.6795,3514.6307 C 3255.9073,3563.4318 3170.8932,3629.5454 3122.7593,3661.5496 C 3074.6252,3693.5542 2984.5822,3745.3569 2922.6636,3776.6672 C 2860.745,3807.9775 2764.6365,3850.0396 2709.0891,3870.1386 C 2653.5419,3890.2377 2542.4016,3921.5115 2462.1107,3939.636 C 2343.3122,3966.4532 2278.6768,3973.3774 2115.0183,3976.8194 z "
       id="path3534" />
    <path
       style="fill:none;stroke:#ffffff;stroke-width:6;stroke-miterlimit:4;stroke-dasharray:none;stroke-opacity:1"
       d="M 1336.759,3346.441 C 1352.6325,3344.1845 1371.4975,3328.9313 1379.4455,3311.9271 C 1389.5616,3290.2845 1390.3748,3260.8108 1382.2528,3210.1951 C 1375.9633,3171.0013 1359.3818,3116.1545 1345.4047,3088.3133 C 1331.4276,3060.4722 1298.9671,3010.1376 1273.2703,2976.4586 C 1236.4974,2928.2628 1221.2943,2891.9297 1201.8714,2805.8243 C 1188.2987,2745.6543 1171.5227,2677.2279 1164.5913,2653.7656 L 1151.9886,2611.107 L 1185.5798,2586.7827 C 1204.0547,2573.4042 1253.0941,2533.8025 1294.5564,2498.7788 L 1369.942,2435.0993 L 1369.385,2547.4795 C 1369.0785,2609.2887 1375.3525,2683.992 1383.327,2713.4868 C 1391.3016,2742.9817 1410.3966,2795.0861 1425.7604,2829.2745 C 1441.1241,2863.4628 1469.4864,2906.169 1488.7876,2924.1771 C 1508.0889,2942.1853 1539.2261,2962.7169 1557.9819,2969.8029 C 1583.8813,2979.5877 1602.3239,2978.4075 1634.6627,2964.8957 C 1666.507,2951.5906 1683.603,2932.7261 1702.4701,2890.0747 C 1720.4769,2849.3684 1727.6979,2807.551 1727.6979,2743.9825 C 1727.6979,2694.9987 1721.038,2627.1598 1712.898,2593.2292 L 1698.0982,2531.5374 L 1738.9678,2483.9896 C 1761.4459,2457.8383 1783.152,2435.9775 1787.2031,2435.4101 C 1791.2542,2434.8427 1806.1632,2474.1424 1820.3344,2522.7427 C 1834.5054,2571.3432 1849.7957,2641.2727 1854.3133,2678.1419 C 1858.8307,2715.0113 1867.0961,2757.5175 1872.6811,2772.6003 C 1878.3975,2788.0386 1893.0999,2800.0238 1906.3214,2800.0238 C 1921.7063,2800.0238 1934.4231,2786.7839 1943.1883,2761.6405 C 1950.5478,2740.5296 1956.5691,2686.1315 1956.5691,2640.7555 C 1956.5691,2595.3796 1959.8983,2549.5783 1963.9674,2538.9748 C 1968.0364,2528.3712 1981.5171,2519.6957 1993.9245,2519.6957 C 2007.7905,2519.6957 2028.9326,2540.938 2048.7896,2574.8208 C 2066.5579,2605.1395 2091.1101,2635.3054 2103.3499,2641.8557 C 2115.5897,2648.4061 2136.1946,2653.7656 2149.1386,2653.7656 C 2162.0826,2653.7656 2187.8574,2641.8219 2206.4162,2627.2238 C 2224.9749,2612.6258 2252.3023,2572.8619 2267.1438,2538.8595 C 2281.9854,2504.8571 2304.0057,2440.0156 2316.0781,2394.7669 C 2328.1503,2349.5184 2341.4613,2312.4966 2345.6577,2312.4966 C 2349.8543,2312.4966 2366.8658,2365.9723 2383.461,2431.3313 C 2408.7771,2531.036 2417.4851,2550.1661 2437.5549,2550.1661 C 2454.0141,2550.1661 2464.2739,2538.7608 2470.447,2513.6016 C 2475.3814,2493.4912 2483.8138,2435.902 2489.1858,2385.6258 C 2495.8997,2322.791 2504.0004,2294.2144 2515.0982,2294.2144 C 2523.978,2294.2144 2551.4021,2324.3802 2576.0403,2361.2494 L 2620.8373,2428.2843 L 2665.7469,2432.0197 C 2702.7806,2435.0999 2718.9514,2428.2611 2757.9564,2393.0229 C 2783.9716,2369.5204 2815.7437,2330.8178 2828.5613,2307.0175 C 2841.3789,2283.2171 2857.4749,2263.9184 2864.3299,2264.1317 C 2871.185,2264.345 2887.4405,2272.5719 2900.453,2282.4139 C 2913.4655,2292.2559 2943.1099,2300.3085 2966.3294,2300.3085 C 2999.7594,2300.3085 3018.2438,2290.1147 3055.1374,2251.3322 C 3084.906,2220.0394 3108.5332,2178.9479 3120.5753,2137.5255 C 3130.9412,2101.869 3139.7864,2032.04 3140.2316,1982.35 C 3140.6767,1932.66 3146.703,1885.1488 3153.6235,1876.7695 C 3160.5439,1868.39 3170.7609,1861.5343 3176.3277,1861.5343 C 3181.8947,1861.5343 3183.2556,1888.5016 3179.3518,1921.462 C 3173.8483,1967.9293 3178.0257,1993.3119 3197.9498,2034.4688 C 3212.0824,2063.6623 3239.6913,2097.0263 3259.303,2108.6109 C 3278.9146,2120.1957 3314.6985,2129.6741 3338.8225,2129.6741 C 3365.6676,2129.6741 3403.2949,2116.6705 3435.809,2096.1567 C 3465.0274,2077.7221 3517.1726,2030.185 3551.6869,1990.519 C 3586.2012,1950.8529 3622.5237,1902.1959 3632.4032,1882.3919 C 3642.2828,1862.5883 3647.388,1841.5667 3643.7482,1835.6775 C 3640.1083,1829.7882 3631.4606,1824.9696 3624.5312,1824.9696 C 3617.6016,1824.9696 3578.6992,1855.0432 3538.0814,1891.7995 C 3492.1916,1933.3264 3448.8101,1961.5222 3423.5016,1966.2699 C 3401.1007,1970.4723 3369.1245,1970.4851 3352.4433,1966.2985 C 3335.7621,1962.1119 3313.7869,1942.5842 3303.6096,1922.9038 C 3293.4322,1903.2233 3285.1052,1865.9583 3285.1052,1840.0926 C 3285.1052,1814.227 3277.6479,1782.8658 3268.5332,1770.4012 L 3251.9613,1747.738 L 3207.7759,1775.0456 C 3183.415,1790.1012 3153.9377,1799.2383 3142.0762,1795.4106 C 3130.2433,1791.5921 3110.9852,1771.5934 3099.2808,1750.9689 C 3085.728,1727.0883 3070.2358,1714.9414 3056.6212,1717.5215 C 3041.8472,1720.3212 3034.1054,1735.139 3031.5609,1765.4873 C 3028.8085,1798.3121 3035.7339,1818.7372 3058.9848,1846.3687 C 3078.8658,1869.9955 3090.0662,1898.0942 3090.0228,1924.2347 C 3089.9854,1946.7291 3083.9748,1987.0725 3076.666,2013.8864 C 3069.3573,2040.7003 3051.5624,2075.5795 3037.1218,2091.3954 C 3022.6812,2107.2115 2999.8967,2124.3884 2986.4894,2129.5668 C 2973.0821,2134.7449 2953.436,2134.4456 2942.8315,2128.9014 L 2923.5506,2118.8212 L 2945.176,2035.8833 C 2957.0701,1990.2676 2967.1177,1921.2325 2967.504,1882.4721 C 2967.8906,1843.7117 2960.2595,1792.9784 2950.5461,1769.7315 C 2936.0292,1734.9882 2926.4587,1727.4644 2896.7817,1727.4644 C 2871.6979,1727.4644 2851.3663,1738.5302 2830.171,1763.7193 C 2813.392,1783.6593 2792.6811,1820.6809 2784.1465,1845.9893 C 2775.6121,1871.2978 2768.2848,1930.3975 2767.8635,1977.3219 C 2767.3979,2029.2194 2776.3988,2093.1048 2790.8418,2140.4148 L 2814.5856,2218.1908 L 2781.0208,2247.0614 C 2762.5602,2262.9403 2739.1742,2275.9322 2729.0519,2275.9322 C 2718.9296,2275.9322 2698.6675,2269.7623 2684.025,2262.2209 C 2669.3827,2254.6798 2645.299,2237.4926 2630.5059,2224.0274 C 2610.6365,2205.9413 2593.9188,2201.4832 2566.5169,2206.9635 C 2546.1159,2211.0435 2529.4242,2211.9655 2529.4242,2209.0121 C 2529.4242,2206.0587 2548.2863,2169.1743 2571.3401,2127.0466 C 2594.3939,2084.919 2622.5569,2016.7475 2633.9246,1975.5544 C 2645.3437,1934.1753 2651.0665,1886.6069 2646.7126,1869.2598 C 2642.3783,1851.9908 2628.2863,1832.2178 2615.3972,1825.3197 C 2599.8326,1816.9899 2581.4269,1816.7835 2560.5917,1824.7049 C 2543.3377,1831.2647 2513.0534,1862.1247 2493.2933,1893.2828 C 2469.5152,1930.7761 2452.1797,1980.7972 2442.0297,2041.2009 L 2426.694,2132.468 L 2415.8607,2097.5535 C 2409.9026,2078.3507 2404.1116,1941.9762 2402.9921,1794.4992 L 2400.9565,1526.3594 L 2372.2067,1462.2095 C 2351.3876,1415.7556 2334.9642,1395.9282 2312.67,1390.3327 C 2295.7372,1386.0829 2273.1337,1388.106 2262.4399,1394.8286 C 2251.746,1401.551 2233.4836,1423.2868 2221.8567,1443.1302 C 2210.2296,1462.9736 2194.6892,1522.5433 2187.3226,1575.5073 C 2177.5739,1645.5962 2177.5897,1696.7952 2187.3804,1763.6228 C 2194.7792,1814.1224 2208.5112,1880.1212 2217.8962,1910.2869 C 2227.2813,1940.4526 2251.8515,2011.2265 2272.4966,2067.5619 C 2293.1416,2123.8976 2309.9506,2181.4866 2309.8499,2195.5377 C 2309.7494,2209.589 2296.8818,2262.2311 2281.2554,2312.5205 C 2265.629,2362.8099 2243.6311,2421.7702 2232.3716,2443.5436 C 2221.112,2465.3168 2202.4421,2483.1807 2190.8829,2483.241 C 2179.3237,2483.3014 2155.3941,2465.7432 2137.7063,2444.2224 C 2111.6483,2412.5184 2097.1234,2405.3329 2061.1551,2406.3523 L 2016.7638,2407.6105 L 2048.9177,2350.9125 C 2066.6024,2319.7286 2091.452,2264.5612 2104.1392,2228.3184 C 2116.8264,2192.0756 2127.2067,2147.0851 2127.2067,2128.3396 C 2127.2067,2109.5938 2120.8416,2080.2867 2113.0619,2063.2125 C 2105.2823,2046.1384 2089.8621,2032.1687 2078.7951,2032.1687 C 2067.7278,2032.1687 2046.9025,2043.1343 2032.5166,2056.5365 C 2018.1307,2069.9389 1992.8836,2104.2181 1976.4122,2132.7127 C 1959.9407,2161.2072 1937.7682,2214.3109 1927.1398,2250.721 C 1916.5114,2287.131 1907.4679,2333.7508 1907.0429,2354.3205 L 1906.2703,2391.7198 L 1893.8936,2361.2494 C 1887.0862,2344.4906 1881.1231,2295.1286 1880.6421,2251.5558 C 1880.1609,2207.9831 1884.067,2108.6553 1889.3221,2030.827 C 1896.187,1929.1554 1894.5224,1870.8286 1883.4089,1823.628 C 1874.9014,1787.4967 1857.4925,1737.1478 1844.7224,1711.7416 C 1831.9523,1686.3355 1808.0153,1659.4028 1791.5292,1651.8914 C 1769.2084,1641.7215 1753.5919,1641.8623 1730.37,1652.4427 C 1712.2931,1660.679 1689.6628,1688.3968 1676.5295,1718.387 C 1664.0688,1746.8417 1650.1149,1795.7759 1645.5212,1827.1295 C 1640.8819,1858.7939 1643.8052,1923.8131 1652.097,1973.3876 C 1660.3075,2022.4761 1688.7815,2124.77 1715.3724,2200.7076 C 1743.1018,2279.8963 1760.8619,2350.0651 1757.0185,2365.248 C 1753.3327,2379.8075 1734.4036,2410.7322 1714.9537,2433.9696 L 1679.5903,2476.2194 L 1658.9409,2436.2886 C 1647.5838,2414.3265 1618.7668,2374.7467 1594.9034,2348.3331 C 1563.7226,2313.8203 1541.7472,2300.3085 1516.797,2300.3085 C 1494.9465,2300.3085 1477.4028,2309.0462 1469.4617,2323.8837 C 1462.5222,2336.8499 1456.8446,2359.7992 1456.8446,2374.8823 C 1456.8446,2389.9653 1468.2033,2425.7695 1482.086,2454.4472 C 1495.9691,2483.1248 1525.4115,2517.7645 1547.514,2531.4243 C 1569.6163,2545.084 1598.8067,2556.2601 1612.3814,2556.2601 C 1625.9559,2556.2601 1640.3919,2564.9357 1644.4608,2575.5393 C 1648.5298,2586.1429 1651.859,2618.6939 1651.859,2647.8749 C 1651.859,2677.056 1646.6367,2714.6667 1640.254,2731.4543 C 1633.8712,2748.2418 1617.7304,2767.8205 1604.3854,2774.9624 C 1587.2122,2784.153 1571.7819,2784.1478 1551.5833,2774.9449 C 1535.8875,2767.7935 1508.3841,2738.7684 1490.4648,2710.4449 C 1472.5457,2682.1213 1449.3989,2626.3696 1439.0276,2586.5526 C 1425.3301,2533.9656 1422.3791,2487.6781 1428.242,2417.3794 L 1436.3131,2320.6014 L 1417.3979,2327.8596 C 1406.9944,2331.8518 1366.0335,2359.7951 1326.3738,2389.9561 C 1286.714,2420.1171 1227.5434,2459.0019 1194.8838,2476.3669 C 1162.2242,2493.7319 1131.3338,2503.7288 1126.2385,2498.5823 C 1121.143,2493.436 1103.5131,2437.1209 1087.061,2373.4376 C 1070.6087,2309.7543 1050.3035,2213.7725 1041.9384,2160.1445 C 1033.5733,2106.5165 1019.1533,2047.5562 1009.8941,2029.1216 C 998.78847,2007.0108 983.42577,1995.6042 964.75217,1995.6042 C 943.55417,1995.6042 930.96697,2007.7525 914.63107,2043.9787 C 896.82317,2083.4687 894.00157,2113.1286 899.26757,2205.472 C 902.81537,2267.6874 918.34457,2369.993 933.77667,2432.8181 L 961.83517,2547.0453 L 942.25077,2560.7939 C 931.47927,2568.3557 914.14277,2580.0272 903.72527,2586.7307 C 893.30777,2593.4342 882.20807,2614.1014 879.05957,2632.6579 C 874.67057,2658.5256 880.14927,2670.8617 902.54377,2685.5348 C 921.89457,2698.2137 944.02747,2701.9766 968.12327,2696.6845 L 1004.494,2688.6963 L 1018.1733,2739.4963 C 1025.6969,2767.4361 1029.02,2793.1286 1025.5579,2796.5905 C 1022.096,2800.0526 971.00117,2776.8614 912.01417,2745.0545 C 853.02697,2713.2479 766.37132,2662.7188 719.44596,2632.768 C 672.5206,2602.817 604.66223,2550.0404 568.64956,2515.4862 C 532.63689,2480.9322 482.24111,2420.7972 456.65911,2381.8528 C 431.07693,2342.9085 398.16105,2275.0306 383.51268,2231.0131 C 362.54626,2168.0101 358.09378,2132.0584 362.58694,2062.0462 C 366.68414,1998.2038 377.80096,1953.6808 401.9871,1904.247 C 423.21722,1860.8551 453.54656,1822.4406 483.98273,1800.3932 C 510.54938,1781.1486 560.43284,1756.0545 594.83478,1744.6283 L 657.38381,1723.8532 L 846.86427,1734.484 C 951.07847,1740.331 1082.9652,1745.0051 1139.946,1744.8709 C 1196.9268,1744.7367 1270.9714,1737.1545 1304.4894,1728.0215 C 1338.0077,1718.8887 1390.1553,1699.154 1420.3731,1684.1669 C 1450.5911,1669.1798 1490.3557,1641.877 1508.7391,1623.494 C 1527.1224,1605.111 1542.1633,1580.4357 1542.1633,1568.6601 C 1542.1633,1556.8843 1535.3075,1544.7793 1526.9278,1541.76 C 1518.5483,1538.7404 1471.9495,1541.9056 1423.375,1548.7933 C 1359.9755,1557.7833 1259.9756,1556.8798 1068.9427,1545.5913 L 802.82774,1529.866 L 706.28902,1550.7472 C 653.19277,1562.2319 580.68212,1587.6962 545.15442,1607.3344 C 509.62654,1626.9728 464.20958,1657.607 444.2278,1675.4105 C 424.24585,1693.2142 388.57011,1736.8976 364.94806,1772.4849 C 341.32618,1808.072 311.32754,1868.2063 298.28418,1906.1164 C 283.45212,1949.226 274.59478,2007.4275 274.6372,2061.5002 C 274.67459,2109.051 280.39394,2169.8951 287.34691,2196.709 C 294.29988,2223.5231 309.10545,2267.4005 320.24807,2294.2144 C 331.39069,2321.0285 360.66976,2373.1329 385.31265,2410.0021 C 409.95554,2446.8713 456.82324,2503.4888 489.46314,2535.8189 C 522.10303,2568.1488 592.68663,2623.817 646.31564,2659.5262 C 699.94464,2695.2352 814.37937,2762.0228 900.61497,2807.9433 L 1057.4071,2891.435 L 1097.2927,3001.8499 C 1119.2298,3062.5781 1151.6055,3140.7351 1169.2388,3175.532 C 1186.8721,3210.3289 1225.3778,3263.9283 1254.8068,3294.6418 C 1293.9289,3335.4712 1315.9619,3349.3973 1336.759,3346.441 z "
       id="path3532" />
    <path
       style="fill:none;stroke:#ffffff;stroke-width:6;stroke-miterlimit:4;stroke-dasharray:none;stroke-opacity:1"
       d="M 1323.3075,3268.9376 C 1316.8984,3272.8984 1303.1749,3263.1981 1292.8111,3247.3809 C 1282.4469,3231.5638 1268.1554,3187.1826 1261.0516,3148.756 C 1253.948,3110.3294 1250.0865,3069.6202 1252.4706,3058.2914 C 1255.088,3045.8542 1272.2881,3069.7723 1295.883,3118.6589 C 1317.3756,3163.1899 1334.9606,3213.5995 1334.9606,3230.6801 C 1334.9606,3247.7608 1329.7167,3264.9765 1323.3075,3268.9376 z "
       id="path3530" />
    <path
       style="fill:none;stroke:#ffffff;stroke-width:6;stroke-miterlimit:4;stroke-dasharray:none;stroke-opacity:1"
       d="M 2002.2978,2337.172 L 1970.7893,2403.908 L 1969.9531,2312.4966 C 1969.4859,2261.4292 1975.8968,2207.6852 1984.4788,2190.7229 C 1992.9279,2174.0235 2010.0517,2158.3941 2022.5318,2155.9906 L 2045.2229,2151.6208 L 2039.5144,2211.0283 C 2036.3747,2243.7023 2019.6274,2300.4669 2002.2978,2337.172 z "
       id="path3528" />
    <path
       style="fill:none;stroke:#ffffff;stroke-width:6;stroke-miterlimit:4;stroke-dasharray:none;stroke-opacity:1"
       d="M 2513.0583,2136.6202 L 2481.8056,2196.709 L 2481.3061,2111.3919 C 2481.0313,2064.4674 2486.6021,2005.2038 2493.6858,1979.6951 C 2500.7695,1954.1865 2515.0044,1930.0773 2525.319,1926.1194 C 2535.6335,1922.1613 2548.0627,1925.3787 2552.9392,1933.269 C 2557.8157,1941.1592 2557.8694,1976.6211 2553.0584,2012.073 C 2548.2473,2047.5251 2530.2473,2103.5711 2513.0583,2136.6202 z "
       id="path3526" />
    <path
       style="fill:none;stroke:#ffffff;stroke-width:6;stroke-miterlimit:4;stroke-dasharray:none;stroke-opacity:1"
       d="M 1834.1108,2110.1416 C 1828.269,2116.3256 1810.1944,2090.364 1792.5234,2050.4073 C 1775.3331,2011.5376 1753.1055,1948.2347 1743.1288,1909.7343 C 1733.1521,1871.2338 1724.9894,1819.5006 1724.9894,1794.7712 C 1724.9894,1764.4331 1729.9447,1751.3303 1740.2249,1754.4855 C 1748.6044,1757.0575 1767.7967,1784.7016 1782.8744,1815.9166 C 1797.952,1847.1319 1817.9731,1923.6411 1827.3656,1985.9376 C 1836.7583,2048.2339 1839.7934,2104.1256 1834.1108,2110.1416 z "
       id="path3524" />
    <path
       style="fill:none;stroke:#ffffff;stroke-width:6;stroke-miterlimit:4;stroke-dasharray:none;stroke-opacity:1"
       d="M 2883.2692,2044.1574 C 2874.1947,2058.5085 2868.1758,2053.4782 2854.1019,2019.781 C 2844.3486,1996.4285 2832.6026,1957.2311 2827.9997,1932.6758 C 2823.3967,1908.1206 2823.2634,1876.5837 2827.7038,1862.5939 C 2832.1441,1848.6041 2843.7703,1837.1578 2853.5399,1837.1578 C 2863.3095,1837.1578 2876.6517,1851.2266 2883.1895,1868.4218 C 2889.7273,1885.6168 2894.9923,1928.1231 2894.8897,1962.8801 C 2894.7872,1997.637 2889.5578,2034.2119 2883.2692,2044.1574 z "
       id="path3522" />
    <path
       style="fill:none;stroke:#ffffff;stroke-width:6;stroke-miterlimit:4;stroke-dasharray:none;stroke-opacity:1"
       d="M 2344.5029,1788.4052 L 2340.5038,1867.6284 L 2295.5838,1763.7458 C 2270.8777,1706.6102 2247.0112,1632.329 2242.5469,1598.6765 C 2236.2086,1550.8967 2238.6009,1534.0287 2253.4648,1521.693 L 2272.4993,1505.896 L 2297.1192,1546.3789 C 2310.66,1568.6447 2327.7605,1614.384 2335.1204,1648.022 C 2342.4804,1681.6601 2346.7024,1744.8324 2344.5029,1788.4052 z "
       id="path3520" />
    <path
       style="fill:none;stroke:#ffffff;stroke-width:6;stroke-miterlimit:4;stroke-dasharray:none;stroke-opacity:1"
       d="M 1549.0415,3311.9271 C 1557.2935,3311.9271 1675.6734,3254.8776 1812.1078,3185.1505 C 1948.5424,3115.4233 2156.1542,3014.5502 2273.4677,2960.9881 C 2390.781,2907.4258 2552.582,2836.1582 2633.0256,2802.6153 C 2713.4691,2769.0726 2834.1342,2722.2927 2901.1705,2698.6598 C 2968.2068,2675.0273 3083.3872,2636.4115 3157.127,2612.8472 C 3230.8669,2589.2829 3380.8618,2541.593 3490.4491,2506.8695 C 3638.661,2459.9075 3700.4808,2434.269 3731.7927,2406.7776 C 3754.9443,2386.4502 3781.8337,2354.4516 3791.5467,2335.6691 C 3801.2597,2316.8865 3809.2067,2284.4322 3809.2067,2263.548 C 3809.2067,2242.6639 3803.5289,2214.9682 3796.5894,2202.0019 C 3789.312,2188.4041 3771.1548,2178.4267 3753.6865,2178.4267 C 3737.0293,2178.4267 3675.5185,2202.3898 3616.9958,2231.6782 C 3558.473,2260.9664 3459.5032,2302.2538 3397.0631,2323.428 C 3334.6228,2344.6021 3208.4729,2389.8803 3116.7297,2424.0457 C 3024.9866,2458.2116 2881.3643,2515.9195 2797.569,2552.2858 C 2713.7738,2588.652 2527.2913,2677.7104 2383.1634,2750.1934 C 2239.0355,2822.6766 2058.0377,2917.4928 1980.9459,2960.8964 C 1903.8543,3004.2999 1802.3858,3063.3116 1755.4604,3092.0335 C 1708.5351,3120.7554 1642.7177,3164.0437 1609.1996,3188.2297 C 1575.6815,3212.4156 1541.4017,3238.7807 1533.022,3246.8188 C 1524.6425,3254.8567 1517.7865,3269.1379 1517.7865,3278.5546 C 1517.7865,3287.9715 1521.4431,3299.3326 1525.9122,3303.8016 C 1530.3813,3308.2707 1540.7894,3311.9271 1549.0415,3311.9271 z "
       id="path3518" />
    <path
       style="fill:none;stroke:#ff7f00;stroke-width:6;stroke-miterlimit:4;stroke-dasharray:none;stroke-opacity:1"
       d="M 408.64175,1072.5391 L 408.64175,1054.1673 C 408.64175,1044.0629 448.02512,976.48523 496.16055,903.99466 C 553.49632,817.64861 628.1082,727.79894 712.50476,643.46716 C 783.35863,572.66777 893.43557,477.70018 957.11987,432.4283 C 1020.8044,387.15641 1133.8028,319.88192 1208.2275,282.92962 C 1282.6523,245.97732 1400.575,197.06402 1470.2782,174.23332 C 1539.9814,151.40266 1646.3742,122.75414 1706.7069,110.56991 C 1791.4166,93.462692 1873.3148,88.402762 2066.2648,88.355262 C 2264.1344,88.306542 2337.6851,92.987342 2419.7285,110.84979 C 2476.7094,123.25561 2567.2082,147.12666 2620.8373,163.89658 C 2674.4663,180.6665 2751.2531,207.91816 2791.4748,224.45586 C 2831.6965,240.99357 2897.5139,271.25984 2937.7357,291.71425 C 2977.9575,312.16867 3062.9715,363.48719 3126.656,405.75532 C 3190.3405,448.02345 3290.1025,526.99525 3348.3497,581.24793 C 3406.5969,635.50078 3488.4272,722.2589 3530.1949,774.04369 C 3571.9624,825.82847 3627.1455,900.58525 3652.8234,940.16958 C 3678.5017,979.75393 3722.0165,1058.1618 3722.0165,1066.2726 L 408.64175,1072.5391 z "
       id="path3516"
       sodipodi:nodetypes="ccssssssssssssssccc" />
    <path
       style="fill:none;stroke:#ffffff;stroke-width:6;stroke-miterlimit:4;stroke-dasharray:none;stroke-opacity:1"
       d="M 2357.6884,950.20644 C 2355.444,902.78079 2322.1828,909.32012 2322.2213,870.07278 C 2322.2598,831.92341 2358.5591,827.69235 2358.7864,791.98475 L 1749.3662,788.97485 C 1746.1804,825.35943 1777.3217,829.69015 1777.7631,868.6332 C 1778.2045,908.67423 1745.5336,901.71303 1746.5405,950.08843 L 2357.6884,950.20644 z "
       id="path3514"
       sodipodi:nodetypes="czcczcc" />
    <path
       style="fill:none;stroke:#ffffff;stroke-width:6;stroke-miterlimit:4;stroke-dasharray:none;stroke-opacity:1"
       d="M 1956.5691,867.95952 L 1897.3293,906.80435 L 1837.7929,869.42618 L 1898.1044,831.93859 L 1956.5691,867.95952"
       id="path3512"
       sodipodi:nodetypes="ccccc" />
    <path
       style="fill:none;stroke:#ffffff;stroke-width:6;stroke-miterlimit:4;stroke-dasharray:none;stroke-opacity:1"
       d="M 2022.1919,888.25937 C 2006.6904,859.84346 2018.5878,834.58329 2056.1814,827.87772 C 2093.775,821.17215 2106.4988,865.27229 2090.1561,888.13229 C 2073.8134,910.99229 2037.6934,916.67528 2022.1919,888.25937 z "
       id="path3510"
       sodipodi:nodetypes="czzz" />
    <path
       style="fill:none;stroke:#ffffff;stroke-width:6;stroke-miterlimit:4;stroke-dasharray:none;stroke-opacity:1"
       d="M 2140.9914,866.74309 L 2213.9477,825.20885 L 2280.2253,864.98623 L 2212.4547,909.86734 L 2140.9914,866.74309"
       id="path3508"
       sodipodi:nodetypes="ccccc" />
    <path
       style="fill:none;stroke:#ffffff;stroke-width:6;stroke-miterlimit:4;stroke-dasharray:none;stroke-opacity:1"
       d="M 1745.5434,763.92972 L 1744.5287,434.98821 C 1699.6357,437.36402 1671.0756,451.01368 1635.7167,479.11748 C 1616.7828,495.57347 1596.0814,526.77485 1589.7135,548.45369 C 1583.3456,570.1327 1581.3704,607.70968 1585.3242,631.95822 C 1589.7935,659.36703 1602.5319,682.43728 1631.3275,712.73204 C 1660.1231,743.0268 1698.0766,760.78033 1745.5434,763.92972 z "
       id="path3506"
       sodipodi:nodetypes="cccsszc" />
    <path
       style="fill:none;stroke:#ffffff;stroke-width:6;stroke-miterlimit:4;stroke-dasharray:none;stroke-opacity:1"
       d="M 1692.6318,708.18167 C 1685.2585,710.63641 1673.9002,709.43516 1666.574,700.60777 C 1658.8311,691.27845 1657.5501,677.60581 1663.5146,667.95532 C 1669.3525,658.50931 1682.5749,654.72938 1694.1892,659.1861 C 1705.4166,663.49445 1712.8262,676.17968 1710.6548,687.37559 C 1708.4835,698.57133 1700.0053,705.7271 1692.6318,708.18167 z "
       id="path3504"
       sodipodi:nodetypes="cssssc" />
    <path
       style="fill:none;stroke:#ffffff;stroke-width:6;stroke-miterlimit:4;stroke-dasharray:none;stroke-opacity:1"
       d="M 1638.8229,630.52846 C 1623.0356,626.31462 1618.2938,619.2651 1617.4932,603.22959 C 1616.737,588.08214 1627.4873,575.38961 1639.3736,576.54723 C 1655.215,578.09005 1663.3785,583.65012 1664.0473,599.16433 C 1665.0633,622.73254 1657.7951,630.52846 1638.8229,630.52846 z "
       id="path3502"
       sodipodi:nodetypes="csssc" />
    <path
       style="fill:none;stroke:#ffffff;stroke-width:6;stroke-miterlimit:4;stroke-dasharray:none;stroke-opacity:1"
       d="M 1687.4396,539.9473 C 1676.6287,542.02928 1663.5023,536.99461 1659.0872,525.48931 C 1654.6721,513.984 1656.3558,499.27479 1662.8286,492.80206 C 1669.3013,486.32951 1683.5985,484.48767 1694.6,488.70928 C 1705.6015,492.93088 1712.7631,505.93659 1710.5147,517.61105 C 1708.2665,529.28551 1698.2505,537.86533 1687.4396,539.9473 z "
       id="path3500"
       sodipodi:nodetypes="cssssc" />
    <path
       style="fill:none;stroke:#ffffff;stroke-width:6;stroke-miterlimit:4;stroke-dasharray:none;stroke-opacity:1"
       d="M 1803.4523,760.7897 C 1810.5748,758.41547 1816.4025,748.77814 1816.4025,739.37333 C 1816.4025,729.96853 1811.1129,721.14334 1799.3816,718.88407 C 1787.2298,716.54395 1775.1793,725.02613 1775.1793,734.79366 C 1775.1793,744.22323 1777.5138,752.1183 1782.1226,756.72686 C 1786.7315,761.3356 1796.3298,763.16375 1803.4523,760.7897 z "
       id="path3498"
       sodipodi:nodetypes="cssssc" />
    <path
       style="fill:none;stroke:#ffffff;stroke-width:6;stroke-miterlimit:4;stroke-dasharray:none;stroke-opacity:1"
       d="M 1969.1026,763.07303 L 1971.3686,349.80456 L 1933.6725,358.02125 C 1916.0993,362.14555 1884.1722,376.06127 1862.7234,388.94509 C 1841.2745,401.82874 1812.1038,431.17392 1797.8995,454.15648 C 1781.6389,480.46605 1771.5292,518.22638 1770.6038,556.10669 C 1769.4593,602.95153 1776.5683,627.50444 1802.7156,667.01502 C 1823.5084,698.43438 1855.7177,726.63702 1887.2919,741.07059 C 1920.7484,754.83767 1952.4014,761.41811 1969.1026,763.07303 z "
       id="path3496"
       sodipodi:nodetypes="cccsssscc" />
    <path
       style="fill:none;stroke:#ffffff;stroke-width:6;stroke-miterlimit:4;stroke-dasharray:none;stroke-opacity:1"
       d="M 1913.7673,701.07766 C 1898.479,703.26879 1883.0907,691.25295 1875.5649,683.72729 C 1862.953,654.93247 1881.2644,635.19664 1906.3614,632.91965 C 1930.5047,635.71988 1938.2866,644.57134 1938.2866,667.0931 C 1938.2866,689.61486 1929.0556,698.88652 1913.7673,701.07766 z "
       id="path3494"
       sodipodi:nodetypes="ccczz" />
    <path
       style="fill:none;stroke:#ffffff;stroke-width:6;stroke-miterlimit:4;stroke-dasharray:none;stroke-opacity:1"
       d="M 1833.8005,594.62375 C 1821.3373,588.52245 1812.9094,579.36275 1815.5177,557.26164 C 1818.126,535.16052 1826.0555,527.85282 1846.8735,526.92911 C 1898.0942,531.58021 1887.1936,612.50727 1833.8005,594.62375 z "
       id="path3492"
       sodipodi:nodetypes="czcc" />
    <path
       style="fill:none;stroke:#ffffff;stroke-width:6;stroke-miterlimit:4;stroke-dasharray:none;stroke-opacity:1"
       d="M 1875.042,482.87454 C 1866.6255,472.73347 1862.9818,455.00899 1868.0684,438.98273 C 1873.155,422.95647 1883.3962,414.33382 1902.5936,417.0686 C 1921.791,419.80339 1928.9707,431.40764 1928.9707,457.22376 C 1928.5087,486.01164 1899.2437,499.18035 1875.042,482.87454 z "
       id="path3490"
       sodipodi:nodetypes="czzcc" />
    <path
       style="fill:none;stroke:#ffffff;stroke-width:6;stroke-miterlimit:4;stroke-dasharray:none;stroke-opacity:1"
       d="M 2052.5559,761.00787 C 2068.1188,761.00787 2082.745,752.33223 2091.1229,743.88311 C 2099.8671,735.06457 2102.83,715.55738 2102.83,702.39939 C 2102.83,689.2414 2092.4987,674.05157 2072.7198,665.03987 C 2052.9409,656.02817 2034.3965,660.65815 2023.1291,670.0092 C 2011.8616,679.36025 2005.1101,690.96584 2001.6306,704.27117 C 1998.1511,717.5765 2003.4349,736.59336 2013.3725,746.53065 C 2023.3101,756.46794 2036.9929,761.00787 2052.5559,761.00787 z "
       id="path3488"
       sodipodi:nodetypes="czzzzzzz" />
    <path
       style="fill:none;stroke:#ffffff;stroke-width:6;stroke-miterlimit:4;stroke-dasharray:none;stroke-opacity:1"
       d="M 2128.1789,765.31667 C 2142.8249,763.16227 2177.6254,755.90478 2196.4966,748.79023 C 2215.3681,741.67551 2248.5305,721.63353 2270.1909,700.7416 C 2291.8514,679.84967 2315.723,644.12439 2323.2385,621.35219 C 2330.7543,598.57982 2333.4181,556.70731 2329.1585,528.30226 C 2324.5692,497.69925 2306.6462,458.74133 2285.1699,432.68731 C 2264.3993,407.48946 2225.0952,379.61733 2193.1053,367.40043 L 2124.3583,347.51903 L 2128.1789,765.31667 z "
       id="path3486"
       sodipodi:nodetypes="csssssccc" />
    <path
       style="fill:none;stroke:#ffffff;stroke-width:6;stroke-miterlimit:4;stroke-dasharray:none;stroke-opacity:1"
       d="M 2205.9298,701.12475 C 2190.3575,703.3538 2177.1636,700.79805 2172.4118,696.0463 C 2167.66,691.29455 2160.988,676.03793 2163.7721,658.15802 C 2166.5562,640.27811 2177.6273,633.91362 2197.2901,632.76608 C 2216.9529,631.61854 2230.8082,644.30973 2230.8082,667.0931 C 2230.8082,689.87647 2221.5021,698.8957 2205.9298,701.12475 z "
       id="path3484"
       sodipodi:nodetypes="czzzzz" />
    <path
       style="fill:none;stroke:#ffffff;stroke-width:6;stroke-miterlimit:4;stroke-dasharray:none;stroke-opacity:1"
       d="M 2253.6153,594.68211 C 2222.8224,592.69328 2217.7258,568.82223 2217.4339,552.76182 C 2217.1419,537.41954 2236.9189,521.55299 2253.5133,521.55299 C 2270.1077,521.55299 2285.0522,531.61364 2289.5613,545.8204 C 2296.1016,574.48255 2282.1137,591.712 2253.6153,594.68211 z "
       id="path3482"
       sodipodi:nodetypes="czzcc" />
    <path
       style="fill:none;stroke:#ffffff;stroke-width:6;stroke-miterlimit:4;stroke-dasharray:none;stroke-opacity:1"
       d="M 2199.7224,489.99534 C 2174.6402,487.87745 2162.33,467.94311 2165.9283,439.41663 C 2168.2481,427.37088 2180.2643,415.56682 2192.6306,413.18532 C 2204.9969,410.80382 2217.1218,415.17099 2223.9633,422.01233 C 2230.8048,428.85367 2239.7555,438.94279 2237.8664,457.91446 C 2235.983,476.82869 2214.559,489.99534 2199.7224,489.99534 z "
       id="path3480"
       sodipodi:nodetypes="cczzzc" />
    <path
       style="fill:none;stroke:#ffffff;stroke-width:6;stroke-miterlimit:4;stroke-dasharray:none;stroke-opacity:1"
       d="M 2315.3652,760.7897 C 2322.4879,758.41547 2328.3155,748.77814 2328.3155,739.37333 C 2328.3155,729.96853 2321.5896,719.70708 2309.8583,717.44781 C 2297.7064,715.10769 2285.6561,726.4624 2285.6561,736.22993 C 2285.6561,745.6595 2289.4267,752.1183 2294.0356,756.72686 C 2298.6444,761.3356 2308.2428,763.16375 2315.3652,760.7897 z "
       id="path3478"
       sodipodi:nodetypes="cssssc" />
    <path
       style="fill:none;stroke:#ffffff;stroke-width:6;stroke-miterlimit:4;stroke-dasharray:none;stroke-opacity:1"
       d="M 2360.81,765.93619 C 2368.1765,765.93619 2404.377,755.67575 2427.3593,744.77019 C 2450.3415,733.86463 2479.9656,711.18627 2493.1904,694.37379 C 2510.4845,672.38815 2517.2358,645.04323 2517.2358,596.98055 C 2519.2529,552.2637 2497.0864,516.08224 2469.0515,481.97199 C 2442.9425,460.67102 2422.9461,441.47479 2360.7181,429.573 L 2360.81,765.93619 z "
       id="path3476"
       sodipodi:nodetypes="csscccc" />
    <path
       style="fill:none;stroke:#ffffff;stroke-width:6;stroke-miterlimit:4;stroke-dasharray:none;stroke-opacity:1"
       d="M 2419.7285,703.65758 C 2403.4774,703.65758 2395.3518,695.53208 2395.3518,679.28126 C 2395.3518,663.03027 2403.4774,654.90494 2419.7285,654.90494 C 2435.9796,654.90494 2444.1053,663.03027 2444.1053,679.28126 C 2444.1053,695.53208 2435.9796,703.65758 2419.7285,703.65758 z "
       id="path3474" />
    <path
       style="fill:none;stroke:#ffffff;stroke-width:6;stroke-miterlimit:4;stroke-dasharray:none;stroke-opacity:1"
       d="M 2455.5743,618.3403 C 2442.4556,618.3403 2433.9234,605.34397 2433.9234,594.99383 C 2433.9234,584.72819 2440.6977,577.64131 2451.4297,573.52324 C 2462.1616,569.40501 2475.5117,573.42871 2481.0964,582.46491 C 2486.6812,591.50111 2483.1957,603.26958 2479.8906,608.61727 C 2476.5855,613.96495 2468.586,618.3403 2455.5743,618.3403 z "
       id="path3472"
       sodipodi:nodetypes="cssssc" />
    <path
       style="fill:none;stroke:#ffffff;stroke-width:6;stroke-miterlimit:4;stroke-dasharray:none;stroke-opacity:1"
       d="M 2421.0326,533.02319 C 2408.3425,533.02319 2394.8701,524.9718 2391.0939,515.13121 C 2387.3175,505.29061 2389.7358,493.83517 2396.4676,489.67486 C 2403.1995,485.51438 2416.6719,485.16655 2426.4064,488.90198 C 2436.1408,492.63741 2444.1053,504.09268 2444.1053,514.35832 C 2444.1053,524.62397 2433.7226,533.02319 2421.0326,533.02319 z "
       id="path3470" />
    <path
       style="fill:none;stroke:#ffffff;stroke-width:6;stroke-miterlimit:4;stroke-dasharray:none;stroke-opacity:1"
       d="M 2057.9333,603.81704 C 2081.8316,602.82455 2091.4261,592.64993 2099.2822,574.1182 C 2107.1384,555.58648 2098.1237,535.94445 2090.0847,526.25821 C 2082.0457,516.57197 2062.8075,508.6467 2046.9186,508.6467 C 2031.0297,508.6467 2013.657,517.45072 2005.3227,533.02319 C 1996.9884,548.59566 1993.3781,567.86383 2005.7038,582.48759 C 2018.0295,597.11135 2034.035,604.80953 2057.9333,603.81704 z "
       id="path3468"
       sodipodi:nodetypes="czzzzzz" />
    <path
       style="fill:none;stroke:#ffffff;stroke-width:6;stroke-miterlimit:4;stroke-dasharray:none;stroke-opacity:1"
       d="M 2051.8134,458.80526 C 2062.204,459.00913 2080.1596,453.31253 2088.2039,445.26832 C 2096.2482,437.22411 2102.83,419.2994 2102.83,402.34833 C 2102.83,385.39726 2092.4939,366.89835 2072.4085,360.1936 C 2052.3231,353.48885 2040.764,350.91063 2017.5606,368.43787 C 1994.3572,385.96511 1996.258,427.92538 2014.464,442.42078 C 2032.67,456.91619 2041.4228,458.60139 2051.8134,458.80526 z "
       id="path3466"
       sodipodi:nodetypes="czzzzzz" />
    <path
       style="fill:none;stroke:#ffffff;stroke-width:6;stroke-miterlimit:4;stroke-dasharray:none;stroke-opacity:1"
       d="M 2078.862,326.54229 C 2077.776,299.2532 2079.1515,289.43067 2079.1515,276.66216 C 2106.4406,275.22448 2118.9765,275.61514 2131.9044,275.61514 C 2131.0288,251.19858 2130.0792,244.79649 2130.0792,215.00306 C 2102.7901,213.37917 2091.3284,214.71442 2080.1842,214.71442 C 2078.81,196.76107 2080.7492,180.04375 2079.6261,159.61146 C 2057.0818,158.74137 2035.7727,157.66499 2019.4909,159.35918 C 2019.4902,175.29552 2018.9672,205.04839 2018.9672,215.10364 C 2003.1683,214.4884 1974.3808,215.43256 1960.8381,215.43256 C 1960.3859,238.41285 1963.0323,245.10208 1963.0323,274.6822 C 1983.4205,275.72678 1998.885,276.64606 2017.5724,276.68534 C 2018.8752,288.33789 2017.7317,315.24271 2018.2491,326.1986 C 2035.8328,325.84311 2050.6665,326.54229 2078.862,326.54229 z "
       id="path3403"
       sodipodi:nodetypes="ccccccccccccc" />
  </g>
</svg>
