<?xml version="1.0" encoding="UTF-8" standalone="no"?>
<!-- Created with Inkscape (http://www.inkscape.org/) -->
<svg
   xmlns:dc="http://purl.org/dc/elements/1.1/"
   xmlns:cc="http://web.resource.org/cc/"
   xmlns:rdf="http://www.w3.org/1999/02/22-rdf-syntax-ns#"
   xmlns:svg="http://www.w3.org/2000/svg"
   xmlns="http://www.w3.org/2000/svg"
   xmlns:sodipodi="http://sodipodi.sourceforge.net/DTD/sodipodi-0.dtd"
   xmlns:inkscape="http://www.inkscape.org/namespaces/inkscape"
   width="4096"
   height="4096"
   id="svg2"
   sodipodi:version="0.32"
   inkscape:version="0.45.1"
   sodipodi:docbase="E:\laser graphics\company logos"
   sodipodi:docname="ge_logo.svg"
   inkscape:output_extension="org.inkscape.output.svg.inkscape"
   version="1.0">
  <defs
     id="defs4">
    <marker
       inkscape:stockid="Arrow1Lend"
       orient="auto"
       refY="0.0"
       refX="0.0"
       id="Arrow1Lend"
       style="overflow:visible;">
      <path
         id="path3333"
         d="M 0.0,0.0 L 5.0,-5.0 L -12.5,0.0 L 5.0,5.0 L 0.0,0.0 z "
         style="fill-rule:evenodd;stroke:#000000;stroke-width:1.0pt;marker-start:none;"
         transform="scale(0.8) rotate(180) translate(12.5,0)" />
    </marker>
  </defs>
  <sodipodi:namedview
     id="base"
     pagecolor="#000000"
     bordercolor="#666666"
     borderopacity="1.0"
     gridtolerance="50"
     guidetolerance="10"
     objecttolerance="10"
     inkscape:pageopacity="0.69019608"
     inkscape:pageshadow="2"
     inkscape:zoom="1.4261582"
     inkscape:cx="1882.7598"
     inkscape:cy="1991.527"
     inkscape:document-units="px"
     inkscape:current-layer="layer1"
     showguides="true"
     inkscape:guide-bbox="false"
     inkscape:window-width="1032"
     inkscape:window-height="929"
     inkscape:window-x="22"
     inkscape:window-y="22"
     width="4096px"
     height="4096px"
     showgrid="true"
     inkscape:object-paths="true"
     inkscape:grid-bbox="false"
     gridempspacing="20"
     gridcolor="#ffffff"
     gridopacity="0.12941176"
     gridempcolor="#ffffff"
     gridempopacity="0.40784314"
     guidecolor="#ffffff"
     guideopacity="0.28627451"
     guidehicolor="#ff0000"
     guidehiopacity="0.64313725"
     borderlayer="false"
     showborder="true"
     inkscape:showpageshadow="true">
    <sodipodi:guide
       orientation="horizontal"
       position="410"
       id="guide2164" />
    <sodipodi:guide
       orientation="vertical"
       position="411.12022"
       id="guide2166" />
  </sodipodi:namedview>
  <metadata
     id="metadata7">
    <rdf:RDF>
      <cc:Work
         rdf:about="">
        <dc:format>image/svg+xml</dc:format>
        <dc:type
           rdf:resource="http://purl.org/dc/dcmitype/StillImage" />
      </cc:Work>
    </rdf:RDF>
  </metadata>
  <g
     inkscape:label="Layer 1"
     inkscape:groupmode="layer"
     id="layer1">
    <path
       style="fill:none;stroke:#ffffff;stroke-width:6;stroke-miterlimit:4;stroke-opacity:1;marker-mid:none;marker-end:url(#Arrow1Lend)"
       d="M 3222.8182,2820.571 C 3549.8198,2330.9769 3529.6706,1679.2318 3172.828,1203.5881 C 2853.9516,792.74454 2367.0504,603.42432 1858.6339,654.382 C 1493.5499,703.92045 1185.5524,895.56407 948.89931,1170.2042 C 501.09109,1731.6243 546.13432,2533.9934 1053.9478,3041.4646 C 1344.4389,3331.7598 1756.0296,3483.7358 2157.0995,3448.7928 C 2598.6009,3410.3273 2978.4847,3186.3927 3222.8182,2820.571"
       id="path3144"
       sodipodi:nodetypes="ccccccc" />
    <path
       style="fill:none;stroke:#ffffff;stroke-width:6;stroke-miterlimit:4;stroke-dasharray:none;stroke-opacity:1"
       d="M 1933.8249,3366.233 C 1814.5055,3352.1322 1741.936,3337.8744 1649.1775,3310.3083 C 1589.6372,3292.614 1595.9757,3288.5945 1657.8161,3304.8302 C 1869.2389,3360.3374 2068.2565,3351.3322 2159.0808,3282.1486 C 2219.3411,3236.2465 2237.3224,3157.0711 2198.4447,3108.8211 C 2175.1733,3079.9396 2138.2106,3065.4219 2102.2332,3071.0324 C 2070.0319,3076.0542 2051.7884,3085.6275 1990.1629,3129.8418 C 1904.8549,3191.0476 1823.0594,3211.4093 1712.7487,3198.8999 C 1266.7471,3148.3227 923.17375,2865.8343 785.70199,2436.6757 C 709.40708,2198.4987 706.97938,1922.0137 779.00546,1674.0252 C 801.97797,1594.93 812.05825,1581.343 791.69468,1656.9217 C 765.88715,1752.7055 756.46588,1821.5213 756.73693,1912.2637 C 757.30517,2102.4951 821.33335,2220.1693 924.59606,2220.7637 C 953.28056,2220.9288 970.71725,2213.2813 996.50496,2189.2255 C 1039.8248,2148.815 1031.9793,2084.3041 974.33297,2006.9127 C 908.21182,1918.1437 892.87586,1863.4824 898.22495,1735.6439 C 903.79931,1602.4216 936.99254,1472.6395 998.58751,1343.2369 C 1139.4802,1047.2404 1440.7559,820.8571 1787.7034,750.28275 C 2006.5126,705.77366 2248.2232,717.37017 2449.3264,782.02534 C 2500.6742,798.53379 2490.763,799.12777 2427.4364,783.3372 C 2335.8305,760.49514 2279.641,753.7128 2183.3671,753.8769 C 2079.282,754.05431 2022.8282,764.04304 1968.2425,791.94029 C 1876.1543,839.004 1847.2794,933.07164 1906.0206,994.64442 C 1948.0371,1038.6862 2010.6468,1030.352 2091.3492,969.97465 C 2182.8443,901.52263 2247.0296,882.70935 2363.1171,890.31701 C 2559.8004,903.20643 2770.7458,980.75366 2925.4265,1097.0318 C 3209.7672,1310.7792 3372.1729,1656.7766 3371.9218,2048.268 C 3371.8386,2177.8105 3351.5373,2320.3525 3319.7095,2414.8671 C 3305.8525,2456.0166 3306.4575,2451.045 3326.9311,2355.5293 C 3343.3068,2279.1313 3349.73,2140.6458 3339.8274,2077.4808 C 3319.7586,1949.4687 3266.1941,1875.283 3188.4397,1867.8118 C 3121.4389,1861.3738 3070.8408,1913.0552 3078.7514,1979.8483 C 3082.6547,2012.8055 3096.103,2038.8655 3142.151,2102.7037 C 3195.2267,2176.2848 3213.6813,2262.085 3201.3223,2377.8061 C 3146.5695,2890.473 2786.0405,3258.7638 2245.7526,3353.9483 C 2189.2298,3363.9062 1982.8967,3372.0322 1933.8249,3366.233 z "
       id="path3142" />
    <path
       style="fill:none;stroke:#ffffff;stroke-width:6;stroke-miterlimit:4;stroke-dasharray:none;stroke-opacity:1;marker-end:url(#Arrow1Lend)"
       d="M 1808.2977,2020.6175 L 1718.3809,2064.3359 C 1395.074,2221.531 1231.564,2396.8912 1231.2547,2586.7661 C 1231.1926,2624.8656 1235.0376,2651.0423 1244.3532,2675.9403 C 1284.565,2783.4162 1402.5964,2838.4835 1534.5626,2811.3371 C 1553.7023,2807.3999 1594.4805,2792.2435 1625.1807,2777.6561 C 1670.5725,2756.088 1690.8129,2741.1689 1733.5345,2697.7893 C 1837.9412,2591.7744 1882.8504,2442.9575 1918.0546,2188.0734 C 1925.9806,2130.6882 1929.0449,2114.5749 1934.6102,2084.0662 C 1949.5603,2078.5057 2104.4345,1982.9664 2197.4844,1921.9036 L 2300.255,1854.4618 L 2320.8538,1875.7144 L 2341.4525,1896.9669 L 2303.4529,1920.5617 C 2116.0912,2036.899 2027.6185,2214.4052 2052.3,2424.4593 C 2066.6985,2546.9979 2104.8624,2629.5947 2182.851,2707.006 C 2233.1439,2756.9265 2274.3663,2781.7959 2344.2561,2804.3813 C 2393.8288,2820.4011 2548.6656,2819.4364 2597.0816,2802.8061 C 2726.9416,2758.2009 2806.0297,2679.1127 2850.635,2549.2528 C 2869.0542,2495.6286 2867.4216,2364.0294 2847.6681,2310.0912 C 2818.8041,2231.2764 2769.3689,2173.8136 2705.1259,2144.4021 C 2604.8115,2098.4767 2490.724,2113.4143 2420.3759,2181.6849 C 2336.1145,2263.4578 2326.9189,2415.9846 2401.7393,2490.805 C 2445.2665,2534.3323 2503.4153,2545.7975 2534.1642,2516.9154 C 2558.7815,2493.7925 2556.3183,2468.3081 2525.0116,2422.221 C 2494.7127,2377.6177 2487.3228,2347.8219 2497.8471,2312.6949 C 2516.4383,2250.6428 2591.6287,2229.0082 2654.2308,2267.6985 C 2702.9876,2297.8318 2733.0753,2378.3005 2726.2194,2460.2296 C 2709.0401,2665.5229 2446.7081,2760.5003 2300.4391,2614.3833 C 2240.444,2554.4504 2208.2342,2464.1551 2208.1017,2355.5293 C 2207.903,2192.4498 2282.8276,2053.2793 2402.7246,1994.0231 C 2454.4594,1968.4543 2451.8497,1968.8357 2531.7526,1975.1697 C 2644.6277,1984.1176 2714.4192,1939.1618 2681.9215,1878.4392 C 2664.3944,1845.6895 2569.0398,1829.335 2495.2947,1846.4305 C 2475.1753,1851.0945 2465.5658,1850.2519 2454.2393,1842.8308 C 2439.4637,1833.15 2402.4015,1782.449 2407.3223,1778.6486 C 2408.7538,1777.5431 2433.5659,1759.1523 2462.4602,1737.7802 C 2600.9554,1635.3404 2682.0738,1521.5538 2693.2077,1414.1059 C 2706.1179,1289.5143 2600.1002,1216.4153 2474.1986,1263.0996 C 2423.5677,1281.8736 2354.2712,1351.225 2319.1379,1418.2833 C 2266.9285,1517.9343 2240.6963,1635.2725 2253.7393,1710.8141 L 2260.3422,1749.0563 L 2184.095,1799.9165 C 2105.8153,1852.1323 1981.7422,1930.4001 1954.7896,1944.5667 L 1939.6364,1952.5314 L 1944.2976,1894.6379 L 1948.9589,1836.7444 L 1982.435,1799.5768 C 2000.8469,1779.1346 2026.2506,1745.2715 2038.8877,1724.3255 C 2058.2613,1692.2136 2061.8654,1680.1485 2061.8718,1647.3833 C 2061.8786,1612.782 2059.9264,1607.0554 2044.0525,1595.1128 C 2027.9564,1583.003 2023.5728,1582.4956 1998.9031,1589.8868 C 1966.2437,1599.6718 1915.2354,1648.1945 1894.1402,1689.5446 C 1886.1027,1705.2992 1872.6299,1737.4764 1864.2004,1761.0496 C 1852.7991,1792.9334 1841.2588,1810.9043 1819.1388,1831.2212 C 1746.2297,1898.1869 1655.2285,1911.4849 1628.1545,1859.1297 C 1614.7601,1833.2277 1615.7094,1830.5827 1641.7838,1821.1541 C 1730.5306,1789.0628 1863.2863,1657.4843 1920.5767,1544.8333 C 1958.5482,1470.1693 1975.6486,1378.2285 1960.2451,1331.5554 C 1931.7227,1245.1319 1834.4956,1218.6821 1731.1987,1269.2452 C 1678.1825,1295.1963 1604.9467,1365.8542 1571.464,1423.3573 C 1527.0376,1499.655 1491.8727,1604.8379 1483.2062,1687.3474 C 1480.3085,1714.9353 1476.035,1728.3905 1470.1707,1728.3905 C 1454.0869,1728.3905 1415.6957,1682.9617 1407.7775,1654.5598 C 1398.1294,1619.953 1398.1466,1554.0238 1407.8101,1529.3144 C 1423.0709,1490.293 1411.9796,1439.447 1388.2069,1439.447 C 1371.8488,1439.447 1335.0426,1484.9829 1321.8576,1521.5332 C 1302.7811,1574.4154 1301.5537,1659.0971 1319.1925,1705.4064 C 1346.1759,1776.2487 1395.4715,1824.4206 1458.4731,1841.5119 C 1482.5951,1848.0558 1486.6991,1852.206 1496.7857,1880.2559 C 1510.7431,1919.0699 1552.1988,1967.1703 1588.2208,1986.3465 C 1609.6647,1997.7621 1633.3215,2000.7719 1667.8655,2000.7422 C 1712.7787,2000.7065 1724.1116,1998.1181 1771.2942,1976.5094 C 1799.4735,1963.6038 1822.1877,1953.4989 1822.1877,1954.949 L 1814.9837,1989.008 L 1808.2977,2020.6175"
       id="path3140"
       sodipodi:nodetypes="ccsscssscccccccssssscsssssscccccssssscssccccccccsssssssssssssssssssssssssccc" />
    <path
       style="fill:none;stroke:#ffffff;stroke-width:6;stroke-miterlimit:4;stroke-dasharray:none;stroke-opacity:1"
       d="M 1385.4889,2635.6016 C 1365.437,2579.1674 1381.1464,2524.2151 1410.3503,2473.2513 C 1443.6213,2410.9311 1506.7713,2343.3103 1590.1992,2280.6695 C 1652.8592,2233.6221 1777.2118,2160.7694 1785.4319,2162.6115 C 1784.6547,2186.0957 1762.715,2306.9343 1746.5016,2358.8127 C 1707.5075,2483.5826 1632.6798,2603.1221 1563.7,2650.8438 C 1530.5036,2673.8098 1520.6581,2677.2181 1481.0484,2679.4563 C 1446.2139,2683.7218 1401.836,2668.5871 1385.4889,2635.6016 z "
       id="path3138"
       sodipodi:nodetypes="ccscsscc" />
    <path
       style="fill:none;stroke:#ffffff;stroke-width:6;stroke-miterlimit:4;stroke-dasharray:none;stroke-opacity:1"
       d="M 1614.478,1672.6189 C 1627.4795,1561.9975 1720.32,1401.6242 1789.3875,1370.4791 C 1825.8277,1354.0469 1837.938,1361.6411 1840.6164,1402.6038 C 1843.7236,1450.1262 1808.3506,1518.9991 1737.7412,1602.907 C 1707.1857,1639.2172 1627.5162,1708.6898 1616.432,1708.6898 C 1612.7893,1708.6898 1611.9846,1693.8345 1614.478,1672.6189 z "
       id="path3136" />
    <path
       style="fill:none;stroke:#ffffff;stroke-width:6;stroke-miterlimit:4;stroke-dasharray:none;stroke-opacity:1;marker-end:url(#Arrow1Lend)"
       d="M 2392.1868,1649.5878 C 2389.3016,1649.5878 2386.9804,1635.551 2387.0288,1618.395 C 2387.2156,1552.0483 2442.9642,1433.7395 2495.9714,1387.1985 C 2519.8005,1366.2764 2548.8639,1361.0216 2562.9338,1375.0914 C 2582.6591,1394.8168 2563.0003,1463.8322 2522.1555,1518.2498 C 2500.2545,1547.4286 2399.1604,1649.5878 2392.1868,1649.5878"
       id="path3134"
       sodipodi:nodetypes="ccssss" />
  </g>
</svg>
