<?xml version="1.0" encoding="UTF-8" standalone="no"?>
<!-- Created with Inkscape (http://www.inkscape.org/) -->
<svg
   xmlns:dc="http://purl.org/dc/elements/1.1/"
   xmlns:cc="http://creativecommons.org/ns#"
   xmlns:rdf="http://www.w3.org/1999/02/22-rdf-syntax-ns#"
   xmlns:svg="http://www.w3.org/2000/svg"
   xmlns="http://www.w3.org/2000/svg"
   xmlns:xlink="http://www.w3.org/1999/xlink"
   xmlns:sodipodi="http://sodipodi.sourceforge.net/DTD/sodipodi-0.dtd"
   xmlns:inkscape="http://www.inkscape.org/namespaces/inkscape"
   width="655.35999"
   height="655.35999"
   id="svg2"
   sodipodi:version="0.32"
   inkscape:version="0.46"
   sodipodi:docname="gears_anim.svg"
   inkscape:output_extension="org.inkscape.output.svg.inkscape"
   sodipodi:docbase="H:\laser graphics"
   version="1.0"
   sodipodi:modified="true">
  <defs
     id="defs4">
    <inkscape:path-effect
       effect="skeletal"
       id="path-effect3716"
       prop_scale="0.94"
       copytype="repeated_stretched"
       scale_y_rel="true"
       vertical_pattern="true" />
    <inkscape:path-effect
       effect="bend_path"
       id="path-effect3712"
       bendpath="M 511.774,431.247 L 585.48452,537.31302"
       prop_scale="5"
       bendpath-nodetypes="cc" />
    <inkscape:path-effect
       effect="curvestitching"
       id="path-effect3708"
       strokepath="M 535.584,474.726 C 509.08,547.315 640.119,498.767 587.734,576.549 "
       count="7"
       prop_scale="3"
       scale_y_rel="false"
       startpoint_edge_variation="10;1"
       startpoint_spacing_variation="10;1"
       endpoint_spacing_variation="5;1"
       endpoint_edge_variation="5;1"
       strokepath-nodetypes="cc" />
    <inkscape:path-effect
       effect="gears"
       id="path-effect3704"
       teeth="12" />
    <inkscape:path-effect
       effect="gears"
       id="path-effect3700"
       teeth="10"
       phi="10" />
    <inkscape:path-effect
       effect="bend_path"
       id="path-effect3698"
       bendpath="M 82.0244,505.453 L 603.869,505.453 "
       prop_scale="1" />
    <linearGradient
       id="linearGradient3330">
      <stop
         style="stop-color:#0000ff;stop-opacity:1;"
         offset="0"
         id="stop3332" />
      <stop
         style="stop-color:#ff00ff;stop-opacity:1;"
         offset="1"
         id="stop3334" />
    </linearGradient>
    <inkscape:path-effect
       effect="gears"
       id="path-effect3328"
       teeth="28"
       phi="5" />
    <inkscape:path-effect
       effect="gears"
       id="path-effect3324"
       teeth="16" />
    <inkscape:path-effect
       effect="gears"
       id="path-effect3320"
       teeth="46"
       phi="6.1" />
    <inkscape:path-effect
       effect="gears"
       id="path-effect3315"
       teeth="10" />
    <inkscape:path-effect
       effect="gears"
       id="path-effect3311"
       teeth="9" />
    <inkscape:path-effect
       effect="gears"
       id="path-effect3307"
       teeth="10" />
    <inkscape:path-effect
       effect="bend_path"
       id="path-effect3305"
       bendpath="M 114.313,607.73 L 372.877,607.73 "
       prop_scale="1" />
    <inkscape:path-effect
       effect="gears"
       id="path-effect3234"
       teeth="10" />
    <inkscape:perspective
       sodipodi:type="inkscape:persp3d"
       inkscape:vp_x="0 : 2048 : 1"
       inkscape:vp_y="6.1230318e-14 : 1000 : 0"
       inkscape:vp_z="4096 : 2048 : 1"
       inkscape:persp3d-origin="2048 : 1365.3333 : 1"
       id="perspective17" />
    <linearGradient
       id="linearGradient3048">
      <stop
         style="stop-color:lime;stop-opacity:1;"
         offset="0"
         id="stop3050" />
      <stop
         id="stop3056"
         offset="0.27543417"
         style="stop-color:yellow;stop-opacity:1;" />
      <stop
         style="stop-color:red;stop-opacity:1;"
         offset="0.52791548"
         id="stop3058" />
      <stop
         id="stop3060"
         offset="0.76737863"
         style="stop-color:fuchsia;stop-opacity:1;" />
      <stop
         style="stop-color:blue;stop-opacity:1;"
         offset="1"
         id="stop3052" />
    </linearGradient>
    <marker
       inkscape:stockid="Arrow1Lend"
       orient="auto"
       refY="0"
       refX="0"
       id="Arrow1Lend"
       style="overflow:visible">
      <path
         id="path3227"
         d="M 0,0 L 5,-5 L -12.5,0 L 5,5 L 0,0 z"
         style="fill-rule:evenodd;stroke:#000000;stroke-width:1pt;marker-start:none"
         transform="matrix(-0.8,0,0,-0.8,-10,0)" />
    </marker>
    <linearGradient
       inkscape:collect="always"
       xlink:href="#linearGradient3048"
       id="linearGradient3236"
       gradientUnits="userSpaceOnUse"
       x1="61.525917"
       y1="308.33731"
       x2="571.7854"
       y2="308.33731" />
  </defs>
  <sodipodi:namedview
     id="base"
     pagecolor="#000000"
     bordercolor="#666666"
     borderopacity="1.0"
     gridtolerance="10000"
     guidetolerance="10"
     objecttolerance="10"
     inkscape:pageopacity="0.87058824"
     inkscape:pageshadow="2"
     inkscape:zoom="0.70710678"
     inkscape:cx="-128.8051"
     inkscape:cy="389.91441"
     inkscape:document-units="px"
     inkscape:current-layer="layer1"
     showguides="true"
     inkscape:guide-bbox="true"
     inkscape:window-width="904"
     inkscape:window-height="770"
     inkscape:window-x="348"
     inkscape:window-y="1"
     width="4096px"
     height="4096px"
     showborder="true"
     showgrid="false"
     inkscape:showpageshadow="false" />
  <metadata
     id="metadata7">
    <rdf:RDF>
      <cc:Work
         rdf:about="">
        <dc:format>image/svg+xml</dc:format>
        <dc:type
           rdf:resource="http://purl.org/dc/dcmitype/StillImage" />
      </cc:Work>
    </rdf:RDF>
  </metadata>
  <g
     inkscape:label="Layer 1"
     inkscape:groupmode="layer"
     id="layer1"
     style="display:inline">
    <path
       style="opacity:1;fill:none;fill-opacity:1;fill-rule:evenodd;stroke:#00ffff;stroke-width:0.80002790999999984;stroke-linecap:butt;stroke-linejoin:miter;marker:none;marker-start:none;marker-mid:none;marker-end:none;stroke-miterlimit:2;stroke-dasharray:none;stroke-dashoffset:0;stroke-opacity:1;visibility:visible;display:inline;overflow:visible;enable-background:accumulate"
       d="M 152.971,326.018 C 152.971,326.018 149.26,326.405 143.17,323.247 C 142.965,320.27 142.965,317.28 143.17,314.303 C 149.261,311.145 152.971,311.533 152.971,311.533 L 161.949,312.717 C 162.477,308.715 163.531,304.782 165.075,301.052 L 156.708,297.588 C 156.708,297.588 153.301,296.069 149.606,290.289 C 150.916,287.608 152.412,285.018 154.078,282.543 C 160.931,282.853 163.951,285.044 163.951,285.044 L 171.134,290.559 C 173.592,287.357 176.471,284.478 179.674,282.02 L 174.159,274.836 C 174.159,274.836 171.968,271.817 171.659,264.964 C 174.134,263.297 176.724,261.802 179.405,260.492 C 185.185,264.187 186.704,267.594 186.704,267.594 L 190.167,275.962 C 193.897,274.418 197.83,273.364 201.832,272.837 L 200.649,263.858 C 200.649,263.858 200.261,260.148 203.42,254.058 C 206.396,253.852 209.387,253.852 212.363,254.058 C 215.522,260.148 215.134,263.859 215.134,263.859 L 213.949,272.837 C 217.952,273.365 221.884,274.419 225.614,275.963 L 229.078,267.596 C 229.078,267.596 230.598,264.189 236.378,260.494 C 239.059,261.804 241.649,263.299 244.124,264.966 C 243.813,271.819 241.622,274.839 241.622,274.839 L 236.108,282.022 C 239.31,284.48 242.188,287.359 244.647,290.561 L 251.83,285.047 C 251.83,285.047 254.85,282.856 261.703,282.547 C 263.369,285.022 264.865,287.612 266.175,290.292 C 262.48,296.072 259.072,297.592 259.072,297.592 L 250.705,301.055 C 252.249,304.785 253.302,308.718 253.83,312.72 L 262.808,311.536 C 262.808,311.536 266.519,311.149 272.609,314.307 C 272.814,317.284 272.814,320.275 272.608,323.251 C 266.518,326.409 262.808,326.022 262.808,326.022 L 253.83,324.837 C 253.302,328.839 252.248,332.772 250.704,336.502 L 259.071,339.966 C 259.071,339.966 262.478,341.486 266.173,347.266 C 264.863,349.946 263.367,352.536 261.701,355.011 C 254.847,354.701 251.828,352.51 251.828,352.51 L 244.645,346.995 C 242.186,350.197 239.307,353.076 236.105,355.534 L 241.62,362.718 C 241.62,362.718 243.81,365.738 244.12,372.591 C 241.645,374.257 239.055,375.752 236.374,377.062 C 230.594,373.367 229.075,369.96 229.075,369.96 L 225.611,361.593 C 221.881,363.136 217.949,364.19 213.946,364.718 L 215.13,373.696 C 215.13,373.696 215.518,377.406 212.359,383.496 C 209.383,383.702 206.392,383.702 203.415,383.496 C 200.257,377.406 200.645,373.696 200.645,373.696 L 201.829,364.717 C 197.827,364.189 193.895,363.136 190.165,361.591 L 186.701,369.959 C 186.701,369.959 185.181,373.366 179.401,377.061 C 176.72,375.75 174.13,374.255 171.655,372.588 C 171.965,365.735 174.156,362.716 174.156,362.716 L 179.671,355.532 C 176.469,353.074 173.59,350.195 171.132,346.993 L 163.949,352.507 C 163.949,352.507 160.929,354.698 154.076,355.008 C 152.41,352.533 150.914,349.943 149.604,347.262 C 153.299,341.482 156.706,339.963 156.706,339.963 L 165.074,336.499 C 163.53,332.769 162.477,328.836 161.949,324.834 L 152.971,326.018 M 292.483,326.796 C 292.483,326.796 290.85,330.15 284.95,333.65 C 282.315,332.251 279.776,330.67 277.358,328.922 C 277.897,322.083 280.188,319.138 280.188,319.138 L 285.939,312.143 C 282.821,309.579 280.04,306.606 277.69,303.323 L 270.327,308.594 C 270.327,308.594 267.236,310.683 260.376,310.764 C 258.793,308.234 257.385,305.596 256.165,302.873 C 260.052,297.219 263.508,295.815 263.508,295.815 L 271.986,292.633 C 270.568,288.853 269.646,284.887 269.252,280.87 L 260.24,281.753 C 260.24,281.753 256.518,282.016 250.537,278.656 C 250.431,275.674 250.531,272.685 250.836,269.717 C 257.028,266.764 260.724,267.276 260.724,267.276 L 269.658,268.759 C 270.319,264.777 271.504,260.882 273.171,257.206 L 264.924,253.464 C 264.924,253.464 261.57,251.832 258.07,245.931 C 259.469,243.296 261.051,240.757 262.799,238.339 C 269.638,238.878 272.582,241.169 272.582,241.169 L 279.577,246.92 C 282.141,243.802 285.115,241.021 288.397,238.672 L 283.126,231.308 C 283.126,231.308 281.037,228.217 280.957,221.357 C 283.486,219.774 286.125,218.366 288.848,217.146 C 294.501,221.033 295.906,224.489 295.906,224.489 L 299.088,232.967 C 302.867,231.549 306.833,230.627 310.851,230.234 L 309.967,221.221 C 309.967,221.221 309.704,217.499 313.064,211.518 C 316.046,211.412 319.035,211.512 322.003,211.817 C 324.956,218.01 324.444,221.705 324.444,221.705 L 322.961,230.639 C 326.943,231.3 330.838,232.485 334.515,234.153 L 338.256,225.906 C 338.256,225.906 339.889,222.551 345.789,219.052 C 348.425,220.451 350.963,222.032 353.381,223.78 C 352.842,230.619 350.552,233.564 350.552,233.564 L 344.8,240.559 C 347.918,243.122 350.699,246.096 353.049,249.379 L 360.413,244.107 C 360.413,244.107 363.504,242.019 370.363,241.938 C 371.946,244.467 373.354,247.106 374.574,249.829 C 370.688,255.482 367.232,256.887 367.232,256.887 L 358.753,260.069 C 360.172,263.848 361.093,267.814 361.487,271.832 L 370.5,270.949 C 370.5,270.949 374.221,270.685 380.202,274.045 C 380.308,277.027 380.208,280.016 379.903,282.984 C 373.711,285.937 370.015,285.426 370.015,285.426 L 361.082,283.942 C 360.42,287.924 359.236,291.82 357.568,295.496 L 365.815,299.237 C 365.815,299.237 369.169,300.87 372.669,306.77 C 371.27,309.406 369.689,311.944 367.94,314.362 C 361.101,313.823 358.157,311.533 358.157,311.533 L 351.162,305.781 C 348.598,308.899 345.624,311.68 342.342,314.03 L 347.613,321.394 C 347.613,321.394 349.702,324.485 349.782,331.345 C 347.253,332.927 344.614,334.335 341.892,335.555 C 336.238,331.669 334.833,328.213 334.833,328.213 L 331.651,319.734 C 327.872,321.153 323.906,322.074 319.889,322.468 L 320.772,331.481 C 320.772,331.481 321.035,335.202 317.675,341.183 C 314.693,341.289 311.704,341.189 308.736,340.884 C 305.783,334.692 306.295,330.997 306.295,330.997 L 307.778,322.063 C 303.796,321.401 299.901,320.217 296.225,318.549 L 292.483,326.796 M 442.125,272.885 C 442.125,272.885 443.567,269.486 449.171,265.577 C 451.927,266.85 454.599,268.304 457.165,269.926 C 456.927,276.755 454.856,279.812 454.856,279.812 L 449.61,287.172 C 452.947,289.551 455.996,292.334 458.668,295.441 L 465.521,289.548 C 465.521,289.548 468.377,287.208 475.156,286.351 C 477.004,288.759 478.695,291.289 480.213,293.918 C 476.829,299.853 473.575,301.598 473.575,301.598 L 465.509,305.676 C 467.358,309.334 468.764,313.215 469.686,317.208 L 478.493,315.175 C 478.493,315.175 482.11,314.431 488.51,316.821 C 489.028,319.813 489.349,322.838 489.472,325.872 C 483.717,329.554 480.025,329.587 480.025,329.587 L 470.988,329.45 C 470.925,333.548 470.367,337.638 469.327,341.602 L 478.07,343.894 C 478.07,343.894 481.618,344.916 486.175,350.008 C 485.243,352.897 484.122,355.725 482.82,358.468 C 476.013,359.055 472.729,357.368 472.729,357.368 L 464.79,353.046 C 462.831,356.646 460.435,360.008 457.673,363.035 L 464.349,369.128 C 464.349,369.128 467.016,371.682 468.684,378.307 C 466.516,380.433 464.209,382.416 461.782,384.24 C 455.483,381.596 453.358,378.576 453.358,378.576 L 448.337,371.06 C 444.929,373.337 441.246,375.2 437.393,376.597 L 440.473,385.095 C 440.473,385.095 441.648,388.595 440.046,395.237 C 437.139,396.112 434.174,396.795 431.177,397.283 C 426.828,392.014 426.35,388.352 426.35,388.352 L 425.397,379.364 C 421.322,379.797 417.194,379.735 413.133,379.181 L 411.912,388.136 C 411.912,388.136 411.325,391.782 406.82,396.919 C 403.839,396.342 400.897,395.57 398.017,394.609 C 396.614,387.922 397.893,384.458 397.893,384.458 L 401.226,376.057 C 397.416,374.545 393.79,372.572 390.452,370.195 L 385.208,377.557 C 385.208,377.557 382.994,380.512 376.618,382.967 C 374.247,381.071 372,379.02 369.897,376.831 C 371.763,370.258 374.505,367.785 374.505,367.785 L 381.36,361.895 C 378.689,358.786 376.395,355.354 374.544,351.697 L 366.48,355.779 C 366.48,355.779 363.147,357.368 356.36,356.578 C 355.141,353.797 354.105,350.937 353.26,348.021 C 357.967,343.068 361.544,342.153 361.544,342.153 L 370.351,340.123 C 369.431,336.129 368.995,332.024 369.055,327.926 L 360.018,327.793 C 360.018,327.793 356.328,327.65 350.686,323.797 C 350.899,320.769 351.311,317.754 351.918,314.78 C 358.387,312.581 361.979,313.433 361.979,313.433 L 370.721,315.729 C 371.762,311.765 373.284,307.927 375.242,304.327 L 367.301,300.009 C 367.301,300.009 364.101,298.168 360.895,292.134 C 362.491,289.552 364.257,287.074 366.177,284.722 C 372.926,285.782 375.712,288.206 375.712,288.206 L 382.385,294.301 C 385.149,291.275 388.28,288.584 391.687,286.306 L 386.663,278.793 C 386.663,278.793 384.684,275.675 384.65,268.843 C 387.263,267.298 389.978,265.924 392.771,264.734 C 398.255,268.809 399.595,272.25 399.595,272.25 L 402.671,280.748 C 406.525,279.353 410.548,278.425 414.623,277.991 L 413.666,269.004 C 413.666,269.004 413.363,265.324 416.508,259.258 C 419.54,259.105 422.582,259.15 425.608,259.394 C 428.57,265.551 428.158,269.22 428.158,269.22 L 426.932,278.175 C 430.993,278.731 434.986,279.779 438.796,281.288 L 442.125,272.885 M 458.497,417.235 C 458.497,417.235 459.406,417.023 461.172,417.327 C 462.939,417.631 465.56,418.465 468.562,420.425 C 468.836,422.998 468.87,425.597 468.663,428.177 C 465.713,430.214 463.115,431.117 461.357,431.467 C 459.599,431.816 458.685,431.628 458.685,431.628 L 449.745,429.708 C 449.018,433.094 447.52,436.311 445.397,439.047 L 452.621,444.653 C 452.621,444.653 453.353,445.231 454.217,446.801 C 455.081,448.372 456.063,450.942 456.403,454.511 C 454.562,456.329 452.551,457.976 450.405,459.423 C 443.541,457.35 441.485,453.774 441.485,453.774 L 437.412,445.587 C 434.312,447.129 430.863,447.964 427.4,448.01 L 427.522,457.154 C 427.522,457.154 427.526,458.086 426.837,459.741 C 426.148,461.396 424.751,463.765 422.172,466.256 C 419.602,465.951 417.061,465.406 414.592,464.63 C 413.263,461.301 412.96,458.567 413.011,456.775 C 413.061,454.983 413.447,454.134 413.447,454.134 L 417.309,445.845 C 414.17,444.383 411.366,442.207 409.172,439.528 L 402.099,445.324 C 402.099,445.324 401.372,445.909 399.649,446.402 C 397.925,446.895 395.202,447.28 391.647,446.817 C 390.283,444.617 389.125,442.291 388.192,439.877 C 391.74,433.646 395.684,432.437 395.684,432.437 L 404.572,430.288 C 403.759,426.923 403.712,423.374 404.438,419.988 L 395.497,418.072 C 395.497,418.072 391.522,416.967 387.813,410.831 C 388.682,408.393 389.779,406.037 391.085,403.803 C 394.627,403.248 397.359,403.561 399.095,404.009 C 400.831,404.457 401.572,405.022 401.572,405.022 L 408.794,410.631 C 410.918,407.897 413.664,405.648 416.763,404.104 L 412.687,395.919 C 412.687,395.919 412.278,395.08 412.181,393.29 C 412.084,391.5 412.315,388.76 413.557,385.396 C 416.005,384.557 418.531,383.945 421.092,383.573 C 426.377,388.419 426.678,392.533 426.678,392.533 L 426.795,401.676 C 430.257,401.632 433.728,402.376 436.867,403.837 L 440.725,395.546 C 440.725,395.546 442.686,391.918 449.494,389.666 C 451.677,391.056 453.73,392.65 455.618,394.42 C 455.371,397.997 454.457,400.591 453.634,402.184 C 452.812,403.776 452.095,404.373 452.095,404.373 L 445.02,410.166 C 447.213,412.845 448.795,416.023 449.61,419.388 L 458.497,417.235 M 367.273,640.078 C 367.273,640.078 368.609,643.33 368.476,650.073 C 365.306,651.328 362.084,652.453 358.823,653.444 C 354.521,648.249 353.542,644.872 353.542,644.872 L 351.163,636.372 C 346.88,637.571 342.52,638.501 338.12,639.156 L 339.419,647.886 C 339.419,647.886 339.904,651.369 338.098,657.867 C 334.716,658.294 331.316,658.582 327.91,658.731 C 325.035,652.63 324.927,649.115 324.927,649.115 L 324.737,640.291 C 320.289,640.386 315.836,640.203 311.411,639.743 L 310.498,648.522 C 310.498,648.522 310.102,652.016 306.736,657.861 C 303.354,657.433 299.989,656.867 296.653,656.164 C 295.387,649.54 296.156,646.109 296.156,646.109 L 298.166,637.514 C 293.835,636.501 289.567,635.216 285.395,633.67 L 282.327,641.946 C 282.327,641.946 281.075,645.231 276.362,650.056 C 273.192,648.8 270.074,647.415 267.017,645.905 C 267.438,639.173 269.036,636.042 269.036,636.042 L 273.121,628.217 C 269.177,626.158 265.363,623.852 261.707,621.317 L 256.677,628.571 C 256.677,628.571 254.647,631.441 248.882,634.942 C 246.124,632.938 243.449,630.821 240.864,628.598 C 242.945,622.182 245.272,619.546 245.272,619.546 L 251.174,612.983 C 247.866,610.009 244.745,606.827 241.835,603.462 L 235.159,609.237 C 235.159,609.237 232.479,611.512 226.024,613.469 C 223.852,610.842 221.787,608.126 219.836,605.33 C 223.447,599.634 226.356,597.659 226.356,597.659 L 233.705,592.77 C 231.241,589.067 229.01,585.208 227.027,581.226 L 219.125,585.159 C 219.125,585.159 215.963,586.696 209.225,586.987 C 207.774,583.902 206.449,580.757 205.255,577.564 C 210.17,572.945 213.478,571.756 213.478,571.756 L 221.812,568.848 C 220.347,564.648 219.145,560.356 218.215,556.006 L 209.583,557.85 C 209.583,557.85 206.138,558.553 199.539,557.158 C 198.901,553.809 198.4,550.434 198.037,547.044 C 203.946,543.793 207.447,543.464 207.447,543.464 L 216.242,542.72 C 215.867,538.287 215.77,533.831 215.952,529.386 L 207.132,529.026 C 207.132,529.026 203.621,528.85 197.576,525.858 C 197.791,522.456 198.145,519.062 198.636,515.689 C 205.168,514.008 208.641,514.56 208.641,514.56 L 217.345,516.027 C 218.084,511.641 219.098,507.3 220.38,503.04 L 211.927,500.498 C 211.927,500.498 208.569,499.454 203.459,495.053 C 204.513,491.811 205.699,488.612 207.015,485.467 C 213.759,485.464 216.985,486.862 216.985,486.862 L 225.051,490.447 C 226.858,486.382 228.92,482.431 231.22,478.623 L 223.665,474.058 C 223.665,474.058 220.673,472.212 216.817,466.679 C 218.644,463.801 220.589,460.997 222.645,458.278 C 229.179,459.952 231.956,462.109 231.956,462.109 L 238.877,467.588 C 241.638,464.1 244.617,460.785 247.792,457.669 L 241.61,451.369 C 241.61,451.369 239.171,448.837 236.812,442.518 C 239.298,440.185 241.879,437.953 244.547,435.831 C 250.459,439.077 252.612,441.857 252.612,441.857 L 257.953,448.884 C 261.494,446.192 265.205,443.723 269.055,441.495 L 264.634,433.855 C 264.634,433.855 262.901,430.796 262.188,424.089 C 265.176,422.447 268.231,420.927 271.342,419.535 C 276.261,424.15 277.655,427.377 277.655,427.377 L 281.081,435.513 C 285.181,433.786 289.389,432.317 293.672,431.116 L 291.29,422.617 C 291.29,422.617 290.372,419.223 291.349,412.549 C 294.652,411.702 297.988,410.99 301.349,410.415 C 304.965,416.108 305.513,419.581 305.513,419.581 L 306.808,428.313 C 311.208,427.66 315.65,427.284 320.097,427.186 L 319.903,418.361 C 319.903,418.361 319.858,414.845 322.464,408.625 C 325.874,408.625 329.283,408.765 332.68,409.044 C 334.767,415.458 334.434,418.958 334.434,418.958 L 333.517,427.737 C 337.942,428.199 342.337,428.939 346.669,429.95 L 348.676,421.355 C 348.676,421.355 349.507,417.938 353.578,412.561 C 356.88,413.41 360.147,414.393 363.369,415.508 C 363.795,422.239 362.602,425.547 362.602,425.547 L 359.53,433.822 C 363.701,435.37 367.774,437.18 371.719,439.236 L 375.8,431.41 C 375.8,431.41 377.454,428.307 382.735,424.112 C 385.722,425.755 388.642,427.52 391.485,429.401 C 390.224,436.027 388.246,438.934 388.246,438.934 L 383.213,446.185 C 386.868,448.721 390.363,451.487 393.672,454.46 L 399.571,447.895 C 399.571,447.895 401.945,445.301 408.104,442.55 C 410.588,444.885 412.978,447.32 415.263,449.85 C 412.395,455.954 409.756,458.277 409.756,458.277 L 403.077,464.049 C 405.986,467.415 408.684,470.963 411.15,474.665 L 418.497,469.773 C 418.497,469.773 421.441,467.852 428.09,466.719 C 429.916,469.598 431.624,472.551 433.209,475.569 C 428.913,480.768 425.779,482.362 425.779,482.362 L 417.875,486.292 C 419.855,490.275 421.586,494.383 423.053,498.582 L 431.386,495.671 C 431.386,495.671 434.716,494.542 441.437,495.098 C 442.49,498.341 443.411,501.626 444.195,504.944 C 438.741,508.911 435.309,509.676 435.309,509.676 L 426.676,511.516 C 427.604,515.867 428.258,520.276 428.635,524.708 L 437.43,523.96 C 437.43,523.96 440.936,523.695 447.308,525.905 C 447.522,529.308 447.596,532.719 447.531,536.128 C 441.261,538.613 437.747,538.501 437.747,538.501 L 428.928,538.136 C 428.744,542.581 428.282,547.014 427.544,551.401 L 436.249,552.864 C 436.249,552.864 439.711,553.479 445.333,557.205 C 444.694,560.553 443.917,563.876 443.006,567.161 C 436.315,568.009 432.94,567.027 432.94,567.027 L 424.488,564.48 C 423.205,568.74 421.655,572.919 419.85,576.985 L 427.917,580.566 C 427.917,580.566 431.117,582.023 435.636,587.03 C 434.184,590.114 432.606,593.139 430.907,596.095 C 424.215,595.252 421.19,593.461 421.19,593.461 L 413.637,588.893 C 411.335,592.699 408.794,596.361 406.034,599.851 L 412.957,605.326 C 412.957,605.326 415.695,607.533 418.827,613.506 C 416.653,616.132 414.372,618.67 411.991,621.11 C 405.719,618.63 403.235,616.142 403.235,616.142 L 397.055,609.839 C 393.879,612.954 390.507,615.869 386.966,618.562 L 392.31,625.588 C 392.31,625.588 394.413,628.406 395.961,634.97 C 393.203,636.973 390.362,638.864 387.449,640.635 C 381.991,636.673 380.203,633.646 380.203,633.646 L 375.785,626.004 C 371.934,628.231 367.943,630.216 363.844,631.944 L 367.273,640.078"
       id="path3702"
       inkscape:path-effect="#path-effect3704"
       inkscape:original-d="M 121.33966,318.77433 L 207.8894,318.77716 L 263.04372,311.70609 L 315.36962,276.35075 L 420.02143,328.67666 L 427.09248,424.84318 L 322.44068,533.73762"
       sodipodi:nodetypes="ccccccc"
       transform="matrix(1.2500377,0,0,1.2498748,-48.11115,-207.20748)" />
  </g>
  <g
     inkscape:groupmode="layer"
     id="layer2"
     style="display:none">
    <path
       style="opacity:1;fill:none;fill-opacity:1;fill-rule:evenodd;stroke:#00ffff;stroke-width:0.80002791;stroke-linecap:butt;stroke-linejoin:miter;marker:none;marker-start:none;marker-mid:none;marker-end:none;stroke-miterlimit:2;stroke-dasharray:none;stroke-dashoffset:0;stroke-opacity:1;visibility:visible;display:inline;overflow:visible;enable-background:accumulate"
       d="M 152.495,318.728 C 152.495,318.728 148.766,318.624 143.145,314.691 C 143.333,311.713 143.726,308.749 144.322,305.825 C 150.775,303.496 154.402,304.369 154.402,304.369 L 163.146,306.724 C 164.196,302.826 165.759,299.067 167.78,295.572 L 159.941,291.037 C 159.941,291.037 156.764,289.082 153.862,282.866 C 155.514,280.381 157.337,278.011 159.315,275.777 C 166.067,276.986 168.772,279.555 168.772,279.555 L 175.167,285.967 C 178.026,283.117 181.258,280.642 184.756,278.627 L 180.235,270.78 C 180.235,270.78 178.461,267.498 179.056,260.664 C 181.728,259.338 184.493,258.196 187.323,257.25 C 192.566,261.674 193.624,265.251 193.624,265.251 L 195.956,274.002 C 199.857,272.962 203.894,272.435 207.931,272.439 L 207.939,263.383 C 207.939,263.383 208.043,259.654 211.975,254.033 C 214.953,254.221 217.918,254.614 220.842,255.21 C 223.171,261.663 222.298,265.29 222.298,265.29 L 219.942,274.034 C 223.84,275.084 227.6,276.646 231.094,278.668 L 235.629,270.829 C 235.629,270.829 237.584,267.652 243.8,264.75 C 246.285,266.401 248.656,268.225 250.89,270.202 C 249.681,276.955 247.111,279.66 247.111,279.66 L 240.699,286.055 C 243.55,288.913 246.025,292.146 248.04,295.644 L 255.887,291.123 C 255.887,291.123 259.168,289.349 266.003,289.943 C 267.329,292.616 268.47,295.381 269.416,298.21 C 264.993,303.454 261.415,304.512 261.415,304.512 L 252.665,306.844 C 253.704,310.745 254.231,314.782 254.228,318.819 L 263.284,318.827 C 263.284,318.827 267.013,318.931 272.634,322.863 C 272.446,325.841 272.052,328.806 271.457,331.729 C 265.004,334.058 261.377,333.186 261.377,333.186 L 252.633,330.83 C 251.582,334.728 250.02,338.488 247.999,341.982 L 255.837,346.517 C 255.837,346.517 259.015,348.472 261.917,354.688 C 260.265,357.173 258.442,359.544 256.464,361.778 C 249.711,360.568 247.007,357.999 247.007,357.999 L 240.612,351.587 C 237.753,354.438 234.52,356.912 231.023,358.928 L 235.544,366.775 C 235.544,366.775 237.318,370.056 236.723,376.891 C 234.05,378.217 231.286,379.358 228.456,380.304 C 223.213,375.88 222.155,372.303 222.155,372.303 L 219.823,363.552 C 215.922,364.592 211.885,365.119 207.848,365.115 L 207.84,374.171 C 207.84,374.171 207.736,377.9 203.803,383.522 C 200.826,383.334 197.861,382.94 194.937,382.344 C 192.608,375.892 193.481,372.265 193.481,372.265 L 195.836,363.52 C 191.938,362.47 188.179,360.908 184.685,358.886 L 180.15,366.725 C 180.15,366.725 178.195,369.903 171.979,372.805 C 169.494,371.153 167.123,369.33 164.889,367.352 C 166.098,360.599 168.667,357.894 168.667,357.894 L 175.08,351.499 C 172.229,348.641 169.754,345.408 167.739,341.91 L 159.892,346.431 C 159.892,346.431 156.61,348.206 149.776,347.611 C 148.45,344.938 147.308,342.174 146.362,339.344 C 150.786,334.101 154.364,333.043 154.364,333.043 L 163.114,330.71 C 162.075,326.81 161.548,322.773 161.551,318.736 L 152.495,318.728 M 299.321,329.369 C 299.321,329.369 298.144,332.909 292.755,337.155 C 289.959,336.115 287.234,334.881 284.607,333.467 C 284.241,326.616 286.124,323.396 286.124,323.396 L 290.906,315.705 C 287.477,313.573 284.329,310.992 281.568,308.047 L 274.962,314.241 C 274.962,314.241 272.172,316.719 265.383,317.701 C 263.481,315.402 261.738,312.972 260.171,310.433 C 263.279,304.318 266.52,302.47 266.52,302.47 L 274.506,298.2 C 272.603,294.64 271.167,290.83 270.248,286.899 L 261.43,288.961 C 261.43,288.961 257.776,289.712 251.404,287.168 C 250.907,284.226 250.613,281.25 250.525,278.267 C 256.274,274.525 260.005,274.546 260.005,274.546 L 269.056,274.841 C 269.188,270.806 269.849,266.789 271.019,262.925 L 262.351,260.302 C 262.351,260.302 258.811,259.125 254.566,253.736 C 255.606,250.94 256.839,248.215 258.254,245.588 C 265.104,245.222 268.325,247.106 268.325,247.106 L 276.016,251.887 C 278.147,248.458 280.729,245.31 283.673,242.549 L 277.479,235.943 C 277.479,235.943 275.002,233.153 274.019,226.364 C 276.318,224.462 278.748,222.719 281.287,221.152 C 287.403,224.26 289.25,227.501 289.25,227.501 L 293.52,235.487 C 297.08,233.584 300.89,232.148 304.821,231.229 L 302.759,222.411 C 302.759,222.411 302.009,218.757 304.552,212.386 C 307.494,211.888 310.471,211.594 313.453,211.506 C 317.195,217.255 317.174,220.986 317.174,220.986 L 316.879,230.037 C 320.914,230.169 324.931,230.83 328.795,232 L 331.419,223.332 C 331.419,223.332 332.596,219.792 337.984,215.547 C 340.781,216.587 343.505,217.82 346.132,219.235 C 346.498,226.085 344.615,229.306 344.615,229.306 L 339.834,236.997 C 343.262,239.128 346.41,241.71 349.172,244.655 L 355.778,238.46 C 355.778,238.46 358.567,235.983 365.356,235 C 367.258,237.299 369.001,239.73 370.569,242.268 C 367.46,248.384 364.219,250.231 364.219,250.231 L 356.233,254.501 C 358.137,258.061 359.572,261.871 360.491,265.802 L 369.309,263.74 C 369.309,263.74 372.964,262.99 379.335,265.533 C 379.832,268.475 380.127,271.452 380.215,274.434 C 374.465,278.176 370.734,278.155 370.734,278.155 L 361.683,277.86 C 361.552,281.895 360.89,285.912 359.72,289.776 L 368.388,292.4 C 368.388,292.4 371.928,293.577 376.174,298.965 C 375.134,301.762 373.9,304.486 372.485,307.113 C 365.635,307.479 362.415,305.596 362.415,305.596 L 354.724,300.815 C 352.592,304.243 350.011,307.391 347.066,310.153 L 353.26,316.759 C 353.26,316.759 355.738,319.548 356.72,326.338 C 354.421,328.239 351.991,329.982 349.452,331.55 C 343.337,328.441 341.489,325.2 341.489,325.2 L 337.219,317.214 C 333.659,319.118 329.849,320.553 325.918,321.472 L 327.98,330.29 C 327.98,330.29 328.731,333.945 326.187,340.316 C 323.245,340.813 320.269,341.108 317.286,341.196 C 313.544,335.446 313.565,331.715 313.565,331.715 L 313.86,322.664 C 309.825,322.533 305.808,321.871 301.944,320.701 L 299.321,329.369 M 448.742,275.985 C 448.742,275.985 450.586,272.786 456.623,269.587 C 459.204,271.186 461.68,272.954 464.03,274.876 C 462.963,281.624 460.537,284.407 460.537,284.407 L 454.434,291.075 C 457.458,293.842 460.146,296.975 462.421,300.384 L 469.939,295.368 C 469.939,295.368 473.059,293.392 479.891,293.365 C 481.433,295.98 482.804,298.696 483.991,301.49 C 479.911,306.97 476.469,308.307 476.469,308.307 L 467.967,311.375 C 469.358,315.23 470.282,319.253 470.712,323.329 L 479.701,322.381 C 479.701,322.381 483.381,322.082 489.443,325.232 C 489.594,328.265 489.545,331.307 489.298,334.333 C 483.138,337.288 479.469,336.872 479.469,336.872 L 470.516,335.638 C 469.956,339.698 468.904,343.69 467.391,347.499 L 475.791,350.836 C 475.791,350.836 479.188,352.282 483.092,357.889 C 481.816,360.644 480.359,363.315 478.734,365.879 C 471.907,365.634 468.851,363.56 468.851,363.56 L 461.497,358.306 C 459.115,361.641 456.328,364.687 453.218,367.356 L 459.105,374.215 C 459.105,374.215 461.441,377.074 462.292,383.853 C 459.882,385.699 457.351,387.388 454.72,388.903 C 448.789,385.513 447.047,382.257 447.047,382.257 L 442.977,374.187 C 439.317,376.033 435.434,377.435 431.44,378.353 L 433.465,387.162 C 433.465,387.162 434.206,390.779 431.808,397.177 C 428.816,397.692 425.791,398.01 422.757,398.13 C 419.08,392.372 419.051,388.679 419.051,388.679 L 419.197,379.642 C 415.1,379.576 411.01,379.013 407.046,377.97 L 404.746,386.71 C 404.746,386.71 403.72,390.257 398.624,394.808 C 395.736,393.874 392.909,392.75 390.167,391.446 C 389.588,384.638 391.278,381.355 391.278,381.355 L 395.607,373.421 C 392.009,371.458 388.65,369.059 385.625,366.294 L 379.526,372.964 C 379.526,372.964 376.969,375.628 370.342,377.29 C 368.219,375.12 366.238,372.811 364.417,370.382 C 367.067,364.085 370.089,361.964 370.089,361.964 L 377.61,356.95 C 375.336,353.54 373.476,349.854 372.084,346 L 363.583,349.072 C 363.583,349.072 360.081,350.243 353.441,348.634 C 352.569,345.726 351.889,342.761 351.404,339.764 C 356.678,335.42 360.339,334.946 360.339,334.946 L 369.328,334.002 C 368.9,329.926 368.966,325.798 369.524,321.738 L 360.57,320.508 C 360.57,320.508 356.925,319.917 351.793,315.407 C 352.372,312.427 353.147,309.485 354.111,306.606 C 360.799,305.21 364.262,306.492 364.262,306.492 L 372.66,309.834 C 374.175,306.026 376.152,302.401 378.533,299.065 L 371.176,293.815 C 371.176,293.815 368.223,291.598 365.775,285.22 C 367.673,282.85 369.726,280.605 371.918,278.504 C 378.488,280.376 380.959,283.121 380.959,283.121 L 386.842,289.982 C 389.953,287.314 393.388,285.024 397.046,283.176 L 392.972,275.108 C 392.972,275.108 391.387,271.773 392.184,264.987 C 394.966,263.772 397.827,262.738 400.744,261.896 C 405.692,266.607 406.604,270.186 406.604,270.186 L 408.625,278.995 C 412.619,278.079 416.725,277.647 420.823,277.711 L 420.965,268.674 C 420.965,268.674 421.112,264.984 424.97,259.346 C 427.998,259.562 431.012,259.977 433.986,260.587 C 436.178,267.058 435.323,270.65 435.323,270.65 L 433.018,279.39 C 436.981,280.435 440.817,281.96 444.416,283.921 L 448.742,275.985 M 455.99,410.384 C 455.99,410.384 456.828,409.974 458.618,409.873 C 460.407,409.773 463.149,409.999 466.514,411.235 C 467.358,413.681 467.975,416.206 468.352,418.766 C 463.516,424.06 459.402,424.368 459.402,424.368 L 450.259,424.503 C 450.31,427.965 449.572,431.437 448.117,434.579 L 456.415,438.421 C 456.415,438.421 460.047,440.376 462.311,447.179 C 460.925,449.365 459.335,451.421 457.568,453.312 C 453.991,453.072 451.395,452.163 449.801,451.343 C 448.207,450.523 447.609,449.808 447.609,449.808 L 441.803,442.743 C 439.128,444.942 435.953,446.529 432.589,447.351 L 434.759,456.234 C 434.759,456.234 434.972,457.142 434.672,458.909 C 434.371,460.676 433.542,463.299 431.588,466.305 C 429.015,466.583 426.416,466.622 423.836,466.42 C 421.794,463.474 420.886,460.877 420.533,459.12 C 420.18,457.362 420.366,456.449 420.366,456.449 L 422.269,447.505 C 418.883,446.784 415.662,445.292 412.923,443.174 L 407.33,450.409 C 407.33,450.409 406.754,451.142 405.185,452.009 C 403.616,452.876 401.048,453.862 397.479,454.208 C 395.657,452.371 394.007,450.363 392.556,448.22 C 394.616,441.352 398.188,439.29 398.188,439.29 L 406.368,435.202 C 404.82,432.104 403.978,428.656 403.926,425.194 L 394.783,425.332 C 394.783,425.332 393.85,425.338 392.194,424.652 C 390.538,423.966 388.166,422.573 385.67,420 C 385.971,417.429 386.511,414.887 387.282,412.417 C 390.61,411.081 393.343,410.774 395.135,410.821 C 396.927,410.867 397.776,411.252 397.776,411.252 L 406.072,415.098 C 407.529,411.957 409.7,409.149 412.374,406.95 L 406.565,399.888 C 406.565,399.888 405.979,399.162 405.483,397.44 C 404.987,395.717 404.597,392.994 405.053,389.438 C 407.25,388.071 409.575,386.908 411.987,385.971 C 418.224,389.507 419.44,393.449 419.44,393.449 L 421.605,402.333 C 424.97,401.513 428.518,401.46 431.906,402.18 L 433.805,393.235 C 433.805,393.235 434.903,389.259 441.032,385.537 C 443.471,386.402 445.829,387.495 448.066,388.796 C 448.628,392.337 448.319,395.071 447.875,396.807 C 447.43,398.544 446.866,399.286 446.866,399.286 L 441.27,406.519 C 444.009,408.637 446.263,411.379 447.812,414.476 L 455.99,410.384 M 360.451,642.703 C 360.451,642.703 361.578,646.033 361.018,652.754 C 357.775,653.806 354.489,654.724 351.171,655.507 C 347.207,650.05 346.444,646.618 346.444,646.618 L 344.608,637.984 C 340.257,638.91 335.848,639.562 331.415,639.937 L 332.158,648.732 C 332.158,648.732 332.422,652.238 330.208,658.609 C 326.805,658.821 323.394,658.893 319.986,658.826 C 317.503,652.555 317.618,649.041 317.618,649.041 L 317.987,640.222 C 313.542,640.036 309.109,639.572 304.722,638.832 L 303.255,647.536 C 303.255,647.536 302.638,650.998 298.91,656.618 C 295.561,655.977 292.239,655.199 288.955,654.286 C 288.11,647.595 289.094,644.219 289.094,644.219 L 291.645,635.769 C 287.386,634.484 283.208,632.931 279.143,631.124 L 275.557,639.19 C 275.557,639.19 274.099,642.389 269.09,646.905 C 266.006,645.452 262.982,643.872 260.027,642.171 C 260.873,635.48 262.666,632.456 262.666,632.456 L 267.238,624.905 C 263.433,622.601 259.772,620.058 256.284,617.297 L 250.805,624.217 C 250.805,624.217 248.597,626.953 242.622,630.082 C 239.997,627.907 237.461,625.625 235.022,623.243 C 237.505,616.972 239.994,614.489 239.994,614.489 L 246.3,608.313 C 243.187,605.134 240.274,601.761 237.582,598.219 L 230.554,603.56 C 230.554,603.56 227.735,605.661 221.17,607.205 C 219.168,604.446 217.279,601.605 215.509,598.691 C 219.474,593.235 222.502,591.448 222.502,591.448 L 230.146,587.034 C 227.922,583.182 225.939,579.19 224.212,575.09 L 216.077,578.515 C 216.077,578.515 212.824,579.849 206.081,579.712 C 204.828,576.542 203.705,573.32 202.715,570.057 C 207.913,565.759 211.29,564.781 211.29,564.781 L 219.791,562.407 C 218.595,558.123 217.667,553.763 217.015,549.363 L 208.283,550.657 C 208.283,550.657 204.801,551.14 198.303,549.33 C 197.878,545.948 197.592,542.548 197.445,539.142 C 203.547,536.271 207.062,536.164 207.062,536.164 L 215.887,535.979 C 215.793,531.531 215.978,527.078 216.441,522.653 L 207.662,521.735 C 207.662,521.735 204.169,521.337 198.325,517.969 C 198.755,514.587 199.323,511.222 200.028,507.887 C 206.653,506.624 210.083,507.394 210.083,507.394 L 218.677,509.409 C 219.692,505.078 220.979,500.811 222.528,496.64 L 214.253,493.568 C 214.253,493.568 210.968,492.314 206.146,487.598 C 207.404,484.429 208.79,481.312 210.302,478.256 C 217.033,478.68 220.164,480.28 220.164,480.28 L 227.987,484.369 C 230.048,480.426 232.355,476.613 234.892,472.959 L 227.642,467.925 C 227.642,467.925 224.772,465.893 221.274,460.126 C 223.28,457.37 225.399,454.695 227.623,452.111 C 234.037,454.196 236.672,456.524 236.672,456.524 L 243.232,462.43 C 246.208,459.124 249.392,456.004 252.758,453.096 L 246.987,446.417 C 246.987,446.417 244.713,443.735 242.759,437.28 C 245.387,435.109 248.105,433.045 250.901,431.096 C 256.596,434.71 258.569,437.62 258.569,437.62 L 263.454,444.972 C 267.159,442.51 271.019,440.28 275.002,438.3 L 271.073,430.396 C 271.073,430.396 269.537,427.233 269.25,420.494 C 272.336,419.045 275.481,417.722 278.675,416.529 C 283.292,421.446 284.479,424.756 284.479,424.756 L 287.382,433.091 C 291.583,431.628 295.876,430.428 300.227,429.501 L 298.387,420.868 C 298.387,420.868 297.686,417.422 299.084,410.824 C 302.433,410.188 305.808,409.688 309.198,409.327 C 312.447,415.238 312.774,418.739 312.774,418.739 L 313.514,427.534 C 317.946,427.162 322.403,427.067 326.847,427.251 L 327.212,418.432 C 327.212,418.432 327.39,414.92 330.385,408.877 C 333.787,409.094 337.181,409.449 340.554,409.943 C 342.231,416.476 341.677,419.948 341.677,419.948 L 340.206,428.651 C 344.592,429.392 348.932,430.409 353.191,431.692 L 355.738,423.241 C 355.738,423.241 356.783,419.884 361.187,414.776 C 364.429,415.831 367.627,417.02 370.772,418.337 C 370.771,425.081 369.371,428.306 369.371,428.306 L 365.782,436.37 C 369.846,438.179 373.796,440.243 377.603,442.546 L 382.171,434.993 C 382.171,434.993 384.019,432.002 389.554,428.149 C 392.432,429.978 395.234,431.924 397.952,433.982 C 396.274,440.514 394.116,443.29 394.116,443.29 L 388.634,450.208 C 392.121,452.971 395.434,455.952 398.548,459.129 L 404.851,452.95 C 404.851,452.95 407.385,450.512 413.705,448.157 C 416.037,450.643 418.267,453.226 420.388,455.895 C 417.138,461.805 414.358,463.956 414.358,463.956 L 407.328,469.294 C 410.017,472.837 412.485,476.549 414.711,480.4 L 422.353,475.983 C 422.353,475.983 425.414,474.251 432.121,473.542 C 433.761,476.53 435.279,479.586 436.67,482.699 C 432.052,487.615 428.824,489.008 428.824,489.008 L 420.687,492.429 C 422.411,496.53 423.879,500.739 425.077,505.023 L 433.578,502.644 C 433.578,502.644 436.972,501.728 443.645,502.709 C 444.49,506.012 445.201,509.349 445.774,512.71 C 440.079,516.323 436.606,516.869 436.606,516.869 L 427.874,518.16 C 428.524,522.56 428.898,527.002 428.994,531.449 L 437.819,531.26 C 437.819,531.26 441.334,531.217 447.554,533.826 C 447.551,537.235 447.409,540.645 447.129,544.042 C 440.714,546.126 437.214,545.791 437.214,545.791 L 428.435,544.869 C 427.971,549.293 427.229,553.688 426.215,558.02 L 434.81,560.031 C 434.81,560.031 438.226,560.864 443.601,564.938 C 442.751,568.239 441.766,571.506 440.649,574.727 C 433.917,575.15 430.611,573.955 430.611,573.955 L 422.337,570.879 C 420.787,575.049 418.975,579.121 416.916,583.065 L 424.741,587.15 C 424.741,587.15 427.842,588.806 432.035,594.089 C 430.391,597.075 428.624,599.994 426.741,602.836 C 420.116,601.572 417.21,599.593 417.21,599.593 L 409.962,594.556 C 407.423,598.209 404.656,601.703 401.681,605.01 L 408.244,610.913 C 408.244,610.913 410.836,613.288 413.583,619.448 C 411.248,621.931 408.811,624.319 406.28,626.604 C 400.178,623.732 397.856,621.092 397.856,621.092 L 392.087,614.411 C 388.72,617.318 385.171,620.014 381.467,622.477 L 386.355,629.827 C 386.355,629.827 388.275,632.772 389.405,639.421 C 386.525,641.246 383.571,642.953 380.551,644.536 C 375.355,640.237 373.762,637.102 373.762,637.102 L 369.837,629.197 C 365.852,631.175 361.744,632.903 357.544,634.369 L 360.451,642.703"
       id="path5180"
       inkscape:path-effect="#path-effect3704"
       inkscape:original-d="M 112.00614,306.04513 L 207.8894,318.77716 L 263.04372,311.70609 L 315.36962,276.35075 L 420.02143,328.67666 L 427.09248,424.84318 L 322.44068,533.73762"
       sodipodi:nodetypes="ccccccc"
       transform="matrix(1.2500377,0,0,1.2498748,-48.11115,-207.20748)" />
  </g>
  <g
     inkscape:groupmode="layer"
     id="layer3"
     style="display:none">
    <path
       style="opacity:1;fill:none;fill-opacity:1;fill-rule:evenodd;stroke:#00ffff;stroke-width:0.80002791;stroke-linecap:butt;stroke-linejoin:miter;marker:none;marker-start:none;marker-mid:none;marker-end:none;stroke-miterlimit:2;stroke-dasharray:none;stroke-dashoffset:0;stroke-opacity:1;visibility:visible;display:inline;overflow:visible;enable-background:accumulate"
       d="M 152.933,311.828 C 152.933,311.828 149.246,311.26 144.158,306.658 C 144.716,303.726 145.476,300.834 146.431,298.007 C 153.123,296.5 156.614,297.818 156.614,297.818 L 164.996,301.244 C 166.524,297.508 168.542,293.972 170.983,290.757 L 163.771,285.28 C 163.771,285.28 160.861,282.945 158.756,276.416 C 160.705,274.156 162.809,272.031 165.05,270.061 C 171.599,272.102 173.963,274.988 173.963,274.988 L 179.509,282.147 C 182.7,279.674 186.216,277.621 189.938,276.057 L 186.43,267.709 C 186.43,267.709 185.078,264.232 186.52,257.525 C 189.337,256.542 192.222,255.753 195.147,255.167 C 199.799,260.21 200.403,263.891 200.403,263.891 L 201.627,272.864 C 205.627,272.319 209.698,272.299 213.703,272.805 L 214.839,263.821 C 214.839,263.821 215.407,260.134 220.009,255.046 C 222.94,255.603 225.833,256.363 228.659,257.319 C 230.166,264.011 228.849,267.501 228.849,267.501 L 225.422,275.884 C 229.159,277.411 232.695,279.43 235.91,281.871 L 241.386,274.658 C 241.386,274.658 243.722,271.749 250.251,269.644 C 252.511,271.592 254.636,273.697 256.606,275.937 C 254.565,282.487 251.679,284.851 251.679,284.851 L 244.52,290.397 C 246.992,293.588 249.045,297.104 250.609,300.826 L 258.958,297.317 C 258.958,297.317 262.435,295.966 269.142,297.407 C 270.125,300.225 270.913,303.11 271.499,306.035 C 266.457,310.687 262.775,311.291 262.775,311.291 L 253.802,312.515 C 254.348,316.514 254.368,320.586 253.861,324.591 L 262.846,325.727 C 262.846,325.727 266.533,326.295 271.621,330.897 C 271.063,333.828 270.303,336.72 269.348,339.547 C 262.655,341.054 259.165,339.737 259.165,339.737 L 250.783,336.31 C 249.255,340.047 247.237,343.583 244.796,346.798 L 252.008,352.274 C 252.008,352.274 254.917,354.609 257.023,361.139 C 255.074,363.398 252.97,365.523 250.729,367.494 C 244.18,365.453 241.816,362.566 241.816,362.566 L 236.269,355.408 C 233.078,357.88 229.562,359.933 225.841,361.497 L 229.349,369.846 C 229.349,369.846 230.701,373.323 229.259,380.03 C 226.442,381.013 223.557,381.801 220.631,382.387 C 215.98,377.344 215.376,373.663 215.376,373.663 L 214.152,364.69 C 210.152,365.236 206.081,365.256 202.076,364.749 L 200.94,373.734 C 200.94,373.734 200.372,377.421 195.77,382.508 C 192.839,381.951 189.946,381.191 187.119,380.236 C 185.612,373.543 186.93,370.053 186.93,370.053 L 190.357,361.67 C 186.62,360.143 183.084,358.124 179.869,355.683 L 174.393,362.896 C 174.393,362.896 172.057,365.805 165.528,367.91 C 163.268,365.962 161.143,363.858 159.173,361.617 C 161.214,355.067 164.1,352.704 164.1,352.704 L 171.259,347.157 C 168.786,343.966 166.734,340.45 165.17,336.729 L 156.821,340.237 C 156.821,340.237 153.344,341.589 146.637,340.147 C 145.654,337.33 144.866,334.445 144.28,331.519 C 149.322,326.868 153.003,326.264 153.003,326.264 L 161.976,325.04 C 161.431,321.04 161.411,316.969 161.917,312.964 L 152.933,311.828 M 306.05,330.955 C 306.05,330.955 305.323,334.614 300.506,339.498 C 297.601,338.815 294.744,337.93 291.962,336.854 C 290.745,330.102 292.213,326.672 292.213,326.672 L 295.998,318.446 C 292.331,316.758 288.886,314.589 285.779,312.011 L 279.996,318.98 C 279.996,318.98 277.537,321.786 270.923,323.606 C 268.75,321.562 266.718,319.368 264.846,317.044 C 267.169,310.589 270.154,308.352 270.154,308.352 L 277.546,303.12 C 275.214,299.825 273.315,296.224 271.914,292.438 L 263.421,295.582 C 263.421,295.582 259.889,296.782 253.25,295.052 C 252.39,292.195 251.727,289.279 251.268,286.33 C 256.507,281.901 260.211,281.457 260.211,281.457 L 269.229,280.622 C 268.857,276.603 269.013,272.534 269.692,268.555 L 260.765,267.031 C 260.765,267.031 257.106,266.305 252.222,261.487 C 252.906,258.583 253.79,255.725 254.867,252.943 C 261.618,251.726 265.048,253.194 265.048,253.194 L 273.275,256.98 C 274.962,253.312 277.132,249.867 279.71,246.761 L 272.74,240.978 C 272.74,240.978 269.935,238.519 268.114,231.904 C 270.158,229.731 272.353,227.699 274.676,225.827 C 281.132,228.15 283.368,231.135 283.368,231.135 L 288.6,238.527 C 291.895,236.195 295.496,234.296 299.282,232.895 L 296.138,224.402 C 296.138,224.402 294.938,220.87 296.668,214.231 C 299.525,213.371 302.442,212.709 305.39,212.25 C 309.819,217.488 310.263,221.192 310.263,221.192 L 311.098,230.21 C 315.118,229.838 319.186,229.994 323.165,230.673 L 324.689,221.746 C 324.689,221.746 325.416,218.087 330.234,213.203 C 333.138,213.887 335.995,214.771 338.778,215.848 C 339.994,222.599 338.527,226.029 338.527,226.029 L 334.741,234.256 C 338.408,235.943 341.853,238.113 344.96,240.691 L 350.743,233.721 C 350.743,233.721 353.202,230.916 359.816,229.095 C 361.989,231.139 364.021,233.334 365.893,235.658 C 363.571,242.113 360.585,244.349 360.585,244.349 L 353.193,249.581 C 355.525,252.876 357.424,256.478 358.826,260.263 L 367.318,257.119 C 367.318,257.119 370.851,255.919 377.489,257.649 C 378.349,260.506 379.012,263.423 379.471,266.371 C 374.232,270.8 370.528,271.244 370.528,271.244 L 361.51,272.079 C 361.883,276.099 361.726,280.167 361.047,284.147 L 369.974,285.67 C 369.974,285.67 373.633,286.397 378.517,291.215 C 377.834,294.119 376.949,296.976 375.873,299.759 C 369.121,300.975 365.691,299.508 365.691,299.508 L 357.465,295.722 C 355.777,299.389 353.608,302.834 351.03,305.941 L 357.999,311.724 C 357.999,311.724 360.804,314.183 362.625,320.797 C 360.581,322.97 358.387,325.003 356.063,326.874 C 349.608,324.552 347.371,321.566 347.371,321.566 L 342.139,314.174 C 338.844,316.506 335.243,318.405 331.457,319.807 L 334.601,328.299 C 334.601,328.299 335.801,331.832 334.071,338.47 C 331.214,339.33 328.297,339.993 325.349,340.452 C 320.92,335.213 320.476,331.509 320.476,331.509 L 319.641,322.492 C 315.621,322.864 311.553,322.708 307.574,322.028 L 306.05,330.955 M 454.612,279.639 C 454.612,279.639 456.813,276.673 463.177,274.19 C 465.557,276.075 467.813,278.116 469.927,280.296 C 468.091,286.877 465.36,289.362 465.36,289.362 L 458.531,295.283 C 461.216,298.38 463.526,301.801 465.394,305.45 L 473.439,301.331 C 473.439,301.331 476.765,299.728 483.555,300.486 C 484.787,303.262 485.836,306.117 486.694,309.029 C 482.01,314.004 478.437,314.935 478.437,314.935 L 469.639,317.005 C 470.578,320.994 471.032,325.097 470.991,329.196 L 480.029,329.288 C 480.029,329.288 483.719,329.414 489.379,333.241 C 489.179,336.271 488.781,339.287 488.188,342.264 C 481.729,344.492 478.132,343.656 478.132,343.656 L 469.38,341.4 C 468.357,345.369 466.853,349.213 464.911,352.823 L 472.871,357.104 C 472.871,357.104 476.08,358.931 479.313,364.95 C 477.729,367.54 475.974,370.026 474.065,372.386 C 467.311,371.357 464.514,368.946 464.514,368.946 L 457.813,362.881 C 455.063,365.919 451.945,368.625 448.548,370.918 L 453.607,378.409 C 453.607,378.409 455.599,381.518 455.664,388.349 C 453.058,389.906 450.349,391.292 447.562,392.495 C 442.06,388.445 440.704,385.01 440.704,385.01 L 437.589,376.526 C 433.742,377.938 429.723,378.884 425.65,379.337 L 426.648,388.32 C 426.648,388.32 426.967,391.999 423.85,398.078 C 420.819,398.246 417.777,398.214 414.75,397.984 C 411.759,391.84 412.155,388.169 412.155,388.169 L 413.34,379.209 C 409.277,378.672 405.279,377.642 401.462,376.15 L 398.171,384.568 C 398.171,384.568 396.745,387.973 391.159,391.908 C 388.397,390.647 385.718,389.206 383.145,387.595 C 383.352,380.766 385.409,377.699 385.409,377.699 L 390.622,370.316 C 387.274,367.952 384.213,365.182 381.526,362.087 L 374.7,368.011 C 374.7,368.011 371.854,370.364 365.08,371.252 C 363.22,368.853 361.518,366.331 359.988,363.709 C 363.345,357.758 366.592,355.999 366.592,355.999 L 374.639,351.884 C 372.773,348.235 371.349,344.36 370.409,340.371 L 361.612,342.444 C 361.612,342.444 357.998,343.205 351.587,340.843 C 351.056,337.854 350.721,334.83 350.584,331.797 C 356.322,328.089 360.014,328.039 360.014,328.039 L 369.052,328.135 C 369.096,324.037 369.636,319.944 370.657,315.975 L 361.904,313.723 C 361.904,313.723 358.351,312.717 353.772,307.647 C 354.691,304.753 355.799,301.92 357.088,299.171 C 363.892,298.553 367.184,300.225 367.184,300.225 L 375.142,304.511 C 377.085,300.902 379.466,297.529 382.214,294.489 L 375.511,288.427 C 375.511,288.427 372.832,285.886 371.134,279.268 C 373.292,277.132 375.59,275.139 378.008,273.304 C 384.32,275.919 386.458,278.93 386.458,278.93 L 391.513,286.422 C 394.911,284.13 398.586,282.25 402.433,280.836 L 399.314,272.352 C 399.314,272.352 398.123,268.857 399.695,262.208 C 402.598,261.32 405.56,260.623 408.554,260.122 C 412.927,265.371 413.421,269.03 413.421,269.03 L 414.415,278.014 C 418.489,277.563 422.617,277.606 426.68,278.142 L 427.861,269.181 C 427.861,269.181 428.431,265.532 432.913,260.375 C 435.896,260.938 438.842,261.697 441.726,262.645 C 443.159,269.326 441.896,272.795 441.896,272.795 L 438.602,281.212 C 442.418,282.706 446.053,284.662 449.402,287.025 L 454.612,279.639 M 452.258,404.574 C 452.258,404.574 452.989,403.995 454.717,403.517 C 456.445,403.039 459.171,402.677 462.722,403.169 C 464.067,405.38 465.206,407.717 466.118,410.138 C 462.518,416.339 458.564,417.514 458.564,417.514 L 449.658,419.588 C 450.443,422.961 450.46,426.51 449.705,429.889 L 458.63,431.881 C 458.63,431.881 462.595,433.019 466.253,439.186 C 465.363,441.616 464.246,443.963 462.921,446.186 C 459.375,446.712 456.645,446.375 454.913,445.913 C 453.181,445.451 452.445,444.879 452.445,444.879 L 445.27,439.209 C 443.123,441.926 440.359,444.151 437.246,445.669 L 441.254,453.888 C 441.254,453.888 441.655,454.73 441.737,456.521 C 441.819,458.311 441.565,461.05 440.295,464.403 C 437.84,465.222 435.309,465.812 432.745,466.163 C 427.5,461.273 427.235,457.156 427.235,457.156 L 427.195,448.012 C 423.732,448.027 420.268,447.254 417.141,445.766 L 413.214,454.024 C 413.214,454.024 411.222,457.636 404.395,459.83 C 402.224,458.421 400.184,456.81 398.312,455.025 C 398.588,451.45 399.524,448.864 400.36,447.278 C 401.196,445.692 401.918,445.101 401.918,445.101 L 409.042,439.369 C 406.871,436.671 405.316,433.48 404.53,430.108 L 395.625,432.186 C 395.625,432.186 394.715,432.39 392.951,432.072 C 391.186,431.753 388.573,430.896 385.587,428.911 C 385.335,426.336 385.323,423.737 385.551,421.159 C 388.518,419.147 391.124,418.266 392.885,417.931 C 394.646,417.596 395.558,417.792 395.558,417.792 L 404.482,419.787 C 405.237,416.408 406.763,413.203 408.908,410.486 L 401.732,404.819 C 401.732,404.819 401.005,404.235 400.154,402.657 C 399.303,401.079 398.343,398.501 398.034,394.929 C 399.89,393.126 401.914,391.496 404.072,390.068 C 410.919,392.199 412.944,395.792 412.944,395.792 L 416.948,404.013 C 420.061,402.497 423.518,401.691 426.98,401.674 L 426.936,392.53 C 426.936,392.53 426.939,391.598 427.642,389.949 C 428.346,388.3 429.763,385.942 432.362,383.473 C 434.929,383.8 437.466,384.367 439.928,385.163 C 441.229,388.504 441.509,391.24 441.443,393.032 C 441.378,394.823 440.984,395.668 440.984,395.668 L 437.053,403.924 C 440.179,405.413 442.964,407.613 445.137,410.31 L 452.258,404.574 M 353.854,644.784 C 353.854,644.784 354.78,648.176 353.818,654.852 C 350.518,655.707 347.183,656.427 343.824,657.01 C 340.194,651.325 339.638,647.854 339.638,647.854 L 338.322,639.125 C 333.924,639.788 329.483,640.175 325.036,640.284 L 325.251,649.108 C 325.251,649.108 325.304,652.623 322.713,658.85 C 319.303,658.858 315.894,658.726 312.495,658.455 C 310.393,652.046 310.718,648.545 310.718,648.545 L 311.615,639.764 C 307.189,639.312 302.792,638.583 298.458,637.582 L 296.471,646.182 C 296.471,646.182 295.648,649.6 291.59,654.987 C 288.286,654.147 285.016,653.171 281.792,652.063 C 281.35,645.333 282.535,642.023 282.535,642.023 L 285.587,633.741 C 281.413,632.202 277.335,630.402 273.386,628.355 L 269.323,636.191 C 269.323,636.191 267.676,639.297 262.405,643.506 C 259.414,641.87 256.49,640.112 253.643,638.237 C 254.888,631.608 256.859,628.697 256.859,628.697 L 261.875,621.434 C 258.215,618.906 254.713,616.148 251.397,613.183 L 245.513,619.763 C 245.513,619.763 243.145,622.362 236.993,625.127 C 234.503,622.799 232.108,620.368 229.816,617.844 C 232.671,611.734 235.304,609.404 235.304,609.404 L 241.969,603.617 C 239.052,600.258 236.346,596.716 233.871,593.019 L 226.536,597.929 C 226.536,597.929 223.596,599.857 216.95,601.006 C 215.117,598.131 213.402,595.182 211.81,592.167 C 216.094,586.959 219.224,585.357 219.224,585.357 L 227.119,581.409 C 225.129,577.43 223.389,573.327 221.911,569.13 L 213.585,572.062 C 213.585,572.062 210.258,573.198 203.536,572.658 C 202.475,569.418 201.547,566.135 200.755,562.819 C 206.2,558.839 209.63,558.066 209.63,558.066 L 218.258,556.205 C 217.32,551.857 216.655,547.45 216.268,543.018 L 207.475,543.786 C 207.475,543.786 203.969,544.06 197.592,541.865 C 197.371,538.463 197.288,535.052 197.345,531.643 C 203.609,529.143 207.124,529.247 207.124,529.247 L 215.944,529.59 C 216.117,525.145 216.569,520.711 217.296,516.322 L 208.587,514.88 C 208.587,514.88 205.124,514.273 199.493,510.561 C 200.125,507.211 200.893,503.886 201.796,500.599 C 208.485,499.735 211.863,500.71 211.863,500.71 L 220.321,503.236 C 221.594,498.974 223.134,494.791 224.93,490.721 L 216.854,487.158 C 216.854,487.158 213.65,485.709 209.12,480.713 C 210.564,477.625 212.136,474.597 213.828,471.637 C 220.521,472.464 223.551,474.248 223.551,474.248 L 231.115,478.798 C 233.408,474.986 235.94,471.318 238.691,467.822 L 231.755,462.363 C 231.755,462.363 229.012,460.163 225.866,454.197 C 228.034,451.566 230.309,449.023 232.684,446.577 C 238.962,449.042 241.452,451.524 241.452,451.524 L 247.647,457.812 C 250.816,454.69 254.181,451.767 257.715,449.066 L 252.354,442.053 C 252.354,442.053 250.245,439.24 248.681,432.679 C 251.435,430.669 254.271,428.772 257.18,426.994 C 262.647,430.943 264.442,433.966 264.442,433.966 L 268.878,441.597 C 272.724,439.361 276.71,437.367 280.805,435.629 L 277.357,427.504 C 277.357,427.504 276.014,424.254 276.131,417.511 C 279.298,416.249 282.517,415.117 285.776,414.118 C 290.09,419.302 291.077,422.677 291.077,422.677 L 293.476,431.171 C 297.757,429.962 302.114,429.022 306.512,428.357 L 305.193,419.629 C 305.193,419.629 304.7,416.148 306.49,409.646 C 309.872,409.211 313.271,408.915 316.676,408.758 C 319.565,414.852 319.682,418.366 319.682,418.366 L 319.893,427.19 C 324.34,427.084 328.794,427.257 333.22,427.706 L 334.112,418.925 C 334.112,418.925 334.5,415.43 337.852,409.577 C 341.235,409.997 344.601,410.556 347.939,411.25 C 349.221,417.872 348.46,421.305 348.46,421.305 L 346.47,429.904 C 350.804,430.907 355.075,432.182 359.25,433.718 L 362.298,425.435 C 362.298,425.435 363.543,422.146 368.245,417.311 C 371.417,418.559 374.539,419.937 377.599,421.44 C 377.194,428.172 375.604,431.308 375.604,431.308 L 371.537,439.142 C 375.486,441.191 379.306,443.488 382.967,446.015 L 387.98,438.749 C 387.98,438.749 390.004,435.874 395.76,432.36 C 398.523,434.357 401.203,436.468 403.793,438.685 C 401.727,445.105 399.407,447.747 399.407,447.747 L 393.52,454.324 C 396.835,457.291 399.963,460.465 402.882,463.823 L 409.544,458.033 C 409.544,458.033 412.219,455.751 418.668,453.778 C 420.847,456.4 422.919,459.112 424.876,461.903 C 421.278,467.608 418.374,469.589 418.374,469.589 L 411.036,474.495 C 413.509,478.193 415.75,482.046 417.741,486.024 L 425.634,482.073 C 425.634,482.073 428.793,480.528 435.53,480.221 C 436.988,483.303 438.321,486.444 439.522,489.634 C 434.619,494.265 431.313,495.462 431.313,495.462 L 422.986,498.389 C 424.461,502.586 425.673,506.875 426.613,511.224 L 435.241,509.359 C 435.241,509.359 438.684,508.648 445.286,510.027 C 445.932,513.374 446.442,516.748 446.812,520.137 C 440.911,523.403 437.411,523.74 437.411,523.74 L 428.618,524.505 C 429.003,528.936 429.111,533.392 428.939,537.838 L 437.76,538.177 C 437.76,538.177 441.272,538.345 447.324,541.322 C 447.117,544.725 446.771,548.12 446.287,551.494 C 439.759,553.19 436.286,552.646 436.286,552.646 L 427.578,551.2 C 426.849,555.588 425.845,559.931 424.574,564.194 L 433.033,566.716 C 433.033,566.716 436.393,567.752 441.514,572.141 C 440.467,575.386 439.288,578.587 437.98,581.736 C 431.236,581.755 428.007,580.364 428.007,580.364 L 419.932,576.798 C 418.135,580.867 416.083,584.824 413.791,588.637 L 421.357,593.183 C 421.357,593.183 424.354,595.022 428.222,600.547 C 426.402,603.429 424.464,606.237 422.414,608.961 C 415.877,607.302 413.095,605.152 413.095,605.152 L 406.161,599.69 C 403.408,603.185 400.436,606.506 397.268,609.63 L 403.466,615.915 C 403.466,615.915 405.911,618.442 408.284,624.755 C 405.804,627.094 403.228,629.332 400.566,631.46 C 394.646,628.228 392.486,625.453 392.486,625.453 L 387.129,618.438 C 383.594,621.139 379.889,623.617 376.044,625.854 L 380.483,633.484 C 380.483,633.484 382.223,636.539 382.952,643.244 C 379.968,644.893 376.917,646.419 373.809,647.819 C 368.879,643.216 367.477,639.992 367.477,639.992 L 364.032,631.865 C 359.937,633.601 355.732,635.08 351.451,636.291 L 353.854,644.784"
       id="path5182"
       inkscape:path-effect="#path-effect3704"
       inkscape:original-d="M 118.51133,295.29604 L 207.8894,318.77716 L 263.04372,311.70609 L 315.36962,276.35075 L 420.02143,328.67666 L 427.09248,424.84318 L 322.44068,533.73762"
       sodipodi:nodetypes="ccccccc"
       transform="matrix(1.2500377,0,0,1.2498748,-48.11115,-207.20748)" />
  </g>
  <g
     inkscape:groupmode="layer"
     id="layer4"
     style="display:none">
    <path
       style="opacity:1;fill:none;fill-opacity:1;fill-rule:evenodd;stroke:#00ffff;stroke-width:0.80002791;stroke-linecap:butt;stroke-linejoin:miter;marker:none;marker-start:none;marker-mid:none;marker-end:none;stroke-miterlimit:2;stroke-dasharray:none;stroke-dashoffset:0;stroke-opacity:1;visibility:visible;display:inline;overflow:visible;enable-background:accumulate"
       d="M 154.366,304.505 C 154.366,304.505 150.788,303.446 146.365,298.202 C 147.311,295.373 148.453,292.608 149.78,289.936 C 156.614,289.342 159.896,291.117 159.896,291.117 L 167.742,295.639 C 169.758,292.141 172.233,288.909 175.084,286.051 L 168.673,279.655 C 168.673,279.655 166.104,276.95 164.895,270.197 C 167.13,268.219 169.501,266.396 171.986,264.745 C 178.201,267.648 180.156,270.826 180.156,270.826 L 184.69,278.665 C 188.184,276.644 191.944,275.082 195.842,274.032 L 193.488,265.288 C 193.488,265.288 192.616,261.661 194.946,255.208 C 197.869,254.613 200.834,254.22 203.812,254.032 C 207.744,259.654 207.847,263.383 207.847,263.383 L 207.854,272.439 C 211.891,272.436 215.928,272.963 219.829,274.004 L 222.162,265.253 C 222.162,265.253 223.22,261.676 228.464,257.253 C 231.294,258.199 234.058,259.341 236.731,260.668 C 237.325,267.502 235.55,270.783 235.55,270.783 L 231.028,278.63 C 234.525,280.645 237.758,283.121 240.616,285.972 L 247.012,279.56 C 247.012,279.56 249.717,276.991 256.47,275.783 C 258.447,278.017 260.27,280.388 261.922,282.873 C 259.019,289.089 255.841,291.044 255.841,291.044 L 248.002,295.578 C 250.023,299.072 251.585,302.832 252.634,306.73 L 261.379,304.376 C 261.379,304.376 265.006,303.503 271.458,305.833 C 272.054,308.757 272.447,311.722 272.635,314.7 C 267.013,318.631 263.284,318.735 263.284,318.735 L 254.228,318.742 C 254.231,322.779 253.703,326.816 252.663,330.716 L 261.413,333.05 C 261.413,333.05 264.991,334.108 269.414,339.352 C 268.467,342.182 267.326,344.946 265.999,347.619 C 259.165,348.212 255.883,346.438 255.883,346.438 L 248.037,341.916 C 246.021,345.413 243.546,348.646 240.695,351.504 L 247.106,357.899 C 247.106,357.899 249.675,360.605 250.884,367.358 C 248.649,369.335 246.278,371.158 243.793,372.809 C 237.577,369.907 235.623,366.729 235.623,366.729 L 231.089,358.889 C 227.594,360.911 223.835,362.472 219.937,363.522 L 222.291,372.266 C 222.291,372.266 223.163,375.894 220.833,382.346 C 217.909,382.941 214.945,383.335 211.967,383.522 C 208.035,377.9 207.932,374.171 207.932,374.171 L 207.925,365.115 C 203.888,365.118 199.851,364.591 195.95,363.551 L 193.617,372.301 C 193.617,372.301 192.559,375.878 187.315,380.301 C 184.485,379.355 181.721,378.213 179.048,376.887 C 178.454,370.052 180.229,366.771 180.229,366.771 L 184.751,358.925 C 181.253,356.909 178.021,354.434 175.163,351.583 L 168.767,357.994 C 168.767,357.994 166.062,360.563 159.309,361.771 C 157.332,359.537 155.509,357.166 153.857,354.681 C 156.76,348.465 159.938,346.511 159.938,346.511 L 167.777,341.977 C 165.756,338.482 164.194,334.722 163.145,330.824 L 154.4,333.179 C 154.4,333.179 150.773,334.051 144.32,331.721 C 143.725,328.797 143.332,325.832 143.144,322.855 C 148.766,318.923 152.495,318.819 152.495,318.819 L 161.551,318.812 C 161.548,314.776 162.076,310.739 163.116,306.838 L 154.366,304.505 M 313.473,331.712 C 313.473,331.712 313.245,335.436 309.127,340.923 C 306.158,340.636 303.208,340.144 300.305,339.451 C 298.193,332.924 299.186,329.328 299.186,329.328 L 301.832,320.667 C 297.971,319.488 294.265,317.801 290.84,315.664 L 286.047,323.347 C 286.047,323.347 283.987,326.458 277.678,329.151 C 275.249,327.417 272.941,325.516 270.774,323.465 C 272.207,316.756 274.865,314.139 274.865,314.139 L 281.487,307.961 C 278.733,305.009 276.368,301.696 274.47,298.133 L 266.477,302.389 C 266.477,302.389 263.138,304.053 256.327,303.231 C 255.091,300.516 254.042,297.715 253.191,294.855 C 257.787,289.762 261.398,288.824 261.398,288.824 L 270.221,286.785 C 269.312,282.851 268.92,278.799 269.059,274.765 L 260.008,274.455 C 260.008,274.455 256.284,274.226 250.797,270.109 C 251.084,267.139 251.577,264.189 252.27,261.287 C 258.796,259.174 262.392,260.167 262.392,260.167 L 271.053,262.813 C 272.233,258.952 273.919,255.247 276.056,251.822 L 268.373,247.028 C 268.373,247.028 265.263,244.968 262.569,238.659 C 264.303,236.23 266.204,233.922 268.255,231.755 C 274.964,233.188 277.582,235.847 277.582,235.847 L 283.759,242.468 C 286.711,239.714 290.025,237.349 293.588,235.451 L 289.331,227.458 C 289.331,227.458 287.667,224.119 288.489,217.308 C 291.205,216.072 294.006,215.023 296.866,214.172 C 301.959,218.768 302.897,222.379 302.897,222.379 L 304.936,231.203 C 308.869,230.294 312.921,229.902 316.956,230.04 L 317.266,220.989 C 317.266,220.989 317.494,217.265 321.612,211.778 C 324.582,212.065 327.532,212.558 330.434,213.251 C 332.546,219.777 331.553,223.373 331.553,223.373 L 328.908,232.034 C 332.768,233.214 336.474,234.9 339.899,237.037 L 344.693,229.354 C 344.693,229.354 346.752,226.244 353.062,223.551 C 355.49,225.284 357.799,227.185 359.966,229.237 C 358.532,235.945 355.874,238.563 355.874,238.563 L 349.252,244.741 C 352.006,247.692 354.372,251.006 356.269,254.569 L 364.262,250.312 C 364.262,250.312 367.601,248.648 374.412,249.47 C 375.648,252.186 376.697,254.987 377.548,257.847 C 372.952,262.94 369.341,263.878 369.341,263.878 L 360.518,265.917 C 361.427,269.85 361.819,273.902 361.681,277.937 L 370.731,278.247 C 370.731,278.247 374.455,278.475 379.942,282.593 C 379.655,285.563 379.163,288.513 378.47,291.415 C 371.943,293.528 368.347,292.535 368.347,292.535 L 359.686,289.889 C 358.507,293.75 356.82,297.455 354.683,300.88 L 362.366,305.674 C 362.366,305.674 365.477,307.733 368.17,314.043 C 366.436,316.471 364.535,318.78 362.484,320.947 C 355.775,319.513 353.157,316.855 353.157,316.855 L 346.98,310.233 C 344.028,312.987 340.715,315.353 337.151,317.25 L 341.408,325.243 C 341.408,325.243 343.072,328.582 342.25,335.393 C 339.534,336.629 336.733,337.678 333.874,338.529 C 328.781,333.933 327.843,330.322 327.843,330.322 L 325.804,321.499 C 321.87,322.408 317.818,322.8 313.783,322.662 L 313.473,331.712 M 460.431,284.311 C 460.431,284.311 462.982,281.642 469.606,279.967 C 471.734,282.133 473.719,284.438 475.545,286.864 C 472.907,293.166 469.889,295.293 469.889,295.293 L 462.378,300.321 C 464.658,303.727 466.525,307.409 467.926,311.26 L 476.42,308.172 C 476.42,308.172 479.92,306.994 486.563,308.59 C 487.44,311.496 488.127,314.46 488.617,317.456 C 483.352,321.811 479.691,322.292 479.691,322.292 L 470.704,323.253 C 471.14,327.328 471.082,331.456 470.532,335.518 L 479.489,336.731 C 479.489,336.731 483.135,337.314 488.276,341.814 C 487.702,344.795 486.933,347.739 485.974,350.619 C 479.289,352.028 475.824,350.753 475.824,350.753 L 467.419,347.428 C 465.911,351.239 463.942,354.867 461.567,358.208 L 468.934,363.444 C 468.934,363.444 471.892,365.655 474.352,372.029 C 472.459,374.402 470.41,376.651 468.222,378.756 C 461.648,376.896 459.172,374.157 459.172,374.157 L 453.276,367.307 C 450.17,369.981 446.74,372.278 443.085,374.132 L 447.174,382.193 C 447.174,382.193 448.766,385.525 447.982,392.312 C 445.203,393.533 442.343,394.572 439.428,395.42 C 434.471,390.718 433.552,387.142 433.552,387.142 L 431.514,378.336 C 427.521,379.26 423.417,379.7 419.319,379.644 L 419.194,388.681 C 419.194,388.681 419.055,392.371 415.207,398.017 C 412.178,397.807 409.164,397.398 406.188,396.793 C 403.984,390.327 404.832,386.733 404.832,386.733 L 407.12,377.989 C 403.155,376.952 399.316,375.434 395.714,373.479 L 391.403,381.424 C 391.403,381.424 389.565,384.626 383.534,387.837 C 380.95,386.243 378.471,384.48 376.117,382.562 C 377.171,375.812 379.592,373.024 379.592,373.024 L 385.681,366.345 C 382.653,363.584 379.959,360.456 377.677,357.051 L 370.169,362.082 C 370.169,362.082 367.053,364.064 360.221,364.104 C 358.673,361.492 357.297,358.779 356.104,355.987 C 360.174,350.499 363.614,349.156 363.614,349.156 L 372.109,346.072 C 370.711,342.219 369.779,338.198 369.341,334.123 L 360.355,335.088 C 360.355,335.088 356.675,335.394 350.606,332.255 C 350.45,329.223 350.493,326.181 350.734,323.155 C 356.888,320.187 360.558,320.596 360.558,320.596 L 369.514,321.813 C 370.066,317.752 371.11,313.758 372.616,309.946 L 364.209,306.625 C 364.209,306.625 360.809,305.186 356.894,299.587 C 358.165,296.829 359.616,294.156 361.236,291.588 C 368.065,291.82 371.124,293.888 371.124,293.888 L 378.489,299.127 C 380.865,295.788 383.645,292.737 386.75,290.061 L 380.85,283.214 C 380.85,283.214 378.508,280.36 377.644,273.582 C 380.05,271.731 382.578,270.038 385.206,268.517 C 391.144,271.896 392.892,275.149 392.892,275.149 L 396.978,283.211 C 400.634,281.358 404.514,279.948 408.506,279.022 L 406.465,270.218 C 406.465,270.218 405.717,266.602 408.102,260.199 C 411.093,259.679 414.118,259.354 417.151,259.229 C 420.839,264.98 420.875,268.672 420.875,268.672 L 420.747,277.71 C 424.845,277.768 428.935,278.323 432.901,279.359 L 435.185,270.614 C 435.185,270.614 436.203,267.064 441.29,262.504 C 444.181,263.432 447.01,264.551 449.754,265.85 C 450.347,272.656 448.663,275.942 448.663,275.942 L 444.349,283.885 C 447.951,285.841 451.315,288.233 454.345,290.993 L 460.431,284.311 M 446.947,399.349 C 446.947,399.349 447.526,398.618 449.098,397.757 C 450.67,396.895 453.241,395.918 456.811,395.585 C 458.627,397.429 460.27,399.442 461.713,401.591 C 459.628,408.451 456.048,410.501 456.048,410.501 L 447.854,414.559 C 449.391,417.662 450.22,421.113 450.26,424.576 L 459.404,424.47 C 459.404,424.47 460.336,424.467 461.99,425.16 C 463.643,425.852 466.01,427.253 468.497,429.836 C 468.187,432.405 467.637,434.945 466.858,437.413 C 463.526,438.737 460.791,439.034 458.999,438.981 C 457.208,438.927 456.36,438.539 456.36,438.539 L 448.077,434.664 C 446.61,437.8 444.428,440.599 441.746,442.79 L 447.53,449.872 C 447.53,449.872 448.113,450.6 448.603,452.324 C 449.093,454.049 449.473,456.773 449.004,460.327 C 446.803,461.687 444.474,462.841 442.058,463.77 C 435.833,460.211 434.632,456.265 434.632,456.265 L 432.498,447.373 C 429.131,448.181 425.582,448.221 422.198,447.489 L 420.266,456.427 C 420.266,456.427 419.154,460.399 413.012,464.099 C 410.576,463.225 408.222,462.124 405.99,460.814 C 405.44,457.271 405.759,454.539 406.209,452.804 C 406.66,451.069 407.227,450.329 407.227,450.329 L 412.849,443.117 C 410.118,440.988 407.874,438.238 406.335,435.136 L 398.143,439.198 C 398.143,439.198 397.304,439.606 395.514,439.699 C 393.724,439.793 390.983,439.558 387.622,438.31 C 386.787,435.861 386.18,433.333 385.812,430.772 C 390.667,425.495 394.781,425.202 394.781,425.202 L 403.925,425.1 C 403.886,421.638 404.637,418.169 406.103,415.032 L 397.819,411.16 C 397.819,411.16 394.194,409.192 391.955,402.38 C 393.348,400.2 394.946,398.15 396.719,396.265 C 400.295,396.518 402.888,397.436 404.479,398.262 C 406.071,399.087 406.666,399.805 406.666,399.805 L 412.447,406.89 C 415.13,404.701 418.31,403.125 421.676,402.316 L 419.539,393.425 C 419.539,393.425 419.329,392.517 419.636,390.75 C 419.942,388.984 420.782,386.365 422.747,383.366 C 425.32,383.096 427.919,383.067 430.498,383.278 C 432.53,386.232 433.429,388.832 433.776,390.59 C 434.122,392.349 433.933,393.262 433.933,393.262 L 431.997,402.199 C 435.381,402.932 438.596,404.436 441.328,406.563 L 446.947,399.349 M 346.608,646.583 C 346.608,646.583 347.312,650.028 345.921,656.627 C 342.573,657.267 339.198,657.77 335.808,658.134 C 332.553,652.227 332.223,648.727 332.223,648.727 L 331.475,639.932 C 327.042,640.309 322.586,640.408 318.141,640.229 L 317.785,649.048 C 317.785,649.048 317.611,652.56 314.622,658.606 C 311.22,658.393 307.826,658.041 304.452,657.551 C 302.769,651.02 303.319,647.547 303.319,647.547 L 304.782,638.842 C 300.394,638.105 296.054,637.093 291.793,635.814 L 289.255,644.268 C 289.255,644.268 288.213,647.626 283.814,652.739 C 280.572,651.686 277.372,650.501 274.226,649.187 C 274.22,642.443 275.617,639.216 275.617,639.216 L 279.198,631.148 C 275.132,629.343 271.179,627.284 267.371,624.985 L 262.81,632.542 C 262.81,632.542 260.965,635.535 255.433,639.394 C 252.554,637.568 249.75,635.624 247.03,633.57 C 248.701,627.035 250.856,624.258 250.856,624.258 L 256.331,617.334 C 252.842,614.575 249.526,611.597 246.408,608.423 L 240.111,614.608 C 240.111,614.608 237.58,617.049 231.263,619.411 C 228.928,616.926 226.695,614.346 224.572,611.679 C 227.815,605.766 230.594,603.611 230.594,603.611 L 237.619,598.267 C 234.925,594.727 232.454,591.017 230.224,587.168 L 222.586,591.593 C 222.586,591.593 219.528,593.328 212.821,594.044 C 211.178,591.057 209.657,588.003 208.263,584.892 C 212.875,579.971 216.102,578.575 216.102,578.575 L 224.236,575.145 C 222.507,571.046 221.036,566.839 219.833,562.556 L 211.335,564.943 C 211.335,564.943 207.942,565.862 201.268,564.888 C 200.419,561.586 199.705,558.25 199.129,554.89 C 204.82,551.27 208.293,550.721 208.293,550.721 L 217.023,549.422 C 216.369,545.022 215.99,540.581 215.89,536.133 L 207.065,536.332 C 207.065,536.332 203.55,536.378 197.328,533.775 C 197.327,530.366 197.465,526.957 197.743,523.559 C 204.155,521.469 207.655,521.8 207.655,521.8 L 216.435,522.713 C 216.895,518.288 217.632,513.892 218.642,509.56 L 210.045,507.557 C 210.045,507.557 206.628,506.728 201.249,502.659 C 202.096,499.357 203.078,496.089 204.192,492.867 C 210.922,492.438 214.23,493.629 214.23,493.629 L 222.507,496.697 C 224.053,492.525 225.861,488.451 227.915,484.506 L 220.087,480.428 C 220.087,480.428 216.984,478.775 212.785,473.497 C 214.427,470.509 216.191,467.588 218.071,464.744 C 224.697,466.002 227.605,467.978 227.605,467.978 L 234.858,473.008 C 237.393,469.352 240.157,465.855 243.129,462.545 L 236.56,456.649 C 236.56,456.649 233.965,454.276 231.212,448.119 C 233.545,445.633 235.979,443.243 238.508,440.956 C 244.613,443.822 246.938,446.459 246.938,446.459 L 252.713,453.135 C 256.077,450.224 259.624,447.525 263.325,445.057 L 258.429,437.713 C 258.429,437.713 256.506,434.769 255.37,428.121 C 258.248,426.294 261.201,424.584 264.218,422.997 C 269.419,427.292 271.015,430.425 271.015,430.425 L 274.948,438.326 C 278.931,436.344 283.037,434.612 287.236,433.142 L 284.321,424.811 C 284.321,424.811 283.19,421.482 283.743,414.76 C 286.985,413.705 290.27,412.783 293.588,411.997 C 297.557,417.45 298.324,420.881 298.324,420.881 L 300.168,429.513 C 304.519,428.584 308.927,427.927 313.359,427.548 L 312.607,418.753 C 312.607,418.753 312.34,415.247 314.547,408.874 C 317.95,408.659 321.361,408.583 324.77,408.646 C 327.258,414.915 327.148,418.429 327.148,418.429 L 326.788,427.249 C 331.232,427.43 335.666,427.89 340.053,428.625 L 341.512,419.92 C 341.512,419.92 342.125,416.458 345.848,410.834 C 349.197,411.472 352.52,412.246 355.805,413.156 C 356.657,419.846 355.676,423.222 355.676,423.222 L 353.134,431.675 C 357.394,432.956 361.573,434.504 365.64,436.308 L 369.218,428.238 C 369.218,428.238 370.673,425.038 375.677,420.516 C 378.763,421.967 381.788,423.544 384.745,425.241 C 383.906,431.933 382.116,434.96 382.116,434.96 L 377.551,442.515 C 381.359,444.815 385.022,447.354 388.513,450.112 L 393.985,443.186 C 393.985,443.186 396.19,440.447 402.162,437.313 C 404.789,439.485 407.328,441.765 409.769,444.144 C 407.292,450.418 404.806,452.903 404.806,452.903 L 398.506,459.086 C 401.622,462.261 404.539,465.631 407.234,469.171 L 414.257,463.823 C 414.257,463.823 417.073,461.719 423.637,460.168 C 425.642,462.925 427.534,465.765 429.307,468.677 C 425.347,474.137 422.321,475.926 422.321,475.926 L 414.681,480.348 C 416.91,484.198 418.897,488.188 420.627,492.286 L 428.759,488.853 C 428.759,488.853 432.011,487.516 438.754,487.646 C 440.01,490.815 441.136,494.036 442.129,497.297 C 436.936,501.601 433.56,502.582 433.56,502.582 L 425.061,504.965 C 426.262,509.248 427.194,513.607 427.851,518.007 L 436.581,516.704 C 436.581,516.704 440.063,516.217 446.562,518.02 C 446.991,521.402 447.281,524.802 447.431,528.207 C 441.331,531.085 437.817,531.195 437.817,531.195 L 428.992,531.389 C 429.091,535.837 428.91,540.29 428.451,544.715 L 437.231,545.624 C 437.231,545.624 440.725,546.019 446.572,549.381 C 446.145,552.764 445.581,556.129 444.88,559.465 C 438.256,560.735 434.825,559.968 434.825,559.968 L 426.229,557.961 C 425.218,562.294 423.935,566.562 422.391,570.734 L 430.669,573.798 C 430.669,573.798 433.955,575.049 438.781,579.76 C 437.527,582.93 436.144,586.049 434.635,589.106 C 427.903,588.689 424.771,587.092 424.771,587.092 L 416.944,583.012 C 414.887,586.956 412.583,590.772 410.05,594.428 L 417.306,599.455 C 417.306,599.455 420.178,601.484 423.681,607.247 C 421.678,610.006 419.562,612.682 417.341,615.268 C 410.924,613.19 408.287,610.865 408.287,610.865 L 401.721,604.966 C 398.748,608.275 395.568,611.397 392.205,614.309 L 397.982,620.982 C 397.982,620.982 400.259,623.662 402.219,630.115 C 399.593,632.289 396.878,634.355 394.083,636.307 C 388.385,632.699 386.409,629.791 386.409,629.791 L 381.517,622.444 C 377.814,624.91 373.957,627.144 369.975,629.128 L 373.912,637.028 C 373.912,637.028 375.451,640.189 375.745,646.927 C 372.661,648.38 369.517,649.706 366.324,650.902 C 361.703,645.99 360.512,642.681 360.512,642.681 L 357.6,634.349 C 353.401,635.816 349.109,637.021 344.759,637.952 L 346.608,646.583"
       id="path5184"
       inkscape:path-effect="#path-effect3704"
       inkscape:original-d="M 85.985391,268.42328 L 207.8894,318.77716 L 263.04372,311.70609 L 315.36962,276.35075 L 420.02143,328.67666 L 427.09248,424.84318 L 322.44068,533.73762"
       sodipodi:nodetypes="ccccccc"
       transform="matrix(1.2500377,0,0,1.2498748,-48.11115,-207.20748)" />
  </g>
</svg>
