<?xml version="1.0" encoding="UTF-8" standalone="no"?>
<!-- Created with Inkscape (http://www.inkscape.org/) -->
<svg
   xmlns:dc="http://purl.org/dc/elements/1.1/"
   xmlns:cc="http://web.resource.org/cc/"
   xmlns:rdf="http://www.w3.org/1999/02/22-rdf-syntax-ns#"
   xmlns:svg="http://www.w3.org/2000/svg"
   xmlns="http://www.w3.org/2000/svg"
   xmlns:xlink="http://www.w3.org/1999/xlink"
   xmlns:sodipodi="http://sodipodi.sourceforge.net/DTD/sodipodi-0.dtd"
   xmlns:inkscape="http://www.inkscape.org/namespaces/inkscape"
   width="4096"
   height="4096"
   id="svg2"
   sodipodi:version="0.32"
   inkscape:version="0.44+devel"
   sodipodi:docname="gradients.svg"
   inkscape:output_extension="org.inkscape.output.svg.inkscape"
   sodipodi:docbase="H:\laser graphics"
   version="1.0"
   sodipodi:modified="true">
  <defs
     id="defs4">
    <linearGradient
       id="linearGradient3048">
      <stop
         style="stop-color:lime;stop-opacity:1;"
         offset="0"
         id="stop3050" />
      <stop
         id="stop3056"
         offset="0.27543417"
         style="stop-color:yellow;stop-opacity:1;" />
      <stop
         style="stop-color:red;stop-opacity:1;"
         offset="0.52791548"
         id="stop3058" />
      <stop
         id="stop3060"
         offset="0.76737863"
         style="stop-color:fuchsia;stop-opacity:1;" />
      <stop
         style="stop-color:blue;stop-opacity:1;"
         offset="1"
         id="stop3052" />
    </linearGradient>
    <marker
       inkscape:stockid="Arrow1Lend"
       orient="auto"
       refY="0.0"
       refX="0.0"
       id="Arrow1Lend"
       style="overflow:visible;">
      <path
         id="path3227"
         d="M 0.0,0.0 L 5.0,-5.0 L -12.5,0.0 L 5.0,5.0 L 0.0,0.0 z "
         style="fill-rule:evenodd;stroke:#000000;stroke-width:1.0pt;marker-start:none;"
         transform="scale(0.8) rotate(180) translate(12.5,0)" />
    </marker>
    <linearGradient
       inkscape:collect="always"
       xlink:href="#linearGradient3048"
       id="linearGradient3054"
       x1="-7665.1491"
       y1="2195.6765"
       x2="11512.741"
       y2="2195.6765"
       gradientUnits="userSpaceOnUse"
       gradientTransform="matrix(9.326668e-2,0,0,9.326668e-2,1938.654,1855.114)" />
  </defs>
  <sodipodi:namedview
     id="base"
     pagecolor="black"
     bordercolor="#666666"
     borderopacity="1.0"
     gridtolerance="10000"
     guidetolerance="10"
     objecttolerance="10"
     inkscape:pageopacity="0.99215686"
     inkscape:pageshadow="2"
     inkscape:zoom="0.39584851"
     inkscape:cx="2118.0797"
     inkscape:cy="2036.1024"
     inkscape:document-units="px"
     inkscape:current-layer="layer1"
     showguides="true"
     inkscape:guide-bbox="true"
     inkscape:window-width="1035"
     inkscape:window-height="895"
     inkscape:window-x="119"
     inkscape:window-y="6"
     width="4096px"
     height="4096px"
     showborder="true" />
  <metadata
     id="metadata7">
    <rdf:RDF>
      <cc:Work
         rdf:about="">
        <dc:format>image/svg+xml</dc:format>
        <dc:type
           rdf:resource="http://purl.org/dc/dcmitype/StillImage" />
      </cc:Work>
    </rdf:RDF>
  </metadata>
  <g
     inkscape:label="Layer 1"
     inkscape:groupmode="layer"
     id="layer1">
    <path
       style="fill:none;fill-rule:evenodd;stroke:url(#linearGradient3054);stroke-width:2.15207624;stroke-linecap:butt;stroke-linejoin:miter;stroke-miterlimit:4;stroke-dasharray:none;stroke-opacity:1"
       d="M 2130.7584,2047.2189 C 2126.3273,2041.9703 2134.9218,2037.3131 2140.4476,2039.0391 C 2151.9895,2042.6442 2152.6078,2057.8701 2147.1182,2066.5972 C 2137.2986,2082.208 2115.2179,2082.269 2101.691,2071.7586 C 2081.8397,2056.3342 2082.3865,2026.6056 2098.0389,2008.4624 C 2118.9011,1984.2803 2156.5106,1985.4723 2179.2042,2006.3195 C 2207.9985,2032.7711 2206.1313,2077.9076 2179.8378,2105.3538 C 2147.9986,2138.5887 2094.9222,2136.0569 2062.9344,2104.4782 C 2025.2444,2067.2701 2028.4455,2006.2235 2065.3193,1969.7058 C 2107.8848,1927.5513 2176.9208,1931.4245 2217.9607,1973.5999 C 2264.5861,2021.5153 2260.0389,2098.5536 2212.5574,2144.1104 C 2159.2973,2195.2113 2074.2475,2189.9889 2024.1779,2137.1977 C 1968.598,2078.5969 1974.4966,1985.5288 2032.5997,1930.9492 C 2096.5386,1870.8878 2197.6302,1877.4633 2256.7173,1940.8804 C 2321.2622,2010.1551 2314.0093,2119.274 2245.2769,2182.8669 C 2170.4545,2252.0945 2053.7226,2244.1882 1985.4213,2169.9173 C 1911.694,2089.7463 1920.276,1965.0105 1999.8802,1892.1927 C 2085.3988,1813.9647 2218.1405,1823.2225 2295.4739,1908.1608 C 2340.0758,1957.1489 2359.8812,2025.3974 2349.2834,2090.7117 C 2341.1322,2140.9472 2315.6835,2187.4538 2277.9965,2221.6235 C 2226.081,2268.6938 2153.8604,2289.5233 2084.7905,2278.1803 C 2031.7523,2269.4701 1982.6788,2242.5068 1946.6647,2202.6369 C 1897.1259,2147.7942 1875.2723,2071.6013 1887.3608,1998.7758 C 1896.6299,1942.935 1925.1077,1891.2945 1967.1606,1853.4361 C 2024.9304,1801.4285 2105.0957,1778.5508 2181.6768,1791.3849 C 2240.3203,1801.2128 2294.5279,1831.2053 2334.2304,1875.4412 C 2388.7068,1936.1379 2412.6088,2020.2759 2399.0289,2100.6125 C 2388.6422,2162.0586 2357.1351,2218.8334 2310.7161,2260.3801 C 2247.0925,2317.3254 2158.9818,2342.2516 2074.8897,2327.9258 C 2010.6408,2316.9804 1951.299,2283.9587 1907.9082,2235.3564 C 1848.4938,2168.8062 1822.5433,2076.7227 1837.6152,1988.875 C 1849.1192,1921.8234 1883.6556,1859.9144 1934.441,1814.6795 C 2003.918,1752.7961 2099.9744,1725.8213 2191.5776,1741.6394 C 2261.4319,1753.7019 2325.9081,1789.7529 2372.987,1842.7217 C 2437.3396,1915.1252 2465.3388,2015.1545 2448.7744,2110.5133 C 2436.1534,2183.1703 2398.5876,2250.2138 2343.4356,2299.1367 C 2268.1056,2365.9585 2164.1032,2394.9821 2064.9889,2377.6713 C 1989.5291,2364.4919 1919.9184,2325.4114 1869.1516,2268.076 C 1799.8604,2189.8195 1769.8125,2081.844 1787.8697,1978.9742 C 1801.6075,1900.7117 1842.2028,1828.5337 1901.7215,1775.923 C 1982.9044,1704.1624 2094.8531,1673.0901 2201.4784,1691.8939 C 2282.5436,1706.19 2357.2889,1748.3 2411.7436,1810.0021 C 2485.9735,1894.1114 2518.0702,2010.0333 2498.5199,2120.4141 C 2483.6654,2204.2821 2440.0407,2281.5947 2376.1552,2337.8932 C 2288.8014,2414.873 2169.6421,2447.788 2055.0881,2427.4168 C 1968.4173,2412.004 1888.5374,2366.8645 1830.395,2300.7956 C 1750.9365,2210.5044 1717.0035,2087.397 1738.1242,1969.0734 C 1754.0952,1879.5998 1800.7496,1797.1526 1869.0019,1737.1664 C 1962.2303,1655.229 2089.2859,1620.2781 2211.3792,1642.1483 C 2303.6555,1658.6776 2388.6701,1706.8467 2450.5001,1777.2825 C 2534.9164,1873.4482 2570.8853,2004.452 2548.2654,2130.3149 C 2531.178,2225.394 2481.494,2312.976 2408.8747,2376.6498 C 2309.7718,2463.5449 2174.8198,2500.5318 2045.1873,2477.1623 C 1947.3054,2459.5167 1857.156,2408.3179 1791.6384,2333.5151 C 1702.2644,2231.475 1664.2596,2092.5747 1688.3787,1959.1726 C 1706.5825,1858.4879 1759.2961,1765.7712 1836.2824,1698.4098 C 1941.2597,1606.5568 2084.1083,1567.534 2221.28,1592.4028 C 2324.7675,1611.1648 2420.0516,1665.3932 2489.2567,1744.563 C 2583.5887,1852.4775 2623.6294,1999.2744 2598.0109,2140.2157 C 2578.6908,2246.506 2522.9476,2344.3575 2441.5943,2415.4064 C 2330.7427,2512.2173 2179.9974,2553.2761 2035.2865,2526.9078 C 1926.1934,2507.0296 1825.7745,2449.7715 1752.8819,2366.2347 C 1653.5919,2252.4459 1611.5152,2097.7523 1638.6332,1949.2718 C 1659.0695,1837.3759 1717.8425,1734.3896 1803.5628,1659.6532 C 1920.2887,1557.8843 2078.9307,1514.7895 2231.1808,1542.6573 C 2345.8795,1563.6518 2451.4332,1623.9395 2528.0133,1711.8434 C 2632.2613,1831.5064 2676.3741,1994.0969 2647.7564,2150.1165 C 2626.2039,2267.618 2564.4013,2375.7391 2474.3139,2454.1629 C 2351.7138,2560.89 2185.1749,2606.0208 2025.3857,2576.6533 C 1905.0814,2554.5427 1794.3928,2491.2252 1714.1253,2398.9543 C 1604.9192,2273.4171 1558.7704,2102.9298 1588.8877,1939.371 C 1611.5563,1816.2639 1676.3887,1703.0079 1770.8432,1620.8967 C 1899.3175,1509.2114 2073.7532,1462.0446 2241.0816,1492.9118 C 2366.9915,1516.1385 2482.8149,1582.4857 2566.7699,1679.1238 C 2680.9342,1810.5351 2729.119,1988.9193 2697.502,2160.0173 C 2673.7172,2288.7301 2605.8551,2407.1209 2507.0334,2492.9195 C 2372.6851,2609.5629 2190.3524,2658.7658 2015.4849,2626.3988 C 1883.9693,2602.0561 1763.011,2532.6791 1675.3687,2431.6738 C 1556.2462,2294.3885 1506.0253,2108.1073 1539.1422,1929.4702 C 1564.043,1795.1518 1634.9348,1671.6261 1738.1237,1582.1401 C 1878.3461,1460.5384 2068.5757,1409.2995 2250.9823,1443.1663 C 2388.1036,1468.6251 2514.1968,1541.0318 2605.5264,1646.4043 C 2729.6072,1789.5637 2781.8642,1983.7419 2747.2475,2169.918 C 2721.2306,2309.8422 2647.3091,2438.5028 2539.753,2531.6761 C 2393.6566,2658.236 2195.5299,2711.5111 2005.5841,2676.1444 C 1862.8572,2649.5695 1731.6291,2574.1331 1636.6122,2464.3934 C 1507.5731,2315.36 1453.28,2113.2848 1489.3967,1919.5695 C 1516.5295,1774.0397 1593.4808,1640.2442 1705.4041,1543.3835 C 1857.3745,1411.8653 2063.3983,1356.5541 2260.8831,1393.4208 C 2409.2157,1421.1116 2545.5787,1499.5778 2644.283,1613.6847 C 2778.2804,1768.5921 2834.6096,1978.5644 2796.993,2179.8188 C 2768.7441,2330.9543 2688.763,2469.8847 2572.4726,2570.4326 C 2414.6282,2706.9093 2200.7073,2764.2565 1995.6834,2725.8899 C 1841.7451,2697.083 1700.2472,2615.5871 1597.8556,2497.113 C 1458.8998,2336.3316 1400.5345,2118.4622 1439.6511,1909.6687 C 1469.0159,1752.9276 1552.0268,1608.8622 1672.6845,1504.627 C 1836.7128,1362.9242 2057.8182,1303.7331 2270.7839,1343.6753 C 2430.3279,1373.5981 2576.9607,1458.1238 2683.0396,1580.9651 C 2827.2263,1747.936 2887.4321,1972.9771 2846.7385,2189.7196 C 2816.2577,2352.0664 2730.2171,2501.2667 2605.1921,2609.1892 C 2435.2786,2755.8599 2206.3019,2817.0804 1985.7826,2775.6354 C 1820.6329,2744.5967 1668.8652,2657.0411 1559.099,2529.8325 C 1409.9444,2356.9764 1347.7091,2124.064 1389.9056,1899.7679 C 1421.5023,1731.8154 1510.5727,1577.4802 1639.965,1465.8704 C 1815.7637,1314.2318 2052.6117,1250.9817 2280.6847,1293.9298 C 2451.44,1326.0844 2608.3427,1416.6697 2721.7961,1548.2456 C 2875.9187,1726.9869 2940.1836,1967.7706 2896.484,2199.6204 C 2863.7714,2373.1786 2771.6712,2532.6487 2637.9117,2647.9458 C 2456.2278,2804.5524 2211.5084,2869.8319 1975.8818,2825.3809 C 1799.5208,2792.1103 1637.4831,2698.4952 1520.3425,2562.5521 C 1361.2519,2377.9256 1294.9576,2129.2705 1340.1601,1889.8671 C 1373.9886,1710.7033 1469.1186,1546.0981 1607.2454,1427.1138 C 1794.8145,1265.5392 2047.4053,1198.2302 2290.5855,1244.1842 C 2472.5522,1278.5707 2639.7248,1375.2156 2760.5527,1515.526 C 2924.6113,1706.0377 2992.9351,1962.5642 2946.2295,2209.5212 C 2911.2852,2394.2907 2813.1253,2564.0308 2670.6313,2686.7024 C 2477.177,2853.245 2216.7148,2922.5835 1965.981,2875.1264 C 1778.4086,2839.6241 1606.1011,2739.9494 1481.5859,2595.2717 C 1312.5593,2398.8748 1242.206,2134.4769 1290.4146,1879.9663 C 1326.4749,1689.5911 1427.6645,1514.716 1574.5258,1388.3572 C 1773.8652,1216.8466 2042.1989,1145.4786 2300.4863,1194.4387 C 2493.6643,1231.0569 2671.1069,1333.7615 2799.3093,1482.8064 C 2973.304,1685.0884 3045.6867,1957.3578 2995.975,2219.422 C 2958.7989,2415.4029 2854.5795,2595.4129 2703.3508,2725.4589 C 2498.1263,2901.9376 2221.9212,2975.3351 1956.0802,2924.8719 C 1757.2965,2887.1379 1574.7189,2781.4035 1442.8293,2627.9912 C 1263.8666,2419.8241 1189.4544,2139.6833 1240.6691,1870.0655 C 1278.9611,1668.4789 1386.2103,1483.3339 1541.8063,1349.6007 C 1581.6654,1315.3421 1624.486,1284.5372 1669.6358,1257.6321"
       id="path2159" />
  </g>
</svg>
