<?xml version="1.0" encoding="UTF-8" standalone="no"?>
<!-- Created with Inkscape (http://www.inkscape.org/) -->
<svg
   xmlns:dc="http://purl.org/dc/elements/1.1/"
   xmlns:cc="http://creativecommons.org/ns#"
   xmlns:rdf="http://www.w3.org/1999/02/22-rdf-syntax-ns#"
   xmlns:svg="http://www.w3.org/2000/svg"
   xmlns="http://www.w3.org/2000/svg"
   xmlns:xlink="http://www.w3.org/1999/xlink"
   xmlns:sodipodi="http://sodipodi.sourceforge.net/DTD/sodipodi-0.dtd"
   xmlns:inkscape="http://www.inkscape.org/namespaces/inkscape"
   width="4096"
   height="4096"
   id="svg2"
   sodipodi:version="0.32"
   inkscape:version="0.46"
   sodipodi:docbase="E:\laser graphics"
   sodipodi:docname="heineken3.svg"
   inkscape:output_extension="org.inkscape.output.svg.inkscape"
   version="1.0">
  <defs
     id="defs4">
    <inkscape:perspective
       sodipodi:type="inkscape:persp3d"
       inkscape:vp_x="0 : 2048 : 1"
       inkscape:vp_y="0 : 1000 : 0"
       inkscape:vp_z="4096 : 2048 : 1"
       inkscape:persp3d-origin="2048 : 1365.3333 : 1"
       id="perspective70" />
    <linearGradient
       id="linearGradient4278">
      <stop
         style="stop-color:#00e8ff;stop-opacity:1;"
         offset="0"
         id="stop4280" />
      <stop
         style="stop-color:#00f000;stop-opacity:1;"
         offset="1"
         id="stop4282" />
    </linearGradient>
    <linearGradient
       id="linearGradient4183">
      <stop
         style="stop-color:lime;stop-opacity:1;"
         offset="0"
         id="stop4185" />
      <stop
         style="stop-color:white;stop-opacity:1;"
         offset="1"
         id="stop4187" />
    </linearGradient>
    <linearGradient
       id="linearGradient4146">
      <stop
         style="stop-color:lime;stop-opacity:1;"
         offset="0"
         id="stop4148" />
      <stop
         style="stop-color:#fbf;stop-opacity:1;"
         offset="1"
         id="stop4150" />
    </linearGradient>
    <linearGradient
       id="linearGradient4132">
      <stop
         style="stop-color:#ff0000;stop-opacity:1;"
         offset="0"
         id="stop4134" />
      <stop
         style="stop-color:#ffff00;stop-opacity:1;"
         offset="1"
         id="stop4136" />
    </linearGradient>
    <linearGradient
       inkscape:collect="always"
       xlink:href="#linearGradient4183"
       id="linearGradient4189"
       x1="565.35718"
       y1="583.09918"
       x2="574.35718"
       y2="583.09918"
       gradientUnits="userSpaceOnUse"
       gradientTransform="matrix(6.906789,0,0,6.904121,-543.0581,-1338.024)" />
    <linearGradient
       inkscape:collect="always"
       xlink:href="#linearGradient4183"
       id="linearGradient4191"
       x1="492.53067"
       y1="583.98737"
       x2="526.35718"
       y2="583.98737"
       gradientUnits="userSpaceOnUse"
       gradientTransform="matrix(6.906789,0,0,6.904121,-543.0581,-1338.024)" />
    <linearGradient
       inkscape:collect="always"
       xlink:href="#linearGradient4183"
       id="linearGradient4193"
       x1="438.35715"
       y1="584.80212"
       x2="451.35715"
       y2="584.80212"
       gradientUnits="userSpaceOnUse"
       gradientTransform="matrix(6.906789,0,0,6.904121,-543.0581,-1338.024)" />
    <linearGradient
       inkscape:collect="always"
       xlink:href="#linearGradient4183"
       id="linearGradient4195"
       x1="489.45691"
       y1="596.80548"
       x2="494.3717"
       y2="596.80548"
       gradientUnits="userSpaceOnUse"
       gradientTransform="matrix(6.906789,0,0,6.904121,-543.0581,-1338.024)" />
    <linearGradient
       inkscape:collect="always"
       xlink:href="#linearGradient4183"
       id="linearGradient4197"
       x1="477.35715"
       y1="598.67352"
       x2="482.3208"
       y2="598.67352"
       gradientUnits="userSpaceOnUse"
       gradientTransform="matrix(6.906789,0,0,6.904121,-543.0581,-1338.024)" />
    <linearGradient
       inkscape:collect="always"
       xlink:href="#linearGradient4183"
       id="linearGradient4199"
       x1="499.35715"
       y1="598.11292"
       x2="521.48389"
       y2="598.11292"
       gradientUnits="userSpaceOnUse"
       gradientTransform="matrix(6.906789,0,0,6.904121,-543.0581,-1338.024)" />
    <linearGradient
       inkscape:collect="always"
       xlink:href="#linearGradient4183"
       id="linearGradient4201"
       x1="499.23996"
       y1="608.06555"
       x2="521.47565"
       y2="608.06555"
       gradientUnits="userSpaceOnUse"
       gradientTransform="matrix(6.906789,0,0,6.904121,-543.0581,-1338.024)" />
    <linearGradient
       inkscape:collect="always"
       xlink:href="#linearGradient4183"
       id="linearGradient4203"
       x1="496.94867"
       y1="604.17828"
       x2="524.03064"
       y2="604.17828"
       gradientUnits="userSpaceOnUse"
       gradientTransform="matrix(6.906789,0,0,6.904121,-543.0581,-1338.024)" />
    <linearGradient
       inkscape:collect="always"
       xlink:href="#linearGradient4183"
       id="linearGradient4205"
       x1="421.75391"
       y1="612.00751"
       x2="441.60599"
       y2="612.00751"
       gradientUnits="userSpaceOnUse"
       gradientTransform="matrix(6.906789,0,0,6.904121,-543.0581,-1338.024)" />
    <linearGradient
       inkscape:collect="always"
       xlink:href="#linearGradient4183"
       id="linearGradient4207"
       x1="489.35715"
       y1="620.93817"
       x2="529.35559"
       y2="620.93817"
       gradientUnits="userSpaceOnUse"
       gradientTransform="matrix(6.906789,0,0,6.904121,-543.0581,-1338.024)" />
    <linearGradient
       inkscape:collect="always"
       xlink:href="#linearGradient4183"
       id="linearGradient4209"
       x1="536.46783"
       y1="601.71991"
       x2="583.94336"
       y2="601.71991"
       gradientUnits="userSpaceOnUse"
       gradientTransform="matrix(6.906789,0,0,6.904121,-543.0581,-1338.024)" />
    <linearGradient
       inkscape:collect="always"
       xlink:href="#linearGradient4183"
       id="linearGradient4211"
       x1="484.05139"
       y1="603.13702"
       x2="490.19113"
       y2="603.13702"
       gradientUnits="userSpaceOnUse"
       gradientTransform="matrix(6.906789,0,0,6.904121,-543.0581,-1338.024)" />
    <linearGradient
       inkscape:collect="always"
       xlink:href="#linearGradient4183"
       id="linearGradient4213"
       x1="432.35715"
       y1="609.30518"
       x2="471.6738"
       y2="609.30518"
       gradientUnits="userSpaceOnUse"
       gradientTransform="matrix(6.906789,0,0,6.904121,-543.0581,-1338.024)" />
  </defs>
  <sodipodi:namedview
     id="base"
     pagecolor="black"
     bordercolor="#666666"
     borderopacity="1.0"
     gridtolerance="10000"
     guidetolerance="10"
     objecttolerance="10"
     inkscape:pageopacity="1"
     inkscape:pageshadow="2"
     inkscape:zoom="0.67284177"
     inkscape:cx="3215.2074"
     inkscape:cy="2076.8421"
     inkscape:document-units="px"
     inkscape:current-layer="layer3"
     inkscape:window-width="885"
     inkscape:window-height="860"
     inkscape:window-x="12"
     inkscape:window-y="4"
     width="4096px"
     height="4096px"
     showguides="true"
     inkscape:guide-bbox="true"
     showgrid="false" />
  <metadata
     id="metadata7">
    <rdf:RDF>
      <cc:Work
         rdf:about="">
        <dc:format>image/svg+xml</dc:format>
        <dc:type
           rdf:resource="http://purl.org/dc/dcmitype/StillImage" />
      </cc:Work>
    </rdf:RDF>
  </metadata>
  <g
     inkscape:groupmode="layer"
     id="layer3"
     style="display:inline">
    <path
       style="fill:none;stroke:#00ff00;stroke-width:4;stroke-miterlimit:4;stroke-opacity:1"
       d="M 2259.5147,3083.3296 C 2284.1401,3097.6725 2300.873,3096.0193 2300.873,3079.2434 C 2300.873,3071.215 2305.5567,3064.6463 2311.2811,3064.6463 C 2317.0056,3064.6463 2320.2899,3054.7934 2318.5796,3042.7508 C 2316.8693,3030.7083 2318.491,2995.1521 2314.2987,2994.0594 C 2309.0105,2956.8114 2273.3819,2906.2304 2229.5998,2904.6368 C 2212.6015,2904.0182 2193.5225,2900.2838 2187.2021,2896.3383 C 2171.7018,2886.6624 2166.9506,2896.5356 2159.2796,2954.3633 C 2152.6376,3004.4322 2159.849,3029.277 2189.6833,3059.1113 C 2198.1782,3067.6062 2223.3419,3076.7974 2228.2802,3074.2718 C 2228.2977,3087.9021 2250.1483,3077.8742 2259.5147,3083.3296"
       id="path3759" />
    <path
       style="fill:none;stroke:#00ff00;stroke-width:4;stroke-miterlimit:4;stroke-opacity:1"
       d="M 2754.9397,2607.7619 C 2754.9397,2577.8332 2848.6845,2583.5873 2858.9072,2614.4652 C 2862.0276,2623.8902 2874.5934,2643.9858 2886.8313,2659.1221 C 2907.7525,2684.9982 2908.0645,2687.3881 2892.0521,2699.1202 C 2882.6857,2705.983 2875.0223,2718.3101 2875.0223,2726.5138 C 2875.0223,2734.7176 2868.0955,2744.0878 2859.6293,2747.3365 C 2835.1782,2756.7193 2787.4402,2754.1902 2786.5462,2743.8496 C 2818.4243,2761.1343 2778.1841,2762.9747 2749.8272,2762.9747 C 2739.8444,2762.9747 2720.0282,2753.812 2705.7911,2742.6129 C 2691.5538,2731.414 2673.6703,2707.3289 2666.0498,2689.0905 C 2658.4294,2670.8522 2645.8709,2655.9299 2638.1421,2655.9299 C 2630.4131,2655.9299 2621.5482,2649.3072 2618.442,2641.2125 C 2614.0545,2629.7789 2617.9601,2627.7917 2635.947,2632.3061 C 2650.0494,2635.8456 2668.9675,2631.6513 2684.3445,2621.5759 C 2711.8756,2603.5368 2771.423,2576.9626 2754.9397,2607.7619 z "
       id="path3757" />
    <path
       style="fill:none;stroke:#00ff00;stroke-width:4;stroke-miterlimit:4;stroke-opacity:1"
       d="M 2406.9118,3013.5568 C 2380.602,2984.5728 2338.7504,2970.57 2401.0388,2945.1237 C 2430.1436,2933.9551 2407.967,2911.1621 2361.1672,2904.1441 C 2316.4262,2897.4347 2267.8236,2877.6684 2258.3411,2862.3256 C 2255.6787,2858.0177 2256.9767,2848.8685 2261.2254,2841.994 C 2267.0581,2832.5564 2275.654,2835.7074 2296.3174,2854.8576 C 2311.3693,2868.8072 2334.9735,2882.6977 2348.7712,2885.7253 C 2421.3488,2901.6511 2438.2439,2910.65 2435.2329,2931.7779 C 2433.3601,2944.9186 2423.7193,2952.1642 2410.3506,2955.8455 C 2384.3034,2963.0181 2383.3682,2977.7361 2404.1499,2995.1411 C 2418.8212,3007.4285 2426.1181,3015.974 2440.7232,3012.3083 C 2465.9739,3005.9708 2490.8296,3019.3904 2481.5753,3034.3644 C 2469.0789,3054.5838 2435.7047,3045.2829 2406.9118,3013.5568 z "
       id="path3755" />
    <path
       style="fill:none;stroke:#00ff00;stroke-width:4;stroke-miterlimit:4;stroke-opacity:1"
       d="M 1575.8878,3015.9896 C 1564.7808,2998.018 1582.1986,2985.5666 1609.9263,2991.6566 C 1631.3909,2996.371 1640.578,2992.9006 1652.7909,2975.464 C 1673.5313,2945.8532 1672.5655,2941.3104 1644.0072,2934.1428 C 1590.1937,2920.6365 1628.0299,2870.0195 1691.9395,2870.0195 C 1704.2248,2870.0195 1730.4088,2859.0717 1750.1262,2845.6911 C 1789.9034,2818.6976 1794.8431,2817.0603 1794.8431,2830.8698 C 1794.8431,2847.1989 1748.6859,2871.5575 1695.2645,2883.4206 C 1644.1083,2894.7806 1624.4814,2919.515 1661.0371,2926.555 C 1713.0454,2927.2617 1670.7739,2956.1229 1669.0125,2975.43 C 1652.8851,3014.3649 1591.4269,3041.1325 1575.8878,3015.9896 z "
       id="path3753" />
    <path
       style="fill:none;stroke:#00ff00;stroke-width:4;stroke-miterlimit:4;stroke-opacity:1"
       d="M 2011.5701,2952.7359 C 1989.685,2934.0031 1967.3906,2918.6762 1962.0269,2918.6762 C 1944.191,2918.6762 1901.8879,2859.1682 1901.8879,2834.0781 C 1901.8879,2812.9027 1898.7508,2810.3435 1879.9923,2816.2155 C 1833.7705,2830.6844 1821.17,2827.1124 1812.3282,2797.0344 C 1801.3415,2759.6593 1809.4893,2693.4713 1829.9471,2653.9103 C 1845.3674,2624.0907 1845.1549,2622.4165 1823.7485,2605.0827 L 1801.5819,2587.1333 L 1829.3759,2558.1227 C 1866.5283,2519.3439 1917.2955,2506.2081 1974.422,2520.5927 C 2015.9383,2531.0466 2018.664,2533.7479 2018.664,2564.4396 C 2018.664,2592.4353 2013.4077,2599.829 1982.1714,2615.7713 C 1946.7375,2633.8559 1900.8193,2675.3926 1916.2609,2675.3926 C 1920.4728,2675.3926 1937.5732,2667.1337 1954.2617,2657.0395 C 1970.95,2646.9453 1994.4573,2635.7024 2006.4998,2632.0553 C 2025.7201,2626.2345 2028.3953,2628.8951 2028.3953,2653.8309 C 2028.3953,2672.1174 2017.9949,2693.1204 1999.2013,2712.7861 C 1965.0952,2748.4749 1959.3543,2776.3752 1992.53,2745.2083 C 2004.9175,2733.5709 2018.0548,2724.0493 2021.724,2724.0493 C 2025.3932,2724.0493 2028.5929,2747.0396 2028.8342,2775.1389 C 2029.0756,2803.2381 2035.5329,2839.3657 2043.1838,2855.4225 C 2056.7566,2883.9079 2057.0731,2883.0812 2056.2225,2821.3628 C 2055.743,2786.5732 2055.8544,2748.3204 2056.4701,2736.3566 L 2057.5894,2714.6041 L 2089.2162,2733.8873 C 2126.5061,2756.6233 2136.7048,2758.1309 2129.6978,2739.8711 C 2126.8757,2732.5165 2109.4966,2718.3833 2091.0779,2708.4642 C 2065.1641,2694.5087 2057.5894,2684.2575 2057.5894,2663.1429 C 2057.5894,2628.0314 2075.4947,2621.758 2121.2013,2640.8554 C 2141.3807,2649.2869 2159.7488,2654.3276 2162.0194,2652.057 C 2168.7779,2645.2985 2093.3598,2597.5419 2075.9281,2597.5419 C 2061.5283,2597.5419 2048.3504,2571.8746 2047.9908,2543.127 C 2047.836,2530.7483 2111.2823,2509.9598 2149.2166,2509.9598 C 2184.8988,2509.9598 2232.7536,2536.1436 2232.7536,2555.6673 C 2232.7536,2564.4748 2238.981,2578.5944 2246.5924,2587.0443 C 2254.2038,2595.4941 2263.4091,2614.3402 2267.0488,2628.9246 C 2272.5947,2651.148 2269.6327,2657.2795 2248.7554,2666.7918 C 2225.8192,2677.2422 2224.969,2679.7477 2238.0303,2698.3953 C 2245.8326,2709.5346 2252.2162,2732.3475 2252.2162,2749.0908 C 2252.2162,2790.5944 2232.8899,2842.9385 2219.4296,2837.8912 C 2168.0626,2818.63 2165.9094,2819.2657 2159.072,2855.7126 C 2155.4273,2875.1405 2146.2774,2893.4028 2138.7389,2896.2957 C 2131.2005,2899.1884 2111.837,2920.7344 2095.7092,2944.1754 C 2079.5812,2967.6165 2063.0052,2986.7956 2058.8735,2986.7956 C 2054.7418,2986.7956 2033.4552,2971.4687 2011.5701,2952.7359 z "
       id="path3751" />
    <path
       style="fill:none;stroke:#00ff00;stroke-width:4;stroke-miterlimit:4;stroke-opacity:1"
       d="M 1755.3086,2967.9766 C 1755.3086,2945.8602 1797.9866,2908.9449 1829.9814,2908.9449 C 1852.9993,2908.9449 1865.4723,2902.9757 1873.3974,2888.1675 C 1882.0721,2871.9585 1886.3045,2870.282 1892.6458,2880.5426 C 1897.2598,2888.0083 1896.46,2898.8938 1890.7959,2905.7186 C 1885.3076,2912.3316 1883.6637,2926.7106 1887.1426,2937.6719 C 1890.8207,2949.2603 1889.1207,2957.6016 1883.2176,2960.2394 C 1913.6943,2962.8771 1869.2658,3055.6212 1822.0875,3080.1679 C 1788.6628,3097.5589 1778.82,3097.3777 1771.8612,3079.2434 C 1768.7805,3071.215 1759.5538,3064.6463 1751.3574,3064.6463 C 1735.9584,3064.6463 1744.112,2997.1545 1755.3086,2967.9766 z "
       id="path3749" />
    <path
       style="fill:none;stroke:#00ff00;stroke-width:4;stroke-miterlimit:4;stroke-opacity:1"
       d="M 2376.6742,2816.5248 C 2355.5265,2802.1546 2338.4619,2796.1896 2334.9155,2801.9278 C 2323.6315,2820.1858 2309.611,2811.631 2295.5107,2777.8843 C 2277.1059,2733.8353 2277.3881,2688.7496 2296.1137,2681.564 C 2304.2006,2678.4608 2323.9066,2678.5396 2339.9048,2681.7393 C 2364.7087,2686.7 2369.0144,2692.0352 2369.1414,2717.9672 C 2369.2233,2734.693 2373.5353,2754.9463 2378.7237,2762.9747 C 2385.6321,2773.6647 2388.1969,2766.5019 2388.3061,2736.2135 C 2388.388,2713.4665 2392.768,2694.8553 2398.0394,2694.8553 C 2403.3107,2694.8553 2445.4021,2705.8031 2491.5758,2719.1836 C 2587.6025,2747.0111 2583.0819,2746.2334 2583.0819,2734.9276 C 2583.0819,2730.2061 2545.7162,2714.6931 2500.0469,2700.4541 C 2413.3697,2673.4296 2406.5897,2663.7322 2458.973,2641.7067 C 2475.064,2634.941 2484.1975,2626.9136 2479.2697,2623.8681 C 2474.342,2620.8225 2451.4145,2626.7906 2428.3199,2637.1303 C 2384.2936,2656.8414 2334.1461,2661.3028 2312.2992,2647.4521 C 2291.8322,2634.4761 2286.1713,2565.1245 2304.3478,2550.0394 C 2338.8017,2521.4453 2473.7741,2525.1179 2462.5589,2554.3443 C 2458.4329,2565.0968 2466.2665,2568.3478 2496.3014,2568.3478 C 2528.9945,2568.3478 2540.8471,2574.2746 2568.4841,2604.4421 C 2591.9379,2630.0432 2598.7187,2643.9486 2591.8092,2652.2741 C 2584.8383,2660.6735 2593.9753,2675.5334 2623.933,2704.5192 C 2651.4357,2731.1296 2661.5019,2746.7551 2653.2746,2750.0656 C 2646.3866,2752.8373 2627.4353,2766.3093 2611.1605,2780.0037 C 2591.1481,2796.843 2566.0653,2806.3922 2533.6693,2809.505 C 2501.7867,2812.5684 2485.7685,2818.5749 2485.7685,2827.4665 C 2485.7685,2850.6209 2416.6492,2843.6886 2376.6742,2816.5248 z "
       id="path3747" />
    <path
       style="fill:none;stroke:#00ff00;stroke-width:4;stroke-miterlimit:4;stroke-opacity:1"
       d="M 1609.9475,2811.7783 C 1609.9475,2793.0691 1606.071,2790.6941 1583.1863,2795.3835 C 1560.7637,2799.9781 1510.7913,2782.5157 1446.6752,2747.6809 C 1439.6732,2743.8767 1465.4369,2693.3958 1483.7026,2675.1301 C 1500.3648,2658.4678 1501.9612,2651.924 1492.2257,2640.1934 C 1474.7307,2619.1131 1500.301,2597.3441 1550.4595,2590.6163 C 1584.5576,2586.0429 1590.0465,2582.297 1585.1689,2566.929 C 1580.5745,2552.4535 1585.5617,2547.4369 1609.2583,2542.6977 C 1625.6941,2539.4104 1639.1416,2533.3547 1639.1416,2529.2405 C 1639.1416,2518.1695 1714.5576,2537.1098 1741.9557,2555.0617 C 1759.5961,2566.6202 1765.649,2579.2955 1765.649,2604.6777 L 1765.649,2638.7692 L 1681.7579,2631.7811 C 1621.6611,2626.7751 1599.743,2627.8287 1604.4815,2635.4958 C 1608.1196,2641.3823 1624.8509,2646.1986 1641.6622,2646.1986 C 1682.24,2646.1986 1667.5886,2657.5872 1591.1556,2685.4574 C 1516.3926,2712.7188 1526.2924,2721.3982 1608.0003,2700.2255 C 1683.864,2680.5672 1690.4371,2680.9421 1682.9603,2704.4995 C 1674.9899,2729.612 1686.8982,2750.8498 1698.5971,2732.3867 C 1703.1983,2725.125 1707.0301,2709.2368 1707.112,2697.0795 C 1707.2083,2682.7825 1716.2302,2670.8886 1732.6554,2663.4049 C 1754.4546,2653.4725 1759.9654,2654.4542 1771.5808,2670.3391 C 1789.3139,2694.5906 1788.7659,2737.4119 1770.2648,2773.1893 C 1754.5358,2803.6057 1740.8529,2809.8165 1733.8114,2789.7359 C 1730.977,2781.6531 1723.3251,2785.1239 1711.0055,2800.0803 C 1699.0753,2814.5639 1677.7551,2824.5618 1651.2063,2828.1227 C 1613.2756,2833.2104 1609.9475,2831.892 1609.9475,2811.7783 z "
       id="path3745" />
    <path
       style="fill:none;stroke:#00ff00;stroke-width:4;stroke-miterlimit:4;stroke-opacity:1"
       d="M 1280.9403,2764.6284 C 1272.5277,2712.4049 1266.5613,2806.2081 1184.8868,2698.303 C 1207.0574,2655.2022 1250.7868,2604.1508 1284.3457,2611.5316 C 1306.1382,2616.3246 1302.4226,2594.9858 1318.2728,2584.9214 C 1345.3485,2577.8409 1396.6502,2595.1026 1416.8805,2618.1002 C 1425.7668,2628.2021 1439.5304,2636.4672 1447.4662,2636.4672 C 1468.4652,2636.4672 1477.2316,2665.5686 1456.3735,2666.0361 C 1447.175,2666.2423 1430.8908,2680.1084 1420.1863,2696.8497 C 1385.0491,2751.8027 1329.6594,2778.7639 1280.9403,2764.6284 z "
       id="path3743" />
    <path
       style="fill:none;stroke:#feffff;stroke-width:4;stroke-miterlimit:4;stroke-opacity:1"
       d="M 1298.5445,2432.109 L 1299.2876,2520.4342 L 1262.052,2518.5444 C 1241.9811,2517.9137 1105.353,2503.6816 958.43403,2486.9175 L 691.30867,2456.4374 L 649.12292,2350.9557 L 606.93713,2245.474 L 636.02476,2201.5597 C 687.673,2123.5851 688.09378,2034.78 637.20286,1952.9136 L 607.7704,1905.5667 L 649.05296,1798.6324 C 680.00658,1718.453 695.20502,1690.662 709.79817,1687.5567 C 727.4756,1683.7952 1281.7901,1620.6919 1298.7519,1620.6919 C 1298.6828,1651.1245 1298.6136,1676.5034 1298.5445,1711.9896 L 2797.1715,1711.9896 L 2796.3821,1623.0938 C 2813.2843,1623.0938 3368.2173,1683.7892 3385.9204,1687.5465 C 3400.5691,1690.6556 3415.53,1718.2541 3446.3813,1799.0797 L 3487.3769,1906.4815 L 3457.1191,1955.156 C 3406.5058,2036.5758 3409.4892,2124.2712 3465.7718,2209.4966 L 3489.0629,2244.7649 L 3446.728,2350.6011 L 3404.3932,2456.4374 L 3132.4092,2487.2417 C 2981.1112,2505.3587 2903.7834,2514.1952 2797.4876,2517.0348 L 2797.1715,2432.109 L 1298.5445,2432.109"
       id="path3741"
       sodipodi:nodetypes="cccccccccccsccccsccccccccccc" />
    <path
       style="fill:none;stroke:#feffff;stroke-width:4;stroke-miterlimit:4;stroke-opacity:1"
       d="M 2047.858,2354.2583 L 743.47843,2354.2583 L 721.07804,2303.1687 L 698.67769,2252.0792 L 723.70061,2203.829 C 758.20493,2137.2965 759.70012,2010.4215 726.71123,1948.3624 C 714.15111,1924.7341 704.51306,1912.0388 697.57311,1898.4641 L 724.04935,1834.4382 L 743.1662,1789.8403 L 2047.858,1789.8403 L 3155.2737,1789.8403 L 3352.5497,1789.8403 L 3395.243,1894.9815 L 3369.0047,1948.3624 C 3338.0016,2011.437 3337.5111,2137.2965 3372.0153,2203.829 L 3397.0383,2252.0792 L 3374.6379,2303.1687 L 3352.2375,2354.2583 L 2047.858,2354.2583"
       id="path3737"
       sodipodi:nodetypes="cccccscccccccsccccc" />
    <path
       style="fill:none;stroke:#feffff;stroke-width:4;stroke-miterlimit:4;stroke-opacity:1"
       d="M 1484.2885,2236.878 C 1523.3187,2209.0861 1535.5582,2184.3499 1517.6382,2169.4777 C 1506.4295,2160.1752 1497.2521,2162.3297 1472.249,2180.1335 C 1433.5889,2207.6619 1379.4693,2209.772 1360.9697,2184.4724 C 1344.0572,2161.3432 1349.8497,2152.9903 1388.6711,2144.5264 C 1449.7367,2131.2128 1522.3672,2093.4413 1522.329,2075.0176 C 1522.2705,2046.698 1486.6607,1996.3638 1455.1596,1980.074 C 1391.5359,1947.1729 1301.0935,1972.0647 1265.7872,2032.1936 C 1241.1737,2074.1119 1240.9502,2147.2431 1265.3061,2189.6514 C 1292.3911,2236.8118 1359.0422,2269.5321 1413.7164,2262.509 C 1436.9193,2259.5286 1468.6767,2247.9946 1484.2885,2236.878 z "
       id="path3735" />
    <path
       style="fill:none;stroke:#feffff;stroke-width:4;stroke-miterlimit:4;stroke-opacity:1"
       d="M 1344.2601,2104.7897 C 1321.9008,2082.4305 1353.7421,2013.6612 1386.4541,2013.6612 C 1409.1585,2013.6612 1437.44,2053.8029 1429.4343,2074.6656 C 1426.2494,2082.965 1413.4196,2092.3216 1400.9235,2095.4579 C 1388.4275,2098.5943 1372.0939,2103.5047 1364.6269,2106.3701 C 1357.1597,2109.2355 1347.9947,2108.5243 1344.2601,2104.7897 z "
       id="path3733" />
    <path
       style="fill:none;stroke:#feffff;stroke-width:4;stroke-miterlimit:4;stroke-opacity:1"
       d="M 2011.3133,2235.6229 C 2030.4272,2213.5221 2025.4025,2196.6855 2000.9003,2200.7315 C 1986.7388,2203.07 1983.967,2189.6131 1979.7386,2097.9932 C 1974.0239,1974.1656 1964.0653,1958.7685 1897.0222,1970.1029 C 1875.6132,1973.7223 1826.3483,1975.921 1787.5446,1974.9889 C 1722.0951,1973.4166 1716.9923,1974.7539 1716.9923,1993.4776 C 1716.9923,2004.5786 1721.3714,2013.6612 1726.7237,2013.6612 C 1732.5555,2013.6612 1736.455,2052.2396 1736.455,2109.9335 C 1736.455,2186.5318 1733.472,2207.3505 1721.858,2211.8073 C 1713.8296,2214.888 1707.261,2226.3042 1707.261,2237.1768 C 1707.261,2255.3993 1713.3476,2256.9448 1785.1117,2256.9448 C 1856.8758,2256.9448 1862.9625,2255.3993 1862.9625,2237.1768 C 1862.9625,2226.3042 1856.3938,2214.888 1848.3655,2211.8073 C 1837.1329,2207.4969 1833.8028,2189.0632 1833.9174,2131.829 C 1834.0815,2049.9579 1841.4866,2029.4525 1868.9943,2034.698 C 1885.0756,2037.7645 1887.88,2050.1592 1892.1565,2137.0695 C 1894.8326,2191.4547 1899.3721,2238.2812 1902.2442,2241.1282 C 1914.9539,2253.7263 1957.0995,2264.8268 1974.8729,2260.2574 C 1985.5774,2257.5053 2001.9756,2246.4198 2011.3133,2235.6229 z "
       id="path3731" />
    <path
       style="fill:none;stroke:#feffff;stroke-width:4;stroke-miterlimit:4;stroke-opacity:1"
       d="M 2249.3087,2246.2656 C 2294.6948,2224.2945 2314.0386,2199.3669 2304.6626,2174.9333 C 2297.3158,2155.7878 2277.7144,2155.2305 2262.3607,2173.7306 C 2255.925,2181.4852 2235.5163,2192.8275 2217.0081,2198.9358 C 2189.0828,2208.152 2179.1774,2207.3032 2158.7943,2193.9476 C 2125.3439,2172.0301 2132.7361,2159.196 2190.0269,2139.7222 C 2303.9355,2101.0035 2323.8103,2074.6402 2280.551,2019.6448 C 2223.7596,1947.4463 2124.6632,1946.5953 2058.2007,2017.7356 C 2040.117,2037.092 2033.6337,2056.381 2030.9054,2098.9438 C 2026.1388,2173.3066 2047.8358,2215.513 2105.8752,2244.7806 C 2159.9263,2272.0371 2195.3151,2272.4034 2249.3087,2246.2656 z "
       id="path3729" />
    <path
       style="fill:none;stroke:#feffff;stroke-width:4;stroke-miterlimit:4;stroke-opacity:1"
       d="M 2125.7088,2074.1809 C 2125.7088,2014.4531 2167.7405,1991.8849 2198.1421,2035.2892 C 2225.231,2073.9641 2214.6642,2090.0808 2152.47,2104.9482 C 2126.8307,2111.0772 2125.7088,2109.7873 2125.7088,2074.1809 z "
       id="path3727" />
    <path
       style="fill:none;stroke:#feffff;stroke-width:4;stroke-miterlimit:4;stroke-opacity:1"
       d="M 2865.469,2233.6537 C 2889.3644,2217.8404 2904.2163,2200.4878 2904.2163,2188.382 C 2904.2163,2159.745 2880.3307,2155.1951 2848.9287,2177.8501 C 2806.1952,2208.6805 2775.2288,2212.4397 2747.8995,2190.1149 C 2719.9811,2167.309 2726.7265,2157.5654 2782.5745,2140.0274 C 2839.6873,2122.0921 2891.3178,2094.3391 2897.4889,2078.2573 C 2904.8028,2059.1976 2857.8302,1988.6258 2829.1248,1975.5468 C 2789.6617,1957.5662 2725.3987,1962.8669 2689.133,1987.094 C 2588.5481,2054.2891 2605.8561,2208.5906 2719.3257,2256.2636 C 2757.1743,2272.1653 2822.5602,2262.0494 2865.469,2233.6537 z "
       id="path3725" />
    <path
       style="fill:none;stroke:#feffff;stroke-width:4;stroke-miterlimit:4;stroke-opacity:1"
       d="M 2724.9189,2103.5977 C 2714.6871,2093.3659 2719.1349,2046.8293 2732.0302,2029.194 C 2750.8704,2003.4284 2789.8039,2012.5017 2801.3047,2045.3382 C 2807.4837,2062.9804 2807.3263,2075.5184 2800.8441,2082.0006 C 2787.9419,2094.9028 2732.1066,2110.7853 2724.9189,2103.5977 z "
       id="path3723" />
    <path
       style="fill:none;stroke:#feffff;stroke-width:4;stroke-miterlimit:4;stroke-opacity:1"
       d="M 3213.1865,2244.6164 C 3219.8768,2239.3819 3225.3506,2226.3663 3225.3506,2215.6929 C 3225.3506,2201.0779 3220.5457,2197.5433 3205.888,2201.3764 C 3187.3524,2206.2236 3186.4253,2201.675 3186.4253,2105.8931 C 3186.4253,2027.479 3183.0592,2001.954 3171.1477,1990.0426 C 3150.3219,1969.2167 3113.9961,1961.326 3081.8133,1970.6372 C 3067.0947,1974.8956 3026.0126,1977.1377 2990.5199,1975.6195 C 2920.3111,1972.6162 2901.4385,1983.7092 2927.5914,2012.6078 C 2949.2065,2036.4924 2949.9569,2190.5175 2928.5446,2208.2881 C 2920.5163,2214.9511 2913.9476,2228.6246 2913.9476,2238.6736 C 2913.9476,2254.9303 2922.0284,2256.9448 2987.2381,2256.9448 C 3046.2723,2256.9448 3061.7232,2253.8317 3066.67,2240.9406 C 3070.3372,2231.3841 3066.1282,2220.0494 3056.2226,2212.8063 C 3042.4422,2202.7299 3040.1152,2186.9046 3042.4773,2119.3329 C 3045.257,2039.8126 3045.866,2037.9896 3069.6491,2037.9896 C 3093.7801,2037.9896 3094.0003,2038.7747 3096.7855,2134.758 C 3098.3299,2187.9805 3104.1217,2236.9826 3109.6563,2243.6513 C 3127.7237,2265.4211 3185.9028,2265.9634 3213.1865,2244.6164 z "
       id="path3721" />
    <path
       style="fill:none;stroke:#feffff;stroke-width:4;stroke-miterlimit:4;stroke-opacity:1"
       d="M 1055.2609,2237.1768 C 1055.2609,2226.3042 1048.6923,2214.888 1040.6639,2211.8073 C 1029.7951,2207.6365 1026.0669,2190.3163 1026.0669,2143.9932 L 1026.0669,2081.7806 L 1064.9923,2081.7806 L 1103.9176,2081.7806 L 1103.9176,2143.9932 C 1103.9176,2190.3163 1100.1895,2207.6365 1089.3206,2211.8073 C 1081.2923,2214.888 1074.7236,2226.3042 1074.7236,2237.1768 C 1074.7236,2255.4765 1080.7905,2256.9448 1156.3989,2256.9448 C 1245.0903,2256.9448 1265.3025,2244.7174 1229.7688,2212.5599 C 1212.854,2197.2522 1210.9624,2181.5653 1210.9624,2056.5998 C 1210.9624,1924.9255 1212.0092,1917.3271 1230.9785,1911.3065 C 1242.761,1907.5669 1249.722,1898.2903 1247.9008,1888.7552 C 1245.3673,1875.4907 1230.2849,1872.0448 1164.6309,1869.7304 C 1090.2421,1867.108 1084.455,1868.2958 1084.455,1886.1859 C 1084.455,1896.7909 1088.8341,1908.1742 1094.1863,1911.4821 C 1099.5385,1914.79 1103.9176,1939.1335 1103.9176,1965.5789 L 1103.9176,2013.6612 L 1064.9923,2013.6612 C 1027.8005,2013.6612 1026.0155,2012.2526 1024.9139,1982.0344 C 1023.278,1937.16 1026.1182,1923.213 1040.2724,1906.6165 C 1065.1329,1877.4662 1046.9606,1867.6911 967.90897,1867.6911 C 909.13077,1867.6911 890.63351,1871.0184 886.2754,1882.3755 C 882.97159,1890.9851 888.57948,1902.0178 899.83128,1909.0446 C 917.52324,1920.0935 919.02207,1932.247 919.02207,2064.6588 C 919.02207,2143.655 915.73771,2208.3552 911.72353,2208.4371 C 893.73924,2208.8044 879.97654,2225.8459 885.6739,2240.693 C 890.81417,2254.0883 906.26621,2256.9448 973.5856,2256.9448 C 1049.194,2256.9448 1055.2609,2255.4765 1055.2609,2237.1768 z "
       id="path3719" />
    <path
       style="fill:none;stroke:#feffff;stroke-width:4;stroke-miterlimit:4;stroke-opacity:1"
       d="M 1687.7983,2238.6736 C 1687.7983,2228.6246 1681.2296,2214.9511 1673.2013,2208.2881 C 1661.7913,2198.8186 1658.6043,2171.9998 1658.6043,2085.4548 L 1658.6043,1974.7359 L 1600.2162,1974.7359 C 1548.9075,1974.7359 1541.8281,1977.026 1541.8281,1993.6242 C 1541.8281,2004.0128 1546.2072,2015.219 1551.5595,2018.5269 C 1556.9117,2021.8348 1561.2908,2064.3067 1561.2908,2112.909 C 1561.2908,2184.0652 1558.1398,2203.581 1545.1127,2213.1066 C 1535.5295,2220.1139 1531.4381,2231.4605 1535.0759,2240.9406 C 1540.0227,2253.8317 1555.4736,2256.9448 1614.5078,2256.9448 C 1679.7175,2256.9448 1687.7983,2254.9303 1687.7983,2238.6736 z "
       id="path3717" />
    <path
       style="fill:none;stroke:#feffff;stroke-width:4;stroke-miterlimit:4;stroke-opacity:1"
       d="M 2466.3058,2238.6736 C 2466.3058,2228.6246 2459.5158,2214.7673 2451.2168,2207.8798 C 2434.3438,2193.8765 2435.7878,2148.5654 2453.29,2142.825 C 2459.512,2140.7842 2478.7333,2165.6264 2496.0041,2198.0297 L 2527.4055,2256.9448 L 2579.5721,2256.9448 C 2625.5197,2256.9448 2631.7387,2254.5882 2631.7387,2237.1768 C 2631.7387,2226.3042 2625.1093,2214.8646 2617.0067,2211.7555 C 2599.6348,2205.0892 2534.4252,2092.0393 2534.4252,2068.5888 C 2534.4252,2059.6858 2551.7754,2040.4007 2572.9813,2025.733 C 2594.1872,2011.0651 2611.7036,1991.4008 2611.9067,1982.0344 C 2612.224,1967.4022 2602.6853,1965.0045 2544.1566,1965.0045 C 2483.2151,1965.0045 2476.0372,1966.9949 2476.0372,1983.8929 C 2476.0372,1994.2815 2480.7456,2005.6913 2486.5004,2009.2479 C 2497.0769,2015.7845 2461.1259,2062.318 2445.4992,2062.318 C 2441.2738,2062.318 2436.5632,2019.6217 2435.0313,1967.4374 L 2432.2461,1872.5567 L 2376.1731,1869.6348 C 2311.7492,1866.2776 2295.7194,1882.0002 2329.3146,1915.5954 C 2347.7071,1933.9879 2349.5297,1947.216 2349.5297,2062.318 C 2349.5297,2175.3666 2347.4826,2190.8725 2330.2877,2208.0674 C 2295.6211,2242.7339 2314.2502,2256.9448 2394.3619,2256.9448 C 2458.2543,2256.9448 2466.3058,2254.9001 2466.3058,2238.6736 z "
       id="path3715" />
    <path
       style="fill:none;stroke:#feffff;stroke-width:4;stroke-miterlimit:4;stroke-opacity:1"
       d="M 1639.1416,1945.5418 C 1679.0345,1905.6489 1651.1279,1862.2036 1588.3944,1866.5381 C 1547.4723,1869.3655 1544.0496,1939.1593 1584.0421,1955.2865 C 1614.5072,1967.5716 1617.6714,1967.012 1639.1416,1945.5418 z "
       id="path3713" />
    <path
       style="fill:none;stroke:#fe0000;stroke-width:4;stroke-miterlimit:4;stroke-opacity:1;display:inline"
       d="M 1914.3025,1381.7214 L 1711.8342,1235.1899 L 1960.9313,1233.9219 L 2035.2145,996.9307 L 2113.1358,1235.6855 L 2362.0718,1237.559 L 2158.4439,1375.9045 L 2236.6788,1616.5867 L 2034.0819,1462.9468 L 1837.9108,1612.9768 L 1914.3025,1381.7214"
       id="path2348"
       sodipodi:nodetypes="ccccccccccc" />
  </g>
</svg>
