<?xml version="1.0" encoding="UTF-8" standalone="no"?>
<!-- Created with Inkscape (http://www.inkscape.org/) -->
<svg
   xmlns:dc="http://purl.org/dc/elements/1.1/"
   xmlns:cc="http://web.resource.org/cc/"
   xmlns:rdf="http://www.w3.org/1999/02/22-rdf-syntax-ns#"
   xmlns:svg="http://www.w3.org/2000/svg"
   xmlns="http://www.w3.org/2000/svg"
   xmlns:sodipodi="http://sodipodi.sourceforge.net/DTD/sodipodi-0.dtd"
   xmlns:inkscape="http://www.inkscape.org/namespaces/inkscape"
   width="4096"
   height="4096"
   id="svg2"
   sodipodi:version="0.32"
   inkscape:version="0.45.1"
   sodipodi:docbase="E:\laser graphics\company logos"
   sodipodi:docname="ibm_logo.svg"
   inkscape:output_extension="org.inkscape.output.svg.inkscape"
   version="1.0">
  <defs
     id="defs4">
    <marker
       inkscape:stockid="Arrow1Lend"
       orient="auto"
       refY="0.0"
       refX="0.0"
       id="Arrow1Lend"
       style="overflow:visible;">
      <path
         id="path3173"
         d="M 0.0,0.0 L 5.0,-5.0 L -12.5,0.0 L 5.0,5.0 L 0.0,0.0 z "
         style="fill-rule:evenodd;stroke:#000000;stroke-width:1.0pt;marker-start:none;"
         transform="scale(0.8) rotate(180) translate(12.5,0)" />
    </marker>
  </defs>
  <sodipodi:namedview
     id="base"
     pagecolor="#000000"
     bordercolor="#666666"
     borderopacity="1.0"
     gridtolerance="50"
     guidetolerance="10"
     objecttolerance="10"
     inkscape:pageopacity="0.80392157"
     inkscape:pageshadow="2"
     inkscape:zoom="0.72207254"
     inkscape:cx="3019.4136"
     inkscape:cy="1572.5946"
     inkscape:document-units="px"
     inkscape:current-layer="layer1"
     showguides="true"
     inkscape:guide-bbox="true"
     inkscape:window-width="1032"
     inkscape:window-height="929"
     inkscape:window-x="22"
     inkscape:window-y="22"
     width="4096px"
     height="4096px"
     showgrid="true"
     inkscape:object-paths="true"
     inkscape:grid-bbox="false"
     gridempspacing="20"
     gridcolor="#ffffff"
     gridopacity="0.12941176"
     gridempcolor="#ffffff"
     gridempopacity="0.40784314"
     guidecolor="#ffffff"
     guideopacity="0.28627451"
     guidehicolor="#ff0000"
     guidehiopacity="0.64313725"
     borderlayer="false"
     showborder="true"
     inkscape:showpageshadow="true">
    <sodipodi:guide
       orientation="horizontal"
       position="410"
       id="guide2164" />
    <sodipodi:guide
       orientation="vertical"
       position="411.12022"
       id="guide2166" />
  </sodipodi:namedview>
  <metadata
     id="metadata7">
    <rdf:RDF>
      <cc:Work
         rdf:about="">
        <dc:format>image/svg+xml</dc:format>
        <dc:type
           rdf:resource="http://purl.org/dc/dcmitype/StillImage" />
      </cc:Work>
    </rdf:RDF>
  </metadata>
  <g
     inkscape:label="Layer 1"
     inkscape:groupmode="layer"
     id="layer1">
    <path
       style="fill:none;fill-opacity:1;stroke:#00b4ff;stroke-width:6;stroke-miterlimit:4;stroke-opacity:1"
       d="M 259.88875,2714.358 L 259.88875,2666.5625 L 608.51422,2666.5625 L 957.13969,2666.5625 L 957.13969,2714.358 L 957.13969,2762.1534 L 608.51422,2762.1534 L 259.88875,2762.1534 L 259.88875,2714.358 z "
       id="path5476" />
    <path
       style="fill:none;fill-opacity:1;stroke:#00b4ff;stroke-width:6;stroke-miterlimit:4;stroke-opacity:1"
       d="M 1058.3535,2714.6384 L 1058.3535,2666.5625 L 1551.7711,2666.5905 L 2045.1886,2666.6184 L 2028.3196,2680.4381 C 1999.7784,2703.82 1938.2858,2733.7427 1892.2459,2746.6523 C 1849.3615,2758.6771 1839.5796,2758.9932 1453.3687,2760.8328 L 1058.3535,2762.7144 L 1058.3535,2714.6384 z "
       id="path5474" />
    <path
       style="fill:none;fill-opacity:1;stroke:#00b4ff;stroke-width:6;stroke-miterlimit:4;stroke-opacity:1"
       d="M 2250.4278,2714.358 L 2250.4278,2666.5625 L 2497.8394,2666.5625 L 2745.251,2666.5625 L 2745.251,2714.358 L 2745.251,2762.1534 L 2497.8394,2762.1534 L 2250.4278,2762.1534 L 2250.4278,2714.358 z "
       id="path5472" />
    <path
       style="fill:none;fill-opacity:1;stroke:#00b4ff;stroke-width:6;stroke-miterlimit:4;stroke-opacity:1"
       d="M 3007.8204,2665.2819 L 3078.3924,2663.8361 L 3043.9146,2762.1534 L 3007.8204,2665.2819 z "
       id="path5470"
       sodipodi:nodetypes="cccc" />
    <path
       style="fill:none;fill-opacity:1;stroke:#00b4ff;stroke-width:6;stroke-miterlimit:4;stroke-opacity:1"
       d="M 3341.2881,2714.358 L 3341.2881,2666.5625 L 3588.6997,2666.5625 L 3836.1113,2666.5625 L 3836.1113,2714.358 L 3836.1113,2762.1534 L 3588.6997,2762.1534 L 3341.2881,2762.1534 L 3341.2881,2714.358 z "
       id="path5468" />
    <path
       style="fill:none;fill-opacity:1;stroke:#00b4ff;stroke-width:6;stroke-miterlimit:4;stroke-opacity:1"
       d="M 259.88875,2523.1763 L 259.88875,2475.3808 L 608.51422,2475.3808 L 957.13969,2475.3808 L 957.13969,2523.1763 L 957.13969,2570.9717 L 608.51422,2570.9717 L 259.88875,2570.9717 L 259.88875,2523.1763 z "
       id="path5466" />
    <path
       style="fill:none;fill-opacity:1;stroke:#00b4ff;stroke-width:6;stroke-miterlimit:4;stroke-opacity:1"
       d="M 1058.3535,2523.1763 L 1058.3535,2475.3808 L 1607.2981,2475.3808 L 2156.2426,2475.3808 L 2153.1209,2490.9894 C 2151.404,2499.5742 2144.58,2521.0821 2137.9566,2538.7848 L 2125.9139,2570.9717 L 1592.1337,2570.9717 L 1058.3535,2570.9717 L 1058.3535,2523.1763 z "
       id="path5464" />
    <path
       style="fill:none;fill-opacity:1;stroke:#00b4ff;stroke-width:6;stroke-miterlimit:4;stroke-opacity:1"
       d="M 2250.4278,2523.1763 L 2250.4278,2475.3808 L 2497.8394,2475.3808 L 2745.251,2475.3808 L 2745.251,2523.1763 L 2745.251,2570.9717 L 2497.8394,2570.9717 L 2250.4278,2570.9717 L 2250.4278,2523.1763 z "
       id="path5462" />
    <path
       style="fill:none;fill-opacity:1;stroke:#00b4ff;stroke-width:6;stroke-miterlimit:4;stroke-opacity:1;marker-end:url(#Arrow1Lend)"
       d="M 2940.7487,2476.87 L 3144.5491,2479.5981 L 3114.422,2570.9717 L 2972.3843,2570.9717 L 2940.7487,2476.87"
       id="path5460"
       sodipodi:nodetypes="ccccc" />
    <path
       style="fill:none;fill-opacity:1;stroke:#00b4ff;stroke-width:6;stroke-miterlimit:4;stroke-opacity:1"
       d="M 3341.2881,2523.1763 L 3341.2881,2475.3808 L 3588.6997,2475.3808 L 3836.1113,2475.3808 L 3836.1113,2523.1763 L 3836.1113,2570.9717 L 3588.6997,2570.9717 L 3341.2881,2570.9717 L 3341.2881,2523.1763 z "
       id="path5458" />
    <path
       style="fill:none;fill-opacity:1;stroke:#00b4ff;stroke-width:6;stroke-miterlimit:4;stroke-opacity:1"
       d="M 462.31644,2331.9946 L 462.31644,2284.1991 L 608.51422,2284.1991 L 754.71199,2284.1991 L 754.71199,2331.9946 L 754.71199,2379.79 L 608.51422,2379.79 L 462.31644,2379.79 L 462.31644,2331.9946 z "
       id="path5456" />
    <path
       style="fill:none;fill-opacity:1;stroke:#00b4ff;stroke-width:6;stroke-miterlimit:4;stroke-opacity:1"
       d="M 1255.1583,2331.9946 L 1255.1583,2284.1991 L 1404.1675,2284.1991 L 1553.1768,2284.1991 L 1553.1768,2331.9946 L 1553.1768,2379.79 L 1404.1675,2379.79 L 1255.1583,2379.79 L 1255.1583,2331.9946 z "
       id="path5454" />
    <path
       style="fill:none;fill-opacity:1;stroke:#00b4ff;stroke-width:6;stroke-miterlimit:4;stroke-opacity:1"
       d="M 1851.1954,2331.9946 L 1851.1954,2284.1991 L 2002.2399,2284.1991 L 2153.2844,2284.1991 L 2159.6836,2316.0634 C 2163.2032,2333.5887 2166.0829,2355.0967 2166.0829,2363.8588 L 2166.0829,2379.79 L 2008.6391,2379.79 L 1851.1954,2379.79 L 1851.1954,2331.9946 z "
       id="path5452" />
    <path
       style="fill:none;fill-opacity:1;stroke:#00b4ff;stroke-width:6;stroke-miterlimit:4;stroke-opacity:1"
       d="M 2447.2324,2331.9946 L 2447.2324,2284.1991 L 2596.2417,2284.1991 L 2745.251,2284.1991 L 2745.251,2331.9946 L 2745.251,2379.79 L 2596.2417,2379.79 L 2447.2324,2379.79 L 2447.2324,2331.9946 z "
       id="path5450" />
    <path
       style="fill:none;fill-opacity:1;stroke:#00b4ff;stroke-width:6;stroke-miterlimit:4;stroke-opacity:1"
       d="M 2901.9624,2364.3268 L 2874.5798,2286.1304 L 3043.6818,2284.1991 L 3210.9007,2284.3034 L 3195.3241,2339.0233 L 3181.6307,2379.79 L 3044.8351,2379.79 L 2908.0394,2379.79 L 2901.9624,2364.3268 z "
       id="path5448"
       sodipodi:nodetypes="ccccccccc" />
    <path
       style="fill:none;fill-opacity:1;stroke:#00b4ff;stroke-width:6;stroke-miterlimit:4;stroke-opacity:1"
       d="M 3341.2881,2331.9946 L 3341.2881,2284.1991 L 3490.2974,2284.1991 L 3639.3066,2284.1991 L 3639.3066,2331.9946 L 3639.3066,2379.79 L 3490.2974,2379.79 L 3341.2881,2379.79 L 3341.2881,2331.9946 z "
       id="path5446" />
    <path
       style="fill:none;fill-opacity:1;stroke:#00b4ff;stroke-width:6;stroke-miterlimit:4;stroke-opacity:1"
       d="M 462.31644,2143.6244 L 462.31644,2093.0174 L 608.51422,2093.0174 L 754.71199,2093.0174 L 754.71199,2143.6244 L 754.71199,2194.2313 L 608.51422,2194.2313 L 462.31644,2194.2313 L 462.31644,2143.6244 z "
       id="path5444" />
    <path
       style="fill:none;fill-opacity:1;stroke:#00b4ff;stroke-width:6;stroke-miterlimit:4;stroke-opacity:1"
       d="M 1255.1583,2143.6244 L 1255.1583,2093.0174 L 1637.0345,2093.0174 L 2018.9108,2093.0174 L 2061.5704,2138.9364 C 2085.0331,2164.1919 2104.23,2186.965 2104.23,2189.5433 C 2104.23,2192.1217 1913.1888,2194.2313 1679.6941,2194.2313 L 1255.1583,2194.2313 L 1255.1583,2143.6244 z "
       id="path5442" />
    <path
       style="fill:none;fill-opacity:1;stroke:#00b4ff;stroke-width:6;stroke-miterlimit:4;stroke-opacity:1"
       d="M 2447.2324,2143.6244 L 2447.2324,2093.0174 L 2596.2417,2093.0174 L 2745.251,2093.0174 L 2745.251,2143.6244 L 2745.251,2194.2313 L 2596.2417,2194.2313 L 2447.2324,2194.2313 L 2447.2324,2143.6244 z "
       id="path5440" />
    <path
       style="fill:none;fill-opacity:1;stroke:#00b4ff;stroke-width:6;stroke-miterlimit:4;stroke-opacity:1"
       d="M 2826.7808,2150.6531 L 2808.9815,2093.1913 L 3042.801,2093.0174 L 3279.4352,2094.8441 L 3245.5605,2194.1837 L 3043.1297,2194.2313 L 2841.7654,2194.2313 L 2826.7808,2150.6531 z "
       id="path5438"
       sodipodi:nodetypes="cccccccc" />
    <path
       style="fill:none;fill-opacity:1;stroke:#00b4ff;stroke-width:6;stroke-miterlimit:4;stroke-opacity:1"
       d="M 3341.2881,2143.6244 L 3341.2881,2093.0174 L 3490.2974,2093.0174 L 3639.3066,2093.0174 L 3639.3066,2143.6244 L 3639.3066,2194.2313 L 3490.2974,2194.2313 L 3341.2881,2194.2313 L 3341.2881,2143.6244 z "
       id="path5436" />
    <path
       style="fill:none;fill-opacity:1;stroke:#00b4ff;stroke-width:6;stroke-miterlimit:4;stroke-opacity:1"
       d="M 462.31644,1955.2542 L 462.31644,1907.4587 L 608.51422,1907.4587 L 754.71199,1907.4587 L 754.71199,1955.2542 L 754.71199,2003.0496 L 608.51422,2003.0496 L 462.31644,2003.0496 L 462.31644,1955.2542 z "
       id="path5434" />
    <path
       style="fill:none;fill-opacity:1;stroke:#00b4ff;stroke-width:6;stroke-miterlimit:4;stroke-opacity:1"
       d="M 1255.1583,1955.2542 L 1255.1583,1907.4587 L 1680.1666,1907.4587 L 2105.175,1907.4587 L 2087.4889,1929.7891 C 2077.7616,1942.0709 2058.6658,1963.5789 2045.0538,1977.5846 L 2020.3046,2003.0496 L 1637.7314,2003.0496 L 1255.1583,2003.0496 L 1255.1583,1955.2542 z "
       id="path5432" />
    <path
       style="fill:none;fill-opacity:1;stroke:#00b4ff;stroke-width:6;stroke-miterlimit:4;stroke-opacity:1"
       d="M 2447.2324,1955.2542 L 2447.2324,1907.4587 L 2730.2035,1907.4587 L 3013.1746,1907.4587 L 3026.4006,1949.6312 C 3033.6748,1972.826 3041.0788,1991.7982 3042.8538,1991.7917 C 3044.6288,1991.7851 3052.5444,1973.4401 3060.4442,1951.025 L 3074.8073,1910.2702 L 3357.057,1908.8125 L 3639.3066,1907.3547 L 3639.3066,1955.2021 L 3639.3066,2003.0496 L 3490.2974,2003.0496 L 3341.2881,2003.0496 L 3340.8441,1962.2829 L 3340.4003,1921.5162 L 3326.3181,1962.2829 L 3312.2359,2003.0496 L 3043.8408,2003.0496 L 2775.4457,2003.0496 L 2761.7541,1965.0944 L 2748.0625,1927.1392 L 2746.3998,1965.0944 L 2744.7372,2003.0496 L 2595.9848,2003.0496 L 2447.2324,2003.0496 L 2447.2324,1955.2542 z "
       id="path5430" />
    <path
       style="fill:none;fill-opacity:1;stroke:#00b4ff;stroke-width:6;stroke-miterlimit:4;stroke-opacity:1"
       d="M 462.31644,1764.0724 L 462.31644,1716.277 L 608.51422,1716.277 L 754.71199,1716.277 L 754.71199,1764.0724 L 754.71199,1811.8679 L 608.51422,1811.8679 L 462.31644,1811.8679 L 462.31644,1764.0724 z "
       id="path5428" />
    <path
       style="fill:none;fill-opacity:1;stroke:#00b4ff;stroke-width:6;stroke-miterlimit:4;stroke-opacity:1"
       d="M 1255.1583,1764.0724 L 1255.1583,1716.277 L 1404.1675,1716.277 L 1553.1768,1716.277 L 1553.1768,1764.0724 L 1553.1768,1811.8679 L 1404.1675,1811.8679 L 1255.1583,1811.8679 L 1255.1583,1764.0724 z "
       id="path5426" />
    <path
       style="fill:none;fill-opacity:1;stroke:#00b4ff;stroke-width:6;stroke-miterlimit:4;stroke-opacity:1"
       d="M 1851.1954,1764.1643 L 1851.1954,1716.277 L 2008.6391,1716.277 L 2166.0829,1716.277 L 2165.5431,1734.5517 C 2165.2462,1744.6028 2162.0665,1765.4782 2158.477,1780.9414 L 2151.9507,1809.0564 L 2001.573,1810.5539 L 1851.1954,1812.0516 L 1851.1954,1764.1643 z "
       id="path5424" />
    <path
       style="fill:none;fill-opacity:1;stroke:#00b4ff;stroke-width:6;stroke-miterlimit:4;stroke-opacity:1"
       d="M 2447.2324,1764.014 L 2447.2324,1716.1601 L 2695.6324,1717.6243 L 2944.0322,1719.0885 L 2959.6208,1761.261 C 2968.1945,1784.4558 2975.3408,1805.3311 2975.5015,1807.6506 C 2975.6622,1809.9701 2856.8674,1811.8679 2711.513,1811.8679 L 2447.2324,1811.8679 L 2447.2324,1764.014 z "
       id="path5422" />
    <path
       style="fill:none;fill-opacity:1;stroke:#00b4ff;stroke-width:6;stroke-miterlimit:4;stroke-opacity:1"
       d="M 3110.7454,1810.1483 C 3110.7454,1809.2025 3118.0736,1788.3272 3127.0302,1763.7586 L 3143.315,1719.0885 L 3391.3108,1717.6243 L 3639.3066,1716.1601 L 3639.3066,1764.014 L 3639.3066,1811.8679 L 3375.026,1811.8679 C 3229.6717,1811.8679 3110.7454,1811.0941 3110.7454,1810.1483 z "
       id="path5420" />
    <path
       style="fill:none;fill-opacity:1;stroke:#00b4ff;stroke-width:6;stroke-miterlimit:4;stroke-opacity:1"
       d="M 259.88875,1572.8907 L 259.88875,1525.0953 L 608.51422,1525.0953 L 957.13969,1525.0953 L 957.13969,1572.8907 L 957.13969,1620.6862 L 608.51422,1620.6862 L 259.88875,1620.6862 L 259.88875,1572.8907 z "
       id="path5418" />
    <path
       style="fill:none;fill-opacity:1;stroke:#00b4ff;stroke-width:6;stroke-miterlimit:4;stroke-opacity:1"
       d="M 1058.3535,1572.8907 L 1058.3535,1525.0953 L 1592.4623,1525.0953 L 2126.571,1525.0953 L 2135.0329,1545.3474 C 2139.6869,1556.4861 2147.1755,1577.994 2151.6742,1593.1428 L 2159.8537,1620.6862 L 1609.1037,1620.6862 L 1058.3535,1620.6862 L 1058.3535,1572.8907 z "
       id="path5416" />
    <path
       style="fill:none;fill-opacity:1;stroke:#00b4ff;stroke-width:6;stroke-miterlimit:4;stroke-opacity:1"
       d="M 2250.4278,1572.8435 L 2250.4278,1525.0009 L 2563.4917,1526.4539 L 2876.5556,1527.9068 L 2892.1445,1570.0793 C 2900.7184,1593.2741 2907.8649,1614.1494 2908.0256,1616.4689 C 2908.1863,1618.7884 2760.2925,1620.6862 2579.3727,1620.6862 L 2250.4278,1620.6862 L 2250.4278,1572.8435 z "
       id="path5414" />
    <path
       style="fill:none;fill-opacity:1;stroke:#00b4ff;stroke-width:6;stroke-miterlimit:4;stroke-opacity:1"
       d="M 3178.3732,1619.2804 C 3178.4567,1618.5073 3185.7466,1597.6319 3194.573,1572.8907 L 3210.621,1527.9068 L 3523.3662,1526.4539 L 3836.1113,1525.0009 L 3836.1113,1572.8435 L 3836.1113,1620.6862 L 3507.1663,1620.6862 C 3326.2466,1620.6862 3178.2897,1620.0536 3178.3732,1619.2804 z "
       id="path5412" />
    <path
       style="fill:none;fill-opacity:1;stroke:#00b4ff;stroke-width:6;stroke-miterlimit:4;stroke-opacity:1"
       d="M 259.88875,1381.709 L 259.88875,1333.9136 L 608.51422,1333.9136 L 957.13969,1333.9136 L 957.13969,1381.709 L 957.13969,1429.5045 L 608.51422,1429.5045 L 259.88875,1429.5045 L 259.88875,1381.709 z "
       id="path5410" />
    <path
       style="fill:none;fill-opacity:1;stroke:#00b4ff;stroke-width:6;stroke-miterlimit:4;stroke-opacity:1"
       d="M 1058.3535,1381.395 L 1058.3535,1333.2856 L 1450.5572,1335.4104 C 1880.0617,1337.7372 1878.1679,1337.5989 1952.8416,1372.0959 C 1972.706,1381.2727 2001.6023,1397.9437 2017.0556,1409.1427 L 2045.1526,1429.5045 L 1551.7531,1429.5045 L 1058.3535,1429.5045 L 1058.3535,1381.395 z "
       id="path5408" />
    <path
       style="fill:none;fill-opacity:1;stroke:#00b4ff;stroke-width:6;stroke-miterlimit:4;stroke-opacity:1"
       d="M 2250.4278,1381.6566 L 2250.4278,1333.8086 L 2529.3498,1335.2669 L 2808.2719,1336.7251 L 2824.5568,1381.3952 C 2833.5136,1405.9638 2840.8418,1426.8391 2840.8418,1427.7849 C 2840.8418,1428.7307 2707.9987,1429.5045 2545.6348,1429.5045 L 2250.4278,1429.5045 L 2250.4278,1381.6566 z "
       id="path5406" />
    <path
       style="fill:none;fill-opacity:1;stroke:#00b4ff;stroke-width:6;stroke-miterlimit:4;stroke-opacity:1"
       d="M 3260.4778,1390.57 L 3280.5512,1334.9404 L 3836.1113,1333.9136 L 3836.1113,1381.709 L 3836.1113,1429.5045 L 3541.2392,1429.5045 L 3246.3672,1429.5045 L 3260.4778,1390.57 z "
       id="path5356"
       sodipodi:nodetypes="cccccccc" />
  </g>
</svg>
