<?xml version="1.0" encoding="UTF-8" standalone="no"?>
<!-- Created with Inkscape (http://www.inkscape.org/) -->
<svg
   xmlns:dc="http://purl.org/dc/elements/1.1/"
   xmlns:cc="http://web.resource.org/cc/"
   xmlns:rdf="http://www.w3.org/1999/02/22-rdf-syntax-ns#"
   xmlns:svg="http://www.w3.org/2000/svg"
   xmlns="http://www.w3.org/2000/svg"
   xmlns:sodipodi="http://sodipodi.sourceforge.net/DTD/sodipodi-0.dtd"
   xmlns:inkscape="http://www.inkscape.org/namespaces/inkscape"
   width="4096"
   height="4096"
   id="svg2"
   sodipodi:version="0.32"
   inkscape:version="0.45.1"
   sodipodi:docbase="E:\laser graphics"
   sodipodi:docname="no_phone.svg"
   inkscape:output_extension="org.inkscape.output.svg.inkscape"
   version="1.0">
  <defs
     id="defs4">
    <marker
       inkscape:stockid="Arrow1Lend"
       orient="auto"
       refY="0.0"
       refX="0.0"
       id="Arrow1Lend"
       style="overflow:visible;">
      <path
         id="path3153"
         d="M 0.0,0.0 L 5.0,-5.0 L -12.5,0.0 L 5.0,5.0 L 0.0,0.0 z "
         style="fill-rule:evenodd;stroke:#000000;stroke-width:1.0pt;marker-start:none;"
         transform="scale(0.8) rotate(180) translate(12.5,0)" />
    </marker>
  </defs>
  <sodipodi:namedview
     id="base"
     pagecolor="#000000"
     bordercolor="#666666"
     borderopacity="1.0"
     gridtolerance="50"
     guidetolerance="10"
     objecttolerance="10"
     inkscape:pageopacity="0.77254902"
     inkscape:pageshadow="2"
     inkscape:zoom="0.16992188"
     inkscape:cx="2048"
     inkscape:cy="2048"
     inkscape:document-units="px"
     inkscape:current-layer="layer1"
     showguides="true"
     inkscape:guide-bbox="true"
     inkscape:window-width="1272"
     inkscape:window-height="897"
     inkscape:window-x="0"
     inkscape:window-y="0"
     width="4096px"
     height="4096px"
     showgrid="true"
     inkscape:object-paths="true"
     inkscape:grid-bbox="false"
     gridempspacing="20"
     gridcolor="#ffffff"
     gridopacity="0.12941176"
     gridempcolor="#ffffff"
     gridempopacity="0.40784314"
     guidecolor="#ffffff"
     guideopacity="0.28627451"
     guidehicolor="#ff0000"
     guidehiopacity="0.64313725"
     borderlayer="false"
     showborder="true"
     inkscape:showpageshadow="true">
    <sodipodi:guide
       orientation="horizontal"
       position="1228"
       id="guide2164" />
    <sodipodi:guide
       orientation="vertical"
       position="2868"
       id="guide3188" />
    <sodipodi:guide
       orientation="horizontal"
       position="2868"
       id="guide3190" />
    <sodipodi:guide
       orientation="vertical"
       position="1228"
       id="guide3192" />
    <sodipodi:guide
       orientation="vertical"
       position="2048"
       id="guide3194" />
    <sodipodi:guide
       orientation="horizontal"
       position="2048"
       id="guide3196" />
  </sodipodi:namedview>
  <metadata
     id="metadata7">
    <rdf:RDF>
      <cc:Work
         rdf:about="">
        <dc:format>image/svg+xml</dc:format>
        <dc:type
           rdf:resource="http://purl.org/dc/dcmitype/StillImage" />
      </cc:Work>
    </rdf:RDF>
  </metadata>
  <g
     inkscape:label="Layer 1"
     inkscape:groupmode="layer"
     id="layer1"
     style="opacity:1">
    <path
       style="fill:none;stroke:#ffffff;stroke-opacity:1;stroke-width:6;stroke-miterlimit:3.88888884;stroke-dasharray:none"
       d="M 591.65652,4000.3075 C 478.50719,3981.4935 384.40733,3931.2557 295.17349,3842.0219 C 203.79966,3750.6481 155.87977,3659.444 136.54501,3540.1104 C 127.00842,3481.2509 127.00842,638.28946 136.54501,579.42988 C 155.87977,460.0963 203.79966,368.89221 295.17349,277.51837 C 386.54733,186.14454 477.75142,138.22465 597.085,118.88989 C 655.94458,109.3533 3498.906,109.3533 3557.7655,118.88989 C 3677.0991,138.22465 3768.3032,186.14454 3859.677,277.51837 C 3951.0509,368.89221 3998.9708,460.0963 4018.3055,579.42988 C 4027.8421,638.28946 4027.8421,3481.2509 4018.3055,3540.1104 C 3998.9708,3659.444 3951.0509,3750.6481 3859.677,3842.0219 C 3768.3032,3933.3957 3677.0991,3981.3156 3557.7655,4000.6504 C 3504.9926,4009.2008 643.15219,4008.87 591.65652,4000.3075 z "
       id="path3477" />
    <path
       style="fill:none;stroke:#ff0000;stroke-opacity:1;stroke-width:6;stroke-miterlimit:3.88888884;stroke-dasharray:none"
       d="M 1944.3245,3705.0164 C 1596.1934,3669.7652 1292.5734,3547.371 1033.7864,3337.9637 C 969.12411,3285.6399 851.55555,3168.0713 799.23169,3103.4091 C 613.73009,2874.1649 486.46952,2584.7839 443.16672,2293.7443 C 427.59299,2189.0727 427.59299,1930.4676 443.16672,1825.796 C 486.46952,1534.7564 613.73009,1245.3754 799.23169,1016.1312 C 851.55555,951.46899 969.12411,833.90043 1033.7864,781.57657 C 1263.0305,596.07497 1552.4115,468.8144 1843.4511,425.5116 C 1948.1227,409.93787 2206.7278,409.93787 2311.3994,425.5116 C 2602.4391,468.8144 2891.82,596.07497 3121.0642,781.57657 C 3185.7264,833.90043 3303.295,951.46899 3355.6188,1016.1312 C 3541.0985,1245.3484 3668.2217,1534.3875 3711.72,1825.796 C 3728.7766,1940.0639 3727.1369,2196.6379 3708.6272,2309.7399 C 3660.5631,2603.4312 3538.9568,2876.8386 3355.6188,3103.4091 C 3303.295,3168.0713 3185.7264,3285.6399 3121.0642,3337.9637 C 2894.8499,3521.0136 2618.7339,3644.0382 2330.6414,3690.1399 C 2252.4953,3702.6451 2012.2658,3711.896 1944.3245,3705.0164 z "
       id="path3473" />
    <path
       style="fill:none;stroke:#ff0000;stroke-opacity:1;stroke-width:6;stroke-miterlimit:3.88888884;stroke-dasharray:none"
       d="M 2262.8468,3438.954 C 2412.4595,3419.522 2557.8278,3375.0687 2694.8786,3306.84 C 2771.8969,3268.4975 2897.9336,3189.2186 2939.578,3152.9205 L 2960.9233,3134.3154 L 1981.4358,2155.0799 L 1001.9483,1175.8445 L 978.97325,1203.8964 C 966.33698,1219.3249 936.39295,1261.8771 912.43104,1298.4567 C 701.33989,1620.7027 634.18088,2016.6282 726.51018,2394.5243 C 822.84539,2788.8162 1092.3848,3123.8421 1460.8503,3307.2772 C 1710.0801,3431.3527 1980.072,3475.6817 2262.8468,3438.954 z "
       id="path3471" />
    <path
       style="fill:none;stroke:#00ffff;stroke-opacity:1;stroke-width:6;stroke-miterlimit:3.88888884;stroke-dasharray:none"
       d="M 2402.0613,2687.5275 C 2402.0613,2683.3904 2441.5046,2719.3674 2489.713,2767.4767 L 2577.3647,2854.948 L 2577.3547,3017.3562 C 2577.3436,3194.9305 2573.6225,3215.548 2538.4084,3233.1434 C 2525.9029,3239.392 2420.0775,3241.2539 2077.4253,3241.2539 C 1734.773,3241.2539 1628.9477,3239.392 1616.4421,3233.1434 C 1607.5146,3228.6825 1595.1018,3214.8475 1588.8581,3202.3986 C 1578.2744,3181.2965 1577.5053,3135.267 1577.4959,2522.3765 C 1577.4903,2160.8131 1579.6865,1864.9885 1582.3763,1864.9885 C 1585.0661,1864.9885 1756.708,2034.4485 1963.8027,2241.5663 L 2340.3384,2618.1441"
       id="path3481" />
    <path
       style="fill:none;stroke:#ffffff;stroke-opacity:1;stroke-width:6;stroke-miterlimit:3.88888884;stroke-dasharray:none"
       d="M 2340.3384,2618.1441 L 2309.5191,2618.1441 C 2273.1474,2618.1441 2252.7287,2634.1233 2252.7287,2662.5868 C 2252.7287,2690.3648 2272.9863,2704.554 2317.2112,2707.7529 C 2357.5521,2710.6709 2402.0613,2700.0615 2402.0613,2687.5275"
       id="path3469" />
    <path
       style="fill:none;stroke:#ffffff;stroke-opacity:1;stroke-width:6;stroke-miterlimit:3.88888884;stroke-dasharray:none"
       d="M 1866.2171,3079.3424 C 1881.0037,3063.0034 1881.0037,3036.8166 1866.2171,3020.4776 C 1856.4485,3009.6834 1846.104,3007.7073 1799.3664,3007.7073 C 1736.4717,3007.7073 1720.3256,3016.0979 1720.3256,3048.7819 C 1720.3256,3084.122 1734.6936,3092.1127 1798.2383,3092.1127 C 1846.0976,3092.1127 1856.414,3090.1747 1866.2171,3079.3424 z "
       id="path3467" />
    <path
       style="fill:none;stroke:#ffffff;stroke-opacity:1;stroke-width:6;stroke-miterlimit:3.88888884;stroke-dasharray:none"
       d="M 2130.8391,3080.7504 C 2148.574,3060.554 2150.0077,3043.4001 2135.5023,3024.9593 C 2122.6929,3008.6749 2118.8008,3007.7073 2066.103,3007.7073 C 2001.6289,3007.7073 1986.5272,3015.8375 1986.5272,3050.5481 C 1986.5272,3082.8705 2004.671,3092.1127 2068.1246,3092.1127 C 2110.221,3092.1127 2122.8748,3089.8202 2130.8391,3080.7504 z "
       id="path3465" />
    <path
       style="fill:none;stroke:#ffffff;stroke-opacity:1;stroke-width:6;stroke-miterlimit:3.88888884;stroke-dasharray:none"
       d="M 2397.0407,3080.7504 C 2414.7755,3060.554 2416.2093,3043.4001 2401.7038,3024.9593 C 2388.8944,3008.6749 2385.0024,3007.7073 2332.3045,3007.7073 C 2267.8304,3007.7073 2252.7287,3015.8375 2252.7287,3050.5481 C 2252.7287,3082.8705 2270.8725,3092.1127 2334.3261,3092.1127 C 2376.4226,3092.1127 2389.0764,3089.8202 2397.0407,3080.7504 z "
       id="path3463" />
    <path
       style="fill:none;stroke:#ffffff;stroke-opacity:1;stroke-width:6;stroke-miterlimit:3.88888884;stroke-dasharray:none"
       d="M 1866.2171,2884.5608 C 1881.0037,2868.2218 1881.0037,2842.035 1866.2171,2825.696 C 1856.4485,2814.9018 1846.104,2812.9257 1799.3664,2812.9257 C 1736.4717,2812.9257 1720.3256,2821.3163 1720.3256,2854.0003 C 1720.3256,2889.3404 1734.6936,2897.3311 1798.2383,2897.3311 C 1846.0976,2897.3311 1856.414,2895.3931 1866.2171,2884.5608 z "
       id="path3461" />
    <path
       style="fill:none;stroke:#ffffff;stroke-opacity:1;stroke-width:6;stroke-miterlimit:3.88888884;stroke-dasharray:none"
       d="M 2132.4187,2884.5608 C 2147.2053,2868.2218 2147.2053,2842.035 2132.4187,2825.696 C 2122.6501,2814.9018 2112.3055,2812.9257 2065.5679,2812.9257 C 2002.6733,2812.9257 1986.5272,2821.3163 1986.5272,2854.0003 C 1986.5272,2889.3404 2000.8952,2897.3311 2064.4398,2897.3311 C 2112.2992,2897.3311 2122.6156,2895.3931 2132.4187,2884.5608 z "
       id="path3459" />
    <path
       style="fill:none;stroke:#ffffff;stroke-opacity:1;stroke-width:6;stroke-miterlimit:3.88888884;stroke-dasharray:none"
       d="M 2393.5392,2892.23 C 2397.7795,2889.5337 2404.498,2878.782 2408.4691,2868.3372 C 2414.5062,2852.4583 2413.664,2846.6289 2403.3291,2832.7594 C 2391.9464,2817.4839 2386.4645,2816.0228 2334.0148,2814.2842 C 2269.0507,2812.1308 2252.7287,2820.1056 2252.7287,2854.0003 C 2252.7287,2889.2845 2267.1382,2897.3437 2330.0245,2897.2317 C 2360.7172,2897.177 2389.2989,2894.9263 2393.5392,2892.23 z "
       id="path3457" />
    <path
       style="fill:none;stroke:#ffffff;stroke-opacity:1;stroke-width:6;stroke-miterlimit:3.88888884;stroke-dasharray:none"
       d="M 1848.7402,2702.0785 C 1883.0154,2690.1301 1888.5053,2641.6731 1857.4659,2625.0613 C 1850.3572,2621.2569 1822.436,2618.1441 1795.4188,2618.1441 C 1754.9535,2618.1441 1744.008,2620.4326 1733.3111,2631.1296 C 1709.8206,2654.62 1719.8378,2692.32 1752.7892,2704.436 C 1769.8708,2710.7168 1828.0617,2709.2871 1848.7402,2702.0785 z "
       id="path3455" />
    <path
       style="fill:none;stroke:#ffffff;stroke-opacity:1;stroke-width:6;stroke-miterlimit:3.88888884;stroke-dasharray:none"
       d="M 2114.5178,2702.2263 C 2138.5955,2693.8328 2150.913,2669.8773 2142.5123,2647.7818 C 2133.6445,2624.4577 2116.4125,2618.1441 2061.6203,2618.1441 C 2021.155,2618.1441 2010.2096,2620.4326 1999.5126,2631.1296 C 1976.0222,2654.62 1986.0393,2692.32 2018.9908,2704.436 C 2035.9234,2710.6621 2094.1851,2709.3143 2114.5178,2702.2263 z "
       id="path3453" />
    <path
       style="fill:none;stroke:#ffffff;stroke-opacity:1;stroke-width:6;stroke-miterlimit:3.88888884;stroke-dasharray:none"
       d="M 1852.7977,2506.8729 C 1883.4441,2492.9095 1886.32,2445.7219 1857.4659,2430.2796 C 1850.3572,2426.4752 1822.436,2423.3625 1795.4188,2423.3625 C 1739.8892,2423.3625 1720.2449,2434.8425 1720.425,2467.1884 C 1720.5417,2488.1336 1725.3298,2496.4536 1743.0502,2506.5021 C 1759.9767,2516.1006 1832.0111,2516.3439 1852.7977,2506.8729 z "
       id="path3451" />
    <path
       style="fill:none;stroke:#ffffff;stroke-opacity:1;stroke-width:6;stroke-miterlimit:3.88888884;stroke-dasharray:none"
       d="M 2118.6065,2507.0519 C 2150.8956,2492.34 2153.8863,2446.4523 2123.612,2430.25 C 2116.5338,2426.4619 2088.6375,2423.3625 2061.6203,2423.3625 C 2006.0908,2423.3625 1986.4465,2434.8425 1986.6266,2467.1884 C 1986.7433,2488.1336 1991.5314,2496.4536 2009.2517,2506.5021 C 2026.0279,2516.0153 2098.1383,2516.3779 2118.6065,2507.0519 z "
       id="path3449" />
    <path
       style="fill:none;stroke:#ff0000;stroke-opacity:1;stroke-width:6;stroke-miterlimit:3.88888884;stroke-dasharray:none"
       d="M 3237.3919,2827.9615 C 3390.4265,2597.4602 3468.2452,2338.5093 3468.2452,2059.7702 C 3468.2452,1685.5329 3325.5305,1341.034 3060.846,1076.3495 C 2796.1614,811.66494 2451.6625,668.95021 2077.4253,668.95021 C 1856.1058,668.95021 1654.5166,715.8491 1460.3572,812.50854 C 1381.2055,851.91312 1272.1858,919.84769 1221.5515,961.31813 L 1193.4996,984.29314 L 2172.735,1963.7807 L 3151.9705,2943.2682 L 3170.5756,2921.9229 C 3180.8084,2910.1829 3210.8757,2867.9003 3237.3919,2827.9615 z "
       id="path3447" />
    <path
       style="fill:none;stroke:#00ffff;stroke-opacity:1;stroke-width:6;stroke-miterlimit:3.88888884;stroke-dasharray:none"
       d="M 2437.7713,2124.6974 L 2308.0386,1994.8429 L 2367.5642,1994.8429 C 2460.76,1994.8429 2454.8426,2014.5086 2452.5975,1712.2475 C 2451.1235,1513.8083 2448.9809,1462.282 2441.8458,1453.6909 C 2433.768,1443.9649 2401.2802,1442.9617 2094.3837,1442.9617 L 1755.8326,1442.9617 L 1678.0215,1364.7084 C 1604.2484,1290.5163 1600.8644,1285.9675 1612.8135,1277.0567 C 1619.7453,1271.8875 1630.7018,1267.6582 1637.1612,1267.6582 C 1647.8031,1267.6582 1648.9057,1260.7308 1648.9057,1193.8676 C 1648.9057,1129.9081 1650.6358,1117.8774 1661.8912,1103.5686 C 1673.2799,1089.0901 1674.8796,1077.2068 1674.9009,1006.9253 C 1674.9217,938.32623 1676.7888,923.73371 1687.8714,905.55669 C 1714.616,861.69168 1757.8382,862.71305 1783.5229,907.81701 C 1796.198,930.07548 1798.0381,942.71953 1798.1315,1008.1998 C 1798.2198,1070.1562 1800.4847,1087.5227 1811.2237,1108.5866 C 1821.7174,1129.1692 1824.2092,1146.8753 1824.2092,1200.8575 L 1824.2092,1267.6582 L 2177.96,1267.6582 L 2531.7109,1267.6582 L 2552.9146,1286.6019 L 2574.1184,1305.5455 L 2575.8655,1780.0486 C 2576.8264,2041.0253 2575.3382,2254.5518 2572.5583,2254.5518 C 2569.7784,2254.5518 2509.1242,2196.1173 2437.7713,2124.6974 z "
       id="path3442" />
  </g>
</svg>
