<?xml version="1.0" encoding="UTF-8" standalone="no"?>
<!-- Created with Inkscape (http://www.inkscape.org/) -->
<svg
   xmlns:dc="http://purl.org/dc/elements/1.1/"
   xmlns:cc="http://creativecommons.org/ns#"
   xmlns:rdf="http://www.w3.org/1999/02/22-rdf-syntax-ns#"
   xmlns:svg="http://www.w3.org/2000/svg"
   xmlns="http://www.w3.org/2000/svg"
   xmlns:sodipodi="http://sodipodi.sourceforge.net/DTD/sodipodi-0.dtd"
   xmlns:inkscape="http://www.inkscape.org/namespaces/inkscape"
   width="744.09448819"
   height="1052.3622047"
   id="svg2"
   sodipodi:version="0.32"
   inkscape:version="0.46"
   sodipodi:docname="amema.svg"
   inkscape:output_extension="org.inkscape.output.svg.inkscape">
  <defs
     id="defs4">
    <inkscape:perspective
       sodipodi:type="inkscape:persp3d"
       inkscape:vp_x="0 : 526.18109 : 1"
       inkscape:vp_y="0 : 1000 : 0"
       inkscape:vp_z="744.09448 : 526.18109 : 1"
       inkscape:persp3d-origin="372.04724 : 350.78739 : 1"
       id="perspective10" />
    <inkscape:perspective
       id="perspective2643"
       inkscape:persp3d-origin="372.04724 : 350.78739 : 1"
       inkscape:vp_z="744.09448 : 526.18109 : 1"
       inkscape:vp_y="0 : 1000 : 0"
       inkscape:vp_x="0 : 526.18109 : 1"
       sodipodi:type="inkscape:persp3d" />
  </defs>
  <sodipodi:namedview
     id="base"
     pagecolor="#ffffff"
     bordercolor="#666666"
     borderopacity="1.0"
     gridtolerance="10000"
     guidetolerance="10"
     objecttolerance="10"
     inkscape:pageopacity="0.0"
     inkscape:pageshadow="2"
     inkscape:zoom="0.72313507"
     inkscape:cx="380.99514"
     inkscape:cy="495.43406"
     inkscape:document-units="px"
     inkscape:current-layer="layer1"
     showgrid="false"
     inkscape:window-width="1280"
     inkscape:window-height="952"
     inkscape:window-x="-4"
     inkscape:window-y="-4" />
  <metadata
     id="metadata7">
    <rdf:RDF>
      <cc:Work
         rdf:about="">
        <dc:format>image/svg+xml</dc:format>
        <dc:type
           rdf:resource="http://purl.org/dc/dcmitype/StillImage" />
      </cc:Work>
    </rdf:RDF>
  </metadata>
  <g
     inkscape:label="Layer 1"
     inkscape:groupmode="layer"
     id="layer1">
    <path
       style="fill:none;stroke:#008dd6;stroke-width:1;stroke-opacity:1"
       d="M 40.837144,382.59506 C 44.703735,382.61425 68.969328,388.12687 77.156074,390.84593 C 90.283776,395.20603 95.565564,398.5928 106.97654,409.96729 C 115.78981,418.75237 147.168,454.44182 147.168,455.68094 C 147.168,455.95081 145.24249,456.17164 142.88909,456.17164 C 138.21372,456.17164 137.91599,456.62573 139.97762,460.61176 L 141.34503,463.25556 L 154.73984,462.66817 C 234.72068,459.16104 290.74214,450.41506 350.81505,432.05747 C 366.40687,427.29273 382.41784,421.63558 420.16224,407.55478 C 456.00315,394.1841 476.72875,387.97324 496.32677,384.73049 C 500.79823,383.99063 505.80455,382.83388 507.45193,382.15993 C 509.09931,381.486 512.73223,380.53646 515.52508,380.04985 C 525.13687,378.37516 544.66339,379.17454 542.51418,381.15473 C 542.29247,381.35901 540.18556,382.48082 537.83216,383.64765 C 534.15258,385.47201 531.93509,385.84263 522.00021,386.29369 C 501.44224,387.22704 476.74184,392.29946 450.56562,400.96331 C 443.00603,403.46541 421.80848,411.28822 403.45996,418.34731 C 348.08566,439.65117 319.53138,448.53533 278.10254,457.3501 C 255.95097,462.06324 226.69936,466.57497 199.58461,469.46049 C 196.64286,469.77357 194.23597,470.40186 194.23597,470.85662 C 194.23597,471.31139 197.60561,473.2315 201.72406,475.12347 C 205.84251,477.01552 216.32507,482.47734 225.01866,487.2609 C 244.31962,497.88121 249.30285,502.30473 255.15495,514.0123 C 257.24845,518.20051 259.4452,524.12993 260.0366,527.1888 C 260.62802,530.24767 261.28366,533.61671 261.4936,534.67555 C 262.03277,537.39499 263.61792,537.07268 267.02345,533.55117 C 268.64549,531.87388 274.85072,526.23272 280.81287,521.01519 C 289.65792,513.27474 291.75297,510.99654 292.19567,508.63715 C 292.93271,504.70913 297.94919,493.1489 301.67428,486.79407 C 308.57724,475.01806 320.30003,462.74287 331.58887,455.46977 C 345.68568,446.38762 370.66611,436.10434 391.40922,430.84462 C 402.79128,427.9585 421.47375,424.88748 435.5663,423.58615 C 446.79497,422.54922 447.21546,422.43773 450.54247,419.6145 C 457.65165,413.58189 470.05668,409.10785 480.31248,408.87759 C 489.0297,408.68188 501.52586,410.01038 518.57709,412.94556 C 524.93126,414.03939 531.86309,415.1737 533.98115,415.46624 C 536.09921,415.75869 540.33532,416.72555 543.39474,417.61464 C 546.45416,418.50372 553.93711,420.62072 560.02353,422.31897 C 566.10994,424.0173 574.58218,426.80451 578.85072,428.51295 C 586.29159,431.49096 586.80583,431.57866 591.3185,430.63918 C 607.79555,427.20897 635.52414,407.54363 671.74173,373.60232 C 684.72316,361.43678 688.80461,359.1078 696.1128,359.69556 C 702.2831,360.1918 712.49263,364.242 718.96503,368.76121 L 723.53671,371.95329 L 723.77334,385.58706 L 724.00997,399.22084 L 717.60923,419.78169 C 706.67093,454.91841 701.11697,477.3997 700.68584,488.28397 C 700.49406,493.12589 700.74037,493.82485 705.42311,501.72598 C 711.42602,511.85465 714.64567,519.48224 717.06391,529.30366 C 721.51758,547.3919 719.95029,561.40076 711.49264,579.1014 C 709.87998,582.47642 708.56053,585.5803 708.56053,585.99896 C 708.56053,586.41753 711.85762,588.59562 715.8874,590.83916 C 719.91717,593.08262 723.39638,595.39273 723.61897,595.97268 C 723.84156,596.55262 723.91411,601.28134 723.78019,606.48082 L 723.53671,615.93448 L 708.56053,610.50415 C 700.32364,607.5175 693.08964,605.06869 692.48499,605.06244 C 691.88034,605.05611 688.41442,607.58963 684.78296,610.69231 C 666.22241,626.55043 638.61379,641.45839 613.01411,649.44559 C 597.06698,654.42116 593.36283,655.2542 572.72278,658.50695 C 513.78581,667.79523 474.34267,670.64815 437.36021,668.29757 C 417.59149,667.04108 397.10148,663.90332 379.08473,659.37345 C 366.11978,656.11376 343.22538,648.36365 336.72356,645.03355 C 322.57764,637.78843 308.72788,622.98743 299.31045,605.05098 L 295.49189,597.77814 L 284.44381,590.17545 C 278.36738,585.99391 269.63928,579.72429 265.04805,576.24291 L 256.70037,569.91315 L 254.35078,573.89079 C 246.04622,587.94988 238.38687,595.78829 227.74561,601.11808 C 208.10845,610.95344 152.40294,630.8794 125.82028,637.577 C 116.63368,639.89156 96.465769,643.96495 88.119095,645.19167 C 81.288899,646.19558 45.647405,649.53372 41.692925,649.53997 L 39.339526,649.54365"
       id="path3490" />
    <path
       style="fill:none;stroke:#00b100;stroke-width:1;stroke-opacity:1"
       d="M 281.37375,542.07477 C 336.16648,517.27695 373.92871,499.81228 388.92622,492.33281 C 405.8846,483.87543 420.16224,475.95497 420.16224,475.00479 C 420.16224,473.52071 413.17455,468.17106 408.0647,465.74304 C 393.25467,458.70593 377.47374,457.84731 366.24801,463.46793 C 350.93516,471.13479 285.6762,519.60152 261.61739,541.17516 C 255.48003,546.67856 254.81112,547.05854 252.83987,546.16056 C 251.31058,545.46382 232.82592,545.1795 187.5979,545.15674 C 152.88845,545.13937 123.98284,545.13227 123.36323,545.14108 C 122.65862,545.15101 122.33808,545.97258 122.50745,547.33448 L 122.77824,549.51197 L 186.53394,550.00216 C 221.59958,550.27177 250.44774,550.63721 250.64098,550.81415 C 250.83421,550.9911 250.41141,551.81207 249.70142,552.63852 C 247.41373,555.30141 247.1149,556.28016 248.5896,556.28016 C 249.35751,556.28016 264.11038,549.88776 281.37375,542.07477 z"
       id="path3488" />
    <path
       style="fill:none;stroke:#000000;stroke-width:1;stroke-opacity:1"
       d="M 121.49457,541.79275 C 121.49457,540.88365 120.28516,539.27874 118.807,538.22641 C 116.2077,536.37585 116.08123,536.36524 114.95599,537.90383 C 113.32538,540.13343 113.47193,540.65032 116.14593,542.10078 C 119.46008,543.89837 121.49457,543.78123 121.49457,541.79275 z"
       id="path3486" />
    <path
       style="fill:none;stroke:#000000;stroke-width:1;stroke-opacity:1"
       d="M 111.51842,532.83621 L 114.09476,528.6438 L 111.70187,526.58593 C 108.44252,523.78289 105.39384,524.25827 102.90896,527.95707 C 101.83474,529.55607 100.95581,531.90682 100.95581,533.18094 C 100.95581,535.03919 101.50608,535.67586 103.7371,536.39896 C 107.92504,537.75624 108.71802,537.3932 111.51842,532.83621 z"
       id="path3484" />
    <path
       style="fill:none;stroke:#0000d1;stroke-width:1;stroke-opacity:1"
       d="M 94.109564,456.56036 C 109.30234,453.41336 114.17144,451.93012 113.03588,450.7947 C 111.85048,449.60957 101.68585,450.91509 87.625463,454.05841 C 77.287351,456.36964 75.282341,457.20482 75.282341,459.1998 C 75.282341,460.91704 77.137161,461.17818 80.417029,459.92272 C 82.064408,459.29204 88.226067,457.77903 94.109564,456.56036 z"
       id="path3482" />
    <path
       style="fill:none;stroke:#ffab00;stroke-width:1;stroke-opacity:1"
       d="M 538.26005,391.3481 C 538.26005,387.2252 541.90013,383.75159 548.95732,381.14004 C 552.25208,379.9208 556.79373,378.74686 559.04988,378.53128 C 562.96134,378.15753 579.74335,379.46017 585.27987,380.56728 C 586.80433,380.87211 587.89537,380.73269 587.89537,380.23306 C 587.89537,378.55207 578.84684,375.53974 556.36222,369.73544 C 543.81729,366.49702 526.87485,362.11704 518.71235,360.00214 C 504.59974,356.34558 499.7499,354.46337 499.7499,352.64289 C 499.7499,351.54867 503.26243,349.84346 510.23322,347.55363 C 513.41031,346.50998 516.00974,345.34495 516.00974,344.96467 C 516.00974,344.58438 512.171,342.63441 507.4792,340.63138 C 498.82773,336.93789 495.47099,334.68965 495.47099,332.58868 C 495.47099,330.39007 501.3293,326.2915 508.33025,323.59213 C 522.9636,317.94992 536.5975,315.74021 567.35662,314.02544 C 595.23148,312.47146 605.1167,312.30428 606.39531,313.36524 C 607.03399,313.8952 608.10299,314.11916 608.77088,313.86291 C 609.81498,313.46232 609.80753,312.88139 608.71774,309.7188 C 607.5868,306.43682 607.59444,305.73832 608.7886,303.23458 C 610.72356,299.17766 615.06477,297.28861 619.44064,298.59943 C 624.34692,300.06912 631.36778,306.25572 639.34659,316.14003 C 649.74315,329.01949 653.43566,332.65223 661.70835,338.13982 C 667.09992,341.71625 670.57633,343.3837 674.11718,344.09165 C 686.98879,346.66519 691.04548,348.25464 689.26267,350.02579 C 688.81552,350.47002 685.56141,351.99981 682.03131,353.42534 C 675.36058,356.11913 673.64605,357.63953 668.92556,365.04725 C 666.49181,368.86645 665.1895,369.83273 656.78577,374.0547 C 646.72425,379.10952 630.79924,384.80049 618.30985,387.80445 C 612.21149,389.27124 609.27663,389.53488 603.97101,389.09248 C 600.30192,388.78654 596.3393,388.09861 595.16516,387.56373 C 593.57019,386.83715 591.56958,386.83811 587.25368,387.56754 C 577.85648,389.15577 576.02043,389.20947 571.46953,388.02919 C 569.08673,387.41121 563.23925,386.66742 558.47513,386.37632 C 548.54147,385.76933 544.93225,386.78836 540.73242,391.38575 L 538.26005,394.09217 L 538.26005,391.3481 z"
       id="path3427" />
    <path
       style="fill:none;stroke:#0060ff;stroke-width:1;stroke-opacity:1"
       d="M 375.5128,655.80283 C 345.99013,649.76414 315.17831,635.96004 302.68371,606.59042 C 316.24939,604.11834 336.70056,626.39437 353.74989,631.78697 C 372.50199,639.94521 393.16749,651.60845 413.91249,648.12613 C 444.32804,636.91774 477.61379,603.67624 473.58276,570.74696 C 445.64481,569.05623 416.75129,575.59426 388.12518,570.15871 C 346.57465,567.62742 305.00839,564.72761 263.72155,559.2853 C 334.08002,555.99823 404.61508,556.54943 474.85515,550.82836 C 492.44391,516.06854 435.32042,515.90418 437.35086,483.11634 C 413.65957,454.50263 366.62965,449.04246 336.99815,472.02014 C 324.35504,476.69826 306.36044,503.11308 298.65336,497.47258 C 311.90633,466.44534 343.50217,444.87994 377.51116,445.11935 C 416.38917,442.41133 449.26346,471.62581 468.73952,502.63508 C 492.29342,507.82043 516.17555,498.16807 540.01289,498.67125 C 583.85619,495.03859 627.88938,495.08061 671.79257,492.53587 C 661.17044,461.98536 618.2196,459.21349 608.52097,431.68977 C 626.46348,407.86609 657.03962,394.24561 677.14992,370.76595 C 705.1367,345.51598 739.30496,380.83208 719.42108,410.10688 C 709.73125,441.79503 691.11316,477.03615 706.45247,509.87546 C 731.32925,531.54061 706.31584,569.77761 713.08272,589.21877 C 734.96299,596.70107 720.33733,628.57699 702.22013,606.78542 C 666.73541,605.5866 646.57715,646.79058 610.0408,646.7567 C 576.4096,649.52097 542.73641,645.68536 510.23246,636.64445 C 488.64457,634.75223 462.36793,617.36159 444.44031,635.05897 C 424.37935,649.84654 400.54882,658.15058 375.5128,655.80283 z"
       id="path3478" />
    <path
       style="fill:none;stroke:#0000a5;stroke-width:1;stroke-opacity:1"
       d="M 144.0812,625.94388 C 164.02124,599.86801 114.88524,594.99598 97.647184,598.15042 C 75.344556,595.18233 30.954496,611.98892 39.62279,575.1673 C 34.096325,548.16821 39.477136,516.69897 73.80569,520.55768 C 91.724022,513.42967 92.786774,531.53266 91.20885,539.74036 C 100.01262,526.87906 110.62507,506.36236 128.07587,519.49602 C 146.64718,516.08104 179.18715,522.6953 189.00091,514.78039 C 175.58276,491.47815 147.41865,485.25786 123.16297,485.28112 C 112.29986,480.60629 80.855189,464.57395 85.601275,464.47163 C 104.61836,465.11664 136.86588,450.6172 141.8352,474.21387 C 171.82045,475.03681 195.80854,498.70826 218.86777,516.34671 C 226.95344,525.99511 273.19728,521.65648 253.62731,539.75533 C 211.19653,539.69304 168.67457,540.28719 126.20136,540.45104 C 105.34376,521.11983 110.8326,573.86897 131.85742,555.05182 C 169.03845,555.39271 206.23762,554.70769 243.40174,556.16953 C 268.56166,579.94359 224.6526,602.74763 204.17493,608.62887 C 184.99524,614.59953 161.50347,627.54057 144.0812,625.94388 z"
       id="path3476" />
    <path
       style="fill:none;stroke:#000000;stroke-width:1;stroke-opacity:1"
       d="M 108.65785,542.98216 C 127.5549,531.62635 106.66397,511.002 98.66944,531.68829 C 95.539121,538.40078 99.8135,552.34487 108.65785,542.98216 z"
       id="path3474" />
    <path
       style="fill:none;stroke:#0000be;stroke-width:1;stroke-opacity:1"
       d="M 525.85123,425.33077 C 512.18939,433.30737 483.19368,412.20054 513.71678,418.0854 C 526.6386,419.10572 566.38012,428.24482 531.94234,425.67936 C 529.91,425.59985 527.88171,425.44469 525.85123,425.33077 z"
       id="path3472" />
    <path
       style="fill:none;stroke:#0000be;stroke-width:1;stroke-opacity:1"
       d="M 452.65554,419.83551 C 460.50922,402.53453 510.91958,415.40849 478.03777,421.32265 C 470.19035,420.52218 459.10998,425.19972 452.65554,419.83551 z"
       id="path3470" />
    <path
       style="fill:none;stroke:#ff8a00;stroke-width:1;stroke-opacity:1"
       d="M 600.73209,387.09473 C 573.92937,366.83866 539.05597,365.54841 508.23119,355.26195 C 500.41892,348.50088 534.65404,349.13398 511.7045,340.14834 C 480.84407,327.53758 523.3432,332.92624 534.04911,337.1316 C 566.61404,334.9017 592.09164,360.09916 623.56095,358.94161 C 638.12147,356.75795 671.34394,349.78101 644.63655,347.67922 C 656.92339,349.53892 701.78195,343.37923 671.6584,359.80421 C 657.66247,377.19268 633.93768,383.54141 620.44816,379.24227 C 613.25302,385.2805 612.83318,390.14153 600.73209,387.09473 z"
       id="path3468" />
    <path
       style="fill:none;stroke:#000000;stroke-width:1;stroke-opacity:1"
       d="M 584.70402,382.9263 C 587.53045,381.55716 586.24851,384.65634 584.70402,382.9263 z"
       id="path3464" />
    <path
       style="fill:none;stroke:#0078ff;stroke-width:1;stroke-opacity:1"
       d="M 565.43111,381.95056 C 547.54052,377.81014 601.69353,383.564 569.26226,382.081 C 567.98499,382.04448 566.70825,381.99152 565.43111,381.95056 z"
       id="path3462" />
    <path
       style="fill:none;stroke:#ffff00;stroke-width:1;stroke-opacity:1"
       d="M 611.43296,353.91379 C 585.22645,337.44837 656.88133,356.0003 620.41729,355.62543 L 615.46122,355.28276 L 611.43296,353.91379 L 611.43296,353.91379 z"
       id="path3460" />
    <path
       style="fill:none;stroke:#ffff00;stroke-width:1;stroke-opacity:1"
       d="M 618.13504,311.94059 C 620.74953,291.62768 628.94398,314.16023 618.13504,311.94059 L 618.13504,311.94059 z"
       id="path3425" />
  </g>
</svg>
