<?xml version="1.0" encoding="UTF-8" standalone="no"?>
<!-- Created with Inkscape (http://www.inkscape.org/) -->
<svg
   xmlns:dc="http://purl.org/dc/elements/1.1/"
   xmlns:cc="http://web.resource.org/cc/"
   xmlns:rdf="http://www.w3.org/1999/02/22-rdf-syntax-ns#"
   xmlns:svg="http://www.w3.org/2000/svg"
   xmlns="http://www.w3.org/2000/svg"
   xmlns:sodipodi="http://sodipodi.sourceforge.net/DTD/sodipodi-0.dtd"
   xmlns:inkscape="http://www.inkscape.org/namespaces/inkscape"
   width="4096"
   height="4096"
   id="svg2"
   sodipodi:version="0.32"
   inkscape:version="0.44+devel"
   sodipodi:docbase="H:\laser graphics"
   sodipodi:docname="solaris anim 7.svg"
   inkscape:output_extension="org.inkscape.output.svg.inkscape"
   version="1.0"
   sodipodi:modified="true">
  <defs
     id="defs4" />
  <sodipodi:namedview
     id="base"
     pagecolor="#000000"
     bordercolor="#666666"
     borderopacity="1.0"
     gridtolerance="50"
     guidetolerance="10"
     objecttolerance="10"
     inkscape:pageopacity="1"
     inkscape:pageshadow="2"
     inkscape:zoom="0.18554688"
     inkscape:cx="2048"
     inkscape:cy="1753.6949"
     inkscape:document-units="px"
     inkscape:current-layer="layer1"
     showguides="true"
     inkscape:guide-bbox="true"
     inkscape:window-width="1281"
     inkscape:window-height="957"
     inkscape:window-x="9"
     inkscape:window-y="-2"
     width="4096px"
     height="4096px"
     showgrid="true"
     inkscape:object-paths="true"
     inkscape:grid-bbox="false"
     gridempspacing="20"
     gridcolor="#ffffff"
     gridopacity="0.12941176"
     gridempcolor="#ffffff"
     gridempopacity="0.40784314"
     guidecolor="#ffffff"
     guideopacity="0.28627451"
     guidehicolor="#ff0000"
     guidehiopacity="0.64313725"
     borderlayer="false"
     showborder="true"
     inkscape:showpageshadow="true">
    <sodipodi:guide
       orientation="horizontal"
       position="1228"
       id="guide2164" />
    <sodipodi:guide
       orientation="vertical"
       position="2868"
       id="guide3188" />
    <sodipodi:guide
       orientation="horizontal"
       position="2868"
       id="guide3190" />
    <sodipodi:guide
       orientation="vertical"
       position="1228"
       id="guide3192" />
    <sodipodi:guide
       orientation="vertical"
       position="2048"
       id="guide3194" />
    <sodipodi:guide
       orientation="horizontal"
       position="2048"
       id="guide3196" />
  </sodipodi:namedview>
  <metadata
     id="metadata7">
    <rdf:RDF>
      <cc:Work
         rdf:about="">
        <dc:format>image/svg+xml</dc:format>
        <dc:type
           rdf:resource="http://purl.org/dc/dcmitype/StillImage" />
      </cc:Work>
    </rdf:RDF>
  </metadata>
  <g
     inkscape:groupmode="layer"
     id="layer1"
     style="opacity:1;display:inline">
    <path
       style="fill:none;stroke:#adff38;stroke-width:10;stroke-miterlimit:4;stroke-dasharray:none;stroke-opacity:1"
       id="path6"
       d="M 4020.4778,3243.7966 C 4020.4778,3243.7966 1511.0704,3250.0545 1429.718,3237.5386 C 1479.8283,3145.3686 1392.2141,3012.2241 1385.9129,3005.9938 C 1830.3639,3082.3039 2119.3025,2868.3185 2556.1352,2818.2547 C 2659.3763,3003.8881 2791.1663,2795.7623 2781.4187,2524.1302 C 2777.2744,2408.5491 2637.4876,2298.8473 2562.3931,2330.1332 C 2487.2986,2361.4191 2462.2671,2611.7418 2487.2986,2724.3852 C 2443.4935,2730.6432 2174.4049,2718.1272 2030.4738,2718.1272 C 1886.5428,2718.1272 1786.4168,2643.0316 1723.8381,2449.0346 C 1661.2593,2255.0376 1999.1844,2017.2348 1961.6372,1985.945 C 1924.0899,1954.6552 1811.4483,1917.1074 1767.6432,1923.3653 C 1723.8381,1929.6233 1473.5231,2136.1362 1473.5231,2136.1362 C 1278.003,2443.3879 1249.4896,2582.9441 1207.5654,2918.3822 C 1060.535,2851.9421 986.83243,2886.3984 974.49806,2957.2629 C 959.04462,3046.0456 1004.4743,3189.0127 1047.9877,3237.5386 L 65.501409,3250.0545" />
    <path
       style="fill:none;stroke:#adff38;stroke-width:10;stroke-miterlimit:4;stroke-dasharray:none;stroke-opacity:1"
       id="path8"
       d="M 2424.7396,1078.5436 C 2293.3242,1066.0277 2074.2986,1116.0914 1974.1726,1228.7348 C 1874.0468,1341.3783 1765.8569,1521.0533 1992.9462,1673.0506 C 2220.0357,1825.0478 2542.8032,1834.9178 2725.1175,1741.8882 C 2907.4318,1648.8586 2994.2061,1541.6332 2925.3695,1391.442 C 2856.5329,1241.2508 2693.8282,1116.0914 2693.8282,1116.0914 C 2693.8282,1116.0914 2643.7652,846.99879 2700.086,859.51472 C 2756.4069,872.03066 2793.9541,965.90018 2737.6333,940.86831 C 2681.3124,915.83643 2681.3124,1122.3494 2681.3124,1122.3494 C 2681.3124,1122.3494 2424.7396,1072.2856 2424.7396,1078.5436 L 2424.7396,1078.5436 z " />
    <path
       style="fill:none;stroke:#adff38;stroke-width:10;stroke-miterlimit:4;stroke-dasharray:none;stroke-opacity:1"
       id="path10"
       d="M 2712.5939,1394.5808 C 2757.6017,1424.25 2727.2784,1472.2277 2696.9551,1497.8353 C 2689.601,1501.0176 2658.2998,1507.3031 2668.7927,1450.8828 C 2677.1405,1430.0308 2695.9102,1390.4167 2712.5939,1394.5808 L 2712.5939,1394.5808 z " />
    <path
       style="fill:none;stroke:#adff38;stroke-width:10;stroke-miterlimit:4;stroke-dasharray:none;stroke-opacity:1"
       d="M 4033.0174,4051.0629 L 4033.0174,83.527034 L 65.50538,77.269066 L 52.989631,4051.0629 L 4033.0174,4051.0629 z "
       id="polygon12" />
  </g>
  <g
     inkscape:groupmode="layer"
     id="layer2"
     style="display:inline">
    <path
       style="fill:none;stroke:#adff38;stroke-width:10;stroke-miterlimit:4;stroke-dasharray:none;stroke-opacity:1"
       id="path16"
       d="M 4020.4778,3243.7966 C 4020.4778,3243.7966 1351.5281,3250.0545 1270.1757,3237.5386 C 1276.6781,3151.043 1515.5775,3050.3555 1507.9158,2991.9163 C 1978.6994,2722.2322 1989.6339,2836.8118 2211.0767,3091.8348 C 2114.2946,3280.9185 2341.7941,3255.8196 2562.0461,3138.8031 C 2664.1673,3084.5476 2755.2476,2959.8299 2643.5719,2886.4023 C 2531.8963,2812.9747 2366.7744,2930.7956 2307.0663,3024.6375 C 2310.3392,2879.1033 2312.8431,2836.9892 2302.6341,2708.7423 C 2292.4252,2580.4953 2283.8132,2567.9518 2240.0041,2364.5698 C 2196.1951,2161.1878 2107.1101,2017.2348 2069.5628,1985.945 C 2032.0156,1954.6552 1905.2967,1903.0299 1861.4916,1923.3653 C 1817.6865,1943.7008 1834.8395,2380.1457 1834.8395,2380.1457 C 1629.9305,2850.0651 1507.5688,2787.8521 1390.5698,2852.6874 C 1329.5684,2762.9819 1255.9131,2791.1605 1180.9645,2802.4107 C 1144.34,2807.9076 960.59825,2969.5935 1047.9877,3237.5386 L 65.501409,3250.0545" />
    <path
       style="fill:none;stroke:#adff38;stroke-width:10;stroke-miterlimit:4;stroke-dasharray:none;stroke-opacity:1"
       id="path18"
       d="M 2167.8789,760.27447 C 2036.4635,747.75854 1833.3805,832.38503 1758.1953,895.13427 C 1683.0101,957.88351 1549.7099,1119.2224 1746.3065,1329.229 C 1942.903,1539.2357 2295.627,1505.3197 2455.4808,1436.3953 C 2615.3346,1367.4709 2723.7532,1250.0285 2681.2848,1091.0595 C 2638.6429,931.44784 2413.9707,779.93561 2413.9707,779.93561 C 2413.9707,779.93561 2540.2204,564.51088 2596.5373,577.01893 C 2652.8543,589.52698 2608.6351,685.95962 2552.3182,660.92775 C 2496.0013,635.89588 2401.4549,786.19358 2401.4549,786.19358 C 2324.7989,755.53072 2167.8789,754.0165 2167.8789,760.27447 z " />
    <path
       style="fill:none;stroke:#adff38;stroke-width:10;stroke-miterlimit:4;stroke-dasharray:none;stroke-opacity:1"
       id="path20"
       d="M 2445.5203,1099.3089 C 2464.3925,1141.6398 2454.2545,1201.9443 2404.3295,1194.8976 C 2396.9754,1198.0799 2365.6742,1204.3654 2376.1671,1147.9451 C 2384.5149,1127.0931 2428.8366,1095.1448 2445.5203,1099.3089 L 2445.5203,1099.3089 z " />
    <path
       style="fill:none;stroke:#adff38;stroke-width:10;stroke-miterlimit:4;stroke-dasharray:none;stroke-opacity:1"
       d="M 4033.0174,4051.0629 L 4033.0174,83.527034 L 65.50538,77.269066 L 52.989631,4051.0629 L 4033.0174,4051.0629 z "
       id="polygon22" />
  </g>
  <g
     inkscape:groupmode="layer"
     id="layer3"
     style="display:inline">
    <path
       style="fill:none;stroke:#adff38;stroke-width:10;stroke-miterlimit:4;stroke-dasharray:none;stroke-opacity:1"
       id="path26"
       d="M 4020.4778,3243.7966 C 4020.4778,3243.7966 2447.9099,3254.747 2366.5575,3242.2311 C 2431.1394,3159.8207 2459.5699,3095.782 2362.0268,3055.332 C 2264.4836,3014.8819 2169.7756,2957.598 2086.5226,2996.4826 C 2089.7954,2850.9484 2120.2804,2710.6271 2124.3222,2582.045 C 2126.7275,2505.5259 2138.2299,2183.4949 1910.0205,1943.7126 C 1876.3339,1908.3218 1741.062,1888.9524 1697.2569,1909.2879 C 1735.1078,2136.6646 1713.4398,2271.7413 1637.7578,2478.688 C 1621.3777,2523.4757 1545.1082,2726.8498 1428.1092,2791.685 C 1367.1077,2701.9796 1267.0803,2895.1919 1180.9645,2961.9553 C 1142.5222,2991.7586 1057.7944,3069.023 1169.9906,3143.6888 C 1266.0708,3207.6249 1496.8078,3036.2781 1489.1461,2977.8388 C 1661.9534,2809.0472 1716.6891,2958.0318 1943.6088,3058.9874 C 1907.8281,3116.6813 1841.2984,3171.548 1911.3928,3246.9236 L 65.501409,3250.0545" />
    <path
       style="fill:none;stroke:#adff38;stroke-width:10;stroke-miterlimit:4;stroke-dasharray:none;stroke-opacity:1"
       id="path28"
       d="M 1900.2731,702.20984 C 1772.0754,670.71495 1525.9915,738.98082 1442.4822,790.12502 C 1358.9729,841.26922 1231.7807,1021.7566 1395.7354,1264.796 C 1559.6901,1507.8355 1919.8391,1560.8685 2095.8601,1488.056 C 2271.881,1415.2436 2379.0102,1323.8899 2355.414,1165.1575 C 2331.1199,1001.7563 2187.8118,837.23131 2187.8118,837.23131 C 2187.8118,837.23131 2353.4463,593.9671 2388.5685,602.0232 C 2423.6907,610.0793 2323.683,741.28369 2290.3826,720.84178 C 2257.0822,700.39988 2174.5192,841.60045 2174.5192,841.60045 C 2103.1392,800.11332 1901.184,696.0189 1900.2731,702.20984 L 1900.2731,702.20984 z " />
    <path
       style="fill:none;stroke:#adff38;stroke-width:10;stroke-miterlimit:4;stroke-dasharray:none;stroke-opacity:1"
       id="path30"
       d="M 2156.3647,1146.2338 C 2171.4278,1188.5647 2163.3363,1248.8692 2123.4862,1241.8225 C 2117.6187,1245.0048 2092.6345,1251.2903 2101.0099,1194.87 C 2107.6739,1174.018 2143.0485,1142.0697 2156.3647,1146.2338 L 2156.3647,1146.2338 z " />
    <path
       style="fill:none;stroke:#adff38;stroke-width:10;stroke-miterlimit:4;stroke-dasharray:none;stroke-opacity:1"
       d="M 4033.0174,4051.0629 L 4033.0174,83.527034 L 65.50538,77.269066 L 52.989631,4051.0629 L 4033.0174,4051.0629 z "
       id="polygon32" />
  </g>
  <g
     inkscape:groupmode="layer"
     id="layer4"
     style="display:inline">
    <path
       style="fill:none;stroke:#adff38;stroke-width:10;stroke-miterlimit:4;stroke-dasharray:none;stroke-opacity:1"
       id="path36"
       d="M 4020.4778,3243.7966 C 4020.4778,3243.7966 2213.1154,3254.747 2131.763,3242.2311 C 2172.0153,3110.451 2022.5795,3010.982 1910.4267,2996.4826 C 1913.6996,2850.9484 1963.7625,2710.6193 1967.7925,2582.045 C 1970.19,2505.5377 1988.2183,2111.7432 1760.0131,1871.9688 C 1726.3341,1836.5819 1532.3558,1843.2972 1488.5507,1863.6327 C 1526.4016,2091.0095 1537.3361,2219.5719 1461.6619,2426.5107 C 1417.8371,2546.3545 1459.4774,2646.1232 1344.0163,2694.5465 C 1272.9715,2724.3458 1130.038,2915.9374 1235.2113,3000.2011 C 1331.2876,3077.1777 1496.8078,3036.2781 1489.1461,2977.8388 C 1637.6159,2895.8267 1602.0363,3026.6052 1702.2924,3045.943 C 1692.6,3103.6331 1632.5883,3158.4997 1676.5984,3233.8792 L 65.501409,3250.0545" />
    <path
       style="fill:none;stroke:#adff38;stroke-width:10;stroke-miterlimit:4;stroke-dasharray:none;stroke-opacity:1"
       id="path38"
       d="M 1606.6893,850.93417 C 1483.3338,803.92252 1308.9887,828.38656 1219.8288,868.87604 C 1130.6689,909.36553 1001.8245,1092.42 1134.6634,1353.768 C 1267.5022,1615.116 1572.7579,1692.4396 1756.3893,1641.8159 C 1940.0205,1591.1922 2057.5676,1513.6873 2053.6598,1353.2672 C 2049.6378,1188.1192 1927.6309,1007.2296 1927.6309,1007.2296 C 1927.6309,1007.2296 2121.9089,786.16598 2155.7732,798.47686 C 2189.6375,810.78775 2074.2631,928.70726 2043.7269,904.32998 C 2013.1907,879.95269 1913.9007,1009.9307 1913.9007,1009.9307 C 1848.1636,959.98527 1608.3533,844.90097 1606.6893,850.93417 L 1606.6893,850.93417 z " />
    <path
       style="fill:none;stroke:#adff38;stroke-width:10;stroke-miterlimit:4;stroke-dasharray:none;stroke-opacity:1"
       id="path40"
       d="M 1861.673,1293.8421 C 1849.1927,1337.0091 1807.4263,1381.2486 1779.185,1352.2696 C 1772.5604,1351.4257 1742.0833,1315.8574 1781.8151,1274.9342 C 1799.3939,1261.8938 1853.2897,1282.6906 1861.673,1293.8421 z " />
    <path
       style="fill:none;stroke:#adff38;stroke-width:10;stroke-miterlimit:4;stroke-dasharray:none;stroke-opacity:1"
       d="M 4033.0174,4051.0629 L 4033.0174,83.527034 L 65.50538,77.269066 L 52.989631,4051.0629 L 4033.0174,4051.0629 z "
       id="polygon42" />
  </g>
  <g
     inkscape:groupmode="layer"
     id="layer5"
     style="display:inline">
    <path
       style="fill:none;stroke:#adff38;stroke-width:10;stroke-miterlimit:4;stroke-dasharray:none;stroke-opacity:1"
       id="path46"
       d="M 4020.4778,3243.7966 C 4020.4778,3243.7966 2232.6816,3254.747 2151.3292,3242.2311 C 2281.0056,3034.0501 1996.6607,2965.1376 1838.6841,2996.4826 C 1841.9569,2850.9484 1716.8073,2686.5259 1693.8658,2640.7445 C 1551.232,2356.147 1560.739,2191.1843 1531.7407,1885.0131 C 1527.1389,1836.3886 1304.0834,1856.3416 1260.2783,1876.677 C 1257.3603,2104.0538 1230.5031,2288.4253 1155.1247,2472.1658 C 1109.0364,2584.5135 1089.8843,2610.0462 1044.0011,2714.113 C 1012.9246,2784.591 882.20723,2935.5078 987.37265,3019.7676 C 1083.445,3096.7363 1196.7926,3055.8446 1189.1309,2997.4053 C 1337.6007,2915.3932 1602.0363,3026.6052 1702.2924,3045.943 C 1692.6,3103.6331 1632.5883,3158.4997 1676.5984,3233.8792 L 65.501409,3250.0545" />
    <path
       style="fill:none;stroke:#adff38;stroke-width:10;stroke-miterlimit:4;stroke-dasharray:none;stroke-opacity:1"
       id="path48"
       d="M 1416.5713,882.22795 C 1284.8445,873.5291 1066.6824,967.70619 993.35449,1032.5966 C 920.02656,1097.4871 831.07563,1310.325 1034.8292,1521.1125 C 1238.5827,1731.8999 1575.6759,1693.1415 1713.7435,1613.795 C 1851.811,1534.4486 1935.2965,1450.5201 1913.1278,1250.6436 C 1894.9182,1086.4656 1690.999,956.90164 1690.999,956.90164 C 1690.999,956.90164 1772.6314,688.51881 1847.7495,690.33665 C 1922.8675,692.1545 1795.0485,825.71696 1758.7,811.39107 C 1722.3515,797.06517 1678.6686,963.5145 1678.6686,963.5145 C 1601.1648,935.09142 1416.386,875.96998 1416.5713,882.22795 L 1416.5713,882.22795 z " />
    <path
       style="fill:none;stroke:#adff38;stroke-width:10;stroke-miterlimit:4;stroke-dasharray:none;stroke-opacity:1"
       id="path50"
       d="M 1809.4925,1319.9308 C 1797.0162,1363.0978 1787.86,1394.293 1759.6188,1365.3139 C 1752.9942,1364.47 1722.5171,1328.9017 1762.2489,1287.9785 C 1779.8277,1274.9381 1801.1132,1308.7792 1809.4925,1319.9308 L 1809.4925,1319.9308 z " />
    <path
       style="fill:none;stroke:#adff38;stroke-width:10;stroke-miterlimit:4;stroke-dasharray:none;stroke-opacity:1"
       d="M 4033.0174,4051.0629 L 4033.0174,83.527034 L 65.50538,77.269066 L 52.989631,4051.0629 L 4033.0174,4051.0629 z "
       id="polygon52" />
  </g>
  <g
     inkscape:groupmode="layer"
     id="layer6"
     style="display:inline">
    <path
       style="fill:none;stroke:#adff38;stroke-width:10;stroke-miterlimit:4;stroke-dasharray:none;stroke-opacity:1"
       id="path56"
       d="M 4020.4778,3243.7966 C 4020.4778,3243.7966 1945.7105,3261.2692 1864.3583,3248.7532 C 1994.0346,3040.5723 1800.9988,2978.1819 1643.022,3009.5269 C 1664.0196,2939.3368 1528.3219,2869.5448 1542.0285,2807.3595 C 1559.6586,2727.3979 1706.7679,2809.9818 1746.0423,2595.0894 C 1679.1852,2461.6846 1570.0568,2565.0417 1498.113,2476.2708 C 1386.9539,2339.1042 1560.1712,2034.6168 1544.7848,1871.9688 C 1540.187,1823.364 1369.3041,1797.6421 1325.499,1817.9775 C 1124.7265,2017.1363 1023.5122,2187.1424 933.37433,2400.422 C 886.10707,2512.2649 855.09372,2544.8324 867.90521,2694.5465 C 874.47066,2771.2786 887.16385,2892.8338 1006.9389,2954.5459 C 1278.4091,3094.4097 1247.9518,2986.6441 1487.0641,3065.5095 C 1477.3717,3123.1996 1391.2717,3165.0219 1435.2819,3240.4014 L 65.501409,3250.0545" />
    <path
       style="fill:none;stroke:#adff38;stroke-width:10;stroke-miterlimit:4;stroke-dasharray:none;stroke-opacity:1"
       id="path58"
       d="M 1723.1086,999.62696 C 1499.919,997.19002 1314.5211,1059.0165 1241.1931,1123.907 C 1167.8652,1188.7974 1111.5246,1349.458 1315.2782,1560.2455 C 1519.0317,1771.0329 1934.3896,1784.4518 2072.4571,1705.1054 C 2210.5247,1625.7589 2307.0466,1580.9594 2284.8857,1381.087 C 2266.6799,1216.9169 2010.5803,1048.212 2010.5803,1048.212 C 2010.5803,1048.212 2092.2126,779.82914 2167.3308,781.64699 C 2242.4489,783.46484 2114.6298,917.0273 2078.2813,902.7014 C 2041.9327,888.37551 1998.2499,1054.8248 1998.2499,1054.8248 C 1920.7461,1026.4018 1729.3625,999.69399 1723.1086,999.62696 z " />
    <path
       style="fill:none;stroke:#adff38;stroke-width:10;stroke-miterlimit:4;stroke-dasharray:none;stroke-opacity:1"
       id="path60"
       d="M 2135.584,1476.4628 C 2123.1077,1519.6298 2113.9515,1550.825 2085.7103,1521.8459 C 2079.0857,1521.002 2048.6086,1485.4338 2088.3404,1444.5105 C 2105.9192,1431.4701 2127.2047,1465.3113 2135.584,1476.4628 z " />
    <path
       style="fill:none;stroke:#adff38;stroke-width:10;stroke-miterlimit:4;stroke-dasharray:none;stroke-opacity:1"
       d="M 4033.0174,4051.0629 L 4033.0174,83.527034 L 65.50538,77.269066 L 52.989631,4051.0629 L 4033.0174,4051.0629 z "
       id="polygon62" />
  </g>
  <g
     inkscape:groupmode="layer"
     id="layer7"
     style="display:inline">
    <path
       style="fill:none;stroke:#adff38;stroke-width:10;stroke-miterlimit:4;stroke-dasharray:none;stroke-opacity:1"
       id="path66"
       d="M 4020.4778,3243.7966 C 4020.4778,3243.7966 1725.167,3256.5767 1643.8146,3244.0607 C 1823.5422,3143.8071 1696.2001,3015.7179 1511.6342,2976.6795 C 1532.6318,2906.4893 1695.5692,2823.9685 1748.495,2788.5895 C 1932.1262,2665.8434 2032.0037,2804.0314 2116.7433,2857.8688 C 2159.3339,2884.9236 2263.0995,2814.7018 2313.0797,2755.0915 C 2370.5677,2686.518 2381.8611,2654.3449 2388.3082,2597.1123 C 2397.4092,2516.3699 2314.9724,2467.9899 2204.464,2472.7849 C 2109.3143,2476.9135 2114.3064,2566.2562 1981.4321,2598.2755 C 1635.6521,2362.5666 1621.1727,2227.001 1798.1755,1932.9711 C 1823.3489,1891.1528 1622.6948,1858.6444 1578.8896,1878.9799 C 1378.1172,2078.1386 1328.5037,2135.5369 1257.1513,2264.3398 C 1198.3226,2370.536 1146.0316,2441.6213 1135.3731,2591.3117 C 1129.9079,2668.099 1182.7902,2911.6077 1302.5613,3024.9333 C 1227.4037,3077.2132 1112.7115,3111.2396 1228.8154,3249.7864 L 65.501409,3250.0545" />
    <path
       style="fill:none;stroke:#adff38;stroke-width:10;stroke-miterlimit:4;stroke-dasharray:none;stroke-opacity:1"
       id="path68"
       d="M 2173.1233,1188.7698 C 2083.5178,1182.6853 1724.1338,1237.4613 1655.4983,1384.4703 C 1586.8628,1531.4793 1637.399,1643.0462 1771.8151,1736.344 C 1906.2313,1829.6417 2129.0895,1877.8797 2315.489,1871.8189 C 2501.8885,1865.7581 2768.8556,1769.2505 2786.0007,1568.9167 C 2807.156,1321.7013 2700.855,1341.0391 2555.8671,1216.0257 C 2614.0886,920.9824 2596.6162,896.93635 2527.3379,903.4388 C 2458.0597,909.94125 2451.2931,1026.9972 2530.2007,1053.1095 C 2609.1083,1079.2218 2555.4964,1216.7986 2555.4964,1216.7986 C 2433.7577,1196.404 2335.347,1199.7873 2173.1233,1188.7698 L 2173.1233,1188.7698 z " />
    <path
       style="fill:none;stroke:#adff38;stroke-width:10;stroke-miterlimit:4;stroke-dasharray:none;stroke-opacity:1"
       id="path70"
       d="M 2639.4079,1608.7279 C 2616.9908,1647.6677 2600.6541,1675.7793 2580.1454,1640.8971 C 2573.9112,1638.4957 2552.8032,1596.6813 2601.1509,1566.4246 C 2621.3362,1557.9544 2633.9308,1595.8965 2639.4079,1608.7279 L 2639.4079,1608.7279 z " />
    <path
       style="fill:none;stroke:#adff38;stroke-width:10;stroke-miterlimit:4;stroke-dasharray:none;stroke-opacity:1"
       d="M 4033.0174,4051.0629 L 4033.0174,83.527034 L 65.50538,77.269066 L 52.989631,4051.0629 L 4033.0174,4051.0629 z "
       id="polygon72" />
  </g>
</svg>
