<?xml version="1.0" encoding="UTF-8" standalone="no"?>
<!-- Created with Inkscape (http://www.inkscape.org/) -->
<svg
   xmlns:dc="http://purl.org/dc/elements/1.1/"
   xmlns:cc="http://web.resource.org/cc/"
   xmlns:rdf="http://www.w3.org/1999/02/22-rdf-syntax-ns#"
   xmlns:svg="http://www.w3.org/2000/svg"
   xmlns="http://www.w3.org/2000/svg"
   xmlns:sodipodi="http://sodipodi.sourceforge.net/DTD/sodipodi-0.dtd"
   xmlns:inkscape="http://www.inkscape.org/namespaces/inkscape"
   width="4096"
   height="4096"
   id="svg2"
   sodipodi:version="0.32"
   inkscape:version="0.45.1"
   sodipodi:docbase="E:\laser graphics"
   sodipodi:docname="silhouet4.svg"
   inkscape:output_extension="org.inkscape.output.svg.inkscape"
   version="1.0">
  <defs
     id="defs4" />
  <sodipodi:namedview
     id="base"
     pagecolor="#000000"
     bordercolor="#666666"
     borderopacity="1.0"
     gridtolerance="50"
     guidetolerance="10"
     objecttolerance="10"
     inkscape:pageopacity="1"
     inkscape:pageshadow="2"
     inkscape:zoom="0.17773438"
     inkscape:cx="2048.0001"
     inkscape:cy="2048.0001"
     inkscape:document-units="px"
     inkscape:current-layer="layer1"
     showguides="true"
     inkscape:guide-bbox="false"
     inkscape:window-width="1032"
     inkscape:window-height="929"
     inkscape:window-x="20"
     inkscape:window-y="4"
     width="4096px"
     height="4096px"
     showgrid="true"
     inkscape:object-paths="true"
     inkscape:grid-bbox="false"
     gridempspacing="20"
     gridcolor="#ffffff"
     gridopacity="0.12941176"
     gridempcolor="#ffffff"
     gridempopacity="0.40784314"
     guidecolor="#ffffff"
     guideopacity="0.28627451"
     guidehicolor="#ff0000"
     guidehiopacity="0.64313725"
     borderlayer="false"
     showborder="true"
     inkscape:showpageshadow="true">
    <sodipodi:guide
       orientation="horizontal"
       position="410"
       id="guide2164" />
    <sodipodi:guide
       orientation="vertical"
       position="411.12022"
       id="guide2166" />
  </sodipodi:namedview>
  <metadata
     id="metadata7">
    <rdf:RDF>
      <cc:Work
         rdf:about="">
        <dc:format>image/svg+xml</dc:format>
        <dc:type
           rdf:resource="http://purl.org/dc/dcmitype/StillImage" />
      </cc:Work>
    </rdf:RDF>
  </metadata>
  <g
     inkscape:label="Layer 1"
     inkscape:groupmode="layer"
     id="layer1">
    <path
       style="fill:none;fill-opacity:1;stroke:#ffffff;stroke-width:6.00000048;stroke-miterlimit:4;stroke-dasharray:none;stroke-opacity:1"
       d="M 2554.3664,3985.5326 C 2533.9065,3978.7086 2509.9066,3966.3317 2501.0333,3958.0286 C 2486.8919,3944.7956 2485.5445,3934.2898 2490.1202,3872.9365 C 2493.8417,3823.0363 2492.5091,3802.9413 2485.4784,3802.9413 C 2480.0546,3802.9413 2475.6167,3814.9305 2475.6167,3829.5838 C 2475.6167,3847.4141 2471.3307,3856.2264 2462.6583,3856.2264 C 2452.037,3856.2264 2450.6809,3847.5972 2455.1392,3808.3754 C 2459.716,3768.1107 2457.0044,3752.4529 2438.0365,3709.6131 C 2425.6387,3681.6119 2415.4949,3655.0894 2415.4949,3650.6743 C 2415.4949,3646.2592 2424.7785,3638.9972 2436.125,3634.5366 C 2448.8927,3629.5173 2460.6434,3614.2446 2466.957,3594.4638 L 2477.1588,3562.501 L 2445.0477,3445.159 C 2427.3865,3380.621 2397.888,3287.8534 2379.4956,3239.0088 C 2355.9863,3176.5766 2340.9394,3115.9117 2328.8324,3034.7497 C 2317.8539,2961.1533 2303.6789,2901.5913 2289.7329,2870.4544 C 2277.7003,2843.59 2250.5604,2769.6569 2229.4223,2706.1591 C 2208.284,2642.6611 2164.5221,2532.7609 2132.1736,2461.9362 C 2099.8251,2391.1118 2064.6921,2303.3707 2054.1005,2266.956 C 2043.5086,2230.5417 2025.9733,2191.5771 2015.1327,2180.3681 C 2004.2923,2169.1591 1988.3773,2159.9881 1979.7661,2159.9881 C 1971.1547,2159.9881 1955.3347,2166.343 1944.6101,2174.1099 C 1927.9008,2186.2116 1925.8427,2193.5168 1930.2243,2225.1749 C 1933.6071,2249.6164 1929.3578,2284.6567 1917.6669,2328.7239 C 1867.6325,2517.3242 1855.9876,2570.8475 1843.6444,2668.9511 C 1836.2499,2727.7213 1820.8619,2801.4583 1809.4488,2832.8111 C 1798.0356,2864.164 1781.2132,2942.4082 1772.066,3006.6872 C 1761.9965,3077.444 1741.3442,3169.1117 1719.7247,3239.0088 C 1700.0846,3302.5067 1674.7317,3401.3299 1663.385,3458.6161 L 1642.7544,3562.7726 L 1670.5409,3615.4921 L 1698.3276,3668.2113 L 1673.935,3718.0608 C 1653.1181,3760.6031 1650.3849,3774.2426 1655.2888,3811.1104 C 1658.9537,3838.6648 1657.6785,3856.4557 1651.7676,3860.2331 C 1646.6705,3863.4903 1642.5001,3883.2067 1642.5001,3904.0469 C 1642.5001,3933.0371 1637.4282,3946.8651 1620.9104,3962.9106 C 1604.5966,3978.7577 1587.2811,3984.652 1550.0524,3987.0317 C 1520.1584,3988.9425 1492.3409,3985.5821 1479.3123,3978.4865 C 1467.5027,3972.0545 1456.6436,3958.2023 1455.1808,3947.7035 C 1453.718,3937.2048 1463.8943,3893.3446 1477.7951,3850.2366 C 1491.6957,3807.1287 1505.4947,3755.873 1508.4595,3736.3352 C 1511.4242,3716.7972 1510.2948,3695.1682 1505.9495,3688.2704 C 1500.7821,3680.0679 1501.9376,3671.7081 1509.2899,3664.1062 C 1521.967,3650.998 1526.3736,3581.6662 1538.5666,3203.4855 C 1545.1264,3000.0182 1549.8653,2941.2796 1564.6383,2880.3115 C 1574.5685,2839.3304 1586.0308,2765.3976 1590.1103,2716.0162 C 1595.4977,2650.8003 1594.2052,2599.4999 1585.3869,2528.5425 C 1563.1294,2349.4485 1564.5368,2354.3055 1531.6604,2343.1171 C 1499.449,2332.155 1455.3958,2281.7859 1449.2745,2248.9193 C 1447.1209,2237.3577 1441.4038,2223.8082 1436.5693,2218.8095 C 1431.7348,2213.8106 1427.7794,2203.789 1427.7794,2196.5392 C 1427.7794,2189.2892 1435.8575,2165.1113 1445.7306,2142.8101 C 1455.6038,2120.5091 1467.2132,2094.27 1471.5293,2084.501 C 1475.8456,2074.7321 1482.9622,2046.6603 1487.3437,2022.1189 C 1491.7254,1997.5775 1505.366,1946.5248 1517.6563,1908.6681 C 1529.9464,1870.8116 1549.2871,1792.9795 1560.6357,1735.7084 C 1571.9844,1678.437 1596.7429,1583.6223 1615.6552,1525.009 C 1651.7952,1413.0023 1668.2666,1304.3392 1668.2666,1177.9263 C 1668.2666,1091.9379 1689.727,937.27365 1711.2943,867.8276 C 1720.3958,838.52091 1731.7815,795.85992 1736.5961,773.02556 C 1741.4107,750.19109 1749.3257,666.2673 1754.1849,586.52823 C 1763.2204,438.26045 1781.5883,343.5059 1814.0462,277.71954 C 1823.2065,259.15377 1842.6398,233.57644 1857.2313,220.88101 C 1871.823,208.18541 1898.4603,193.24471 1916.4253,187.67932 C 1934.3903,182.11393 1980.3608,179.0287 2018.582,180.8234 L 2088.0748,184.08653 L 2114.9651,210.68769 C 2129.7549,225.31844 2149.0282,249.27799 2157.7945,263.93134 C 2179.736,300.60716 2237.777,510.28622 2261.3345,637.98042 C 2276.615,720.8093 2285.4196,748.69346 2302.2847,767.66884 C 2314.101,780.9637 2354.0263,808.11826 2391.0078,828.01212 C 2427.989,847.90588 2462.1488,871.72252 2466.9186,880.93776 C 2481.1527,908.43892 2499.7694,1003.9043 2510.0161,1101.9401 C 2520.9186,1206.2523 2530.4587,1445.8398 2528.9837,1578.294 C 2528.3406,1636.0494 2519.8063,1709.0233 2504.5761,1786.9933 C 2486.566,1879.1963 2481.0137,1933.7447 2480.5343,2023.1905 C 2480.1141,2101.6222 2483.2756,2143.6884 2490.2427,2152.3687 C 2497.7211,2161.6859 2498.4989,2180.4244 2493.059,2220.2177 C 2488.8976,2250.6595 2477.5733,2286.7683 2467.6839,2301.1287 L 2449.8243,2327.063 L 2458.2772,2410.041 C 2462.9264,2455.6791 2466.7654,2514.9993 2466.8086,2541.8637 C 2466.8517,2568.7283 2478.1643,2638.6647 2491.9479,2697.2783 C 2525.346,2839.3 2558.6116,3038.0327 2569.9919,3163.5218 C 2588.3737,3366.2144 2623.221,3656.5682 2630.0486,3663.9247 C 2633.8858,3668.0589 2635.0427,3694.0487 2632.6197,3721.6794 C 2629.0204,3762.7229 2632.3618,3782.1067 2650.878,3827.5946 C 2663.3432,3858.2173 2675.7827,3900.1768 2678.5215,3920.8379 C 2682.5424,3951.1713 2680.2304,3961.4641 2666.5124,3974.3006 C 2657.1688,3983.0442 2636.4832,3991.9399 2620.5449,3994.0689 C 2604.6064,3996.1982 2574.8261,3992.3568 2554.3664,3985.5326 z "
       id="path2166" />
    <path
       style="fill:none;fill-opacity:1;stroke:#ffffff;stroke-width:6.00000048;stroke-miterlimit:4;stroke-dasharray:none;stroke-opacity:1"
       d="M 1554.9353,2197.7316 C 1553.4955,2174.5305 1548.4524,2155.5477 1543.7286,2155.5477 C 1539.0048,2155.5477 1533.9618,2174.5305 1532.522,2197.7316 C 1530.4138,2231.7054 1532.5949,2239.9156 1543.7286,2239.9156 C 1554.8624,2239.9156 1557.0434,2231.7054 1554.9353,2197.7316 z "
       id="path2164" />
    <path
       style="fill:none;fill-opacity:1;stroke:#ffffff;stroke-width:6.00000048;stroke-miterlimit:4;stroke-dasharray:none;stroke-opacity:1"
       d="M 2393.1039,1941.6814 C 2401.4353,1919.232 2398.9033,1829.3256 2385.3713,1667.1022 C 2378.4447,1584.0664 2372.7263,1491.1507 2372.6641,1460.6228 C 2372.5851,1421.9911 2369.2638,1405.1177 2361.7379,1405.1177 C 2349.301,1405.1177 2317.0229,1493.2709 2303.2057,1564.9726 C 2298.0287,1591.8372 2294.2502,1635.7692 2294.8088,1662.5991 C 2295.559,1698.6298 2303.5135,1727.6473 2325.2397,1773.6095 C 2341.4181,1807.8352 2359.0782,1862.8133 2364.4844,1895.7836 C 2369.8907,1928.7536 2377.3688,1955.7291 2381.1024,1955.7291 C 2384.8359,1955.7291 2390.2366,1949.4077 2393.1039,1941.6814 z "
       id="path2162" />
    <path
       style="fill:none;fill-opacity:1;stroke:#ffffff;stroke-width:6.00000048;stroke-miterlimit:4;stroke-dasharray:none;stroke-opacity:1"
       d="M 1771.3326,1523.0047 C 1771.3326,1510.2678 1769.9438,1501.5117 1768.2465,1503.5469 C 1766.549,1505.582 1762.5292,1518.5721 1759.3132,1532.4136 C 1755.4782,1548.9202 1756.5403,1555.6157 1762.3994,1551.8713 C 1767.3128,1548.7317 1771.3326,1535.7416 1771.3326,1523.0047 z "
       id="path4223" />
  </g>
</svg>
