<?xml version="1.0" encoding="UTF-8" standalone="no"?>
<!-- Created with Inkscape (http://www.inkscape.org/) -->
<svg
   xmlns:dc="http://purl.org/dc/elements/1.1/"
   xmlns:cc="http://creativecommons.org/ns#"
   xmlns:rdf="http://www.w3.org/1999/02/22-rdf-syntax-ns#"
   xmlns:svg="http://www.w3.org/2000/svg"
   xmlns="http://www.w3.org/2000/svg"
   xmlns:sodipodi="http://sodipodi.sourceforge.net/DTD/sodipodi-0.dtd"
   xmlns:inkscape="http://www.inkscape.org/namespaces/inkscape"
   width="4095"
   height="4095"
   id="svg2"
   sodipodi:version="0.32"
   inkscape:version="0.46"
   sodipodi:docbase="E:\laser graphics"
   sodipodi:docname="silhouet1.svg"
   inkscape:output_extension="org.inkscape.output.svg.inkscape"
   version="1.0">
  <defs
     id="defs4">
    <inkscape:perspective
       sodipodi:type="inkscape:persp3d"
       inkscape:vp_x="0 : 2047.5 : 1"
       inkscape:vp_y="0 : 1000 : 0"
       inkscape:vp_z="4095 : 2047.5 : 1"
       inkscape:persp3d-origin="2047.5 : 1365 : 1"
       id="perspective10" />
  </defs>
  <sodipodi:namedview
     id="base"
     pagecolor="#000000"
     bordercolor="#666666"
     borderopacity="1.0"
     gridtolerance="50"
     guidetolerance="10"
     objecttolerance="10"
     inkscape:pageopacity="0.63921569"
     inkscape:pageshadow="2"
     inkscape:zoom="1.1273551"
     inkscape:cx="3238.4527"
     inkscape:cy="1647.9988"
     inkscape:document-units="px"
     inkscape:current-layer="layer1"
     showguides="true"
     inkscape:guide-bbox="false"
     inkscape:window-width="1119"
     inkscape:window-height="899"
     inkscape:window-x="146"
     inkscape:window-y="22"
     width="4095px"
     height="4095px"
     showgrid="true"
     inkscape:object-paths="true"
     inkscape:grid-bbox="false"
     guidecolor="#ffffff"
     guideopacity="0.28627451"
     guidehicolor="#ff0000"
     guidehiopacity="0.64313725"
     borderlayer="false"
     showborder="true"
     inkscape:showpageshadow="true">
    <sodipodi:guide
       orientation="horizontal"
       position="410"
       id="guide2164" />
    <sodipodi:guide
       orientation="vertical"
       position="410"
       id="guide2166" />
    <inkscape:grid
       id="GridFromPre046Settings"
       type="xygrid"
       originx="0px"
       originy="0px"
       spacingx="1px"
       spacingy="1px"
       color="#ffffff"
       empcolor="#ffffff"
       opacity="0.12941176"
       empopacity="0.40784314"
       empspacing="20" />
  </sodipodi:namedview>
  <metadata
     id="metadata7">
    <rdf:RDF>
      <cc:Work
         rdf:about="">
        <dc:format>image/svg+xml</dc:format>
        <dc:type
           rdf:resource="http://purl.org/dc/dcmitype/StillImage" />
      </cc:Work>
    </rdf:RDF>
  </metadata>
  <g
     inkscape:label="Layer 1"
     inkscape:groupmode="layer"
     id="layer1">
    <path
       id="path5954"
       style="fill:none;fill-opacity:1;stroke:#ff0000;stroke-width:6;stroke-opacity:1;stroke-miterlimit:4;stroke-dasharray:none"
       d="M 3239.099,2343.1204 C 3235.1321,2347.0916 3245.9449,2391.9389 3263.1275,2442.7809 C 3292.9655,2531.0688 3303.3954,2638.2172 3286.4539,2682.4137 C 3270.4374,2724.1968 3042.138,2775.7492 2725.6014,2809.06 L 2582.7928,2824.0886 L 2485.9146,2901.1568 C 2375.7439,2988.7993 2241.5222,3070.3458 2144.2825,3108.7152 C 1992.4352,3168.632 1797.7573,3198.0288 1705.012,3175.0461 C 1580.2879,3144.1388 1479.8255,3067.4216 1422.2573,2959.1232 C 1389.4687,2897.4409 1387.4376,2883.3284 1388.2671,2722.9544 C 1389.0413,2573.2549 1393.5078,2539.5469 1424.7763,2447.4242 C 1452.8481,2364.7192 1525.0023,2107.5423 1525.0023,2090.1916 C 1525.0023,2088.2221 1476.1584,2086.6107 1416.4603,2086.6107 C 1331.0804,2086.6107 1273.0465,2096.6417 1144.5022,2133.6181 C 1054.6232,2159.4721 970.76466,2189.9084 958.14979,2201.2541 C 945.53485,2212.5998 935.21352,2238.2959 935.21352,2258.3564 C 935.21352,2311.084 912.80615,2362.1409 889.66544,2362.1409 C 878.6743,2362.1409 869.68145,2366.9516 869.68145,2372.8314 C 869.68145,2378.7111 850.51332,2392.6884 827.08557,2403.8919 C 803.65789,2415.0955 750.56011,2451.9524 709.09059,2485.7962 C 620.50918,2558.0884 581.25425,2554.2148 653.35621,2480.2965 C 705.17822,2427.1689 711.20587,2382.9652 670.142,2357.1983 C 653.5544,2346.79 636.11437,2347.6776 604.60993,2360.5336 C 474.24458,2413.7314 464.20378,2415.7384 426.87429,2396.0611 C 355.0299,2358.1897 202.37347,2217.0418 210.4555,2195.9576 C 216.56702,2180.014 228.3833,2177.8469 265.44911,2185.8715 C 365.54584,2207.5421 426.97325,2196.275 547.65754,2134.1086 C 611.30965,2101.3203 702.43199,2061.5719 750.15193,2045.7786 C 861.30248,2008.9926 1141.9916,1875.7237 1302.1932,1783.6742 C 1370.6742,1744.3259 1451.7702,1701.0254 1482.4065,1687.4509 C 1513.0427,1673.8762 1538.1087,1658.4193 1538.1087,1653.1021 C 1538.1087,1647.7849 1516.2659,1639.3323 1489.5692,1634.3185 C 1462.8726,1629.3049 1417.164,1613.2209 1387.9945,1598.5764 C 1334.0909,1571.5141 1146.8067,1432.8929 1099.0437,1384.705 C 998.86984,1283.6399 726.14637,1073.1198 673.08516,1055.9 C 625.6616,1040.5096 437.9912,1041.0967 432.80601,1056.6514 C 430.40059,1063.8673 406.19564,1050.2259 379.01715,1026.3373 C 351.83866,1002.4487 291.87679,964.28042 245.76837,941.51899 C 136.40403,887.53108 128.77397,854.33881 236.04177,899.20632 C 296.64068,924.5533 357.18695,924.53974 366.9092,899.17695 C 379.94074,865.1808 358.79735,812.13231 315.26412,769.60044 C 204.68871,661.56814 191.41714,607.95366 246.13121,490.31571 C 290.85227,394.1631 358.53115,332.2595 358.53115,387.50726 C 358.53115,398.33161 368.06559,407.18798 379.71876,407.18798 C 395.78161,407.18798 399.22333,415.91507 393.9481,443.26931 C 384.23968,493.61289 432.58585,600.86448 475.10186,623.30132 C 493.88615,633.21422 556.43809,683.85935 614.10633,735.84575 C 759.87811,867.25557 949.22811,991.40716 1228.0002,1138.3592 C 1539.9815,1302.8173 1580.2477,1324.1934 1603.6408,1337.7757 C 1614.4536,1344.0537 1649.8409,1359.6925 1682.2793,1372.5286 C 1826.1328,1429.4522 1863.8843,1451.989 1941.8395,1527.4798 C 2071.6331,1653.1702 2068.7069,1641.7802 2049.0872,1944.9406 C 2034.7296,2166.7902 2037.2265,2393.8306 2054.211,2410.8333 C 2056.9137,2413.5387 2117.3584,2398.4389 2188.5326,2377.278 L 2317.9405,2338.8037 L 2313.6292,2268.2754 C 2310.2118,2212.3707 2314.9676,2190.557 2336.5655,2163.0702 C 2374.0481,2115.3676 2370.8008,2108.5603 2322.4924,2133.5684 L 2281.1719,2154.959 L 2330.7375,2094.4058 C 2364.1459,2053.5915 2407.8565,2020.6884 2464.8285,1993.469 C 2548.0976,1953.6857 2572.4285,1928.3833 2501.4304,1955.4058 C 2481.4096,1963.0259 2462.3073,1966.536 2458.9811,1963.206 C 2444.8527,1949.0626 2471.6775,1932.0362 2520.3692,1924.2419 C 2549.1263,1919.6384 2584.6444,1902.989 2599.2981,1887.2431 C 2636.8432,1846.9 2632.3985,1836.1078 2587.4774,1858.5415 C 2554.3829,1875.0689 2542.9477,1875.2123 2505.5623,1859.5683 C 2463.6873,1842.0458 2414.1201,1797.4713 2437.5701,1798.4249 C 2443.8591,1798.6805 2463.7494,1807.3276 2481.7708,1817.6407 C 2529.5299,1844.9715 2545.656,1841.8613 2587.2389,1797.2989 L 2624.5854,1757.2766 L 2643.5811,1794.0497 C 2654.0288,1814.2751 2675.6461,1842.6176 2691.6197,1857.0331 C 2708.9594,1872.6814 2698.9374,1850.4561 2666.7487,1801.8776 C 2637.0961,1757.1267 2612.8349,1716.8514 2612.8349,1712.3771 C 2612.8349,1707.9028 2604.4115,1695.8097 2594.1163,1685.5034 C 2583.8211,1675.1971 2568.1811,1634.4825 2559.3606,1595.0266 C 2546.3769,1536.9468 2536.8403,1520.906 2509.2706,1510.7744 C 2486.6495,1502.4614 2482.9174,1497.9125 2498.1538,1497.2245 C 2510.7687,1496.6548 2521.09,1491.2684 2521.09,1485.255 C 2521.09,1463.8652 2504.1832,1457.9401 2480.0475,1470.8709 C 2463.0678,1479.9679 2455.5579,1479.5888 2455.5579,1469.635 C 2455.5579,1461.739 2450.0675,1458.6753 2443.3571,1462.827 C 2418.6441,1478.117 2413.2515,1438.6706 2430.2191,1366.7239 C 2445.5998,1301.5052 2458.5085,1282.3924 2540.0712,1204.073 C 2644.7669,1103.5408 2742.8752,1056.4116 2824.9295,1067.2331 C 2966.2485,1085.8706 3131.003,1218.8471 3212.0367,1379.6747 C 3269.6206,1493.9612 3346.7943,1665.3097 3346.7943,1678.8764 C 3346.7943,1709.7087 3390.9882,1764.8682 3493.5838,1862.0879 C 3598.3314,1961.3464 3716.8603,2103.6769 3773.4348,2198.1348 C 3786.4011,2219.7836 3757.4187,2196.1667 3709.0295,2145.6528 L 3621.0491,2053.8095 L 3681.6552,2138.8025 C 3766.1801,2257.3385 3778.3989,2287.3398 3713.8356,2217.8156 L 3659.0064,2158.7733 L 3697.4666,2211.2554 C 3748.007,2280.2217 3800.56,2372.1382 3817.492,2421.1832 C 3828.7492,2453.7907 3828.3256,2456.3029 3815.0233,2435.8238 C 3761.9673,2354.1437 3682.6145,2258.5353 3640.3212,2225.3333 C 3613.4154,2204.2112 3596.4303,2195.3548 3602.5766,2205.6526 C 3633.9046,2258.1404 3871.5192,2549.812 3941.3224,2621.4629 C 4006.0205,2687.8735 4018.7995,2707.7827 4007.8657,2725.1349 C 4000.4228,2736.9472 3934.38,2782.6183 3861.1039,2826.6265 C 3787.8277,2870.6346 3727.6508,2911.634 3727.3775,2917.7363 C 3727.1041,2923.8387 3739.2269,2946.189 3754.317,2967.4038 C 3769.4071,2988.6188 3778.2782,3015.0425 3774.0307,3026.1234 C 3767.3853,3043.4597 3760.9896,3042.4794 3728.1879,3019.0974 C 3678.4703,2983.6574 3674.4548,2984.5683 3674.4548,3031.2859 C 3674.4548,3078.7809 3647.7602,3083.3008 3616.3376,3041.1263 C 3601.3444,3021.0027 3596.4859,3018.7935 3601.0757,3034.1863 C 3604.7789,3046.6059 3598.1372,3066.4495 3586.3164,3078.283 C 3566.3976,3098.2233 3563.5597,3098.0675 3547.5541,3076.155 C 3538.0556,3063.151 3530.2841,3042.18 3530.2841,3029.5525 C 3530.2841,2982.9419 3504.8466,2992.7986 3490.8502,3044.8326 C 3470.8911,3119.0348 3433.6361,3112.8864 3427.9558,3034.4528 C 3423.2874,2969.9924 3404.7822,2963.7797 3359.9007,3011.6052 C 3328.5607,3045.0009 3268.1558,3056.6888 3268.1558,3029.3571 C 3268.1558,2998.9231 3361.4845,2900.0813 3390.2676,2900.032 C 3431.425,2899.9613 3494.304,2858.046 3583.4675,2771.2441 C 3629.6456,2726.289 3661.3483,2684.2462 3661.3483,2667.9618 C 3661.3483,2636.2773 3554.281,2532.7876 3399.3702,2414.7373 C 3305.7787,2343.4158 3259.4733,2322.7242 3239.099,2343.1204 z M 3070.3523,2488.4321 C 3064.2888,2488.4321 3026.6668,2518.6028 2966.7082,2565.5085 C 2854.4607,2653.3202 2838.679,2673.7458 2924.3727,2620.3017 C 2951.2615,2603.5321 3001.2764,2582.1 3035.5169,2572.6748 C 3091.3492,2557.306 3097.7724,2551.6528 3097.7724,2517.8817 C 3097.7724,2497.1708 3076.4156,2488.4321 3070.3523,2488.4321"
       sodipodi:nodetypes="csscccscssssssssssssssssssssssssssssssssssssssssssssscccscccssssssssscccssssssssssssssssssccccccsssssssssssssssssssssssssscscsss" />
  </g>
</svg>
