<?xml version="1.0" encoding="UTF-8" standalone="no"?>
<!-- Created with Inkscape (http://www.inkscape.org/) -->
<svg
   xmlns:dc="http://purl.org/dc/elements/1.1/"
   xmlns:cc="http://web.resource.org/cc/"
   xmlns:rdf="http://www.w3.org/1999/02/22-rdf-syntax-ns#"
   xmlns:svg="http://www.w3.org/2000/svg"
   xmlns="http://www.w3.org/2000/svg"
   xmlns:sodipodi="http://sodipodi.sourceforge.net/DTD/sodipodi-0.dtd"
   xmlns:inkscape="http://www.inkscape.org/namespaces/inkscape"
   width="820"
   height="820"
   id="svg2"
   sodipodi:version="0.32"
   inkscape:version="0.44+devel"
   sodipodi:docbase="H:\laser graphics"
   sodipodi:docname="silhouet12.svg"
   inkscape:output_extension="org.inkscape.output.svg.inkscape"
   version="1.0"
   sodipodi:modified="true">
  <defs
     id="defs4" />
  <sodipodi:namedview
     id="base"
     pagecolor="#000000"
     bordercolor="#666666"
     borderopacity="1.0"
     gridtolerance="50"
     guidetolerance="10"
     objecttolerance="10"
     inkscape:pageopacity="1"
     inkscape:pageshadow="2"
     inkscape:zoom="0.85609756"
     inkscape:cx="410"
     inkscape:cy="342.56632"
     inkscape:document-units="px"
     inkscape:current-layer="layer1"
     showguides="true"
     inkscape:guide-bbox="false"
     inkscape:window-width="1119"
     inkscape:window-height="899"
     inkscape:window-x="146"
     inkscape:window-y="22"
     width="820px"
     height="820px"
     showgrid="true"
     inkscape:object-paths="true"
     inkscape:grid-bbox="false"
     gridempspacing="20"
     gridcolor="#ffffff"
     gridopacity="0.12941176"
     gridempcolor="#ffffff"
     gridempopacity="0.40784314"
     guidecolor="#ffffff"
     guideopacity="0.28627451"
     guidehicolor="#ff0000"
     guidehiopacity="0.64313725"
     borderlayer="false"
     showborder="true"
     inkscape:showpageshadow="true">
    <sodipodi:guide
       orientation="horizontal"
       position="410"
       id="guide2164" />
    <sodipodi:guide
       orientation="vertical"
       position="410"
       id="guide2166" />
  </sodipodi:namedview>
  <metadata
     id="metadata7">
    <rdf:RDF>
      <cc:Work
         rdf:about="">
        <dc:format>image/svg+xml</dc:format>
        <dc:type
           rdf:resource="http://purl.org/dc/dcmitype/StillImage" />
      </cc:Work>
    </rdf:RDF>
  </metadata>
  <g
     inkscape:label="Layer 1"
     inkscape:groupmode="layer"
     id="layer1">
    <path
       style="fill:black;fill-opacity:1;stroke:#a8aff6;stroke-opacity:1"
       d="M 351.42129,703.68641 C 346.84665,701.40066 346.26688,700.35607 346.35109,694.55133 C 346.41306,690.28103 348.53503,683.96071 352.4406,676.41374 C 356.49951,668.57043 358.88943,661.31795 359.8424,653.95213 C 360.61647,647.96909 362.03371,641.06733 362.99185,638.61489 C 363.94996,636.16244 365.46972,620.00337 366.36905,602.70584 C 367.64948,578.0789 369.22973,565.08786 373.65302,542.82558 C 380.06108,510.57389 380.17068,509.03418 376.83975,498.05309 C 370.64717,477.63806 375.6715,412.8364 385.70895,383.66209 C 388.55377,375.39345 388.54674,374.98183 385.41539,366.4711 C 383.65089,361.67538 380.4807,353.03653 378.37052,347.27366 C 372.71141,331.81874 373.222,323.864 380.97887,306.63708 C 384.56105,298.68157 388.92769,286.12712 390.68253,278.73828 C 392.43738,271.34944 394.94697,262.73402 396.25942,259.59291 C 397.57187,256.45178 398.66161,251.86364 398.68109,249.39703 C 398.70056,246.93042 400.12723,241.80398 401.8515,238.00495 C 406.75517,227.20069 410.01376,208.40745 411.69428,181.23866 C 413.41684,153.39035 415.60639,143.67936 422.66881,132.56487 C 428.89136,122.77214 435.45669,119.31184 447.81139,119.31335 C 459.7574,119.31481 468.18437,122.08605 475.33538,128.36472 C 481.97166,134.19144 485.43236,144.45091 491.4177,176.04165 C 493.72302,188.20925 496.67025,199.81373 497.9671,201.82938 C 499.26393,203.84503 503.15556,206.62677 506.61515,208.01103 C 514.06372,210.99135 515.20742,212.61261 529.80373,240.8823 C 558.59297,296.64044 555.81474,289.75751 555.81474,305.32308 L 555.81474,319.2914 L 541.75503,347.68287 C 534.0222,363.29818 525.39112,378.69869 522.57486,381.90623 C 516.94966,388.31297 510.17793,392.40939 505.21224,392.40939 C 503.44733,392.40939 501.68013,392.95344 501.28509,393.61838 C 500.89007,394.28333 503.06295,403.16943 506.11374,413.36527 C 511.27709,430.62135 511.81382,434.57822 513.87617,470.59092 C 515.09745,491.91678 517.28962,514.70429 518.76103,521.36862 C 520.25438,528.1323 525.31239,541.4708 530.24211,551.64537 C 538.17644,568.02124 539.68999,572.96393 545.44221,601.28323 C 550.03132,623.8763 552.91851,634.41732 555.69346,638.71006 C 557.81804,641.99677 560.05993,647.95015 560.67541,651.93983 C 561.2909,655.92951 564.72671,667.07166 568.31057,676.70018 C 574.15452,692.40079 574.67749,694.97679 573.38065,701.6735 C 574.30431,717.86066 540.55338,731.31364 541.71102,704.68759 C 545.09125,701.06277 545.00972,683.28585 541.58238,676.64039 C 540.29155,674.13752 538.72611,665.56115 538.10364,657.5818 C 536.77196,640.51151 533.87765,633.25883 519.95213,612.09697 C 512.94849,601.45394 508.52212,592.30962 504.34621,579.85717 C 500.8579,569.45506 495.59265,557.95886 491.23512,551.23017 C 487.19779,544.99596 482.49657,534.94057 480.6839,528.66231 C 475.56192,510.92219 469.87014,494.83785 464.83707,483.88101 C 454.5969,461.58844 450.27625,449.26285 450.24682,442.25908 C 450.2291,438.04007 444.36668,431.09716 440.82198,431.09716 C 438.31512,431.09716 436.57777,435.52007 433.22352,450.44104 C 431.72871,457.0905 429.64083,463.98176 428.58376,465.75495 C 421.8711,477.01525 419.23058,487.09822 417.97605,506.2613 C 416.9234,522.34047 415.89427,527.77652 412.49874,535.19332 C 409.50903,541.72368 408.31763,547.02529 408.31763,553.79864 C 408.31763,561.19425 406.54196,568.06752 400.21907,585.14651 C 390.19616,612.21976 384.13777,632.87392 384.13777,639.97056 C 384.13777,642.94164 385.59329,649.0652 387.37226,653.57848 C 390.80087,662.27693 390.59389,663.4733 384.03035,672.8957 C 382.27396,675.41711 380.83888,681.59611 380.19671,689.40232 L 379.17031,701.87895 C 378.39946,738.71494 352.56096,708.28848 351.42129,703.68641 z "
       id="path2174" />
    <path
       style="fill:black;fill-opacity:1;stroke:#a8aff6;stroke-opacity:1"
       d="M 514.23842,360.97558 C 516.24059,357.4292 519.79874,348.72445 522.14541,341.6317 C 524.49208,334.53894 528.13126,324.58661 530.23247,319.5154 C 534.81518,308.45521 535.05795,302.27471 531.11228,297.11636 C 529.49495,295.00196 524.7578,286.95394 520.58524,279.23186 C 516.41268,271.50979 512.40433,264.82433 511.67775,264.37529 C 510.95118,263.92624 510.69475,267.0768 511.1079,271.37653 C 512.04804,281.1608 509.36885,289.48007 502.90793,296.83866 C 498.67886,301.6553 497.85671,303.96247 497.64367,311.6113 C 497.48553,317.28929 495.80824,324.42788 493.15418,330.71873 C 490.52091,336.96026 488.91714,343.75356 488.91714,348.66605 C 488.91714,355.86465 489.50283,357.09958 495.47638,362.49633 C 504.12963,370.31402 509.19819,369.90319 514.23842,360.97558 z "
       id="path2172" />
    <path
       style="fill:black;fill-opacity:1;stroke:#a8aff6;stroke-opacity:1"
       d="M 413.27708,331.63497 C 414.09576,329.48167 414.76559,322.35218 414.76559,315.79162 C 414.76559,305.48388 414.32434,303.6272 411.51769,302.12514 C 409.06448,300.81222 408.09229,300.89694 407.54432,302.47142 C 407.14532,303.61789 404.622,310.66614 401.93695,318.13417 C 399.25189,325.60221 397.25107,331.90846 397.49068,332.14808 C 397.7303,332.38771 399.99196,333.65539 402.51656,334.96518 C 408.07294,337.84786 411.29394,336.851 413.27708,331.63497 z "
       id="path2170" />
    <path
       style="fill:black;fill-opacity:1;stroke:#a8aff6;stroke-opacity:1"
       d="M 292.08457,708.35949 C 292.90314,708.35949 292.97131,705.89653 292.24224,702.66389 C 291.53572,699.53131 291.5927,691.91082 292.36886,685.72948 C 293.26896,678.56109 293.19131,672.94218 292.15448,670.21509 C 291.2604,667.86352 289.94755,658.49078 289.23703,649.38678 C 287.80177,630.99682 287.85132,631.10589 272.19528,611.87141 C 266.51336,604.8908 259.70116,595.63581 257.05708,591.30481 C 252.35977,583.61059 242.31221,559.08746 240.01232,549.70357 C 239.3773,547.1126 235.82001,541.5788 232.10723,537.40624 C 228.39445,533.23369 222.89916,524.10993 219.89546,517.13124 C 210.59257,495.51721 207.27611,488.8323 198.06127,473.12059 C 193.15745,464.75935 186.88866,452.42763 184.13063,445.71675 C 181.37259,439.00586 176.61714,428.25603 173.56296,421.82821 C 168.55817,411.29513 167.54972,410.14128 163.34881,410.14128 C 158.94545,410.14128 158.59405,410.65383 156.99404,419.41023 C 156.06252,424.50815 154.12369,433.39424 152.68552,439.15711 C 147.74695,458.94642 145.56696,472.21948 145.53712,482.68085 C 145.50124,495.25831 141.84683,513.5832 138.39037,518.518 C 136.46542,521.26625 135.89669,526.54032 135.91489,541.47418 C 135.92788,552.13769 135.06843,572.52672 134.00499,586.78315 C 132.45881,607.51125 132.48481,615.2615 134.13481,625.47092 C 135.26965,632.49276 136.20536,642.22759 136.21415,647.10386 C 136.23339,657.7786 133.06803,695.37199 131.83027,698.51781 C 127.81119,708.73245 104.02899,708.26471 103.36586,696.0111 C 103.08468,690.81547 99.985178,685.7359 104.8787,674.50769 C 109.55622,663.77513 112.54751,638.19616 109.92178,631.38363 C 108.20483,626.92896 105.13755,613.47452 101.34111,593.74503 C 98.953438,581.33673 99.264908,514.56037 101.77643,500.41274 C 102.64208,495.53647 104.18352,486.86287 105.20184,481.13808 C 106.56306,473.4856 106.59949,465.37531 105.3394,450.51026 C 102.18096,413.2508 99.873398,397.24536 97.660019,397.24536 C 96.522334,397.24536 95.589457,396.33862 95.58696,395.23037 C 95.584462,394.12213 94.796455,386.80687 93.835833,378.97424 C 91.772272,362.14856 92.951358,357.97923 101.7621,350.94639 C 108.99313,345.17448 125.80467,334.37774 127.56102,334.37774 C 129.33128,334.37774 135.52021,327.50629 145.52109,314.43703 L 153.99573,303.36229 L 152.9064,293.73382 C 152.30726,288.43818 151.05827,282.17819 150.13086,279.82273 C 149.20345,277.46728 148.16162,269.60816 147.81567,262.35803 C 147.23459,250.17993 147.49318,248.81172 151.21092,244.39343 C 153.42425,241.76305 155.23515,237.88219 155.23515,235.76931 C 155.23515,233.65644 156.4853,230.14288 158.01326,227.96141 C 159.54122,225.77994 160.92662,220.72211 161.09192,216.72179 C 161.25721,212.72148 162.12805,201.10644 163.0271,190.9106 C 164.61823,172.86632 164.55771,172.16963 160.75444,164.74543 C 154.86597,153.25079 155.45483,144.94738 162.94914,133.79861 C 169.43126,124.15559 174.8165,120.10519 187.62719,115.23751 C 193.94185,112.83813 196.64614,112.55938 200.79348,113.88035 C 210.91027,117.10266 216.49695,120.52818 219.69236,125.46838 C 221.46847,128.2143 224.37247,132.63716 226.14569,135.29694 C 227.91891,137.95672 229.37355,141.79411 229.37822,143.82446 C 229.38321,145.99761 231.95176,149.97583 235.62293,153.4964 C 240.9066,158.56332 242.02587,160.84095 242.95065,168.40777 C 244.30019,179.45014 246.78052,186.58126 252.19408,194.9833 C 254.49419,198.55318 256.89667,203.84404 257.53289,206.74077 C 258.54754,211.36042 260.07656,212.62768 269.97697,217.05451 C 282.77203,222.77565 283.22923,223.49647 286.60443,243.27006 C 289.21087,258.53978 291.55095,317.86388 289.9642,328.44497 C 289.07479,334.37602 286.41304,338.90527 276.34461,351.62012 C 262.31117,369.34218 257.321,374.60833 241.80465,388.07024 C 235.86925,393.21976 230.61492,399.02292 230.12835,400.96616 C 229.60705,403.04812 231.86446,411.47411 235.62436,421.48052 C 239.13374,430.8202 243.13904,443.51463 244.52504,449.69035 C 245.91104,455.8661 248.49997,466.35945 250.27823,473.00891 C 252.05649,479.65837 253.52384,486.09562 253.53899,487.31393 C 253.57699,490.36685 262.95932,511.64435 275.30812,536.68252 C 294.0131,574.6084 303.36378,599.67469 308.38147,625.34199 C 309.42139,630.66156 312.53134,639.00361 315.29246,643.87988 C 320.39624,652.89339 321.10969,656.66696 323.8887,689.34656 C 344.18859,730.88242 281.77084,712.67483 292.08457,708.35949 z "
       id="path2168" />
    <path
       style="fill:black;fill-opacity:1;stroke:#a8aff6;stroke-opacity:1"
       d="M 236.86923,361.32493 C 242.23899,350.73588 251.07131,337.11753 254.31528,334.42528 C 259.82269,329.85453 261.41261,324.26028 260.1786,313.79459 C 258.82024,302.27416 257.39107,299.79694 255.90135,306.38069 C 252.80919,320.04634 251.3851,322.93696 243.69675,331.15376 C 229.53436,346.28958 226.16272,352.75272 226.16272,364.765 L 226.16272,375.17718 L 229.56094,372.10636 C 231.42995,370.41739 234.71869,365.56576 236.86923,361.32493 z "
       id="path2166" />
    <path
       style="fill:black;fill-opacity:1;stroke:#a8aff6;stroke-opacity:1"
       d="M 610.00979,680.4159 C 609.72334,648.19266 608.9801,634.03381 607.16548,626.23189 C 601.11233,600.20631 601.60159,547.04962 608.06251,528.77321 C 612.04333,517.51244 612.34835,505.28738 609.05818,488.86762 C 606.02271,473.71896 599.62366,450.72843 594.9977,438.35112 C 592.00849,430.35311 591.39056,425.4708 591.42736,410.14128 C 591.48157,387.56151 594.42673,374.86373 604.51352,353.72162 C 611.13398,339.84498 613.46554,336.80688 629.35595,321.35099 C 644.44966,306.67 646.93149,303.52663 647.17434,298.78313 C 647.66271,289.24406 646.81886,280.54792 644.91889,275.54009 C 641.48247,266.48252 624.48616,241.71581 615.05045,232.01636 C 609.87554,226.69679 603.55754,218.71744 601.01045,214.28446 C 598.46336,209.85149 591.38697,198.75915 585.28513,189.63481 C 569.28074,165.70277 566.29268,159.52538 566.29268,150.37076 C 566.29268,138.17329 569.34234,136.10293 587.30932,136.10293 C 600.0407,136.10293 603.6806,135.40677 616.17151,130.58278 C 624.03293,127.5467 633.82885,124.55818 637.94023,123.94165 C 648.78628,122.31518 658.50884,126.40872 664.50743,135.12738 C 672.61306,146.90851 672.3958,146.86317 688.84055,140.20519 C 705.70345,133.37791 732.52871,126.92385 750.26647,125.42634 L 762.56328,124.38818 L 764.57395,130.48058 C 769.078,144.12797 764.52366,161.33593 745.84228,201.25551 C 731.83454,231.18817 730.03496,237.43492 733.06668,245.60237 C 743.58439,273.9371 743.58105,273.77943 733.91865,285.80299 C 730.83341,289.64216 728.0472,295.73858 726.72769,301.53724 C 725.54291,306.74389 719.32799,325.87449 712.91677,344.04968 C 702.64602,373.16629 701.23824,378.53957 701.07694,389.24072 L 700.89387,401.38594 L 711.52848,417.45055 C 723.68321,435.81144 726.81396,442.76365 733.86507,467.05149 C 736.64599,476.63053 741.0647,490.28119 743.68444,497.38628 C 749.28216,512.56812 749.41439,515.87352 745.18872,534.98887 C 743.43471,542.92331 741.99047,554.16694 741.97928,559.97472 C 741.96811,565.78249 739.76482,582.86605 737.08312,597.93815 C 733.53835,617.86103 731.94177,632.87103 731.23464,652.92197 C 730.15905,683.42021 729.2866,680.19235 741.19363,689.76739 C 745.15791,692.95526 745.7151,694.17006 744.28486,696.50682 C 740.7265,702.32052 722.48392,703.25948 715.29006,697.9992 C 712.81787,696.19149 712.39057,693.92354 712.71937,684.35508 C 713.14737,671.89974 712.92683,671.50364 700.21211,661.89216 C 694.02943,657.21849 694.00116,654.1072 700.044,643.39986 C 708.54591,628.33529 709.50778,605.96561 702.44936,587.46022 C 700.01185,581.06971 699.90272,578.38342 701.53254,564.89235 C 702.55006,556.4697 704.44615,545.58877 705.74607,540.7125 C 710.0036,524.74166 709.19723,520.49403 699.01103,505.23437 C 693.9858,497.70619 686.76253,487.70966 682.95933,483.01982 C 679.15615,478.32997 671.99654,466.72364 667.0491,457.22797 C 662.10166,447.7323 656.64662,438.14962 654.92681,435.93313 L 651.79985,431.90315 L 651.76402,452.22194 C 651.71101,482.26574 648.94223,511.58899 644.97246,524.14915 C 642.11485,533.19047 641.45855,539.64925 641.15999,561.66837 C 640.84002,585.26464 640.30897,589.90343 636.45414,602.77413 C 627.51204,632.63047 629.94718,674.28995 642.00319,697.70498 C 625.22021,723.72652 600.46133,703.70625 610.00979,680.4159 z "
       id="path2164" />
    <path
       style="fill:black;fill-opacity:1;stroke:#a8aff6;stroke-opacity:1"
       d="M 706.38592,207.24104 C 708.19739,204.69705 710.45755,200.56924 711.40848,198.06812 C 712.35939,195.56701 716.36714,188.33877 720.31456,182.00538 C 724.26199,175.67199 727.49171,169.95857 727.49171,169.30888 C 727.49171,168.65919 729.19818,165.81849 731.28387,162.99622 C 738.82532,152.79139 739.38842,153.22758 720.08739,154.32314 C 697.74925,155.59108 682.35598,158.35266 682.35598,161.09223 C 682.35598,162.23456 684.61501,168.47781 687.37602,174.96612 C 690.28726,181.80743 692.74492,190.85071 693.22652,196.49378 C 694.49141,211.3153 700.17789,215.95943 706.38592,207.24104 z "
       id="path2162" />
    <path
       style="fill:black;fill-opacity:1;stroke:#a8aff6;stroke-opacity:1"
       d="M 607.16992,162.17307 C 608.16883,156.83545 608.14833,156.81484 602.9501,157.92966 C 594.98788,159.63726 594.69335,160.27029 599.51807,165.30621 C 604.49619,170.50225 605.70365,170.00784 607.16992,162.17307 z "
       id="path4120" />
  </g>
</svg>
