<?xml version="1.0" encoding="UTF-8" standalone="no"?>
<!-- Created with Inkscape (http://www.inkscape.org/) -->
<svg
   xmlns:dc="http://purl.org/dc/elements/1.1/"
   xmlns:cc="http://web.resource.org/cc/"
   xmlns:rdf="http://www.w3.org/1999/02/22-rdf-syntax-ns#"
   xmlns:svg="http://www.w3.org/2000/svg"
   xmlns="http://www.w3.org/2000/svg"
   xmlns:xlink="http://www.w3.org/1999/xlink"
   xmlns:sodipodi="http://sodipodi.sourceforge.net/DTD/sodipodi-0.dtd"
   xmlns:inkscape="http://www.inkscape.org/namespaces/inkscape"
   width="4095"
   height="4095"
   id="svg2"
   sodipodi:version="0.32"
   inkscape:version="0.45.1"
   sodipodi:docbase="E:\laser graphics"
   sodipodi:docname="smiley.svg"
   inkscape:output_extension="org.inkscape.output.svg.inkscape"
   version="1.0">
  <defs
     id="defs4" />
  <sodipodi:namedview
     id="base"
     pagecolor="#000000"
     bordercolor="#666666"
     borderopacity="1.0"
     gridtolerance="50"
     guidetolerance="10"
     objecttolerance="10"
     inkscape:pageopacity="0.77254902"
     inkscape:pageshadow="2"
     inkscape:zoom="0.15848596"
     inkscape:cx="2047.5"
     inkscape:cy="2047.5"
     inkscape:document-units="px"
     inkscape:current-layer="layer1"
     showguides="true"
     inkscape:guide-bbox="true"
     inkscape:window-width="960"
     inkscape:window-height="850"
     inkscape:window-x="11"
     inkscape:window-y="14"
     width="4095px"
     height="4095px"
     showgrid="true"
     inkscape:object-paths="true"
     inkscape:grid-bbox="false"
     gridempspacing="20"
     gridcolor="#ffffff"
     gridopacity="0.12941176"
     gridempcolor="#ffffff"
     gridempopacity="0.40784314"
     guidecolor="#ffffff"
     guideopacity="0.28627451"
     guidehicolor="#ff0000"
     guidehiopacity="0.64313725"
     borderlayer="false"
     showborder="true"
     inkscape:showpageshadow="true">
    <sodipodi:guide
       orientation="horizontal"
       position="410"
       id="guide2164" />
    <sodipodi:guide
       orientation="vertical"
       position="410"
       id="guide2166" />
  </sodipodi:namedview>
  <metadata
     id="metadata7">
    <rdf:RDF>
      <cc:Work
         rdf:about="">
        <dc:format>image/svg+xml</dc:format>
        <dc:type
           rdf:resource="http://purl.org/dc/dcmitype/StillImage" />
      </cc:Work>
    </rdf:RDF>
  </metadata>
  <g
     inkscape:label="Layer 1"
     inkscape:groupmode="layer"
     id="layer1"
     style="opacity:1;display:inline">
    <image
       y="214.34251"
       x="-648.59088"
       id="image3319"
       height="604"
       width="602"
       sodipodi:absref="E:\laser graphics\images\retardoface.jpg"
       xlink:href="images\retardoface.jpg" />
    <path
       style="fill:none;stroke:#ffff00;stroke-width:3.99999976;stroke-miterlimit:4;stroke-dasharray:none;stroke-opacity:1"
       d="M 2200.417,3841.9836 C 2844.8006,3790.426 3438.9207,3360.1688 3686.6038,2762.9182 C 3939.0804,2182.5163 3844.405,1467.312 3440.4215,978.80213 C 3082.9612,510.25104 2473.5777,251.55816 1887.0903,312.85588 C 1159.6857,373.3063 510.29154,934.01734 339.92754,1643.1721 C 159.30945,2314.6838 431.80221,3072.1856 988.40954,3486.1347 C 1331.6633,3746.7975 1770.1392,3877.3293 2200.417,3841.9836 z "
       id="path3336" />
    <path
       style="fill:none;stroke:#ffff00;stroke-width:3.99999976;stroke-miterlimit:4;stroke-dasharray:none;stroke-opacity:1"
       d="M 1827.1171,3664.0543 C 1679.7172,3643.1926 1526.5717,3590.7954 1404.3223,3519.3992 C 1304.3607,3461.0196 1167.7216,3338.063 1063.6563,3212.8464 C 949.39285,3075.3589 814.24079,2819.2821 763.4393,2644.0159 C 730.1096,2529.0278 718.05046,2462.6573 722.59232,2419.204 L 726.49521,2381.864 L 655.18086,2381.864 L 583.86651,2381.864 L 583.86651,2326.6816 L 583.86651,2271.4991 L 1868.553,2271.4991 L 3153.2394,2271.4991 L 3179.5844,2351.0268 C 3194.0741,2394.7669 3210.853,2458.3079 3216.8707,2492.2289 C 3231.6341,2575.4484 3231.5822,2728.9272 3216.764,2807.0933 C 3186.4553,2966.9727 3093.8289,3135.1526 2963.5399,3266.867 C 2753.0578,3479.6518 2510.4393,3604.2107 2200.4169,3658.6497 C 2121.4777,3672.5112 1908.6416,3675.5927 1827.1171,3664.0543 z "
       id="path3334" />
    <path
       style="fill:none;stroke:#ff79c1;stroke-width:3.99999976;stroke-miterlimit:4;stroke-dasharray:none;stroke-opacity:1"
       d="M 1635.5981,3502.1865 C 1635.5981,3510.6495 1795.1257,3549.9707 1866.0702,3558.9945 C 1918.2807,3565.6353 2079.8107,3562.4421 2138.7413,3553.6042 C 2352.8912,3521.4877 2556.8924,3432.5757 2737.644,3292.5781 C 2767.1023,3269.7619 2791.2045,3248.6075 2791.2045,3245.5685 C 2791.2045,3237.0762 2748.3997,3186.8582 2714.4936,3155.5723 C 2638.2824,3085.2506 2544.7827,3033.1308 2437.3812,3001.101 C 2385.4238,2985.6059 2367.8052,2983.6212 2278.323,2983.1838 C 2194.6368,2982.7747 2168.0356,2985.1268 2120.3267,2997.1539 C 1893.954,3054.2211 1715.4414,3224.4316 1651.86,3443.8338 C 1642.916,3474.6973 1635.5981,3500.956 1635.5981,3502.1865"
       id="path3332"
       sodipodi:nodetypes="csccsscsscs" />
    <path
       style="fill:none;stroke:#ffff00;stroke-width:3.99999976;stroke-miterlimit:4;stroke-dasharray:none;stroke-opacity:1"
       d="M 522.05742,1945.2736 C 481.39371,1834.2433 470.66527,1773.182 470.44317,1651.5083 C 470.2375,1538.8457 476.95469,1492.4236 506.82445,1400.0783 C 539.71424,1298.3966 603.0986,1189.8965 669.55531,1121.5189 C 703.13067,1086.973 786.01498,1043.68 850.0455,1027.2433 C 912.99949,1011.0831 1028.1855,1013.1897 1087.0097,1031.5772 C 1290.8677,1095.3001 1437.7294,1273.0777 1490.2841,1519.7452 C 1498.3875,1557.7785 1501.7327,1602.217 1501.6693,1670.9845 C 1501.574,1774.3038 1495.0135,1821.1939 1469.2374,1902.7885 L 1453.2525,1953.3887 L 989.14097,1953.3887 C 623.76499,1953.3887 524.39719,1951.6622 522.05742,1945.2736 z "
       id="path3330" />
    <path
       style="fill:none;stroke:#ffffff;stroke-width:3.99999976;stroke-miterlimit:4;stroke-dasharray:none;stroke-opacity:1"
       d="M 1376.991,1817.0556 C 1389.6433,1757.8619 1394.6471,1668.1822 1388.5853,1609.257 C 1382.8489,1553.4949 1366.8065,1474.6924 1359.7556,1467.6416 C 1358.2227,1466.1087 1349.7864,1473.3898 1341.0082,1483.8218 C 1297.8187,1535.1486 1201.1534,1558.5472 1129.9717,1534.9048 C 1084.9505,1519.9515 1031.4868,1470.5781 1012.484,1426.4059 C 991.01909,1376.5101 992.13029,1309.3651 1015.2014,1262.2101 C 1030.9214,1230.0804 1089.4456,1167.8506 1103.9423,1167.8506 C 1121.0046,1167.8506 1105.418,1155.3635 1075.6484,1145.1831 C 1025.429,1128.0095 920.2778,1124.5458 872.32559,1138.4857 C 768.67134,1168.6182 714.10815,1219.9671 651.4156,1346.382 C 599.4574,1451.1518 582.40993,1523.2971 581.61717,1641.7703 C 581.14662,1712.0869 584.05589,1749.4695 593.11533,1789.5155 L 605.24335,1843.126 L 988.68879,1841.4519 L 1372.1342,1839.7778 L 1376.991,1817.0556 z "
       id="path3328" />
    <path
       style="fill:none;stroke:#ffff00;stroke-width:3.99999976;stroke-miterlimit:4;stroke-dasharray:none;stroke-opacity:1"
       d="M 2125.6856,1931.4969 C 2112.2974,1899.4551 2091.2056,1814.0722 2083.7841,1761.8732 C 2048.0405,1510.4719 2162.0598,1244.3389 2363.1315,1109.8467 C 2463.9445,1042.4152 2554.2607,1015.6658 2677.5915,1016.7116 C 2741.1546,1017.2506 2766.0017,1020.4752 2812.5528,1034.2266 C 3067.3043,1109.4814 3242.5518,1346.6316 3256.7134,1635.2782 C 3261.1973,1726.6704 3252.1401,1798.6812 3225.0727,1886.8452 L 3204.643,1953.3887 L 2669.7379,1953.3887 L 2134.8327,1953.3887 L 2125.6856,1931.4969 z "
       id="path3326" />
    <path
       style="fill:none;stroke:#ffffff;stroke-width:3.99999976;stroke-miterlimit:4;stroke-dasharray:none;stroke-opacity:1"
       d="M 3128.2213,1818.6786 C 3141.3481,1768.8737 3149.7327,1677.0238 3145.5243,1629.1311 C 3141.4611,1582.8914 3120.1154,1478.6984 3112.0234,1465.6054 C 3109.9846,1462.3067 3092.5081,1474.0556 3073.1867,1491.714 C 3027.6754,1533.3079 2987.8637,1547.0518 2924.6432,1542.9947 C 2794.0992,1534.617 2711.336,1413.5768 2749.1309,1286.3099 C 2760.1684,1249.1435 2799.4528,1195.382 2825.819,1181.3607 C 2835.3465,1176.294 2843.1418,1169.989 2843.1418,1167.3495 C 2843.1418,1154.4043 2758.6254,1133.8427 2692.1537,1130.6163 C 2605.9179,1126.4307 2558.0947,1135.0932 2489.3185,1167.357 C 2273.2008,1268.7406 2153.7595,1524.6874 2201.2755,1784.5954 C 2204.8658,1804.2338 2209.2597,1825.4141 2211.0398,1831.6627 C 2214.0825,1842.3436 2241.4451,1843.0238 2668.0404,1843.0238 L 3121.8047,1843.0238 L 3128.2213,1818.6786 z "
       id="path3322" />
    <path
       style="opacity:1;fill:none;stroke:#ed55c8;stroke-width:3.99999928;stroke-miterlimit:4;stroke-dasharray:none;stroke-opacity:1;display:inline"
       d="M 842.20757,2384.0556 L 1876.8246,2377.9391 L 3012.3967,2377.9391 L 3035.6838,2446.0725 C 3048.4917,2483.5458 3063.3231,2537.9828 3068.6423,2567.0438 C 3081.6921,2638.3401 3081.6463,2769.8292 3068.548,2836.796 C 3041.7572,2973.7686 2959.882,3117.8527 2844.7157,3230.6957 C 2658.6644,3412.9936 2444.2068,3519.7064 2170.1689,3566.3457 C 2100.3921,3578.2211 1912.2601,3580.8612 1840.1981,3570.9758 C 1709.907,3553.1031 1574.5372,3508.2132 1466.4774,3447.0462 C 1378.1184,3397.0309 1257.339,3291.6909 1165.3527,3184.4148 C 1064.3517,3066.6258 944.88687,2847.2384 899.98193,2697.0834 C 870.52083,2598.5702 859.8614,2541.709 863.87608,2504.4815 L 842.20757,2384.0556"
       id="path3340"
       sodipodi:nodetypes="ccccsccccccscc" />
  </g>
</svg>
