<?xml version="1.0" encoding="UTF-8" standalone="no"?>
<!-- Created with Inkscape (http://www.inkscape.org/) -->
<svg
   xmlns:dc="http://purl.org/dc/elements/1.1/"
   xmlns:cc="http://web.resource.org/cc/"
   xmlns:rdf="http://www.w3.org/1999/02/22-rdf-syntax-ns#"
   xmlns:svg="http://www.w3.org/2000/svg"
   xmlns="http://www.w3.org/2000/svg"
   xmlns:sodipodi="http://sodipodi.sourceforge.net/DTD/sodipodi-0.dtd"
   xmlns:inkscape="http://www.inkscape.org/namespaces/inkscape"
   width="4096"
   height="4096"
   id="svg2"
   sodipodi:version="0.32"
   inkscape:version="0.45.1"
   sodipodi:docbase="E:\laser graphics"
   sodipodi:docname="style5.svg"
   inkscape:output_extension="org.inkscape.output.svg.inkscape"
   version="1.0">
  <defs
     id="defs4">
    <marker
       inkscape:stockid="Arrow1Lend"
       orient="auto"
       refY="0.0"
       refX="0.0"
       id="Arrow1Lend"
       style="overflow:visible;">
      <path
         id="path3153"
         d="M 0.0,0.0 L 5.0,-5.0 L -12.5,0.0 L 5.0,5.0 L 0.0,0.0 z "
         style="fill-rule:evenodd;stroke:#000000;stroke-width:1.0pt;marker-start:none;"
         transform="scale(0.8) rotate(180) translate(12.5,0)" />
    </marker>
  </defs>
  <sodipodi:namedview
     id="base"
     pagecolor="#000000"
     bordercolor="#666666"
     borderopacity="1.0"
     gridtolerance="50"
     guidetolerance="10"
     objecttolerance="10"
     inkscape:pageopacity="0.77254902"
     inkscape:pageshadow="2"
     inkscape:zoom="0.55264311"
     inkscape:cx="782.71264"
     inkscape:cy="2012.6897"
     inkscape:document-units="px"
     inkscape:current-layer="layer1"
     showguides="true"
     inkscape:guide-bbox="true"
     inkscape:window-width="1280"
     inkscape:window-height="897"
     inkscape:window-x="-11"
     inkscape:window-y="-2"
     width="4096px"
     height="4096px"
     showgrid="true"
     inkscape:object-paths="true"
     inkscape:grid-bbox="false"
     gridempspacing="20"
     gridcolor="#ffffff"
     gridopacity="0.12941176"
     gridempcolor="#ffffff"
     gridempopacity="0.40784314"
     guidecolor="#ffffff"
     guideopacity="0.28627451"
     guidehicolor="#ff0000"
     guidehiopacity="0.64313725"
     borderlayer="false"
     showborder="true"
     inkscape:showpageshadow="true">
    <sodipodi:guide
       orientation="horizontal"
       position="1228"
       id="guide2164" />
    <sodipodi:guide
       orientation="vertical"
       position="2868"
       id="guide3188" />
    <sodipodi:guide
       orientation="horizontal"
       position="2868"
       id="guide3190" />
    <sodipodi:guide
       orientation="vertical"
       position="1228"
       id="guide3192" />
    <sodipodi:guide
       orientation="vertical"
       position="2048"
       id="guide3194" />
    <sodipodi:guide
       orientation="horizontal"
       position="2048"
       id="guide3196" />
  </sodipodi:namedview>
  <metadata
     id="metadata7">
    <rdf:RDF>
      <cc:Work
         rdf:about="">
        <dc:format>image/svg+xml</dc:format>
        <dc:type
           rdf:resource="http://purl.org/dc/dcmitype/StillImage" />
      </cc:Work>
    </rdf:RDF>
  </metadata>
  <g
     inkscape:label="Layer 1"
     inkscape:groupmode="layer"
     id="layer1"
     style="opacity:1">
    <path
       style="fill:none;stroke:red;stroke-width:1.93264115;stroke-miterlimit:4;stroke-dasharray:none;stroke-opacity:1"
       d="M 1052.3459,2299.6406 C 1053.3868,2291.0868 1063.608,2286.1244 1068.1023,2278.8252 C 1085.3252,2259.7158 1102.3587,2240.4274 1119.6447,2221.3762 C 1132.517,2217.7815 1151.9385,2211.0336 1137.6262,2230.5833 C 1118.2399,2248.2115 1130.974,2269.7081 1151.3832,2276.8413 C 1205.6236,2306.8027 1275.1873,2326.2358 1334.297,2298.332 C 1380.9456,2276.0612 1414.5672,2221.6482 1400.0387,2169.7725 C 1386.3279,2113.9288 1334.8872,2079.804 1285.4997,2057.7338 C 1247.7994,2039.8502 1209.0311,2023.5674 1173.7562,2001.2624 C 1123.1732,1966.0504 1091.4821,1900.072 1109.3528,1838.9732 C 1124.6021,1773.0652 1178.396,1718.9639 1243.9921,1702.6113 C 1320.548,1682.2946 1403.6277,1700.5854 1472.9094,1735.7973 M 1472.9094,1735.7972 C 1459.9423,1758.4557 1436.252,1776.6893 1418.6394,1796.9464 C 1411.8408,1811.1862 1371.6619,1823.0327 1391.4971,1798.779 C 1419.2946,1767.1454 1373.4932,1740.9136 1346.4876,1731.6978 C 1289.8457,1710.5448 1214.7521,1731.8267 1189.7947,1790.1511 C 1172.6172,1830.2842 1181.9506,1880.1653 1215.2521,1909.3368 C 1264.7417,1957.844 1335.4185,1972.3426 1392.4317,2009.3837 C 1440.2155,2037.1655 1484.1076,2083.8067 1483.9489,2142.259 C 1487.8256,2206.5335 1453.8464,2270.3061 1399.202,2304.0605 C 1320.3962,2352.4374 1221.9811,2349.4262 1135.0752,2327.625 C 1106.8324,2320.3803 1079.1436,2311.1662 1052.3459,2299.6406"
       id="path2216" />
    <path
       style="fill:none;stroke:red;stroke-width:1.93264115;stroke-miterlimit:4;stroke-dasharray:none;stroke-opacity:1;marker-end:url(#Arrow1Lend)"
       d="M 1016.6782,2318.1936 C 1035.1185,2332.7866 985.74999,2363.9411 968.48655,2369.1613 C 918.34958,2389.2607 863.81224,2398.1881 809.96596,2401.0452 C 739.24611,2404.6124 663.54152,2386.2987 613.73578,2333.1211 C 594.3257,2315.6066 583.68397,2290.119 566.23323,2271.7216 C 466.75306,2236.7564 382.16639,2152.702 355.9873,2049.439 C 333.10055,1957.547 372.02167,1859.6402 440.81862,1797.5267 C 487.36259,1758.038 547.51614,1738.1171 606.51782,1725.5268 C 727.40759,1701.262 860.31962,1719.1303 963.6037,1789.1107 M 963.6037,1789.1107 C 986.62698,1803.4931 1010.2218,1849.1539 1026.071,1802.1174 C 1041.7455,1776.3975 1036.1662,1736.0926 1002.8803,1728.332 C 983.91677,1720.4851 966.1556,1734.8748 953.83801,1747.7397 C 940.425,1739.2536 963.62368,1724.0675 974.77344,1720.9808 C 1014.7578,1706.2145 1054.6264,1752.2881 1044.407,1791.1486 C 1041.7739,1822.7805 1000.8791,1841.7461 1032.4499,1871.5562 C 1041.2085,1897.9705 1014.1402,1870.6796 1014.0902,1857.0463 C 998.66334,1842.1208 963.94895,1874.8741 938.72442,1863.0126 C 897.87343,1859.8175 855.98916,1837.2295 842.80598,1796.1481 C 831.74348,1779.605 839.75038,1757.3768 844.8189,1784.5281 C 863.10868,1833.0241 921.61907,1868.1594 972.30792,1850.3147 C 1018.2077,1829.6869 957.13315,1801.9412 936.83883,1784.8689 C 826.12039,1715.3553 685.44898,1714.9766 562.44072,1747.4521 C 467.26204,1776.6406 379.60467,1852.8559 363.43581,1954.8091 C 351.93203,2035.1053 393.00197,2111.6002 440.57734,2173.1114 C 472.4889,2206.9623 515.58543,2228.1111 560.44873,2238.6499 C 562.0249,2207.4455 564.40359,2172.8322 579.34478,2143.4792 C 603.03291,2089.28 651.38645,2047.2628 708.27637,2031.1497 C 767.91908,2010.1888 836.48469,1996.554 895.67518,2026.5305 C 953.60534,2050.6347 1016.3247,2091.9079 1028.5671,2158.0398 C 1034.2816,2209.0272 1000.5624,2262.3995 948.81235,2272.2177 C 901.31684,2285.5217 847.92681,2285.1073 804.66154,2258.9413 C 781.57203,2243.2885 762.33779,2224.7567 740.26555,2252.7245 C 693.36985,2278.9421 637.34535,2279.3686 585.28789,2274.6895 C 584.24933,2299.1044 614.87386,2318.6102 630.85822,2335.8224 C 706.59341,2398.1498 814.14921,2402.322 905.82688,2380.0634 C 947.65349,2370.8483 989.85916,2352.9805 1016.6782,2318.1935"
       id="path2214" />
    <path
       style="fill:none;stroke:red;stroke-width:1.93264115;stroke-miterlimit:4;stroke-dasharray:none;stroke-opacity:1"
       d="M 3077.6719,2318.1936 C 3130.8014,2379.2071 3216.362,2389.937 3292.707,2392.5967 C 3374.7668,2394.0819 3461.4092,2359.494 3506.6352,2288.4268 C 3520.4753,2269.7927 3491.5812,2278.6892 3480.8353,2276.8225 C 3427.6783,2279.2658 3370.3621,2270.6249 3329.0329,2234.3848 C 3301.9165,2250.9556 3276.3529,2273.0279 3243.2821,2276.827 C 3196.9376,2284.4229 3145.9014,2279.3102 3105.4869,2254.0537 C 3067.9446,2224.4706 3052.9653,2165.2338 3078.6953,2123.2496 C 3113.2881,2060.8879 3182.9445,2025.5616 3250.5868,2011.5832 C 3316.9154,2003.1386 3384.3451,2024.1578 3441.7742,2056.4042 C 3500.5795,2094.4919 3536.9032,2164.1436 3533.4054,2234.1968 C 3543.596,2242.2116 3563.766,2229.7041 3577.6537,2225.7903 C 3634.4001,2201.5297 3679.9468,2154.1774 3703.7852,2097.5419 C 3749.9972,2016.4474 3740.6768,1904.9834 3674.1949,1837.4071 C 3607.8254,1759.5341 3502.9903,1730.894 3404.1703,1728.1147 C 3353.7125,1726.6539 3302.6569,1728.5587 3253.9291,1742.9113 C 3196.4904,1757.7664 3142.2187,1786.9443 3101.449,1830.4822 C 3122.9862,1865.6643 3173.7906,1859.5995 3203.3725,1838.5557 C 3231.7593,1825.7903 3246.0299,1794.09 3256.2655,1769.4915 C 3260.1315,1793.1665 3238.7487,1827.2126 3216.3868,1842.8992 C 3184.4607,1864.707 3140.7473,1869.2221 3104.4211,1857.3521 C 3084.4745,1837.7926 3078.3501,1864.6629 3069.8039,1879.1762 C 3050.8661,1893.6823 3066.2389,1862.1126 3071.6157,1853.1048 C 3080.3409,1825.4458 3032.3736,1795.424 3051.8591,1759.4258 C 3062.0755,1718.1096 3120.2544,1703.7332 3146.0303,1738.9949 C 3140.3694,1758.9924 3113.8715,1712.8865 3092.4457,1728.1059 C 3068.2213,1734.1129 3054.7761,1760.8788 3062.5108,1783.9927 C 3065.7517,1808.3139 3091.931,1846.6267 3108.9375,1808.4445 C 3172.9601,1750.0868 3260.6423,1725.3957 3345.0903,1717.3161 C 3442.4166,1709.7735 3542.9942,1728.456 3628.1616,1777.1686 M 3628.1616,1777.1686 C 3705.1783,1829.5237 3751.6519,1924.3791 3744.6591,2017.17 C 3728.7838,2135.3603 3637.4513,2234.3239 3526.2585,2272.3438 C 3498.8058,2315.4433 3466.0139,2357.8865 3417.4905,2378.2422 C 3330.4124,2416.4552 3230.7615,2403.5302 3142.8471,2374.9192 C 3114.6076,2364.8586 3081.6269,2351.0109 3071.3613,2320.4576 C 3072.1946,2317.7906 3075.5466,2318.0366 3077.6718,2318.1935"
       id="path2212" />
    <path
       style="fill:none;stroke:red;stroke-width:1.93264115;stroke-miterlimit:4;stroke-dasharray:none;stroke-opacity:1"
       d="M 510.55786,2158.0398 C 494.95561,2161.4171 481.42488,2147.836 469.20674,2139.7778 C 419.70207,2100.9558 397.61507,2035.5527 399.81988,1974.1508 C 403.12322,1911.2999 442.77331,1853.9881 496.2061,1822.2725 C 521.71235,1805.4151 552.24107,1795.9952 582.96811,1798.3216 C 612.89221,1799.6977 642.96673,1812.4357 661.41013,1836.6779 L 663.49548,1839.0407 L 665.53582,1841.358 M 665.53583,1841.358 C 689.32555,1872.7684 685.01306,1921.2943 655.52418,1947.6358 C 638.47201,1964.3646 615.86779,1974.5873 592.50508,1978.4801 C 578.00724,1984.5715 561.08132,1995.6473 559.68017,2012.5644 C 560.97202,2028.2272 567.36793,2045.7073 583.80088,2050.56 C 589.83943,2064.0949 567.76327,2062.7423 563.93155,2053.5797 C 547.82651,2033.354 543.99479,2000.8463 562.26973,1980.6446 C 583.25466,1954.0343 619.33273,1949.5736 646.05903,1931.3493 C 663.58309,1917.1557 680.22519,1893.8549 671.59955,1870.3639 C 658.45886,1831.6577 617.52379,1807.2753 577.48268,1808.4714 C 532.59134,1808.8306 492.12359,1834.1774 460.0011,1863.6317 C 414.28715,1908.9909 397.51214,1979.6163 415.5456,2041.1378 C 428.43068,2088.4148 463.52475,2128.2541 506.52418,2150.7891 C 508.69545,2152.6509 509.7143,2155.4004 510.55785,2158.0398"
       id="path2209" />
    <path
       style="fill:none;stroke:red;stroke-width:1.93264115;stroke-miterlimit:4;stroke-dasharray:none;stroke-opacity:1"
       d="M 3584.8511,2159.3193 C 3587.413,2145.4129 3604.3916,2145.6622 3612.2383,2136.263 C 3660.3469,2102.041 3687.713,2042.5207 3685.1962,1983.8446 C 3685.0454,1950.2339 3675.5793,1916.5441 3655.6877,1889.215 C 3625.1397,1845.7884 3576.437,1812.5452 3522.6,1808.814 C 3489.8782,1807.129 3454.8004,1819.2362 3435.414,1846.7055 C 3420.1468,1865.0272 3415.244,1894.2778 3431.7841,1913.4377 C 3441.48,1928.2747 3456.4941,1938.2423 3472.961,1944.0991 C 3498.3716,1955.5373 3527.6262,1966.1763 3540.104,1993.2572 C 3549.3892,2013.4176 3543.2905,2038.6513 3529.4294,2055.1795 C 3522.4483,2069.0633 3498.5332,2054.0804 3517.4452,2047.9956 C 3532.0666,2039.7747 3538.0178,2020.5274 3533.8997,2004.7102 C 3519.8108,1980.8263 3490.8567,1975.6451 3466.9522,1966.2949 C 3427.5357,1951.0584 3401.8188,1902.0158 3418.2002,1861.7087 C 3436.9992,1817.5497 3488.0808,1790.1935 3535.2975,1799.1804 C 3595.9367,1807.8037 3646.3383,1851.4064 3675.9271,1903.4147 M 3675.927,1903.4147 C 3703.5408,1959.0844 3699.804,2027.4766 3672.3943,2082.4835 C 3654.139,2116.0045 3627.2217,2149.0139 3588.772,2159.1369 L 3587.3115,2159.2976 L 3584.8511,2159.3194"
       id="path2207" />
    <path
       style="fill:none;stroke:red;stroke-width:1.93264115;stroke-miterlimit:4;stroke-dasharray:none;stroke-opacity:1"
       d="M 1789.23,2314.9946 C 1778.8918,2319.7429 1769.1456,2326.3212 1758.6012,2330.1612 C 1718.6377,2330.2674 1678.6738,2330.1487 1638.7102,2330.1357 C 1640.1918,2318.4159 1657.674,2307.7514 1656.143,2293.1584 C 1657.0295,2211.3579 1657.0741,2129.5154 1658.5353,2047.7353 C 1660.2024,2007.9578 1660.9981,1968.1498 1662.4879,1928.3657 C 1625.912,1928.5593 1589.2629,1927.0095 1552.7293,1927.7258 C 1530.4366,1930.792 1530.9,1966.3368 1506.7113,1964.6233 C 1506.6256,1949.162 1522.5849,1924.4227 1528.1029,1905.5473 C 1545.0281,1903.2577 1562.8438,1905.0502 1580.1445,1904.481 C 1681.2599,1904.481 1782.3753,1904.481 1883.4907,1904.481 L 1884.3,1905.2939 L 1884.5522,1905.5472 M 1884.5518,1905.5472 C 1874.4674,1923.3295 1864.5407,1941.2526 1854.1933,1958.8608 C 1846.2145,1964.4393 1833.2386,1969.4111 1841.5338,1955.1721 C 1847.8363,1939.2811 1837.0075,1922.6088 1819.1735,1926.1703 C 1788.2461,1926.3031 1757.3175,1926.2011 1726.3895,1926.2332 C 1722.1911,1987.2218 1723.2862,2048.43 1721.3805,2109.5203 C 1720.8301,2172.1949 1721.7536,2234.8777 1722.2281,2297.5498 C 1738.0675,2318.5414 1767.8787,2307.0747 1789.23,2314.9947"
       id="path2205" />
    <path
       style="fill:none;stroke:red;stroke-width:1.93264115;stroke-miterlimit:4;stroke-dasharray:none;stroke-opacity:1"
       d="M 2248.6443,2314.9946 C 2236.6231,2322.395 2225.06,2331.801 2210.2181,2329.1902 C 2174.0567,2329.4917 2137.8912,2329.7633 2101.7337,2330.1357 C 2101.7085,2318.2885 2119.6999,2306.7464 2117.7094,2292.3162 C 2117.8098,2247.9014 2118.8312,2203.3974 2118.2697,2159.0519 C 2115.3491,2147.6296 2106.0078,2138.6279 2100.3411,2128.2403 C 2066.766,2076.629 2033.8711,2024.5601 1997.8085,1974.6249 C 1987.5642,1959.9516 1977.2549,1945.3222 1966.9241,1930.7115 C 1949.676,1928.2854 1932.1337,1930.9677 1914.9113,1928.3657 C 1929.2489,1921.0131 1942.8524,1911.1117 1957.3175,1904.5007 C 1991.5782,1904.8536 2025.8862,1903.6643 2060.123,1905.5472 M 2060.123,1905.5472 C 2053.4386,1914.9104 2038.5309,1923.5246 2047.5203,1936.1923 C 2082.581,1995.8123 2122.3045,2052.6422 2161.0621,2109.955 C 2168.8823,2112.0155 2176.5435,2091.9434 2183.5843,2085.8459 C 2219.054,2037.4793 2248.3227,1984.9767 2281.3384,1934.9764 C 2285.2329,1924.6119 2260.1953,1931.5357 2251.4034,1929.6451 C 2238.5931,1929.3876 2225.7238,1929.9099 2212.978,1928.3657 C 2226.0181,1919.3839 2240.1525,1911.0477 2254.3229,1904.5029 C 2285.6833,1904.8448 2317.0927,1903.6712 2348.4243,1905.5472 C 2327.344,1922.26 2305.7235,1939.2341 2292.5408,1963.236 C 2254.895,2020.9554 2217.178,2078.6366 2179.435,2136.2879 C 2179.7098,2190.0269 2180.0701,2243.7685 2180.4966,2297.5078 C 2189.2955,2311.5832 2207.8903,2307.7263 2221.8377,2311.5049 C 2230.7979,2312.4957 2239.879,2312.6752 2248.6442,2314.9947"
       id="path2203" />
    <path
       style="fill:none;stroke:red;stroke-width:1.93264115;stroke-miterlimit:4;stroke-dasharray:none;stroke-opacity:1"
       d="M 2706.9968,2282.1538 C 2689.0742,2298.2778 2671.0178,2314.2709 2652.8609,2330.1357 C 2568.7199,2330.1357 2484.5788,2330.1357 2400.4378,2330.1357 C 2410.47,2316.7325 2425.6365,2298.6347 2419.9693,2277.8886 C 2421.0218,2189.916 2419.3188,2101.8795 2423.863,2013.9857 C 2425.1416,1985.4475 2426.446,1956.9021 2427.612,1928.3657 C 2408.7857,1928.2445 2389.9598,1927.6658 2371.1408,1927.2993 C 2386.5885,1918.2474 2402.9363,1905.3262 2420.8185,1904.6409 C 2451.5959,1904.422 2482.4169,1903.9934 2513.1683,1905.5473 M 2513.1682,1905.5472 C 2503.3889,1918.4535 2485.0538,1928.4115 2489.0196,1947.3985 C 2486.4027,2031.9332 2484.1488,2116.4813 2484.3489,2201.064 C 2484.8937,2229.9235 2482.7395,2258.9162 2484.7204,2287.6983 C 2485.7647,2308.2139 2510.356,2308.0409 2525.5754,2310.2277 C 2556.6164,2312.2649 2587.7362,2309.0371 2618.771,2309.1322 C 2649.6289,2306.3576 2676.5769,2289.5143 2705.9353,2281.0875 L 2706.9969,2282.1537"
       id="path2201" />
    <path
       style="fill:none;stroke:red;stroke-width:1.93264115;stroke-miterlimit:4;stroke-dasharray:none;stroke-opacity:1"
       d="M 3033.2991,2281.0874 C 3015.6074,2297.4368 2997.9158,2313.7863 2980.2241,2330.1357 C 2899.6924,2330.1357 2819.1606,2330.1357 2738.6289,2330.1357 C 2747.8563,2317.4632 2759.7077,2303.9073 2758.1604,2287.0586 C 2759.3278,2211.4809 2758.8654,2135.8701 2760.8703,2060.3097 C 2762.4348,2015.972 2764.1021,1971.64 2765.5908,1927.2993 C 2745.0542,1925.2202 2724.3403,1927.3467 2703.8118,1925.1669 C 2718.7171,1918.6734 2733.018,1909.5457 2748.2232,1904.481 C 2829.8737,1904.481 2911.5243,1904.481 2993.1748,1904.481 L 2993.9382,1905.2477 L 2994.2363,1905.5472 M 2994.2363,1905.5472 C 2981.2168,1917.6399 2968.1209,1929.6459 2954.9887,1941.6187 C 2944.9917,1946.159 2937.2635,1944.5805 2947.398,1933.3795 C 2949.9243,1924.427 2935.1168,1927.9837 2929.1983,1927.2993 C 2895.9627,1927.0068 2862.7276,1926.6096 2829.4927,1926.2332 C 2825.5579,1978.8107 2825.5102,2031.5891 2823.3896,2084.2644 C 2820.028,2102.6511 2850.6012,2088.4849 2861.5155,2093.186 C 2894.2197,2093.5322 2926.9251,2093.8505 2959.6315,2093.8505 C 2949.2344,2106.3549 2935.581,2121.1029 2920.5686,2130.1037 C 2907.3111,2137.5042 2910.5181,2128.0636 2915.4724,2119.4361 C 2907.0572,2110.5416 2886.5324,2118.5177 2873.5446,2116.1686 C 2858.5078,2116.4094 2843.4703,2116.6689 2828.4311,2116.6689 C 2816.5251,2129.3268 2825.8769,2149.45 2822.7966,2165.184 C 2823.0865,2203.0376 2820.8776,2241.0048 2822.7052,2278.8037 C 2818.6795,2300.0623 2839.6686,2308.1419 2857.0016,2308.5994 C 2887.3409,2311.4594 2917.8889,2308.6253 2948.2369,2307.5398 C 2977.8539,2303.82 3003.7415,2287.7162 3032.2376,2280.0211 L 3033.0009,2280.7879 L 3033.2991,2281.0874"
       id="path2199" />
    <path
       style="fill:none;stroke:red;stroke-width:1.93264115;stroke-miterlimit:4;stroke-dasharray:none;stroke-opacity:1"
       d="M 756.61062,2227.7739 C 747.29256,2235.4319 737.84762,2241.698 726.67634,2246.5401 C 722.03989,2248.55 714.57752,2251.1486 709.69251,2252.5112 L 698.01615,2255.4969 L 685.91517,2257.6293 C 681.44801,2258.2558 672.08418,2259.1821 667.65756,2259.3352 L 661.28832,2259.3352 L 655.13169,2259.5486 C 646.62074,2259.5486 632.7074,2258.1984 624.13621,2256.9895 C 608.37917,2254.7674 592.74595,2251.1752 577.64301,2246.1138 L 572.33525,2244.1944 C 571.27194,2243.7075 569.86418,2241.2742 569.57538,2240.1425 C 568.37504,2235.4361 569.47585,2233.4187 569.1508,2230.1196 L 568.9385,2229.0534 C 568.80516,2227.7007 569.07859,2228.1254 568.51391,2226.7076 L 568.0893,2225.6413 L 568.9385,2213.2729 C 569.80765,2205.0171 572.65079,2191.1412 575.09544,2183.2036 C 582.58731,2158.8777 590.46075,2143.6179 604.81712,2122.8531 C 610.62473,2114.785 622.09282,2102.0406 629.44365,2095.3431 C 647.27483,2079.0964 665.28112,2067.9029 687.61356,2058.6635 C 703.7826,2051.974 717.87106,2048.0968 734.95595,2044.5889 C 755.42933,2040.3851 774.60278,2038.836 795.46112,2038.6178 C 828.12424,2038.2761 864.86498,2043.6779 896.09055,2053.3322 C 903.55478,2055.6402 917.19376,2060.3903 924.32616,2063.3552 L 942.37177,2071.4588 C 949.26362,2074.8381 961.08132,2081.4594 967.63525,2085.5334 L 975.49026,2090.6515 L 977.82548,2092.7841 L 990.56341,2103.6603 M 990.56341,2103.6603 C 998.18431,2110.7269 1002.703,2116.8999 1007.5471,2125.8386 C 1012.3213,2134.6483 1015.4929,2145.6862 1016.676,2155.4807 C 1017.7317,2164.2211 1018.0653,2167.6486 1017.5252,2176.5928 C 1017.0006,2185.2753 1015.3347,2195.6862 1012.43,2203.8894 L 1011.1563,2207.0883 L 1009.2456,2212.4197 L 1004.5751,2222.016 C 1002.165,2226.244 996.1065,2234.5744 992.68641,2238.01 C 991.0857,2239.6179 983.6599,2246.085 981.85917,2247.3931 C 975.16481,2251.9417 968.51967,2255.5755 960.84168,2258.6956 C 940.81258,2266.8347 918.47738,2269.5225 897.15204,2270.6376 C 884.56718,2271.296 874.81809,2271.716 862.54752,2270.2113 C 834.64248,2266.7887 809.17106,2256.4554 787.6061,2238.4364 L 782.29867,2233.9581 L 777.20351,2228.8401 C 785.4438,2218.2793 797.0151,2203.8757 802.25465,2191.3076 C 805.45201,2183.6385 806.78079,2177.6286 807.13749,2169.5555 C 807.14395,2167.5257 806.46127,2160.6951 806.07601,2158.6796 C 805.50455,2155.6903 804.44799,2153.2763 803.10383,2150.5759 C 801.33295,2147.0182 800.84998,2146.4729 798.22098,2143.5386 C 794.85986,2139.7871 793.63185,2138.5748 789.30449,2135.8614 C 784.51534,2132.8586 778.94091,2130.3227 773.38215,2129.2507 C 770.0029,2128.599 769.03051,2128.913 765.73943,2129.4639 C 762.1826,2130.0592 761.76414,2130.329 758.52132,2131.8096 C 752.761,2134.4398 748.03792,2137.6518 744.08476,2142.6856 C 740.87541,2146.7727 739.09929,2151.5292 737.71582,2156.5471 C 733.59952,2171.4754 734.16637,2187.6787 739.6265,2202.1835 C 741.406,2206.9106 743.60639,2211.6286 746.42004,2215.8316 C 747.60809,2217.6065 751.3932,2222.6163 752.78926,2224.1485 L 756.61062,2227.7739"
       id="path2197"
       sodipodi:nodetypes="csccccccsccscccccscssssscccccccsssccccscssscccscssssssssssscc" />
    <path
       style="fill:none;stroke:red;stroke-width:1.93264115;stroke-miterlimit:4;stroke-dasharray:none;stroke-opacity:1"
       d="M 3317.1438,2227.7739 C 3286.7892,2264.3567 3235.3814,2274.6786 3190.0253,2270.8208 C 3159.0525,2267.5509 3124.6308,2262.2715 3102.6089,2237.8961 C 3087.4986,2222.1108 3078.151,2201.2194 3076.9131,2179.3702 C 3070.8253,2140.5495 3095.9213,2103.578 3128.6586,2084.9395 C 3190.3952,2044.75 3267.2297,2033.039 3339.4808,2040.8026 C 3408.5298,2049.1672 3478.5511,2085.7781 3508,2151.6423 M 3508,2151.6423 C 3520.1349,2179.4762 3530.002,2210.1479 3524.1348,2240.7822 C 3513.5825,2248.9113 3499.6724,2250.9499 3487.04,2254.3191 C 3440.8607,2262.836 3388.5901,2263.192 3348.4023,2235.4512 C 3330.9353,2229.4634 3346.9022,2218.9154 3351.5658,2209.1356 C 3366.8893,2185.9722 3363.6616,2150.4405 3340.0955,2134.019 C 3319.5738,2120.5366 3289.4905,2139.2798 3288.2811,2162.7645 C 3286.6727,2174.1177 3289.1047,2185.3501 3294.9009,2195.1947 C 3300.8698,2206.9783 3307.2065,2218.7722 3317.1437,2227.7739"
       id="path2195" />
    <path
       style="fill:none;stroke:red;stroke-width:1.93264115;stroke-miterlimit:4;stroke-dasharray:none;stroke-opacity:1"
       d="M 790.15552,2150.5759 C 792.72332,2154.3048 794.58121,2158.566 795.31223,2163.0466 C 796.59277,2168.5398 795.68208,2174.3458 794.30532,2179.7435 C 790.33029,2193.76 780.65826,2205.0689 772.04799,2216.4643 C 770.28816,2218.0973 768.9704,2220.3445 766.75773,2221.3701 C 763.07139,2220.6421 761.36308,2216.1523 758.91541,2213.4946 C 748.58483,2198.9637 743.25238,2180.4323 746.40339,2162.6901 C 747.33975,2156.8396 749.16056,2150.6902 753.92819,2146.7888 C 758.78787,2142.1364 765.34037,2139.4926 771.91714,2138.4658 C 775.28255,2138.1476 778.781,2139.2316 781.43862,2141.2652 C 784.84103,2143.8808 787.91083,2146.886 790.15552,2150.5759"
       id="path2193" />
    <path
       style="fill:none;stroke:red;stroke-width:1.93264115;stroke-miterlimit:4;stroke-dasharray:none;stroke-opacity:1"
       d="M 3327.97,2221.3762 C 3319.948,2214.6998 3312.843,2206.7865 3308.0551,2197.4524 C 3303.7018,2189.8415 3300.9628,2181.4674 3299.0893,2172.9351 C 3298.091,2170.2569 3299.699,2167.5245 3300.0853,2164.8607 C 3301.477,2158.3979 3303.8912,2152.0524 3307.8525,2146.7193 C 3310.9113,2143.1364 3314.7347,2140.0852 3319.2656,2138.6337 C 3324.7777,2139.0942 3330.4271,2139.8879 3335.3878,2142.5068 C 3339.8004,2144.5748 3343.7517,2147.9451 3345.9165,2152.3689 C 3346.4449,2153.5484 3346.9733,2154.7278 3347.5017,2155.9072 M 3347.5017,2155.9072 C 3351.0311,2174.0831 3348.6642,2193.9504 3338.2654,2209.5789 C 3335.4497,2214.0267 3331.8743,2217.8747 3327.97,2221.3762"
       id="path2211" />
  </g>
</svg>
