<?xml version="1.0" encoding="UTF-8" standalone="no"?>
<!DOCTYPE svg PUBLIC "-//W3C//DTD SVG 20010904//EN"
              "http://www.w3.org/TR/2001/REC-SVG-20010904/DTD/svg10.dtd">

<svg xmlns="http://www.w3.org/2000/svg"
     width="8.33333in" height="2.26389in"
     viewBox="0 0 600 163">
  <path id="Zaznaczenie"
        fill="none" stroke="black" stroke-width="1"
        d="M 509.00,1.00
           C 509.00,1.00 509.00,111.00 509.00,111.00
             509.00,111.00 493.00,111.00 493.00,111.00
             493.00,111.00 493.00,104.00 493.00,104.00
             488.49,108.03 483.94,110.98 478.00,112.49
             463.15,116.26 446.05,111.31 436.53,99.00
             421.33,79.37 427.26,48.71 450.00,37.79
             457.45,34.20 461.95,33.91 470.00,34.00
             479.74,34.12 485.42,37.15 493.00,43.00
             493.00,43.00 493.00,1.00 493.00,1.00
             493.00,1.00 509.00,1.00 509.00,1.00 Z
           M 231.00,36.46
           C 256.40,46.40 263.95,79.30 246.67,100.00
             239.64,108.42 230.59,112.07 220.00,113.35
             215.15,114.26 213.69,113.80 209.00,113.35
             192.75,110.80 179.55,99.47 176.23,83.00
             175.84,79.68 175.96,74.49 176.23,71.00
             176.14,59.13 181.59,48.78 191.00,41.53
             196.08,37.61 201.78,35.64 208.00,34.44
             215.64,33.46 223.76,33.63 231.00,36.46 Z
           M 330.59,104.79
           C 329.66,107.57 322.69,110.50 320.00,111.45
             308.34,115.58 294.58,114.43 284.00,107.93
             269.71,99.16 265.82,86.86 266.00,71.00
             266.25,50.11 283.40,34.24 304.00,34.00
             311.84,33.91 317.91,34.61 325.00,38.27
             327.34,39.48 330.50,41.08 330.77,44.04
             331.00,46.68 326.36,54.18 325.00,57.00
             317.14,52.49 313.92,48.33 304.00,49.09
             300.73,49.34 297.90,50.30 295.00,51.82
             270.16,64.85 282.49,98.93 306.00,98.92
             314.16,98.92 318.23,94.03 325.00,91.00
             326.56,93.75 331.58,101.85 330.59,104.79 Z
           M 375.00,113.82
           C 368.44,113.34 360.57,111.43 355.00,107.91
             332.34,93.57 330.39,59.40 351.00,42.33
             358.70,35.95 368.25,33.89 378.00,34.00
             388.31,34.12 394.45,37.13 402.00,44.00
             402.00,44.00 402.00,36.00 402.00,36.00
             402.00,36.00 417.00,36.00 417.00,36.00
             417.00,36.00 417.00,111.00 417.00,111.00
             417.00,111.00 402.00,111.00 402.00,111.00
             402.00,111.00 402.00,104.00 402.00,104.00
             394.31,109.94 385.04,114.55 375.00,113.82 Z
           M 593.21,50.00
           C 599.92,59.36 600.12,66.11 600.00,77.00
             599.79,94.27 587.03,109.43 570.00,112.69
             556.91,115.19 543.22,112.99 533.01,103.82
             524.84,96.47 520.71,85.83 520.09,75.00
             518.95,55.00 532.97,38.70 552.00,34.46
             568.18,32.23 583.31,36.16 593.21,50.00 Z
           M 204.00,51.53
           C 180.53,64.83 191.41,100.48 217.00,98.91
             235.12,97.80 245.80,77.71 237.60,62.00
             233.02,53.22 225.55,49.39 216.00,48.71
             211.54,48.84 207.98,49.28 204.00,51.53 Z
           M 359.33,56.18
           C 344.39,72.04 355.32,98.97 377.00,98.97
             399.96,98.97 411.43,68.74 391.99,53.53
             387.22,49.80 382.87,48.91 377.00,48.57
             370.41,49.05 363.97,51.26 359.33,56.18 Z
           M 445.56,65.00
           C 439.46,81.49 452.54,99.98 470.00,98.91
             491.43,97.59 501.26,71.67 486.67,56.18
             482.03,51.26 475.59,49.05 469.00,48.57
             458.03,49.21 449.52,54.30 445.56,65.00 Z
           M 548.00,51.99
           C 525.57,65.91 536.49,100.66 562.00,98.90
             586.05,97.25 593.18,66.11 574.00,52.65
             569.88,49.75 565.89,49.06 561.00,48.71
             556.29,48.85 552.10,49.45 548.00,51.99 Z
           M 232.00,129.00
           C 232.00,129.00 232.00,133.00 232.00,133.00
             232.00,133.00 223.00,133.00 223.00,133.00
             223.00,133.00 223.00,161.00 223.00,161.00
             223.00,161.00 218.00,161.00 218.00,161.00
             218.00,161.00 218.00,133.00 218.00,133.00
             218.00,133.00 209.00,133.00 209.00,133.00
             209.00,133.00 209.00,129.00 209.00,129.00
             209.00,129.00 232.00,129.00 232.00,129.00 Z
           M 265.00,129.00
           C 265.00,129.00 265.00,133.00 265.00,133.00
             265.00,133.00 251.00,133.00 251.00,133.00
             251.00,133.00 251.00,142.00 251.00,142.00
             251.00,142.00 263.00,142.00 263.00,142.00
             263.00,142.00 263.00,146.00 263.00,146.00
             263.00,146.00 251.00,146.00 251.00,146.00
             251.00,146.00 251.00,157.00 251.00,157.00
             251.00,157.00 265.00,157.00 265.00,157.00
             265.00,157.00 265.00,161.00 265.00,161.00
             265.00,161.00 246.00,161.00 246.00,161.00
             246.00,161.00 246.00,129.00 246.00,129.00
             246.00,129.00 265.00,129.00 265.00,129.00 Z
           M 284.04,159.26
           C 276.89,154.55 276.08,140.60 280.85,134.10
             286.22,126.80 298.30,128.27 299.66,132.16
             301.52,137.46 293.32,132.38 289.04,134.47
             282.13,137.85 281.52,148.45 286.42,153.77
             293.04,160.98 295.69,151.29 302.00,157.00
             297.13,160.84 289.75,163.01 284.04,159.26 Z
           M 320.00,129.00
           C 320.00,129.00 320.00,142.00 320.00,142.00
             320.00,142.00 334.00,142.00 334.00,142.00
             334.00,142.00 334.00,129.00 334.00,129.00
             334.00,129.00 339.00,129.00 339.00,129.00
             339.00,129.00 339.00,161.00 339.00,161.00
             339.00,161.00 334.00,161.00 334.00,161.00
             334.00,161.00 334.00,146.00 334.00,146.00
             334.00,146.00 320.00,146.00 320.00,146.00
             320.00,146.00 320.00,161.00 320.00,161.00
             320.00,161.00 315.00,161.00 315.00,161.00
             315.00,161.00 315.00,129.00 315.00,129.00
             315.00,129.00 320.00,129.00 320.00,129.00 Z
           M 359.67,130.02
           C 359.67,130.02 373.00,151.00 373.00,151.00
             373.00,151.00 373.00,129.00 373.00,129.00
             373.00,129.00 378.00,129.00 378.00,129.00
             378.00,129.00 378.00,161.00 378.00,161.00
             378.00,161.00 373.33,159.98 373.33,159.98
             373.33,159.98 360.00,139.00 360.00,139.00
             360.00,139.00 360.00,161.00 360.00,161.00
             360.00,161.00 355.00,161.00 355.00,161.00
             355.00,161.00 355.00,129.00 355.00,129.00
             355.00,129.00 359.67,130.02 359.67,130.02 Z
           M 413.90,130.74
           C 422.61,136.72 424.00,162.04 405.00,160.96
             390.08,160.11 391.57,139.67 395.23,134.18
             396.92,131.64 398.38,130.94 401.01,129.70
             404.99,128.80 410.34,128.30 413.90,130.74 Z
           M 439.00,129.00
           C 439.00,129.00 439.00,157.00 439.00,157.00
             439.00,157.00 453.00,157.00 453.00,157.00
             453.00,157.00 453.00,161.00 453.00,161.00
             453.00,161.00 435.00,161.00 435.00,161.00
             435.00,161.00 435.00,129.00 435.00,129.00
             435.00,129.00 439.00,129.00 439.00,129.00 Z
           M 484.82,131.01
           C 493.29,136.78 495.06,162.34 475.00,160.95
             460.78,159.96 458.90,136.69 471.02,129.85
             475.33,128.66 480.93,128.36 484.82,131.01 Z
           M 526.98,157.77
           C 524.47,161.88 514.83,161.77 511.00,159.83
             508.88,158.75 507.11,156.99 505.85,154.98
             501.28,147.68 502.85,134.38 511.02,130.17
             515.74,127.74 522.33,129.25 527.00,131.00
             527.00,131.00 526.00,136.00 526.00,136.00
             523.83,135.22 520.11,133.41 518.00,133.45
             515.74,133.49 513.79,134.67 512.23,136.23
             507.99,140.44 507.65,148.28 511.43,152.89
             514.03,156.06 520.11,158.86 522.40,153.77
             523.07,152.28 522.98,149.65 523.00,148.00
             523.00,148.00 517.00,148.00 517.00,148.00
             517.00,148.00 517.00,144.00 517.00,144.00
             517.00,144.00 528.00,144.00 528.00,144.00
             528.00,147.18 528.48,155.31 526.98,157.77 Z
           M 551.00,143.00
           C 553.49,136.77 554.50,129.60 562.00,129.00
             562.00,129.00 553.63,149.00 553.63,149.00
             553.63,149.00 553.00,161.00 553.00,161.00
             553.00,161.00 548.00,161.00 548.00,161.00
             548.00,161.00 547.37,149.00 547.37,149.00
             547.37,149.00 539.00,129.00 539.00,129.00
             546.86,129.65 545.14,132.67 551.00,143.00 Z
           M 398.34,149.00
           C 399.27,153.52 402.97,157.64 407.96,156.53
             416.88,154.55 418.48,133.12 405.00,133.48
             398.24,136.07 396.98,142.37 398.34,149.00 Z
           M 468.94,149.00
           C 470.10,153.01 473.25,157.41 478.00,156.51
             487.42,154.73 488.63,133.87 476.00,133.54
             469.41,135.90 467.06,142.47 468.94,149.00 Z
           M 359.00,137.00
           C 359.00,137.00 360.00,138.00 360.00,138.00
             360.00,138.00 360.00,137.00 360.00,137.00
             360.00,137.00 359.00,137.00 359.00,137.00 Z
           M 373.00,152.00
           C 373.00,152.00 374.00,153.00 374.00,153.00
             374.00,153.00 374.00,152.00 374.00,152.00
             374.00,152.00 373.00,152.00 373.00,152.00 Z" />
</svg>
