<?xml version="1.0" encoding="UTF-8" standalone="no"?>
<!DOCTYPE svg PUBLIC "-//W3C//DTD SVG 20010904//EN"
              "http://www.w3.org/TR/2001/REC-SVG-20010904/DTD/svg10.dtd">

<svg xmlns="http://www.w3.org/2000/svg"
     width="8.33333in" height="2.26389in"
     viewBox="0 0 600 163">
  <path id="Zaznaczenie #5"
        fill="none" stroke="black" stroke-width="1"
        d="M 30.00,48.04
           C 38.45,45.52 46.34,46.00 55.00,46.00
             55.00,46.00 46.42,63.00 46.42,63.00
             46.42,63.00 33.68,85.00 33.68,85.00
             33.68,85.00 23.86,100.00 23.86,100.00
             23.86,100.00 18.46,114.00 18.46,114.00
             18.46,114.00 17.00,124.00 17.00,124.00
             12.04,113.28 0.36,102.32 0.02,90.00
             -0.05,87.53 -0.06,84.35 0.65,82.00
             0.65,82.00 16.00,54.00 16.00,54.00
             16.00,54.00 30.00,48.04 30.00,48.04 Z
           M 152.40,69.00
           C 154.83,73.11 158.86,79.43 159.67,84.00
             161.42,93.80 157.89,98.89 153.28,107.00
             147.52,117.13 146.12,122.64 135.00,127.69
             124.69,132.37 115.08,131.00 104.00,131.00
             104.00,131.00 125.86,93.04 125.86,93.04
             125.86,93.04 131.14,85.91 131.14,85.91
             139.61,73.68 142.00,66.68 142.00,52.00
             142.00,52.00 152.40,69.00 152.40,69.00 Z
           M 110.00,17.00
           C 124.25,17.07 126.44,23.95 132.72,35.00
             134.82,38.70 139.57,46.33 140.62,50.00
             144.08,62.05 137.18,80.98 128.00,89.00
             128.00,89.00 112.28,61.00 112.28,61.00
             112.28,61.00 105.57,49.09 105.57,49.09
             105.57,49.09 93.38,28.04 93.38,28.04
             93.38,28.04 80.00,17.00 80.00,17.00
             80.00,17.00 110.00,17.00 110.00,17.00 Z
           M 32.00,89.00
           C 32.00,89.00 52.97,126.00 52.97,126.00
             57.40,134.15 60.87,142.99 67.18,149.99
             72.01,155.34 75.94,156.74 81.00,161.00
             81.00,161.00 52.00,161.00 52.00,161.00
             36.48,160.93 33.84,154.25 26.85,142.00
             19.62,129.34 16.70,127.29 19.32,112.00
             20.68,104.08 26.24,96.11 30.00,89.00
             30.00,89.00 32.00,89.00 32.00,89.00 Z
           M 25.58,38.00
           C 31.60,27.49 35.05,17.19 49.00,17.00
             49.00,17.00 73.00,17.00 73.00,17.00
             87.78,17.20 99.89,32.99 104.00,46.00
             104.00,46.00 42.00,46.00 42.00,46.00
             30.44,46.02 26.89,48.78 17.00,54.00
             18.88,48.91 22.79,42.87 25.58,38.00 Z
           M 134.15,140.00
           C 130.82,145.80 126.59,154.50 121.00,158.01
             116.63,160.75 112.96,160.98 108.00,161.00
             108.00,161.00 88.00,161.00 88.00,161.00
             73.23,160.80 59.85,144.18 56.00,131.00
             56.00,131.00 96.00,131.00 96.00,131.00
             115.39,131.03 123.62,135.95 142.00,124.00
             141.81,128.33 136.46,135.98 134.15,140.00 Z" />
</svg>
