<?xml version="1.0" encoding="UTF-8" standalone="no"?>
<!DOCTYPE svg PUBLIC "-//W3C//DTD SVG 20010904//EN"
              "http://www.w3.org/TR/2001/REC-SVG-20010904/DTD/svg10.dtd">

<svg xmlns="http://www.w3.org/2000/svg"
     width="8.88889in" height="5.55556in"
     viewBox="0 0 640 400">
  <path id="Zaznaczenie #1"
        fill="none" stroke="black" stroke-width="1"
        d="M 104.00,70.00
           C 104.00,70.00 119.00,71.00 119.00,71.00
             103.52,72.30 89.18,83.62 81.90,97.00
             77.96,104.23 78.20,108.24 76.00,113.00
             76.00,113.00 76.00,70.00 76.00,70.00
             76.00,70.00 104.00,70.00 104.00,70.00 Z
           M 176.00,70.00
           C 176.00,70.00 176.00,98.00 176.00,98.00
             176.00,98.00 175.00,113.00 175.00,113.00
             173.70,97.52 162.38,83.18 149.00,75.90
             141.77,71.96 137.76,72.20 133.00,70.00
             133.00,70.00 176.00,70.00 176.00,70.00 Z
           M 80.89,141.00
           C 85.17,150.08 93.36,158.52 102.00,163.54
             109.79,168.06 113.97,167.68 119.00,170.00
             119.00,170.00 76.00,170.00 76.00,170.00
             76.00,170.00 76.00,127.00 76.00,127.00
             76.00,127.00 80.89,141.00 80.89,141.00 Z
           M 176.00,142.00
           C 176.00,142.00 176.00,170.00 176.00,170.00
             176.00,170.00 148.00,170.00 148.00,170.00
             148.00,170.00 133.00,169.00 133.00,169.00
             153.81,167.25 173.25,147.81 175.00,127.00
             175.00,127.00 176.00,142.00 176.00,142.00 Z" />
</svg>
