<?xml version="1.0" encoding="UTF-8" standalone="no"?>
<!-- Created with Inkscape (http://www.inkscape.org/) -->

<svg
   xmlns:dc="http://purl.org/dc/elements/1.1/"
   xmlns:cc="http://creativecommons.org/ns#"
   xmlns:rdf="http://www.w3.org/1999/02/22-rdf-syntax-ns#"
   xmlns:svg="http://www.w3.org/2000/svg"
   xmlns="http://www.w3.org/2000/svg"
   xmlns:sodipodi="http://sodipodi.sourceforge.net/DTD/sodipodi-0.dtd"
   xmlns:inkscape="http://www.inkscape.org/namespaces/inkscape"
   width="623.62207"
   height="442.91339"
   id="svg2"
   version="1.1"
   inkscape:version="0.48.2 r9819"
   sodipodi:docname="New document 1">
  <defs
     id="defs4" />
  <sodipodi:namedview
     id="base"
     pagecolor="#ffffff"
     bordercolor="#666666"
     borderopacity="1.0"
     inkscape:pageopacity="0.0"
     inkscape:pageshadow="2"
     inkscape:zoom="0.35"
     inkscape:cx="375"
     inkscape:cy="520"
     inkscape:document-units="px"
     inkscape:current-layer="layer1"
     showgrid="false"
     inkscape:window-width="1285"
     inkscape:window-height="746"
     inkscape:window-x="73"
     inkscape:window-y="-8"
     inkscape:window-maximized="1" />
  <metadata
     id="metadata7">
    <rdf:RDF>
      <cc:Work
         rdf:about="">
        <dc:format>image/svg+xml</dc:format>
        <dc:type
           rdf:resource="http://purl.org/dc/dcmitype/StillImage" />
        <dc:title></dc:title>
      </cc:Work>
    </rdf:RDF>
  </metadata>
  <g
     inkscape:label="Layer 1"
     inkscape:groupmode="layer"
     id="layer1"
     transform="translate(0,-609.44877)">
    <path
       d="m 88.078438,900.19966 c -1.15,0 -1.8,-0.925 -1.8,-2 0,-1.1125 0.65,-2.0875 1.7625,-2.0875 0,0 25.487492,0 25.487492,0 1.0875,0 1.75,0.975 1.75,2.0875 0,1.075 -0.7,2 -1.75,2 0,0 -10.51249,0 -10.51249,0 0,0 0,30.28749 0,30.28749 0,1.225 -0.975,1.875 -2.225,1.875 -1.250002,0 -2.200002,-0.65 -2.200002,-1.875 0,0 0,-30.28749 0,-30.28749 0,0 -10.5125,0 -10.5125,0 z m 49.124982,26.61249 c 0,1.1 0.675,1.525 1.7,1.525 0,0 16.5625,0 16.5625,0 1.2,0 1.85,0.8375 1.85,2 0,1.1125 -0.65,2.025 -1.85,2.025 0,0 -17.9,0 -17.9,0 -3.275,0 -4.72499,-1.425 -4.72499,-4.9625 0,0 0,-26.31249 0,-26.31249 0,-3.525 1.44999,-4.975 4.72499,-4.975 0,0 17.4875,0 17.4875,0 1.1875,0 1.85,0.8375 1.85,1.9875 0,1.175 -0.6625,2.05 -1.85,2.05 0,0 -16.2875,0 -16.2875,0 -1.1125,0 -1.5625,0.4875 -1.5625,1.5875 0,0 0,9.375 0,9.375 0,0 15.7625,0 15.7625,0 1.1625,0 1.8125,0.8375 1.8125,1.9875 0,1.075 -0.7,1.9625 -1.8125,1.9625 0,0 -15.7625,0 -15.7625,0 0,0 0,11.74999 0,11.74999 z m 66.02498,-22.54999 c 0.1375,0.3125 0.2,0.625 0.2,0.8875 0,0.9375 -0.7375,1.55 -1.45,1.7875 -0.3625,0.1375 -0.7375,0.175 -1.1125,0.175 -0.775,0 -1.5125,-0.3125 -1.925,-1.15 -1.3875,-3.2125 -3.7125,-5.8125 -8.9625,-5.8125 -6.96249,0 -11.52499,5.3625 -11.52499,14.0875 0,8.57499 4.5625,14.06249 11.52499,14.06249 5.5375,0 8.175,-3.1875 9.375,-6.7375 0.3625,-0.975 1.2,-1.3625 2.0875,-1.3625 0.275,0 0.6,0.0375 0.9125,0.1125 0.7875,0.175 1.625,0.8625 1.625,1.775 0,0.275 -0.0375,0.4875 -0.1375,0.7625 -1.625,4.4 -5.5125,9.5125 -13.7375,9.5125 -9.94999,0 -16.28749,-7.125 -16.28749,-18.16249 0,-10.7875 6.3375,-18.0875 15.96249,-18.0875 8.1375,0 11.8,4.2625 13.45,8.15 z m 42.56248,-6.3 c 0,-1.25 0.9625,-1.85 2.3125,-1.85 1.2,0 2.125,0.6 2.125,1.85 0,0 0,32.49999 0,32.49999 0,1.25 -0.925,1.9 -2.125,1.9 -1.35,0 -2.3125,-0.65 -2.3125,-1.9 0,0 0,-15.31249 0,-15.31249 0,0 -19.69999,0 -19.69999,0 0,0 0,15.31249 0,15.31249 0,1.25 -0.9875,1.9 -2.2375,1.9 -1.2875,0 -2.2,-0.65 -2.2,-1.9 0,0 0,-32.49999 0,-32.49999 0,-1.25 0.9125,-1.85 2.2,-1.85 1.25,0 2.2375,0.6 2.2375,1.85 0,0 0,13.15 0,13.15 0,0 19.69999,0 19.69999,0 0,0 0,-13.15 0,-13.15 z m 48.11248,0.025 c 0,-1.275 0.9125,-1.875 2.2,-1.875 1.3125,0 2.1875,0.6 2.1875,1.875 0,0 0,31.49999 0,31.49999 0,1.775 -0.9375,2.875 -2.7875,2.875 -1.975,0 -2.725,-0.7625 -3.875,-2.6 0,0 -12.26249,-19.66249 -12.26249,-19.66249 -1.85,-2.9375 -4.1625,-7.425 -5.2375,-9.7125 0.3,2.9375 0.6625,9.3 0.6625,16.03749 0,0 0,14.0625 0,14.0625 0,1.25 -0.9375,1.875 -2.1875,1.875 -1.2875,0 -2.2,-0.625 -2.2,-1.875 0,0 0,-31.62499 0,-31.62499 0,-1.7 1.0875,-2.75 2.9125,-2.75 2.0625,0 2.8625,0.8375 3.75,2.2125 0,0 11.63749,18.74999 11.63749,18.74999 2.125,3.4375 4.725,8.3375 5.9125,10.8875 -0.2625,-2.825 -0.7125,-9.4875 -0.7125,-16.07499 0,0 0,-13.9 0,-13.9 z m 55.94998,16.25 c 0,10.91249 -6.1875,18.12499 -16.0875,18.12499 -9.91249,0 -16.19999,-7.1625 -16.19999,-18.16249 0,-10.8625 6.25,-18.0875 16.19999,-18.0875 9.9,0 16.0875,7.1875 16.0875,18.125 z m -27.71249,0 c 0,8.57499 4.55,14.09999 11.62499,14.09999 7.2,0 11.5125,-5.45 11.5125,-14.34999 0,-8.3875 -4.4875,-13.8875 -11.5125,-13.8875 -7.17499,0 -11.62499,5.5875 -11.62499,14.1375 z m 47.08748,-16.1375 c 0,-1.3875 0.975,-1.9875 2.225,-1.9875 1.2875,0 2.225,0.6 2.225,1.95 0,0 0,28.53749 0,28.53749 0,1.05 0.5875,1.6 1.6625,1.6 0,0 16.37499,0 16.37499,0 1.2,0 1.8875,0.8875 1.8875,2.05 0,1.1 -0.6875,2.1125 -1.8875,2.1125 0,0 -17.76249,0 -17.76249,0 -3.275,0 -4.725,-1.425 -4.725,-4.9375 0,0 0,-29.32499 0,-29.32499 z m 71.87497,16.1375 c 0,10.91249 -6.1875,18.12499 -16.08749,18.12499 -9.9125,0 -16.2,-7.1625 -16.2,-18.16249 0,-10.8625 6.25,-18.0875 16.2,-18.0875 9.89999,0 16.08749,7.1875 16.08749,18.125 z m -27.71249,0 c 0,8.57499 4.55,14.09999 11.625,14.09999 7.19999,0 11.51249,-5.45 11.51249,-14.34999 0,-8.3875 -4.4875,-13.8875 -11.51249,-13.8875 -7.175,0 -11.625,5.5875 -11.625,14.1375 z m 71.28747,5.56249 c 0,-0.7125 -0.2375,-1.1875 -1.2125,-1.1875 0,0 -6.04999,0 -6.04999,0 -1.25,0 -1.8625,-0.775 -1.8625,-1.9375 0,-1.14999 0.6125,-2.02499 1.8625,-2.02499 0,0 7.43749,0 7.43749,0 2.7375,0 3.7875,1.1875 3.7875,4.02499 0,0 0,11.8875 0,11.8875 0,1.2125 -0.725,1.8 -1.925,1.8 -1.25,0 -2,-0.5875 -2,-1.8 0,0 0,-1.1875 0,-1.1875 0,-0.475 0.0625,-1.2875 0.1375,-1.8375 -0.3125,0.5125 -0.875,1.325 -1.325,1.675 -1.8625,1.725 -4.9,3.15 -8.47499,3.15 -10.175,0 -16.2375,-7.2625 -16.2375,-17.64999 0,-10.45 6.025,-18.6 16.1,-18.6 7.73749,0 11.38749,4.275 12.99999,7.9875 0.1875,0.4125 0.225,0.7 0.225,1.0375 0,1 -0.6875,1.7 -1.425,1.9875 -0.375,0.1375 -0.7875,0.2375 -1.1625,0.2375 -0.775,0 -1.475,-0.3375 -1.8875,-1.325 -1.25,-2.975 -3.575,-5.8875 -8.68749,-5.8875 -7.1,0 -11.525,6.1375 -11.525,14.6 0,8.66249 4.7625,13.58749 11.7,13.58749 5.12499,0 9.52499,-3.1625 9.52499,-8.1875 0,0 0,-0.35 0,-0.35 z m 46.14998,-22.72499 c 0.4125,-0.6875 1.025,-0.9625 1.6625,-0.9625 0.425,0 0.8375,0.1375 1.25,0.375 0.7,0.3625 1.25,1.05 1.25,1.8375 0,0.3125 -0.075,0.675 -0.3125,0.9875 0,0 -12.19999,18.12499 -12.19999,18.12499 0,0 0,13.05 0,13.05 0,1.25 -0.95,1.875 -2.2,1.875 -1.325,0 -2.2,-0.625 -2.2,-1.875 0,0 0,-13.05 0,-13.05 0,0 -12.3,-18.19999 -12.3,-18.19999 -0.2,-0.3375 -0.3,-0.6 -0.3,-0.9125 0,-0.7875 0.6125,-1.475 1.35,-1.875 0.4125,-0.2 0.8375,-0.3375 1.25,-0.3375 0.6,0 1.2125,0.275 1.6625,0.9625 0,0 10.5375,16.3 10.5375,16.3 0,0 10.54999,-16.3 10.54999,-16.3 z M 462.62829,732.36223 c 0,0 0,137.49994 0,137.49994 0,0 -19.99999,0 -19.99999,0 0,0 0,-8.74999 0,-8.74999 -6.65,5.6 -11.45,8.58749 -19.99999,10.62499 -17.4,4.1375 -37.76249,-1.5875 -49.34998,-15.67499 -20.37499,-24.73749 -12.925,-66.57498 18.09999,-78.61247 8.5125,-3.3125 14.67499,-4.2 23.74999,-3.7875 11.4375,0.5125 18.43749,4.85 27.49999,11.19999 0,0 0,-52.49997 0,-52.49997 0,0 19.99999,0 19.99999,0 z M 136.84092,793.6122 c 20.9,29.18749 5.675,71.63748 -30.46248,78.42497 -14.000002,2.625 -29.762492,0.1 -41.249992,-8.91249 -24.299995,-19.075 -26.162495,-59.42498 -1.25,-78.84998 6.55,-5.11249 14.4625,-8.28749 22.49999,-10.08749 19.425002,-2.6875 38.624992,2.9125 50.462482,19.42499 z m 102.27496,67.44998 c -0.95,4.2 -6.625,6.76249 -10.23749,8.23749 -11.7875,4.8125 -22.77499,5.1875 -34.99999,1.9125 -40.28748,-10.81249 -47.04998,-66.39997 -14.99999,-88.57497 13.61249,-9.41249 30.58748,-11.26249 46.24998,-6.47499 4.0625,1.2375 12.86249,4.3625 13.98749,8.92499 0.925,3.75 -4.5625,12.6375 -6.4875,16.025 -12.34999,-5.15 -18.89999,-12.525 -33.74998,-7.3625 -5.025,1.75 -8.775,4.7625 -12.375,8.6375 -21.49999,23.12499 0.3125,53.78748 23.62499,52.36248 11.9625,-0.7375 13.2375,-5.6 22.49999,-9.8875 1.7375,3.9125 7.325,12.4625 6.4875,16.2 z m 59.76248,12.14999 c -4.3375,0.3375 -13.3,-1.1875 -17.49999,-2.55 -40.84999,-13.28749 -46.57499,-70.76247 -8.75,-91.06246 7.175,-3.85 14.34999,-5.7875 22.49999,-5.975 13.91249,-0.3125 23.16249,3.5625 33.74999,12.48749 0,0 0,-9.99999 0,-9.99999 0,0 18.74999,0 18.74999,0 0,0 0,93.74996 0,93.74996 0,0 -18.74999,0 -18.74999,0 0,0 0,-9.99999 0,-9.99999 -9.225,8.71249 -17.3125,12.33749 -29.99999,13.34999 z M 568.75325,794.8622 c 18.47499,27.79999 3.875,70.16248 -29.87499,76.92497 -16.99999,3.4 -34.43749,0.025 -47.28748,-12.29999 -21.89999,-20.99999 -18.98749,-58.14998 4.7875,-76.46248 6.41249,-4.93749 13.48749,-7.11249 21.24999,-8.83749 19.71249,-2.725 39.69998,3.4875 51.12498,20.67499 z m -500.887302,15 c -9.01249,19.51249 3.875,43.97498 26.01249,44.94998 35.912492,1.575 44.612482,-45.72498 16.249992,-59.94998 -4.61249,-2.3125 -9.89999,-3.225 -14.999992,-3.2875 -12.28749,1.4625 -21.82499,6.4875 -27.26249,18.2875 z m 202.924922,-2.5 c -12.25,21.57499 4.2875,49.11248 29.33749,47.38748 29.73749,-2.0375 39.24998,-40.81248 14.99999,-57.82498 -5.35,-3.7625 -12.31249,-5.275 -18.74999,-5.3375 -11.2875,1.475 -19.71249,5.425 -25.58749,15.775 z m 116.38745,-2.5 c -15.57499,21.73749 0.975,51.92498 27.94999,49.88748 22.19999,-1.6875 34.79999,-26.61249 24.99999,-46.13748 -5.6625,-11.3 -16.44999,-16.9 -28.74999,-17.025 -10.52499,1.375 -17.77499,4.3 -24.19999,13.275 z m 112.17496,3.75 c -9.9125,19.79999 2.9,45.19998 25.77499,46.19998 34.13748,1.5 44.22498,-43.41248 17.49999,-58.84998 -5.6375,-3.25 -11.0625,-4.325 -17.49999,-4.375 -11.3375,1.5125 -20.5,6.475 -25.77499,17.025 z"
       id="Path #1"
       inkscape:connector-curvature="0"
       style="fill:none;stroke:#ff0000;stroke-width:1" />
  </g>
</svg>
