<?xml version="1.0" encoding="UTF-8" standalone="no"?>
<!DOCTYPE svg PUBLIC "-//W3C//DTD SVG 20010904//EN"
              "http://www.w3.org/TR/2001/REC-SVG-20010904/DTD/svg10.dtd">

<svg xmlns="http://www.w3.org/2000/svg"
     width="9.02778in" height="2.77778in"
     viewBox="0 0 650 200">
  <path id="Ścieżka #5"
        fill="none" stroke="black" stroke-width="1"
        d="M 55.00,105.00
           C 55.00,105.00 46.00,120.00 46.00,120.00
             46.00,120.00 43.00,126.00 43.00,126.00
             43.00,126.00 42.00,138.00 42.00,138.00M 43.00,68.00
           C 43.00,68.00 52.00,64.00 52.00,64.00
             52.00,64.00 61.00,61.00 61.00,61.00
             61.00,61.00 79.00,61.00 79.00,61.00M 265.00,17.00
           C 259.66,18.99 257.77,19.62 253.00,16.00
             253.00,16.00 265.00,17.00 265.00,17.00 Z
           M 533.00,17.00
           C 533.00,17.00 533.00,127.00 533.00,127.00
             533.00,127.00 519.00,127.00 519.00,127.00
             519.00,127.00 519.00,119.00 519.00,119.00
             511.14,124.24 507.11,128.17 497.00,128.91
             490.17,129.41 484.42,128.70 478.00,126.29
             452.64,116.80 446.15,82.87 463.47,63.09
             473.28,51.88 488.89,48.09 503.00,51.67
             509.82,53.40 513.87,56.34 519.00,61.00
             519.00,61.00 519.00,17.00 519.00,17.00
             519.00,17.00 533.00,17.00 533.00,17.00 Z
           M 131.00,33.23
           C 136.38,33.01 141.25,33.07 145.96,36.14
             150.78,39.28 153.63,45.13 156.42,50.00
             156.42,50.00 172.00,77.00 172.00,77.00
             175.29,82.71 182.59,94.29 184.21,100.00
             186.84,109.28 180.90,117.40 176.40,125.00
             176.40,125.00 158.40,156.00 158.40,156.00
             150.78,168.85 149.53,175.97 133.00,176.00
             133.00,176.00 76.00,176.00 76.00,176.00
             72.97,176.00 69.86,176.15 67.00,174.99
             58.05,171.37 49.54,152.55 44.58,144.00
             44.58,144.00 32.40,123.00 32.40,123.00
             29.55,118.19 25.82,112.65 25.19,107.00
             24.36,99.64 28.66,93.11 32.15,87.00
             32.15,87.00 53.01,51.00 53.01,51.00
             58.20,42.17 60.25,36.09 71.00,33.23
             71.00,33.23 131.00,33.23 131.00,33.23 Z
           M 271.32,64.04
           C 286.33,82.56 282.09,113.48 260.00,124.62
             253.10,128.11 246.61,129.08 239.00,129.00
             208.96,128.65 191.72,95.66 205.90,70.00
             212.58,57.92 223.04,52.83 236.00,50.44
             248.68,48.82 263.20,54.01 271.32,64.04 Z
           M 312.00,125.01
           C 289.08,113.55 284.39,81.71 301.18,63.01
             311.35,51.70 326.59,48.42 341.00,51.66
             344.84,52.53 354.42,55.49 354.91,60.09
             355.11,62.05 351.03,69.61 350.00,72.00
             341.61,68.24 336.74,62.01 326.00,64.76
             296.33,72.36 301.41,113.74 330.00,115.39
             339.09,115.92 342.70,111.09 350.00,108.00
             350.00,108.00 356.00,121.00 356.00,121.00
             342.64,129.70 326.76,132.39 312.00,125.01 Z
           M 400.00,129.00
           C 393.94,128.93 389.47,127.84 384.00,125.21
             361.93,114.63 355.09,85.53 369.61,66.00
             376.28,57.03 385.21,52.52 396.00,50.75
             401.98,49.78 405.09,49.88 411.00,51.49
             417.76,53.33 421.98,56.26 427.00,61.00
             427.01,59.01 426.76,55.19 428.02,53.60
             429.82,51.32 439.18,51.32 440.98,53.60
             442.23,55.19 442.00,59.01 442.00,61.00
             442.00,61.00 442.00,111.00 442.00,111.00
             442.00,125.00 443.21,126.84 435.00,127.00
             435.00,127.00 427.00,127.00 427.00,127.00
             427.00,127.00 427.00,119.00 427.00,119.00
             418.18,126.43 411.47,129.13 400.00,129.00 Z
           M 619.52,69.00
           C 630.96,87.95 624.19,115.04 604.00,124.87
             596.83,128.36 591.83,129.09 584.00,129.00
             552.27,128.63 535.25,92.69 552.60,67.00
             559.75,56.40 568.86,52.42 581.00,50.43
             595.98,48.59 611.69,56.02 619.52,69.00 Z
           M 74.20,72.00
           C 74.20,72.00 62.01,93.00 62.01,93.00
             60.29,95.92 56.45,101.72 56.61,105.00
             56.79,108.76 66.71,124.82 69.20,129.00
             71.47,132.81 77.92,145.92 81.33,147.43
             82.93,148.14 86.20,148.00 88.00,148.00
             88.00,148.00 121.00,148.00 121.00,148.00
             123.43,148.00 126.67,148.20 128.82,146.98
             131.64,145.36 133.81,140.81 135.42,138.00
             135.42,138.00 147.58,117.00 147.58,117.00
             149.70,113.30 154.16,107.29 153.09,103.00
             153.09,103.00 137.42,75.00 137.42,75.00
             136.03,72.60 132.07,65.08 130.37,63.60
             128.13,61.65 124.78,62.01 122.00,62.00
             122.00,62.00 81.21,62.60 81.21,62.60
             77.67,64.98 76.36,68.38 74.20,72.00 Z
           M 232.00,113.89
           C 235.50,115.10 242.33,115.35 246.00,114.79
             263.25,112.17 270.58,91.29 262.65,77.00
             257.19,67.17 247.86,63.22 237.00,64.30
             208.66,69.84 209.52,106.11 232.00,113.89 Z
           M 393.00,113.87
           C 396.66,115.21 404.15,115.35 408.00,114.67
             425.71,111.56 432.20,89.08 423.03,75.00
             417.37,66.30 407.91,63.25 398.00,64.32
             369.85,70.64 371.77,106.08 393.00,113.87 Z
           M 484.00,113.52
           C 487.92,115.12 494.82,115.40 499.00,114.79
             515.68,112.37 523.45,92.19 516.34,78.00
             511.10,67.53 501.30,63.18 490.00,64.30
             462.85,69.61 462.40,104.69 484.00,113.52 Z
           M 578.00,114.52
           C 580.92,115.21 587.97,115.21 591.00,114.52
             607.85,111.72 615.58,91.30 607.47,77.00
             601.79,66.98 592.07,63.11 581.00,64.33
             552.58,71.13 554.74,107.68 578.00,114.52 Z
           M 306.00,170.96
           C 302.32,165.24 302.32,156.76 306.00,151.04
             310.32,144.34 320.74,142.25 325.00,150.00
             325.00,150.00 324.00,151.00 324.00,151.00
             320.69,149.97 317.49,148.44 314.04,149.86
             306.61,152.92 306.03,165.44 311.39,170.58
             315.78,174.79 320.87,171.47 326.00,172.00
             320.35,178.97 310.94,178.62 306.00,170.96 Z
           M 435.00,176.35
           C 417.47,181.84 410.54,151.79 428.00,145.56
             448.24,142.21 448.69,172.06 435.00,176.35 Z
           M 510.66,148.39
           C 517.82,155.23 516.54,173.02 506.00,176.35
             488.24,181.96 481.80,152.51 498.00,145.65
             502.75,144.68 506.93,144.83 510.66,148.39 Z
           M 550.40,174.49
           C 547.28,177.95 533.61,179.58 529.80,167.00
             525.12,151.56 539.66,137.95 552.00,149.00
             552.00,149.00 551.00,151.00 551.00,151.00
             548.61,150.38 545.40,149.17 543.00,149.21
             540.77,149.25 538.90,149.96 537.22,151.43
             531.83,156.15 531.93,165.82 537.22,170.57
             540.36,173.40 546.36,174.64 548.40,169.86
             549.07,168.28 548.98,165.71 549.00,164.00
             549.00,164.00 542.00,164.00 542.00,164.00
             543.80,158.87 547.19,160.00 552.00,160.00
             552.00,163.56 552.74,171.90 550.40,174.49 Z
           M 257.00,146.00
           C 257.00,146.00 257.00,149.00 257.00,149.00
             257.00,149.00 248.00,149.00 248.00,149.00
             248.00,149.00 248.00,176.00 248.00,176.00
             248.00,176.00 244.00,176.00 244.00,176.00
             244.00,176.00 244.00,149.00 244.00,149.00
             244.00,149.00 234.00,149.00 234.00,149.00
             234.00,149.00 234.00,146.00 234.00,146.00
             234.00,146.00 257.00,146.00 257.00,146.00 Z
           M 289.00,146.00
           C 289.00,146.00 289.00,149.00 289.00,149.00
             289.00,149.00 275.00,149.00 275.00,149.00
             275.04,159.75 277.02,159.00 287.00,159.00
             287.00,159.00 287.00,162.00 287.00,162.00
             287.00,162.00 275.00,162.00 275.00,162.00
             275.00,162.00 275.00,173.00 275.00,173.00
             275.00,173.00 290.00,173.00 290.00,173.00
             290.00,173.00 290.00,176.00 290.00,176.00
             290.00,176.00 271.00,176.00 271.00,176.00
             271.00,176.00 271.00,146.00 271.00,146.00
             271.00,146.00 289.00,146.00 289.00,146.00 Z
           M 345.00,146.00
           C 345.00,146.00 345.00,158.00 345.00,158.00
             345.00,158.00 359.00,158.00 359.00,158.00
             359.00,158.00 359.00,146.00 359.00,146.00
             359.00,146.00 363.00,146.00 363.00,146.00
             363.00,146.00 363.00,176.00 363.00,176.00
             363.00,176.00 359.00,176.00 359.00,176.00
             359.00,176.00 359.00,162.00 359.00,162.00
             359.00,162.00 345.00,162.00 345.00,162.00
             345.00,162.00 345.00,176.00 345.00,176.00
             345.00,176.00 341.00,176.00 341.00,176.00
             341.00,176.00 341.00,146.00 341.00,146.00
             341.00,146.00 345.00,146.00 345.00,146.00 Z
           M 384.62,147.02
           C 384.62,147.02 390.28,155.00 390.28,155.00
             390.28,155.00 399.00,170.00 399.00,170.00
             399.00,170.00 399.00,146.00 399.00,146.00
             399.00,146.00 403.00,146.00 403.00,146.00
             403.00,146.00 403.00,176.00 403.00,176.00
             403.00,176.00 398.38,174.98 398.38,174.98
             398.38,174.98 393.20,168.00 393.20,168.00
             393.20,168.00 384.00,152.00 384.00,152.00
             384.00,152.00 384.00,176.00 384.00,176.00
             384.00,176.00 380.00,176.00 380.00,176.00
             380.00,176.00 380.00,146.00 380.00,146.00
             380.00,146.00 384.62,147.02 384.62,147.02 Z
           M 464.00,146.00
           C 464.00,146.00 464.00,173.00 464.00,173.00
             464.00,173.00 477.00,173.00 477.00,173.00
             477.00,173.00 477.00,176.00 477.00,176.00
             477.00,176.00 460.00,176.00 460.00,176.00
             460.00,176.00 460.00,146.00 460.00,146.00
             460.00,146.00 464.00,146.00 464.00,146.00 Z
           M 576.00,161.00
           C 576.00,161.00 582.64,146.99 582.64,146.99
             582.64,146.99 586.00,146.00 586.00,146.00
             586.00,146.00 578.63,164.00 578.63,164.00
             578.63,164.00 578.00,176.00 578.00,176.00
             578.00,176.00 574.00,176.00 574.00,176.00
             574.00,157.33 569.13,160.50 565.00,146.00
             571.65,147.13 573.24,155.69 576.00,161.00 Z
           M 433.91,172.77
           C 441.78,170.05 441.67,154.80 436.61,150.74
             434.00,148.65 431.05,148.98 428.04,149.60
             416.93,156.07 422.51,176.69 433.91,172.77 Z
           M 493.57,166.00
           C 494.84,170.41 499.11,174.50 503.98,173.02
             513.92,170.00 514.46,146.49 499.02,149.60
             493.08,152.93 491.75,159.68 493.57,166.00 Z
           M 103.00,175.00
           C 103.00,175.00 94.00,169.00 94.00,169.00
             94.00,169.00 89.00,163.00 89.00,163.00
             89.00,163.00 85.00,156.00 85.00,156.00
             85.00,156.00 79.00,148.00 79.00,148.00M 166.00,140.00
           C 166.00,140.00 156.00,145.00 156.00,145.00
             156.00,145.00 150.00,147.00 150.00,147.00
             150.00,147.00 141.00,147.00 141.00,147.00
             141.00,147.00 129.00,147.00 129.00,147.00M 166.00,70.00
           C 166.00,70.00 165.00,80.00 165.00,80.00
             165.00,80.00 161.00,90.00 161.00,90.00
             161.00,90.00 158.00,98.00 158.00,98.00
             158.00,98.00 154.00,104.00 154.00,104.00M 104.00,33.00
           C 104.00,33.00 115.00,40.00 115.00,40.00
             115.00,40.00 124.00,52.00 124.00,52.00
             124.00,52.00 129.00,61.00 129.00,61.00" />
</svg>
