<?xml version="1.0" encoding="UTF-8" standalone="no"?>
<!-- Created with Inkscape (http://www.inkscape.org/) -->

<svg
   xmlns:dc="http://purl.org/dc/elements/1.1/"
   xmlns:cc="http://creativecommons.org/ns#"
   xmlns:rdf="http://www.w3.org/1999/02/22-rdf-syntax-ns#"
   xmlns:svg="http://www.w3.org/2000/svg"
   xmlns="http://www.w3.org/2000/svg"
   xmlns:sodipodi="http://sodipodi.sourceforge.net/DTD/sodipodi-0.dtd"
   xmlns:inkscape="http://www.inkscape.org/namespaces/inkscape"
   width="442.91339"
   height="311.81104"
   id="svg2"
   version="1.1"
   inkscape:version="0.48.2 r9819"
   sodipodi:docname="New document 1">
  <defs
     id="defs4" />
  <sodipodi:namedview
     id="base"
     pagecolor="#ffffff"
     bordercolor="#666666"
     borderopacity="1.0"
     inkscape:pageopacity="0.0"
     inkscape:pageshadow="2"
     inkscape:zoom="2"
     inkscape:cx="206.66518"
     inkscape:cy="176.10589"
     inkscape:document-units="px"
     inkscape:current-layer="layer1"
     showgrid="false"
     inkscape:window-width="1285"
     inkscape:window-height="746"
     inkscape:window-x="73"
     inkscape:window-y="-8"
     inkscape:window-maximized="1" />
  <metadata
     id="metadata7">
    <rdf:RDF>
      <cc:Work
         rdf:about="">
        <dc:format>image/svg+xml</dc:format>
        <dc:type
           rdf:resource="http://purl.org/dc/dcmitype/StillImage" />
        <dc:title></dc:title>
      </cc:Work>
    </rdf:RDF>
  </metadata>
  <g
     inkscape:label="Layer 1"
     inkscape:groupmode="layer"
     id="layer1"
     transform="translate(0,-740.55117)">
    <path
       style="font-size:medium;font-style:normal;font-variant:normal;font-weight:normal;font-stretch:normal;text-indent:0;text-align:start;text-decoration:none;line-height:normal;letter-spacing:normal;word-spacing:normal;text-transform:none;direction:ltr;block-progression:tb;writing-mode:lr-tb;text-anchor:start;baseline-shift:baseline;color:#000000;fill:#ff0000;fill-opacity:1;stroke:none;stroke-width:2;marker:none;visibility:visible;display:inline;overflow:visible;enable-background:accumulate;font-family:Sans;-inkscape-font-specification:Sans"
       d="m 337.25,801.90625 0,0.34375 0,27.09375 c -3.17886,-2.68227 -5.90913,-4.51886 -10.25,-5.5625 -9.49031,-2.28216 -19.97596,0.14512 -26.59375,7.3125 -11.67515,12.6372 -7.30285,34.31574 9.78125,40.375 4.30967,1.53333 8.2038,1.97385 12.78125,1.65625 6.54746,-0.45421 9.42917,-2.85451 14.28125,-5.96875 l 0,4.4375 0,0.34375 0.34375,0 9.3125,0 0.3125,0 0,-0.34375 0,-69.34375 0,-0.34375 -0.3125,0 -9.3125,0 -0.34375,0 z m 0.65625,0.65625 8.65625,0 0,68.71875 -8.65625,0 0,-4.71875 0,-0.59375 -0.5,0.3125 c -5.24861,3.31637 -7.81588,5.72598 -14.46875,6.1875 -4.51017,0.31294 -8.2988,-0.11915 -12.53125,-1.625 -16.65854,-5.90832 -20.90116,-27.0057 -9.53125,-39.3125 6.43485,-6.96924 16.71631,-9.35748 26,-7.125 4.48441,1.07815 7.09998,2.88525 10.5,5.8125 l 0.53125,0.46875 0,-0.71875 0,-27.40625 z m -298.4375,9.59375 c -3.623861,0.91377 -5.827221,2.35915 -7.53125,4.28125 -1.704029,1.9221 -2.906095,4.29075 -4.625,7.0625 l -0.03125,0 -13.875,22.71875 c -2.313763,3.83922 -5.226589,8.01914 -4.65625,12.8125 0.43358,3.68544 2.955807,7.19879 4.84375,10.21875 l 8.09375,13.25 c 1.637694,2.67564 3.884272,6.99275 6.46875,10.9375 2.584478,3.94475 5.47354,7.52262 8.59375,8.71875 1.984793,0.76302 4.119362,0.65625 6.125,0.65625 l 37.90625,0 c 5.542533,-0.01 8.627397,-1.1458 10.90625,-3.34375 2.27885,-2.19795 3.7566,-5.3711 6.28125,-9.40625 L 109.9375,870.5 c 1.49039,-2.38569 3.24469,-4.87946 4.40625,-7.53125 1.16156,-2.65179 1.71393,-5.48536 0.8125,-8.5 -0.55995,-1.87058 -2.02966,-4.58003 -3.65625,-7.3125 -1.62659,-2.73247 -3.41037,-5.45763 -4.5,-7.25 L 96.65625,822.875 c -1.84723,-3.05601 -3.75146,-6.79938 -7.0625,-8.84375 -3.207123,-1.98126 -6.548273,-2.01263 -10.125,-1.875 l -0.03125,0 -39.90625,0 -0.03125,0 -0.03125,0 z m 0.0625,0.65625 39.9375,0 c 3.569346,-0.13834 6.731118,-0.10302 9.78125,1.78125 3.10218,1.91541 4.97874,5.53959 6.84375,8.625 l 10.375,17.03125 c 1.09912,1.80799 2.85047,4.53149 4.46875,7.25 1.61828,2.71851 3.07595,5.42647 3.59375,7.15625 0.84823,2.83674 0.34407,5.49345 -0.78125,8.0625 -1.12532,2.56905 -2.87167,5.03111 -4.375,7.4375 l -11.96875,19.5625 C 94.86152,893.78599 93.40353,896.92292 91.25,899 c -2.153527,2.07708 -5.014324,3.14687 -10.46875,3.15625 l -37.90625,0 c -2.025902,0 -4.054453,0.10613 -5.875,-0.59375 -2.83399,-1.0864 -5.752751,-4.593 -8.3125,-8.5 -2.559749,-3.907 -4.775444,-8.19081 -6.4375,-10.90625 l -8.125,-13.25 c -1.904097,-3.0458 -4.34534,-6.52913 -4.75,-9.96875 -0.534021,-4.48812 2.263893,-8.54033 4.59375,-12.40625 l 13.875,-22.6875 c 1.733865,-2.79588 2.933511,-5.13129 4.5625,-6.96875 1.611631,-1.81788 3.665787,-3.17241 7.125,-4.0625 z m 221.25,10 c -1.53312,-0.0675 -3.06335,0.0676 -5.0625,0.375 -7.23401,1.12471 -13.28977,4.02512 -17.78125,9.75 -9.78666,12.47613 -5.17574,31.05935 9.6875,37.8125 3.6689,1.67191 6.71464,2.39302 10.78125,2.4375 7.44019,0.0799 12.01557,-1.61459 17.65625,-6 l 0,4.40625 0,0.34375 0.3125,0 5.3125,0 0.0312,0 c 1.37708,-0.0254 2.36204,-0.11887 3.125,-0.40625 0.76296,-0.28738 1.26699,-0.82204 1.53125,-1.59375 0.52852,-1.54343 0.3125,-4.03359 0.3125,-8.4375 l 0,-31.53125 c 0,-0.61422 0.0364,-1.52744 -0.0312,-2.4375 -0.0676,-0.91006 -0.21536,-1.79938 -0.71875,-2.40625 -0.38771,-0.46545 -1.07139,-0.75017 -1.875,-0.9375 -0.80361,-0.18733 -1.73854,-0.28125 -2.6875,-0.28125 -0.94896,0 -1.91514,0.0939 -2.71875,0.28125 -0.80361,0.18733 -1.45605,0.47204 -1.84375,0.9375 -0.50776,0.60728 -0.6529,1.4962 -0.71875,2.40625 -0.049,0.67674 -0.0382,1.25351 -0.0312,1.8125 -3.1325,-2.72926 -5.94974,-4.54689 -10.25,-5.65625 -1.97763,-0.51062 -3.49813,-0.80754 -5.03125,-0.875 z m 121.8125,0.0312 c -1.26486,-0.0331 -2.55111,0.009 -3.8125,0.15625 -8.11685,1.26104 -14.28391,3.83539 -19.09375,10.59375 -5.8417,8.19811 -5.9224,18.02456 -1.84375,25.84375 4.07865,7.81919 12.29897,13.63208 22.96875,13.75 5.22966,0.057 8.66235,-0.40764 13.46875,-2.625 13.61239,-6.28147 18.15446,-23.60331 10.4375,-35.71875 -4.62384,-7.26482 -13.27098,-11.76834 -22.125,-12 z M 149.25,823 c -8.66965,1.51531 -15.75177,4.79022 -20.25,12.5 -9.55193,16.38255 2.1044,37.46435 22.3125,37.6875 5.09064,0.0507 9.45308,-0.58782 14.09375,-2.8125 l 0,0.0312 c 14.8917,-7.11777 17.77728,-26.88302 7.65625,-38.71875 -5.49001,-6.4273 -15.23435,-9.72245 -23.78125,-8.6875 l -0.0312,0 z m 62.6875,0.0312 c -7.28959,0.0557 -14.35838,2.5806 -19.5,8 -11.31686,11.94611 -8.16112,32.27573 7.28125,39.59375 9.92818,4.70489 20.6335,2.99898 29.59375,-2.53125 l 0.25,-0.15625 -0.125,-0.25 -4,-8.21875 -0.125,-0.25 -0.28125,0.0937 c -2.46524,0.98902 -4.28388,2.23834 -6.21875,3.1875 -1.93487,0.94916 -3.9703,1.63272 -6.9375,1.46875 -9.36371,-0.51219 -14.82234,-7.17265 -15.5625,-14.28125 -0.74016,-7.1086 3.20323,-14.668 12.9375,-17.03125 3.50715,-0.85113 6.01543,-0.29343 8.375,0.75 2.35957,1.04343 4.57695,2.61075 7.40625,3.8125 l 0.28125,0.125 0.125,-0.28125 c 0.32918,-0.72394 1.18563,-2.30041 1.9375,-3.84375 0.37594,-0.77167 0.74749,-1.5587 1,-2.21875 0.25251,-0.66005 0.42318,-1.1775 0.375,-1.625 -0.0942,-0.83767 -0.6246,-1.56501 -1.34375,-2.1875 -0.71915,-0.62249 -1.66205,-1.1681 -2.65625,-1.625 -1.9884,-0.91381 -4.23426,-1.50275 -5.53125,-1.78125 -2.41892,-0.51548 -4.85139,-0.76855 -7.28125,-0.75 z m 48.8125,0.4375 c 1.4789,0.0649 2.95211,0.3392 4.90625,0.84375 4.44829,1.14755 7.17811,2.93343 10.5,5.90625 l 0.53125,0.5 0,-0.71875 c 0.004,-0.64288 -0.0309,-1.54765 0.0312,-2.40625 0.0621,-0.8586 0.26326,-1.66723 0.59375,-2.0625 0.21104,-0.25336 0.76184,-0.54667 1.5,-0.71875 0.73816,-0.17208 1.65535,-0.25 2.5625,-0.25 0.90715,0 1.79309,0.0779 2.53125,0.25 0.73816,0.17208 1.32021,0.46539 1.53125,0.71875 0.3282,0.39568 0.49872,1.20391 0.5625,2.0625 0.0638,0.85859 0.0312,1.73445 0.0312,2.375 l 0,31.53125 c 0,4.4236 0.18447,6.94998 -0.25,8.21875 -0.21723,0.63438 -0.53398,0.95311 -1.15625,1.1875 -0.62227,0.23439 -1.58363,0.34999 -2.9375,0.375 l -5,0 0,-4.71875 0,-0.6875 -0.5,0.4375 c -5.83502,4.65878 -10.20008,6.30019 -17.78125,6.21875 -3.99649,-0.0437 -6.8908,-0.69904 -10.5,-2.34375 -14.50192,-6.58899 -19.00161,-24.69116 -9.46875,-36.84375 4.38326,-5.58696 10.25241,-8.39261 17.375,-9.5 1.97918,-0.30427 3.4586,-0.43995 4.9375,-0.375 z m 121.8125,0 c 8.64196,0.2311 17.13293,4.66096 21.625,11.71875 7.5045,11.78188 3.06385,28.66638 -10.1875,34.78125 -4.7336,2.18378 -7.96773,2.61903 -13.15625,2.5625 -10.43933,-0.11537 -18.43177,-5.75552 -22.40625,-13.375 -3.97448,-7.61948 -3.95079,-17.18714 1.75,-25.1875 4.70356,-6.60902 10.65153,-9.09527 18.6875,-10.34375 l 0,0.0312 c 1.23006,-0.1432 2.45293,-0.22051 3.6875,-0.1875 z m -233.21875,0.1875 c 0.0102,-10e-4 0.0211,10e-4 0.0312,0 8.31732,-0.99641 17.87995,2.25507 23.1875,8.46875 9.85047,11.51933 7.06258,30.75691 -7.4375,37.6875 -4.54009,2.17646 -8.77768,2.76892 -13.8125,2.71875 -19.7615,-0.21821 -31.06521,-20.7422 -21.75,-36.71875 4.38451,-7.51487 11.22161,-10.65542 19.78125,-12.15625 z m 62.59375,0 c 2.37882,-0.0175 4.78188,0.24401 7.15625,0.75 1.25766,0.27006 3.48783,0.86836 5.40625,1.75 0.95921,0.44082 1.82138,0.97089 2.46875,1.53125 0.64737,0.56036 1.05615,1.13744 1.125,1.75 0.0183,0.17042 -0.10334,0.71534 -0.34375,1.34375 -0.24041,0.62841 -0.56584,1.3621 -0.9375,2.125 -0.68358,1.40315 -1.41638,2.73297 -1.8125,3.5625 -2.6061,-1.15248 -4.77723,-2.61804 -7.125,-3.65625 -2.44205,-1.0799 -5.14337,-1.6641 -8.78125,-0.78125 -10.00439,2.42882 -14.20751,10.32345 -13.4375,17.71875 0.77001,7.3953 6.53105,14.31555 16.1875,14.84375 3.08014,0.17021 5.2581,-0.52287 7.25,-1.5 1.91192,-0.93789 3.68656,-2.12093 5.9375,-3.0625 l 3.65625,7.625 c -8.7592,5.31105 -19.07449,6.96179 -28.6875,2.40625 -15.05375,-7.13386 -18.11677,-26.95782 -7.09375,-38.59375 5.00713,-5.27764 11.8948,-7.75998 19.03125,-7.8125 z m -138.46875,6.625 -27.125,0.375 -0.09375,0 -0.09375,0.0625 c -2.442411,1.55633 -3.330266,3.77612 -4.75,6.03125 l -8.125,13.25 c -0.565844,0.91046 -1.503086,2.29796 -2.28125,3.71875 -0.778164,1.42079 -1.404315,2.85458 -1.34375,4.03125 0.03691,0.73077 0.488796,1.78901 1.15625,3.125 0.667454,1.33599 1.561819,2.91754 2.5,4.5 1.876361,3.16491 3.9254,6.34427 4.75,7.65625 0.739562,1.17649 2.198041,3.84682 3.75,6.34375 0.775979,1.24846 1.586098,2.4749 2.34375,3.4375 0.757652,0.9626 1.43726,1.68011 2.125,1.96875 0.611901,0.25735 1.439894,0.3405 2.28125,0.375 0.841356,0.0345 1.690462,0 2.28125,0 l 21.96875,0 c 1.599769,0 3.780887,0.15304 5.34375,-0.6875 2.031053,-1.10584 3.474825,-3.99833 4.53125,-5.75 0.0038,-0.006 -0.0038,-0.0249 0,-0.0312 L 90.75,865.46875 c 0.69334,-1.14688 1.81269,-2.70787 2.65625,-4.3125 0.84356,-1.60463 1.45607,-3.28567 1.0625,-4.78125 l 0,-0.0312 -0.0312,-0.0312 L 84,838.65625 c -0.455243,-0.74499 -1.33055,-2.31498 -2.25,-3.8125 -0.459725,-0.74876 -0.948138,-1.48524 -1.375,-2.09375 -0.426862,-0.60851 -0.786022,-1.0953 -1.125,-1.375 -1.627557,-1.34287 -3.959173,-1.08754 -5.78125,-1.09375 z m 0,0.65625 c 1.876843,0.006 4.022137,-0.17873 5.375,0.9375 0.226507,0.1869 0.585914,0.6597 1,1.25 0.414086,0.5903 0.887892,1.28879 1.34375,2.03125 0.911715,1.48492 1.780513,3.0442 2.25,3.8125 l 10.40625,17.59375 c 0.31827,1.20942 -0.18536,2.76288 -1,4.3125 -0.81464,1.54962 -1.90796,3.0639 -2.625,4.25 l -8.09375,13.25 c -1.084499,1.794 -2.567557,4.5982 -4.28125,5.53125 -1.297797,0.69798 -3.397799,0.625 -5.03125,0.625 l -21.96875,0 c -0.606702,0 -1.438156,0.002 -2.25,-0.0312 -0.811844,-0.0333 -1.609971,-0.12217 -2.0625,-0.3125 -0.44655,-0.18741 -1.142855,-0.85106 -1.875,-1.78125 -0.732145,-0.93019 -1.512132,-2.13758 -2.28125,-3.375 -1.538236,-2.47485 -2.979402,-5.11789 -3.75,-6.34375 -0.83194,-1.32366 -2.913789,-4.50635 -4.78125,-7.65625 -0.933731,-1.57495 -1.813351,-3.15689 -2.46875,-4.46875 -0.655399,-1.31186 -1.070786,-2.38912 -1.09375,-2.84375 -0.04588,-0.89148 0.553884,-2.33365 1.3125,-3.71875 0.758616,-1.3851 1.671574,-2.72554 2.25,-3.65625 l 8.09375,-13.25 c 1.445432,-2.29595 2.294371,-4.33745 4.53125,-5.78125 l 27,-0.375 z m 76.4375,0.8125 c -9.55197,1.76975 -14.24262,8.50444 -14.59375,15.40625 -0.35113,6.90181 3.63188,13.9699 11.25,16.46875 2.43437,0.79766 6.92611,0.95696 9.4375,0.59375 11.70333,-1.68472 16.70158,-15.10837 11.3125,-24.3125 -3.69462,-6.30436 -10.05945,-8.84578 -17.375,-8.15625 l -0.0312,0 z m 107.125,0 c -9.48571,2.01845 -13.98881,8.7629 -14.25,15.59375 -0.26119,6.83085 3.67208,13.77626 10.875,16.28125 2.55757,0.88749 7.48911,0.97251 10.125,0.53125 12.01865,-2.0003 16.45081,-16.46188 10.21875,-25.5312 -3.84074,-5.59536 -10.26189,-7.55815 -16.9375,-6.875 l -0.0312,0 z m 61.1875,0 c -9.15643,1.69731 -13.85928,8.19331 -14.40625,14.96875 -0.54697,6.77544 3.05463,13.85121 10.375,16.6875 2.71527,1.0504 7.28293,1.2056 10.125,0.8125 11.32401,-1.55714 16.61618,-14.51061 11.78125,-23.65625 -3.5466,-6.71638 -10.23106,-9.52763 -17.84375,-8.8125 l -0.0312,0 z m 60.5625,0 -0.0312,0.0312 c -9.5773,2.17189 -14.05376,9.15272 -14.125,16.125 -0.0712,6.97228 4.24667,13.92922 12.125,16.125 2.0439,0.45776 6.65423,0.45215 8.78125,0 l 0,0.0312 c 11.43384,-1.80078 16.69916,-14.94523 11.1875,-24.15625 -3.84343,-6.42612 -10.48306,-8.93489 -17.9375,-8.15625 z M 150,832.375 c 0.0109,-10e-4 0.0204,10e-4 0.0312,0 7.11999,-0.66197 13.15403,1.79231 16.71875,7.875 5.16216,8.81657 0.40484,21.72449 -10.84375,23.34375 -2.37171,0.34301 -6.93372,0.16574 -9.15625,-0.5625 -7.33722,-2.40671 -11.11868,-9.21111 -10.78125,-15.84375 0.33705,-6.62521 4.75069,-13.08045 14.03125,-14.8125 z m 168.3125,0 c 0.0109,-10e-4 0.0204,10e-4 0.0312,0 7.40854,-0.6864 13.76702,1.99121 17.1875,8.46875 4.62523,8.74898 -0.44299,21.25536 -11.3125,22.75 -2.71961,0.37616 -7.31203,0.18605 -9.8125,-0.78125 -7.04953,-2.73135 -10.46329,-9.51815 -9.9375,-16.03125 0.52517,-6.50551 4.95873,-12.74668 13.84375,-14.40625 z m -61.1875,0.0312 c 0.0106,-10e-4 0.0206,10e-4 0.0312,0 6.49828,-0.65679 12.62837,1.22655 16.3125,6.59375 5.96904,8.68656 1.76408,22.57843 -9.78125,24.5 -2.48671,0.41628 -7.50027,0.30235 -9.8125,-0.5 -6.92083,-2.40688 -10.68858,-9.05854 -10.4375,-15.625 0.2508,-6.55917 4.46713,-12.9945 13.6875,-14.96875 z m 121.75,0 c 0.0108,-10e-4 0.0204,10e-4 0.0312,0 7.26102,-0.74939 13.54146,1.64317 17.25,7.84375 5.27906,8.8223 0.26711,21.42603 -10.71875,23.15625 l -0.0312,0 c -1.91452,0.41321 -6.66588,0.41078 -8.5,0 -7.59592,-2.11708 -11.72472,-8.79911 -11.65625,-15.5 0.0684,-6.69359 4.31647,-13.37661 13.625,-15.5 z m -25.53125,50.2188 c -2.09065,-0.0247 -4.0753,0.71082 -5.65625,2 -3.1619,2.57836 -4.81354,7.29454 -3.21875,12.28125 1.30276,4.0769 4.33995,5.89831 7.28125,6.375 1.47065,0.23834 2.89931,0.16402 4.125,-0.125 1.22569,-0.28902 2.25219,-0.75323 2.84375,-1.375 0.90991,-0.95454 1.11504,-2.73945 1.1875,-4.5625 0.0725,-1.82305 -0.0312,-3.71382 -0.0312,-4.8125 l 0,-0.3125 -0.34375,0 c -1.57595,0 -2.92844,-0.21183 -4.125,0.0312 -1.19656,0.24308 -2.18809,1.00084 -2.8125,2.6875 l -0.1875,0.4375 0.46875,0 4.3125,0 c -0.009,1.07131 0.0101,2.45913 -0.34375,3.25 -0.62547,1.38905 -1.78644,1.85164 -3.125,1.8125 -1.33856,-0.0391 -2.82771,-0.65878 -3.8125,-1.5 -3.35562,-2.85576 -3.41704,-8.72645 0,-11.5625 1.06621,-0.88422 2.23474,-1.28835 3.65625,-1.3125 1.48898,-0.0235 3.59916,0.69554 5.21875,1.09375 l 0.25,0.0625 0.125,-0.21875 0.65625,-1.25 0.125,-0.21875 -0.1875,-0.1875 c -2.1013,-1.78338 -4.3156,-2.56909 -6.40625,-2.59375 z m -151.15625,0.0625 c -2.54548,0.25667 -5.06621,1.67554 -6.5625,3.875 -2.53174,3.72973 -2.53174,9.20777 0,12.9375 1.69573,2.49212 4.17133,3.82339 6.71875,3.9375 2.54742,0.11411 5.15489,-0.98306 7.09375,-3.25 l 0.40625,-0.46875 -0.625,-0.0625 c -1.78203,-0.17449 -3.49253,0.25988 -5.09375,0.40625 -1.60122,0.14637 -3.05468,0.0381 -4.4375,-1.21875 -1.68178,-1.52854 -2.47837,-4.21777 -2.21875,-6.75 0.25962,-2.53223 1.54022,-4.86989 3.875,-5.78125 2.15866,-0.8421 4.17505,0.0607 6.40625,0.71875 l 0.1875,0.0625 0.125,-0.125 0.6875,-0.625 0.1875,-0.1875 -0.125,-0.21875 c -1.48086,-2.55338 -4.07952,-3.50667 -6.625,-3.25 z m 125.9375,0.15625 c -1.45424,-0.2385 -2.96202,-0.12226 -4.5625,0.1875 l -0.0312,0 -0.0312,0.0312 c -5.55113,2.22792 -7.23311,8.13168 -6,13 0.61655,2.43416 1.93412,4.63546 3.90625,6 1.97213,1.36454 4.59146,1.87694 7.625,0.96875 3.65435,-1.09427 5.68149,-4.55621 6.1875,-8.25 0.50601,-3.69379 -0.4764,-7.68087 -2.96875,-9.9375 -1.28369,-1.16121 -2.67076,-1.7615 -4.125,-2 z m -51.125,0.125 -0.0312,0.0312 -0.0312,0 c -2.98492,1.00945 -4.94772,2.99484 -6,5.34375 -1.05228,2.34891 -1.21985,5.03761 -0.625,7.5 0.59485,2.46239 1.93968,4.71989 3.90625,6.125 1.96657,1.40511 4.56411,1.9525 7.5625,1.0625 2.37562,-0.70557 4.14524,-2.4811 5.21875,-4.65625 1.07351,-2.17515 1.4743,-4.76515 1.15625,-7.21875 -0.31805,-2.4536 -1.36534,-4.77112 -3.21875,-6.34375 -1.85341,-1.57263 -4.49829,-2.38326 -7.9375,-1.84375 z m 105.71875,0.125 -0.65625,0.1875 -2.21875,0.625 -0.15625,0.0312 -0.0625,0.125 -4.09375,8.25 c -0.78279,-1.56471 -1.47258,-3.44486 -2.4375,-5.15625 -1.06904,-1.89606 -2.50898,-3.53023 -4.84375,-3.90625 l -0.53125,-0.0625 0.15625,0.5 c 1.38576,4.61121 2.92878,6.4527 4.0625,8.53125 1.13372,2.07855 1.90625,4.4249 1.90625,10.28125 l 0,0.3125 0.34375,0 2.65625,0 0.28125,0 0.0312,-0.3125 0.40625,-7.4375 4.90625,-11.34375 0.25,-0.625 z m -137.9375,0.0937 0,0.40625 0,18.90625 0,0.3125 0.34375,0 2.65625,0 0.3125,0 0,-0.3125 0,-14 5.53125,9.125 0,0.0312 3.46875,4.40625 0.0625,0.0937 0.125,0 3.0625,0.65625 0.40625,0.0937 0,-0.40625 0,-18.90625 0,-0.34375 -0.34375,0 -2.65625,0 -0.3125,0 0,0.34375 0,13.96875 -5.21875,-8.46875 0,-0.0312 -3.78125,-5.03125 -0.0625,-0.0937 -0.125,-0.0312 -3.0625,-0.65625 -0.40625,-0.0625 z m -97.125,0.0625 0,0.34375 0,1.875 0,0.3125 0.3125,0 6.34375,0 0,16.71875 0,0.3125 0.3125,0 2.65625,0 0.34375,0 0,-0.3125 0,-16.71875 5.65625,0 0.3125,0 0,-0.3125 0,-1.875 0,-0.34375 -0.3125,0 -15.3125,0 -0.3125,0 z m 24.625,0 0,0.34375 0,18.90625 0,0.3125 0.3125,0 12.65625,0 0.3125,0 0,-0.3125 0,-1.90625 0,-0.3125 -0.3125,0 -9.65625,0 0,-6.28125 7.65625,0 0.3125,0 0,-0.34375 0,-1.875 0,-0.34375 -0.3125,0 c -3.3274,0 -5.30414,0.1011 -6.3125,-0.53125 -0.50418,-0.31618 -0.81281,-0.79673 -1.03125,-1.65625 -0.20036,-0.78838 -0.26226,-1.99349 -0.28125,-3.46875 l 8.9375,0 0.34375,0 0,-0.3125 0,-1.875 0,-0.34375 -0.34375,0 -11.96875,0 -0.3125,0 z m 46.5625,0 0,0.34375 0,18.90625 0,0.3125 0.3125,0 2.65625,0 0.34375,0 0,-0.3125 0,-8.5 8.65625,0 0,8.5 0,0.3125 0.3125,0 2.6875,0 0.3125,0 0,-0.3125 0,-18.90625 0,-0.34375 -0.3125,0 -2.6875,0 -0.3125,0 0,0.34375 0,7.21875 -8.65625,0 0,-7.21875 0,-0.34375 -0.34375,0 -2.65625,0 -0.3125,0 z m 79.15625,0 0,0.34375 0,18.90625 0,0.3125 0.34375,0 11.3125,0 0.3125,0 0,-0.3125 0,-1.90625 0,-0.3125 -0.3125,0 -8.34375,0 0,-16.6875 0,-0.34375 -0.3125,0 -2.65625,0 -0.34375,0 z m 55.3125,0 c 1.86583,0.0209 3.84497,0.76905 5.78125,2.34375 l -0.375,0.75 c -1.53993,-0.39746 -3.55439,-1.0883 -5.1875,-1.0625 -1.54561,0.0263 -2.86214,0.49919 -4.03125,1.46875 -3.75458,3.11621 -3.68296,9.42816 0,12.5625 1.10418,0.9432 2.66871,1.61184 4.1875,1.65625 1.51879,0.0444 3.01831,-0.59383 3.75,-2.21875 0.50361,-1.12561 0.42439,-2.75028 0.4375,-3.8125 l 0,-0.34375 -0.34375,0 -4.0625,0 c 0.53478,-1.10491 1.17247,-1.63169 2.0625,-1.8125 0.94996,-0.19298 2.22893,-0.0836 3.6875,-0.0625 0.0137,1.15551 0.0972,2.80907 0.0312,4.46875 -0.0706,1.77574 -0.35317,3.44645 -1,4.125 -0.44627,0.46906 -1.35752,0.94935 -2.5,1.21875 -1.14248,0.2694 -2.52704,0.34852 -3.90625,0.125 -2.75842,-0.44705 -5.54932,-2.08226 -6.78125,-5.9375 -1.51869,-4.74876 0.11387,-9.1893 3.0625,-11.59375 1.47432,-1.20222 3.25283,-1.89665 5.1875,-1.875 z m -151.0625,0.0937 c 2.27177,-0.22907 4.47647,0.55423 5.84375,2.71875 l -0.3125,0.3125 c -2.12547,-0.64184 -4.28062,-1.58299 -6.65625,-0.65625 -2.60819,1.01808 -4.00366,3.60498 -4.28125,6.3125 -0.27759,2.70752 0.52217,5.56884 2.40625,7.28125 1.53773,1.39768 3.231,1.55939 4.90625,1.40625 1.32963,-0.12154 2.6608,-0.30685 3.96875,-0.34375 -1.70401,1.58781 -3.71553,2.49738 -5.75,2.40625 -2.344,-0.105 -4.62803,-1.31847 -6.21875,-3.65625 -2.36468,-3.48361 -2.36468,-8.70389 0,-12.1875 1.37769,-2.02513 3.74615,-3.35703 6.09375,-3.59375 z m 125.78125,0.125 c 1.34656,0.21706 2.58347,0.76025 3.78125,1.84375 2.27101,2.05624 3.26317,5.85703 2.78125,9.375 -0.48192,3.51797 -2.39237,6.71333 -5.75,7.71875 -2.87408,0.86046 -5.24507,0.3825 -7.0625,-0.875 -1.81743,-1.2575 -3.07199,-3.31832 -3.65625,-5.625 -1.16526,-4.60046 0.37129,-10.10792 5.5625,-12.21875 1.55957,-0.30185 2.99719,-0.43581 4.34375,-0.21875 z m -50.9375,0.15625 c 3.29336,-0.51663 5.73232,0.24065 7.4375,1.6875 1.70518,1.44685 2.66726,3.61164 2.96875,5.9375 0.30149,2.32586 -0.0827,4.7951 -1.09375,6.84375 -1.01108,2.04865 -2.63432,3.66557 -4.8125,4.3125 -2.83272,0.84082 -5.18512,0.32799 -7,-0.96875 -1.81488,-1.29674 -3.06144,-3.38591 -3.625,-5.71875 -0.56356,-2.33284 -0.42325,-4.89335 0.5625,-7.09375 0.97729,-2.18153 2.78098,-4.03836 5.5625,-5 z m -128.78125,0.28125 14.65625,0 0,1.25 -5.6875,0 -0.3125,0 0,0.3125 0,16.6875 -2,0 0,-16.6875 0,-0.3125 -0.34375,0 -6.3125,0 0,-1.25 z m 24.59375,0 11.34375,0 0,1.25 -9,0 -0.3125,0 0,0.3125 c 0.007,1.70507 0.10024,2.9793 0.34375,3.9375 0.24351,0.9582 0.65411,1.61837 1.3125,2.03125 1.26149,0.79109 3.24288,0.66761 6.3125,0.65625 l 0,1.25 -7.65625,0 -0.3125,0 0,0.3125 0,6.9375 0,0.34375 0.3125,0 9.65625,0 0,1.21875 -12,0 0,-18.25 z m 46.59375,0 2,0 0,7.25 0,0.3125 0.3125,0 9.3125,0 0.34375,0 0,-0.3125 0,-7.25 2,0 0,18.25 -2,0 0,-8.5 0,-0.3125 -0.34375,0 -9.3125,0 -0.3125,0 0,0.3125 0,8.5 -2,0 0,-18.25 z m 38.5625,0 2.03125,0 0,18.1875 -2.59375,-0.53125 -3.34375,-4.28125 0,-0.0312 -6.09375,-10.0625 -0.625,-0.96875 0,1.15625 0,14.78125 -2,0 0,-18.15625 2.5625,0.5 3.6875,4.9375 5.78125,9.4375 0.59375,1 0,-1.15625 0,-14.8125 z m 40.59375,0 2,0 0,16.6875 0,0.34375 0.34375,0 8.3125,0 0,1.21875 -10.65625,0 0,-18.25 z m 82.90625,0.1875 -4.59375,10.71875 -0.0312,0.0312 0,0.0625 -0.40625,7.25 -2.0625,0 c -0.0411,-5.59749 -0.82567,-8.15429 -1.96875,-10.25 -1.09074,-1.99974 -2.4411,-3.82544 -3.71875,-7.6875 1.6538,0.52525 2.85506,1.66273 3.75,3.25 1.02491,1.81779 1.74675,4.00334 2.6875,5.71875 l 0.3125,0.5625 0.25,-0.5625 4.375,-8.71875 1.40625,-0.375 z m -101.5,1.15625 c -1.00688,-0.0691 -2.05234,0.084 -3.0625,0.28125 l -0.0312,0 -0.0625,0.0312 c -3.84309,2.12119 -4.7971,6.55605 -3.8125,10.125 0.4923,1.78447 1.46994,3.38612 2.84375,4.375 1.37381,0.98888 3.14205,1.365 5.125,0.71875 2.78842,-0.9134 4.12258,-3.92027 4.34375,-6.9375 0.22117,-3.01723 -0.59976,-6.13369 -2.4375,-7.53125 -0.92152,-0.69939 -1.89937,-0.99337 -2.90625,-1.0625 z m 44.125,0.28125 -0.0625,0.0312 c -2.04708,1.08768 -3.31953,2.75753 -3.90625,4.65625 -0.58672,1.89872 -0.4961,4.01833 0.125,6.0625 0.4437,1.46028 1.4023,2.85938 2.6875,3.78125 1.2852,0.92187 2.93588,1.37052 4.65625,0.875 1.75982,-0.50676 3.07344,-1.87546 3.90625,-3.5625 0.83281,-1.68704 1.18995,-3.71349 1,-5.625 -0.18995,-1.91151 -0.92714,-3.72563 -2.3125,-4.9375 -1.38536,-1.21187 -3.42107,-1.78552 -6.0625,-1.28125 l -0.0312,0 z M 280,885.875 c 0.9091,0.0586 1.74766,0.31907 2.5625,0.9375 1.52854,1.16241 2.42835,4.14064 2.21875,7 -0.2096,2.85936 -1.45897,5.54209 -3.90625,6.34375 -1.8091,0.5896 -3.33821,0.25625 -4.5625,-0.625 -1.22429,-0.88125 -2.13388,-2.33308 -2.59375,-4 -0.91617,-3.3209 -0.0449,-7.40772 3.46875,-9.375 0.96931,-0.18741 1.92297,-0.33855 2.8125,-0.28125 z m 44.40625,0.28125 c 2.45692,-0.45235 4.21974,0.091 5.4375,1.15625 1.22958,1.0756 1.91614,2.71263 2.09375,4.5 0.17761,1.78737 -0.13284,3.71452 -0.90625,5.28125 -0.77341,1.56673 -1.98466,2.7734 -3.53125,3.21875 -1.5195,0.43767 -2.9374,0.0482 -4.09375,-0.78125 -1.15635,-0.82945 -2.0363,-2.11712 -2.4375,-3.4375 -0.58969,-1.94082 -0.66592,-3.93699 -0.125,-5.6875 0.53693,-1.73758 1.68303,-3.23818 3.5625,-4.25 z"
       id="Zaznaczenie"
       inkscape:connector-curvature="0" />
  </g>
</svg>
